<svg width="30" height="60" viewBox="0 0 30 60" fill="none" xmlns="http://www.w3.org/2000/svg">
<g clip-path="url(#clip0_3026_186668)">
<path d="M23.5095 19.1834C22.5383 19.5762 21.0285 21.0741 20.395 21.7739C20.6864 22.2839 20.9877 22.8153 21.2887 23.3578C20.8693 23.1941 19.1918 22.8667 18.3763 22.8667C17.5608 22.8667 16.0878 23.1941 15.1358 23.3578C15.079 22.1803 15.0215 21.1284 15 20.4111C15.8034 20.2474 17.5612 19.92 18.1648 19.92C18.7684 19.92 19.2625 20.0381 19.4342 20.0971C19.2499 19.774 19.077 19.4682 18.9192 19.1834C19.5846 18.5285 21.1267 17.0716 21.973 16.4822C22.8193 15.8929 24.2238 15.5819 24.8203 15.5C25.2072 16.4267 25.6055 17.4114 26 18.4467C25.5745 18.5285 24.4806 18.7905 23.5095 19.1834Z" fill="#789CB9"/>
<path fill-rule="evenodd" clip-rule="evenodd" d="M10.8108 49.9383C10.2046 50.5229 9.44188 51.2584 9.77249 52.2326C10.0112 52.936 10.7566 53.3284 11.5381 53.7398C12.2294 54.1037 12.9491 54.4826 13.3714 55.1048C13.8213 55.7676 13.99 56.2647 14.1306 56.679C14.2712 57.0932 14.3836 57.4246 14.721 57.756C15.0308 58.0603 16.678 58.0022 17.2465 57.9821C17.3307 57.9791 17.3912 57.977 17.4202 57.977C18.5449 57.977 19.2197 57.0932 18.5449 57.0932C17.8701 57.0932 16.5205 56.4304 16.2956 55.9885C15.8148 55.044 15.4845 53.5007 15.2417 52.3664C15.1253 51.8226 15.0291 51.3728 14.946 51.1279C14.8499 50.8448 14.9179 49.6752 15.0975 48.2557C15.3385 46.3516 15.7801 43.9981 16.2956 42.7323C16.7195 41.6914 17.2433 39.5224 17.7493 37.427C17.9236 36.705 18.0959 35.9918 18.2612 35.3365C20.9966 34.3779 23.6369 33.4374 24.288 33.0111C24.7415 32.714 25.4492 32.4716 26.2174 32.2084C27.2779 31.8451 28.4538 31.4423 29.2365 30.8017C30.3611 29.697 29.9113 28.3714 29.9113 28.3714C29.9113 28.3714 29.7252 27.7871 29.4118 26.8248C29.2824 26.3032 29.1428 25.7875 28.9946 25.2783C28.2787 22.8184 27.3622 20.5103 26.4252 18.4292C25.9728 18.5028 24.8099 18.7385 23.7774 19.092C22.7448 19.4455 21.1397 20.7932 20.4661 21.4229C20.776 21.8817 21.0963 22.3598 21.4163 22.8479C20.9704 22.7007 19.187 22.4061 18.32 22.4061C17.6639 22.4061 16.6076 22.5747 15.6939 22.7206C15.4001 22.7675 15.121 22.8121 14.8747 22.8479C14.9789 24.675 15.0806 26.8379 14.9789 28.3714C14.9354 29.0272 14.8547 29.5679 14.7211 29.9179C14.7031 29.965 14.6553 30.0642 14.5842 30.2117C14.3551 30.6872 13.8843 31.6641 13.3925 33.0118L13.3234 33.0625C12.4662 33.692 11.619 34.3142 10.8971 34.8026C10.7409 34.9083 10.5906 35.0077 10.4473 35.0995C10.0497 35.3544 9.70634 35.5511 9.4422 35.6623C8.65492 35.9937 8.26129 35.6623 7.86766 35.3309C7.47403 34.9995 7.0804 34.6681 6.29316 34.9995C5.11513 35.4954 5.07028 36.4861 5.02817 37.4162C5.014 37.7292 5.00014 38.0354 4.9435 38.3136C4.71857 39.4182 3.36901 40.0811 2.46927 40.5229C1.56953 40.9648 0.669789 44.7207 1.11966 44.9417C1.40643 45.0825 1.69321 44.6847 2.03825 44.206C2.23448 43.9338 2.44956 43.6354 2.6942 43.3951C3.23405 42.8649 4.34972 42.3346 5.46539 41.8044C5.74431 41.6718 6.02324 41.5392 6.29316 41.4067C6.99666 41.0612 7.94462 40.3555 8.91405 39.6338C9.53733 39.1699 10.1695 38.6993 10.7513 38.3136C11.0005 38.1483 11.2406 37.9986 11.4667 37.8717C11.5528 37.8234 11.6638 37.7684 11.7969 37.7076C11.9033 37.659 12.0239 37.6066 12.1572 37.5508C11.8727 39.1318 11.7113 40.8834 11.7969 42.7323C11.9083 45.1396 11.9093 46.6256 11.8274 47.5929C11.7439 48.5788 11.5741 49.0259 11.347 49.3604C11.2278 49.5361 11.0295 49.7274 10.8108 49.9383ZM24.2877 27.9294C23.6947 26.5029 22.7184 24.8605 21.7055 23.2926C21.6551 23.5148 21.6045 23.7378 21.5537 23.9613C21.1655 25.6698 20.7716 27.4036 20.4658 28.998C21.8827 28.4648 23.2663 28.0548 24.2877 27.9294Z" fill="#789CB9" fill-opacity="0.5"/>
<path fill-rule="evenodd" clip-rule="evenodd" d="M19.1457 2.69776C19.473 2.26282 20.0297 1.99694 20.6136 2.11579C21.1802 2.23114 21.8677 2.41133 22.5261 2.65845C23.1767 2.90268 23.8364 3.22602 24.3175 3.64344C24.9923 4.22893 25.773 5.04192 26.3297 5.64749C26.8421 6.20481 26.8391 7.04697 26.3562 7.61045L23.2507 11.2345C23.1201 11.3869 23.0947 11.5995 23.1826 11.7738C23.3895 12.184 23.6154 12.6236 23.8563 13.0926L23.901 13.1794C24.1583 13.6804 24.4319 14.2134 24.7151 14.7748C24.7918 14.9269 24.8693 15.0811 24.9473 15.2373C25.3892 16.1221 25.8506 17.0732 26.3096 18.0811C27.2773 20.2062 28.2357 22.5866 28.98 25.1361C29.1302 25.6507 29.2717 26.1722 29.4028 26.7C29.5544 27.166 29.6754 27.5409 29.7588 27.8002L29.8555 28.102L29.887 28.2004L29.8878 28.2031L29.8886 28.2055L29.889 28.2068L29.89 28.2098L29.896 28.2291C29.9006 28.2444 29.9065 28.2649 29.9131 28.2899C29.9263 28.34 29.9424 28.4091 29.9571 28.494C29.9865 28.6633 30.0112 28.8996 29.9947 29.1765C29.9611 29.7365 29.7574 30.4595 29.1 31.1058C29.0892 31.1164 29.078 31.1264 29.0663 31.136C28.3256 31.7428 27.2935 32.1364 26.3833 32.4544C26.23 32.508 26.0807 32.5592 25.9355 32.6089C25.6341 32.7123 25.3501 32.8096 25.0835 32.91C24.6883 33.0589 24.3775 33.1981 24.1604 33.3404C23.8175 33.5651 23.075 33.8761 22.179 34.2197C21.1239 34.6242 19.7706 35.1048 18.383 35.592C18.2454 36.1444 18.1032 36.733 17.959 37.3308L17.9462 37.3837C17.7834 38.0585 17.6181 38.7435 17.4549 39.395C17.123 40.7201 16.7906 41.9451 16.4949 42.672C16.0776 43.6974 15.6972 45.546 15.4489 47.2546C15.3259 48.1011 15.2377 48.8966 15.1938 49.5166C15.1719 49.8272 15.1615 50.0875 15.1627 50.2851C15.1638 50.4718 15.1758 50.5569 15.1786 50.5763C15.1791 50.58 15.1793 50.5813 15.179 50.5804C15.271 50.8518 15.3745 51.3367 15.4897 51.8759C15.5183 52.0099 15.5477 52.1472 15.5777 52.2855C15.735 53.0092 15.9217 53.8115 16.1514 54.4926C16.2547 54.7989 16.3635 55.0709 16.4774 55.2949C16.4733 55.2868 16.4804 55.3029 16.5187 55.3416C16.5544 55.3778 16.6058 55.4221 16.6739 55.4723C16.8103 55.5729 16.9907 55.6803 17.1918 55.7791C17.6144 55.9868 18.0277 56.1081 18.2423 56.1081C18.371 56.1081 18.527 56.1278 18.6717 56.2074C18.8342 56.2969 18.9628 56.4539 18.9978 56.6603C19.0289 56.8437 18.9755 57.0029 18.9211 57.1098C18.8644 57.2213 18.7858 57.3182 18.7034 57.3993C18.3818 57.7154 17.8107 57.9773 17.137 57.9773C17.13 57.9773 17.1033 57.9783 17.061 57.9798C16.8625 57.987 16.3201 58.0065 15.8493 57.9974C15.5452 57.9916 15.221 57.9746 14.9424 57.9336C14.8035 57.9131 14.6627 57.8849 14.5355 57.8437C14.4194 57.806 14.2604 57.741 14.1339 57.6166C13.7171 57.2069 13.5737 56.7836 13.4388 56.3856L13.4306 56.3612C13.2968 55.9666 13.1481 55.5286 12.7442 54.933C12.4018 54.4282 11.8007 54.1104 11.0802 53.7296C11.0503 53.7138 11.0202 53.6979 10.9899 53.6818C10.6332 53.493 10.2494 53.2838 9.92575 53.0277C9.59693 52.7675 9.2995 52.4358 9.14767 51.988C8.89236 51.2351 9.13859 50.5964 9.47978 50.1094C9.72553 49.7586 10.0627 49.4336 10.3224 49.1833C10.4005 49.108 10.4716 49.0394 10.5311 48.979C10.6389 48.8695 10.7108 48.7867 10.7548 48.7219C10.9094 48.4939 11.0612 48.1541 11.1402 47.2479C11.22 46.3327 11.2216 44.8943 11.1112 42.5066C11.0422 41.0143 11.1329 39.5869 11.3184 38.2626C10.6494 38.6651 9.86277 39.2511 9.0611 39.8483L8.95975 39.9238C8.0625 40.592 7.13637 41.2775 6.42242 41.6284C6.14362 41.7655 5.86508 41.8979 5.59008 42.0286C5.18666 42.2204 4.79084 42.4086 4.41292 42.6024C3.77613 42.929 3.28675 43.2253 3.01549 43.492C2.80717 43.6968 2.63497 43.936 2.45214 44.1899C2.37329 44.2995 2.29246 44.4118 2.20591 44.5252C2.08011 44.6901 1.92388 44.8799 1.74342 45.0089C1.54731 45.1491 1.23592 45.2718 0.897039 45.1052C0.725652 45.021 0.637523 44.8787 0.593951 44.7818C0.549074 44.6821 0.527469 44.5788 0.515796 44.4915C0.492263 44.3156 0.497303 44.1096 0.515987 43.9021C0.553947 43.4804 0.657804 42.9543 0.801274 42.4324C0.94487 41.9102 1.13428 41.3698 1.35207 40.9232C1.46083 40.7001 1.5822 40.489 1.71583 40.3119C1.84433 40.1416 2.01153 39.9659 2.22337 39.8618C2.67199 39.6413 3.18192 39.389 3.60795 39.0688C4.03779 38.7457 4.31071 38.4055 4.38552 38.0378C4.4316 37.8113 4.4447 37.5529 4.45891 37.2389L4.45984 37.2182C4.47311 36.9242 4.48845 36.5847 4.54966 36.2538C4.61333 35.9096 4.73061 35.5482 4.96617 35.2187C5.20485 34.8848 5.54446 34.6124 6.00774 34.4172C6.34904 34.2734 6.66502 34.219 6.96445 34.2525C7.26411 34.286 7.50418 34.4028 7.69828 34.5318C7.83934 34.6255 7.9771 34.7418 8.08632 34.8339C8.11589 34.8589 8.14337 34.8821 8.16826 34.9025C8.30208 35.0128 8.40101 35.082 8.49854 35.1228C8.61373 35.1709 8.78196 35.2041 9.10247 35.0691C9.44713 34.9239 9.98977 34.5866 10.6699 34.1172C11.3044 33.6793 12.0245 33.1507 12.7614 32.6091C13.0651 31.7898 13.3576 31.1147 13.5866 30.6151C13.7076 30.3511 13.8108 30.1362 13.8875 29.9768C13.9263 29.8962 13.957 29.8326 13.9806 29.7825C13.9923 29.7577 14.0013 29.7382 14.008 29.7232C14.0142 29.7093 14.0167 29.703 14.0172 29.7019C14.0173 29.7017 14.0172 29.7018 14.0172 29.7019C14.1118 29.454 14.1852 29.0346 14.2292 28.4617C14.341 27.0063 14.2449 24.8732 14.1404 23.0282C14.1235 22.7293 14.1063 22.4377 14.0899 22.1584C14.0554 21.5713 14.0241 21.0387 14.0048 20.6073C13.9922 20.3255 13.9844 20.0793 13.9844 19.8841C13.9844 18.5346 14.3204 15.9349 14.5147 14.6113C14.1188 14.1339 13.5928 13.25 13.2442 12.2218C12.8381 11.0242 12.6344 9.51871 13.2639 8.15728C13.8744 6.83705 15.0426 5.85053 16.0824 5.13105C16.5541 4.80463 17.0143 4.52346 17.3976 4.28926C17.4404 4.26313 17.4822 4.23759 17.523 4.21263C17.9552 3.94795 18.2188 3.77771 18.334 3.66452C18.5896 3.41319 18.9014 3.02238 19.1457 2.69776ZM15.4038 15.4662C15.2149 16.8511 14.9844 18.8161 14.9844 19.8841C14.9844 19.8865 14.9844 19.889 14.9844 19.8914C15.5112 19.725 16.1221 19.5573 16.4159 19.5071C16.8109 19.4397 17.3328 19.4424 17.8068 19.4568C17.923 19.4603 18.0363 19.4645 18.1459 19.4689C17.8105 18.955 17.5322 18.5043 17.3545 18.1551C16.6265 16.7238 15.9685 15.9996 15.4038 15.4662ZM18.8303 20.4958C18.6625 20.4912 18.4776 20.4836 18.2898 20.4758C18.1176 20.4686 17.9428 20.4614 17.7765 20.4563C17.2955 20.4417 16.8677 20.4444 16.5841 20.4929C16.3004 20.5413 15.5513 20.7528 15.0218 20.9306C15.0397 21.2755 15.0627 21.6664 15.0876 22.09C15.0935 22.1902 15.0995 22.2921 15.1056 22.3958C15.4441 22.3302 15.8389 22.2582 16.2347 22.1939C16.8745 22.0901 17.5547 22 18 22C18.5102 22 19.2838 22.0822 19.9629 22.1713C19.88 22.0478 19.7976 21.9254 19.7159 21.8044C19.5521 21.5616 19.3898 21.3222 19.232 21.0892C19.0941 20.8858 18.9596 20.6873 18.8303 20.4958ZM20.7029 23.2874C19.9658 23.1727 18.6804 23 18 23C17.6453 23 17.0387 23.0765 16.395 23.181C15.9569 23.2521 15.5191 23.3332 15.1628 23.4035C15.2569 25.1403 15.3349 27.1234 15.2262 28.5383C15.1809 29.1283 15.1002 29.6685 14.9516 30.0582C14.9259 30.1256 14.8698 30.242 14.8084 30.3692C14.8018 30.3829 14.7952 30.3967 14.7885 30.4105C14.7124 30.5686 14.6126 30.7766 14.4957 31.0317C14.4314 31.1721 14.3619 31.3267 14.2884 31.495C15.2551 30.8013 16.1638 30.1849 16.813 29.8659C17.7047 29.4276 18.7015 28.9899 19.6924 28.6072C19.6956 28.5909 19.6989 28.5745 19.7021 28.558C19.9943 27.0719 20.3566 25.476 20.712 23.9104C20.7463 23.7595 20.7804 23.6089 20.8145 23.4588C20.7773 23.4015 20.7401 23.3444 20.7029 23.2874ZM21.5698 24.6493C21.2969 25.8533 21.0269 27.057 20.7927 28.2051C21.6345 27.9156 22.4514 27.6792 23.1678 27.536C23.1298 27.4546 23.0906 27.3726 23.0504 27.29C22.641 26.4486 22.126 25.5503 21.5698 24.6493ZM19.3541 19.4827C19.4063 19.5607 19.4596 19.6401 19.5139 19.7209C19.6872 19.9784 19.8687 20.2463 20.0576 20.525C20.1032 20.5922 20.1491 20.6601 20.1955 20.7286C20.3899 20.5318 20.6145 20.3143 20.8515 20.1005C21.2927 19.7026 21.8126 19.2847 22.2764 19.0528C22.959 18.7115 24.273 18.2634 25.1623 17.9801C24.8546 17.3181 24.5471 16.6818 24.2463 16.0736C24.0218 16.1518 23.7216 16.2601 23.3888 16.3904C22.6709 16.6714 21.8389 17.0401 21.2781 17.4155C20.2587 18.0979 19.84 18.663 19.3541 19.4827ZM23.7954 15.1721C23.5796 15.2484 23.314 15.3458 23.0243 15.4592C22.2965 15.7441 21.3785 16.145 20.7219 16.5845C19.7234 17.2529 19.204 17.8534 18.7491 18.5585C18.5318 18.2155 18.3606 17.9274 18.2459 17.7017C17.2871 15.8168 16.3887 15.0034 15.748 14.4233C15.6193 14.3067 15.5009 14.1996 15.3946 14.095C15.1334 13.8383 14.5605 12.9897 14.1912 11.9007C13.8237 10.8167 13.6958 9.60588 14.1716 8.57698C14.6664 7.5069 15.6499 6.64636 16.6514 5.95337C17.0983 5.64409 17.5345 5.37758 17.9196 5.14222C17.9621 5.11626 18.0039 5.09069 18.0451 5.06547C18.4336 4.82764 18.8185 4.59044 19.035 4.37768C19.3478 4.07016 19.6974 3.62765 19.9447 3.29902C20.0718 3.13012 20.2574 3.0638 20.4141 3.09569C20.9412 3.20299 21.5761 3.37 22.1746 3.59467C22.7808 3.82223 23.3123 4.09525 23.6621 4.39876C24.2928 4.94597 25.0426 5.72497 25.5936 6.32429C25.7531 6.49782 25.76 6.76936 25.5969 6.95975L22.4913 10.5838C22.1018 11.0384 22.0177 11.6846 22.2898 12.2241C22.4985 12.638 22.7262 13.0811 22.9667 13.5493L23.0115 13.6364C23.2607 14.1215 23.5236 14.6338 23.7954 15.1721ZM25.5806 18.8965C24.7049 19.173 23.3643 19.6268 22.7236 19.9472C22.3874 20.1153 21.9508 20.4556 21.5213 20.843C21.2393 21.0973 20.9758 21.3578 20.767 21.575C20.9812 21.8939 21.1994 22.2213 21.4179 22.554C21.5349 22.7321 21.6521 22.9118 21.7688 23.0927C22.5715 24.3362 23.3601 25.6409 23.9496 26.8524C24.0949 27.151 24.2287 27.4452 24.3481 27.7325C24.408 27.8769 24.397 28.0409 24.3183 28.176C24.2397 28.311 24.1024 28.4015 23.9473 28.4206C23.0032 28.5366 21.6877 28.9231 20.3066 29.4433C19.2609 29.8371 18.1957 30.3005 17.2541 30.7633C16.395 31.1856 14.9571 32.2364 13.4749 33.3258L13.4039 33.378C12.6525 33.9302 11.9011 34.4825 11.2379 34.9402C10.5647 35.4048 9.94316 35.8 9.49072 35.9906C8.95904 36.2146 8.50974 36.2113 8.11283 36.0454C7.87346 35.9453 7.68112 35.7969 7.5325 35.6744C7.48741 35.6373 7.4472 35.6035 7.4101 35.5722C7.31091 35.4887 7.23388 35.4238 7.14486 35.3647C7.0374 35.2933 6.94792 35.2569 6.85329 35.2463C6.75841 35.2357 6.61532 35.2463 6.396 35.3387C6.08561 35.4695 5.90021 35.6316 5.77968 35.8003C5.65602 35.9732 5.57986 36.1823 5.53298 36.4357C5.48509 36.6946 5.47202 36.9716 5.45788 37.2841L5.45726 37.2978C5.44398 37.5916 5.4289 37.9253 5.36545 38.2372C5.2192 38.956 4.71846 39.485 4.20884 39.8681C3.70128 40.2497 3.11371 40.5384 2.6795 40.7518L2.66448 40.7592C2.66452 40.7592 2.66347 40.7597 2.66132 40.761C2.65918 40.7623 2.65607 40.7643 2.65202 40.7672C2.6438 40.7731 2.63259 40.782 2.61857 40.795C2.59 40.8215 2.55476 40.8603 2.51404 40.9143C2.43179 41.0233 2.34247 41.1737 2.2509 41.3615C2.06803 41.7365 1.89822 42.2148 1.76549 42.6975C1.66259 43.0718 1.58565 43.4354 1.54173 43.7409C1.5572 43.7195 1.57306 43.6975 1.58929 43.6749C1.78744 43.3997 2.04067 43.048 2.31447 42.7788C2.70638 42.3936 3.32227 42.038 3.95656 41.7127C4.34135 41.5153 4.76835 41.3121 5.18712 41.1128C5.46001 40.983 5.72939 40.8548 5.98131 40.731C6.5937 40.43 7.43602 39.8117 8.36247 39.1218C8.40543 39.0898 8.44854 39.0576 8.49179 39.0254C9.35505 38.3822 10.2713 37.6994 11.0413 37.2669C11.2199 37.1666 11.4734 37.051 11.7716 36.9261C12.9105 36.4492 14.9714 35.7275 17.057 34.9972C17.3042 34.9106 17.5516 34.8239 17.798 34.7375C19.2755 34.2194 20.7171 33.7092 21.821 33.2859C22.7496 32.9299 23.3783 32.6573 23.6122 32.504C23.9256 32.2986 24.3222 32.1282 24.7311 31.9742C25.0117 31.8685 25.3198 31.7629 25.6295 31.6567C25.7713 31.608 25.9135 31.5593 26.0535 31.5104C26.9688 31.1906 27.8296 30.849 28.4149 30.3768C28.8499 29.9411 28.975 29.4759 28.9965 29.1167C29.0075 28.9318 28.9908 28.7743 28.9719 28.6651C28.9624 28.6109 28.9526 28.5696 28.946 28.5441C28.9426 28.5314 28.9401 28.5228 28.9388 28.5185C28.9385 28.5177 28.9383 28.517 28.9382 28.5165C28.938 28.516 28.9382 28.5166 28.9382 28.5165C28.9381 28.5164 28.9378 28.5155 28.9379 28.5155L28.9362 28.5105L28.9031 28.4066L28.8067 28.1063C28.7227 27.8448 28.6002 27.4651 28.4464 26.9925C28.4427 26.9812 28.4394 26.9697 28.4365 26.9581C28.3076 26.4383 28.1683 25.9241 28.02 25.4163C27.3392 23.0839 26.4723 20.8883 25.5806 18.8965ZM12.41 37.745C12.1654 39.1978 12.0329 40.7891 12.1101 42.4604C12.2208 44.8533 12.2224 46.3485 12.1364 47.3347C12.0496 48.3299 11.8699 48.8593 11.5824 49.2832C11.4862 49.425 11.3626 49.5597 11.2438 49.6804C11.1484 49.7774 11.0529 49.8696 10.9592 49.96C10.7152 50.1957 10.4838 50.4191 10.2988 50.6832C10.0641 51.0181 9.97794 51.3226 10.0947 51.6669C10.1639 51.871 10.3086 52.0554 10.5462 52.2435C10.789 52.4355 11.096 52.6066 11.4577 52.798C11.5075 52.8244 11.5585 52.8511 11.6105 52.8784C12.2659 53.2222 13.083 53.651 13.5719 54.3718C14.0519 55.0797 14.2349 55.6193 14.3774 56.0395C14.512 56.4363 14.5918 56.6554 14.8126 56.8811C14.8196 56.884 14.8298 56.8878 14.8438 56.8924C14.8982 56.91 14.9791 56.9282 15.088 56.9443C15.3051 56.9762 15.5807 56.9921 15.8685 56.9976C16.294 57.0058 16.6531 56.9928 16.8934 56.9841C16.9991 56.9803 17.0817 56.9773 17.137 56.9773C17.2384 56.9773 17.3332 56.9678 17.4205 56.9517C17.1883 56.8754 16.9575 56.7782 16.7507 56.6766C16.5097 56.5581 16.2756 56.421 16.0805 56.2772C15.9009 56.1448 15.6966 55.9654 15.5861 55.7483C15.4429 55.4667 15.3164 55.1459 15.2039 54.8122C14.9548 54.0735 14.7582 53.2233 14.6005 52.4979C14.5655 52.3367 14.5327 52.1837 14.502 52.0402C14.3889 51.512 14.3033 51.1121 14.2319 50.9015C14.1747 50.7329 14.1639 50.4987 14.1627 50.2911C14.1613 50.0584 14.1734 49.7703 14.1963 49.446C14.2423 48.7961 14.3337 47.9755 14.4593 47.1107C14.7084 45.3968 15.1017 43.4426 15.5686 42.2951C15.833 41.6453 16.1495 40.491 16.4849 39.152C16.647 38.5048 16.8114 37.8235 16.9745 37.1474L16.9869 37.0963C17.0771 36.7222 17.167 36.35 17.2557 35.9871C15.3576 36.6519 13.5307 37.2931 12.41 37.745ZM18.2583 57.1089C18.2583 57.1089 18.2573 57.1088 18.2553 57.1085L18.2583 57.1089Z" fill="black"/>
</g>
<defs>
<clipPath id="clip0_3026_186668">
<rect width="30" height="60" fill="white"/>
</clipPath>
</defs>
</svg>
