<svg xmlns="http://www.w3.org/2000/svg" viewBox="0 0 43 38.6"><title>reggiseno_balconcino</title><g id="Livello_2" data-name="Livello 2"><g id="Livello_1-2" data-name="Livello 1"><path d="M41,16.26l.3-14.73a1.42,1.42,0,1,0-2.84-.2L37.81,14.7C28.87,14.78,24,21.27,21.5,25.13,19,21.26,14.14,14.78,5.19,14.7L4.55,1.27a1.42,1.42,0,0,0-2.83.22L2,16.26A16.2,16.2,0,0,0,2,31.89,2.73,2.73,0,0,0,3.09,33C3,34.3,3,36.39,3,37.07a1.51,1.51,0,0,0,.51,1.09,1.71,1.71,0,0,0,1.14.43h.14a26.51,26.51,0,0,0,6.6-1.52,28,28,0,0,1,9.89-1.75h.23a1,1,0,0,0,.2,0,28,28,0,0,1,9.89,1.75,26.53,26.53,0,0,0,6.6,1.52h.14a1.71,1.71,0,0,0,1.14-.43A1.51,1.51,0,0,0,40,37.07c0-.44,0-2.68-.09-4A2.62,2.62,0,0,0,41,31.94,16.23,16.23,0,0,0,41,16.26Zm-37.13.81A1,1,0,0,0,4,16.65a1,1,0,0,0,.3,0c9.06-.39,13.67,6.46,16,10.21A15.79,15.79,0,0,1,8.94,32a18.57,18.57,0,0,1-4.68-.59A.81.81,0,0,1,3.74,31,14.31,14.31,0,0,1,3.84,17.07ZM38,36.6a25.24,25.24,0,0,1-5.81-1.39,29.37,29.37,0,0,0-10.72-1.85h0a30.23,30.23,0,0,0-10.72,1.85A25.25,25.25,0,0,1,5,36.6c0-.78,0-2.07.06-3A20.88,20.88,0,0,0,8.91,34h.33a17.87,17.87,0,0,0,12.26-5.5A17.86,17.86,0,0,0,33.73,34h.33A21,21,0,0,0,38,33.6C38,34.53,38,35.82,38,36.6ZM39.24,31a.78.78,0,0,1-.5.4A18.65,18.65,0,0,1,34,32a15.77,15.77,0,0,1-11.31-5.12c2.32-3.75,6.91-10.6,16-10.21a1,1,0,0,0,.3,0,1,1,0,0,0,.15.42A14.34,14.34,0,0,1,39.24,31Z"/></g></g></svg>