<?xml version="1.0" encoding="utf-8"?>
<!-- Generator: Adobe Illustrator 25.0.1, SVG Export Plug-In . SVG Version: 6.00 Build 0)  -->
<svg version="1.1" id="Livello_1" xmlns="http://www.w3.org/2000/svg" xmlns:xlink="http://www.w3.org/1999/xlink" x="0px" y="0px"
	 viewBox="0 0 50.8 38.2" style="enable-background:new 0 0 50.8 38.2;" xml:space="preserve">
<g>
	<g>
		<path d="M35.6,38.2c-1.8,0-3.7-0.1-5.8-0.3c-0.4,0-0.7-0.3-0.9-0.7l-2-7.1c-1,0-2,0-3.1,0l-2,7.1c-0.1,0.4-0.4,0.7-0.9,0.7
			C8.4,39.3,0.9,35.8,0.6,35.6c-0.4-0.2-0.6-0.6-0.6-1L3,1.9c0-0.3,0.2-0.5,0.4-0.7S3.9,0.9,4.2,1C4.3,1,15,2.8,25.3,2.8
			c10.2,0,21-2.8,21.1-2.8C46.7,0,47,0,47.2,0.2c0.2,0.2,0.4,0.4,0.4,0.7l3.2,33.7c0,0.4-0.2,0.8-0.6,1C50,35.8,44.7,38.2,35.6,38.2
			z M30.7,36c9.7,0.9,16.1-1.1,18-1.9l-3-31.2v0l-0.1-0.7c-3.1,0.7-12,2.6-20.5,2.6c-8.5,0-17.4-1.2-20.4-1.7l-2.8,31
			c2,0.8,8.4,2.8,18,1.9l2.1-7.2c0.1-0.5,0.6-0.8,1-0.7c1.5,0.1,3,0.1,4.4,0c0.4,0,0.9,0.3,1,0.7L30.7,36z"/>
	</g>
	<g>
		<path d="M19.8,18.6c-0.2,0-0.3,0-0.5-0.1c-0.5-0.3-0.7-0.9-0.4-1.3L23,9.2l-2.9-0.4c-0.5-0.1-0.9-0.6-0.8-1.1
			c0.1-0.5,0.6-0.9,1.1-0.8l4.3,0.6c0.3,0,0.6,0.2,0.7,0.5c0.1,0.3,0.1,0.6,0,0.9L20.7,18C20.5,18.4,20.2,18.6,19.8,18.6z"/>
	</g>
	<g>
		<path d="M30.4,23.8c-0.4,0-0.8-0.2-0.9-0.6L23.6,8.8c-0.1-0.3-0.1-0.6,0.1-0.9c0.2-0.3,0.4-0.4,0.7-0.5l5.3-0.6
			c0.6-0.1,1,0.3,1.1,0.9c0.1,0.5-0.3,1-0.9,1.1l-4,0.5l5.4,13.1c0.2,0.5,0,1.1-0.5,1.3C30.7,23.7,30.6,23.8,30.4,23.8z"/>
	</g>
</g>
</svg>
