<svg width="145" height="326" viewBox="0 0 145 326" fill="none" xmlns="http://www.w3.org/2000/svg">
<g clip-path="url(#clip0_492_91333)">
<path d="M43.16 61.5404C56.9947 61.5404 68.21 50.3252 68.21 36.4904C68.21 22.6557 56.9947 11.4404 43.16 11.4404C29.3253 11.4404 18.11 22.6557 18.11 36.4904C18.11 50.3252 29.3253 61.5404 43.16 61.5404Z" fill="#646464"/>
<path d="M43.16 74.1604C53.9572 74.1604 62.71 62.0229 62.71 47.0504C62.71 32.078 53.9572 19.9404 43.16 19.9404C32.3628 19.9404 23.61 32.078 23.61 47.0504C23.61 62.0229 32.3628 74.1604 43.16 74.1604Z" fill="#BEBEBE"/>
<path d="M46.08 11.24C45.0103 11.0844 43.931 11.0042 42.85 11C28.35 11 16.43 24 15 40.56C18.2038 41.3245 21.4862 41.7105 24.78 41.71C37.21 41.71 44.78 34.25 50.78 26.35C53.61 32.23 62.67 40.8 71.29 39.65C68.86 26 58.08 12.86 46.08 11.24Z" fill="#646464"/>
<path d="M43.19 189.43C43.19 189.43 40.46 224.51 38.19 234.17C35.92 243.83 40.45 254.87 37.13 293.41C36.57 299.89 38.24 304.54 37.86 308.05C37.48 311.56 38.1 314.12 39.12 319.44C39.69 322.39 39.68 323.99 38.26 324.83C36.7317 325.416 35.1066 325.707 33.47 325.69H21.47C20.8037 325.705 20.1485 325.518 19.5917 325.151C19.0348 324.785 18.6028 324.258 18.353 323.64C18.1032 323.022 18.0476 322.343 18.1936 321.693C18.3395 321.042 18.6801 320.452 19.17 320C19.4883 319.706 19.8221 319.429 20.17 319.17C26.93 314.36 26.41 308.4 26.41 308.4C28.49 291.26 20.41 281.05 20.7 263.35C21.14 239.25 17.78 236.91 16.55 216.44C14.73 186.26 20.03 177.44 20.55 163.56C21.91 124.66 18.41 111.75 18.41 111.75C18.41 111.75 10.89 133.75 10.89 153.02C10.89 165.13 13.5 203.8 13.5 203.8L14.85 214.47C10.29 212.17 5.96 209.11 5.27 204.11C4.43 197.98 6.78 194.49 6 188.75C5.68 186.32 1.38 166.26 0.289999 151.59C-0.720001 138.15 0.999999 121.17 5 109.25C12.44 87.09 19 87.82 28.94 85.69C38.88 83.56 36.2 72 36.2 72H50.2C50.2 72 47.53 83.52 57.44 85.65C67.35 87.78 73.93 87.05 81.37 109.21C85.37 121.13 86.95 138.1 86.13 151.57C85.41 163.37 80.13 188.42 79.83 190.85C79.06 196.59 82.03 199.76 80.64 205.12C79.37 210 76.64 212.36 72.08 214.66L73.08 199.8C73.08 199.8 75.5 165.11 75.5 153C75.5 133.76 67.98 111.73 67.98 111.73C67.98 111.73 64.48 124.64 65.84 163.54C66.32 177.4 72.07 186.81 70.26 216.99C69.02 237.46 65.26 239.23 65.65 263.33C65.97 281.03 57.86 291.24 59.95 308.38C59.95 308.38 59.42 314.38 66.18 319.15C66.5298 319.406 66.8637 319.683 67.18 319.98C67.6693 320.424 68.0133 321.005 68.167 321.647C68.3207 322.289 68.2769 322.963 68.0413 323.58C67.8057 324.197 67.3894 324.729 66.8467 325.105C66.3041 325.481 65.6604 325.685 65 325.69H52.91C51.2768 325.706 49.6552 325.414 48.13 324.83C47.1912 324.325 46.4502 323.519 46.0273 322.54C45.6044 321.562 45.5243 320.47 45.8 319.44C46.8 314.12 48.9 311.56 48.52 308.05C48.14 304.54 49.82 299.89 49.26 293.41C45.93 254.87 50.46 243.83 48.19 234.17C45.92 224.51 43.19 189.43 43.19 189.43Z" fill="#BEBEBE"/>
<path d="M39.43 227.7L43.43 193.52C43.43 193.52 44.3 206.1 47 227.7H69.23C71.36 216.43 70.92 204.25 70.94 200.87C71 189.07 65.85 163.58 65.85 163.58C40.17 167.28 20.53 163.58 20.53 163.58C20.53 163.58 14.76 177.3 14.83 200.58C14.83 204.58 17.02 222.3 17.62 227.7H39.43Z" fill="#646464"/>
<path d="M69.27 183.4L69.71 186.52C70.7263 186.7 71.7288 186.951 72.71 187.27C69.28 188.5 58.49 189.89 42.71 189.89C26.93 189.89 16.12 188.5 12.71 187.27C13.6447 186.959 14.6004 186.715 15.57 186.54L15.92 183.43C10.17 184.43 8.85001 185.74 8.85001 187.27C8.85001 189.09 10.69 190.53 19.64 191.67C27.3019 192.54 35.0092 192.948 42.72 192.89C50.4309 192.948 58.1382 192.54 65.8 191.67C74.8 190.53 76.59 189.09 76.59 187.27C76.55 185.72 75.2 184.45 69.27 183.4Z" fill="#FF5923"/>
<path d="M65.55 149.41V152.46C66.745 152.685 67.9167 153.02 69.05 153.46C66.41 154.56 57.79 156.08 43.13 156.08C28.47 156.08 19.85 154.56 17.21 153.46C18.3762 153.015 19.5814 152.68 20.81 152.46V149.41C14.52 150.58 13.56 152.03 13.56 153.41C13.56 154.79 14.71 156.58 23.06 157.8C29.7242 158.664 36.4403 159.065 43.16 159C49.8671 159.054 56.5698 158.643 63.22 157.77C71.58 156.55 72.73 154.93 72.73 153.38C72.73 152 71.78 150.57 65.55 149.41Z" fill="#FF5923"/>
</g>
<circle cx="133" cy="12" r="9" fill="#FF5923"/>
<path d="M129.045 15H130.407L131.164 13.3008H134.841L135.598 15H136.955L133.791 7.99805H132.214L129.045 15ZM131.672 12.1289L133 9.15039L134.328 12.1289H131.672Z" fill="white"/>
<line x1="99.25" y1="12" x2="99.25" y2="326" stroke="black" stroke-width="0.5"/>
<line x1="99" y1="11.75" x2="121" y2="11.75" stroke="black" stroke-width="0.5"/>
<circle cx="133" cy="188" r="9" fill="#FF5923"/>
<path d="M133.161 191.161C135.046 191.161 136.35 190.248 136.667 188.783L135.441 188.5C135.236 189.447 134.426 190.004 133.21 190.004C131.657 190.004 130.637 189.086 130.637 187.514C130.637 185.976 131.618 184.994 133.234 184.994C134.348 184.994 135.188 185.453 135.432 186.322L136.628 186.063C136.301 184.672 134.987 183.837 133.22 183.837C130.92 183.837 129.377 185.258 129.377 187.553C129.377 189.818 130.876 191.161 133.161 191.161Z" fill="white"/>
<circle cx="133" cy="154" r="9" fill="#FF5923"/>
<path d="M130.139 157H133.713C135.192 157 136.198 156.121 136.198 154.905C136.198 154.09 135.744 153.523 134.899 153.294C135.632 153.04 135.993 152.449 135.993 151.722C135.993 150.638 135.202 149.998 133.635 149.998H130.139V157ZM131.379 155.843V153.865H133.698C134.431 153.865 134.938 154.188 134.938 154.827C134.938 155.447 134.465 155.843 133.708 155.843H131.379ZM131.379 152.854V151.155H133.674C134.201 151.155 134.753 151.341 134.753 151.98C134.753 152.542 134.323 152.854 133.591 152.854H131.379Z" fill="white"/>
<line x1="79" y1="187.75" x2="121" y2="187.75" stroke="black" stroke-width="0.5"/>
<line x1="77" y1="153.75" x2="121" y2="153.75" stroke="black" stroke-width="0.5"/>
<defs>
<clipPath id="clip0_492_91333">
<rect width="86.32" height="314.69" fill="white" transform="translate(0 11)"/>
</clipPath>
</defs>
</svg>
