<svg width="24" height="16" viewBox="0 0 24 16" fill="none" xmlns="http://www.w3.org/2000/svg">
<path fill-rule="evenodd" clip-rule="evenodd" d="M0 2C0 1.26362 0.596954 0.666668 1.33333 0.666668H22.6667C23.403 0.666668 24 1.26362 24 2V4.83333C24 5.56971 23.403 6.16667 22.6667 6.16667H21.7143C17.4263 6.16667 13.8782 9.55632 13.508 13.914C13.4439 14.6681 12.8288 15.3333 12 15.3333C11.1712 15.3333 10.5561 14.6681 10.492 13.914C10.1218 9.55632 6.57367 6.16667 2.28571 6.16667H1.33333C0.596953 6.16667 0 5.56971 0 4.83333V2ZM22.6667 2H1.33333V4.83333H2.28571C7.30397 4.83333 11.3949 8.7915 11.8205 13.8011C11.8257 13.8623 11.8531 13.9158 11.8901 13.9519C11.9254 13.9863 11.9632 14 12 14C12.0368 14 12.0746 13.9863 12.1099 13.9519C12.1469 13.9158 12.1743 13.8623 12.1795 13.8011C12.6051 8.7915 16.696 4.83333 21.7143 4.83333H22.6667V2Z" fill="black"/>
</svg>
