<svg width="30" height="60" viewBox="0 0 30 60" fill="none" xmlns="http://www.w3.org/2000/svg">
<g clip-path="url(#clip0_3026_186647)">
<path d="M5.76132 41.4422C4.69663 41.968 3.63195 42.4937 3.11677 43.0194C2.88331 43.2577 2.67806 43.5535 2.49079 43.8234C2.16152 44.298 1.88786 44.6925 1.61419 44.5528C1.18488 44.3338 2.0435 40.6098 2.90212 40.1717C3.76074 39.7336 5.04862 39.0764 5.26327 37.9811C5.31732 37.7053 5.33055 37.4018 5.34407 37.0914C5.38426 36.1692 5.42705 35.187 6.55125 34.6953C7.30251 34.3667 7.67815 34.6953 8.05378 35.0238C8.42942 35.3524 8.80507 35.681 9.55637 35.3524C9.80843 35.2422 10.1361 35.0471 10.5155 34.7944C10.6523 34.7034 10.7957 34.6048 10.9448 34.5C10.9448 34.8572 11.0059 35.9152 11.1595 36.2287C11.2087 36.3292 11.2542 36.4278 11.2985 36.5239C11.4473 36.8467 11.5829 37.1408 11.8035 37.3803C11.6764 37.4406 11.5705 37.4951 11.4883 37.543C11.2725 37.6688 11.0435 37.8172 10.8056 37.9811C10.2504 38.3635 9.64715 38.8301 9.05235 39.2902C8.12723 40.0057 7.22259 40.7054 6.55125 41.0479C6.29366 41.1793 6.02749 41.3108 5.76132 41.4422Z" fill="#789CB9"/>
<path d="M10.8624 49.5069C10.2839 50.0865 9.55606 50.8158 9.87156 51.7817C10.0994 52.4791 10.8107 52.8681 11.5565 53.276C12.2162 53.6369 12.903 54.0125 13.306 54.6294C13.7353 55.2866 13.8963 55.7795 14.0305 56.1902C14.1646 56.6009 14.272 56.9295 14.5939 57.2581C14.8896 57.5598 16.4615 57.5021 17.004 57.4822C17.0843 57.4793 17.1421 57.4771 17.1698 57.4771C18.2431 57.4771 18.887 56.6009 18.2431 56.6009C17.5991 56.6009 16.3112 55.9438 16.0965 55.5056C15.6377 54.5691 15.3225 53.039 15.0908 51.9143C14.9798 51.3752 14.8879 50.9292 14.8086 50.6864C14.7169 50.4057 14.7819 49.246 14.9532 47.8386C14.7272 47.888 14.2915 47.8706 13.8788 47.8542C13.6807 47.8463 13.488 47.8386 13.3262 47.8386C12.8271 47.8386 12.1225 47.4735 11.8325 47.1815C11.7528 48.1589 11.5908 48.6022 11.3741 48.9339C11.2603 49.1081 11.0711 49.2978 10.8624 49.5069Z" fill="#789CB9"/>
<path fill-rule="evenodd" clip-rule="evenodd" d="M19.1457 2.69776C19.473 2.26282 20.0297 1.99694 20.6136 2.11579C21.1802 2.23114 21.8677 2.41133 22.5261 2.65845C23.1767 2.90268 23.8364 3.22602 24.3175 3.64344C24.9923 4.22893 25.773 5.04192 26.3297 5.64749C26.8421 6.20481 26.8391 7.04697 26.3562 7.61045L23.2507 11.2345C23.1197 11.3874 23.0945 11.5991 23.1821 11.7728C23.3883 12.1816 23.614 12.6209 23.8543 13.0883C25.5783 16.443 28.0491 21.251 29.4028 26.7C29.5544 27.166 29.6754 27.5409 29.7588 27.8002L29.8555 28.102L29.887 28.2004L29.8878 28.2031L29.8886 28.2055L29.889 28.2068L29.89 28.2098L29.896 28.2291C29.9006 28.2444 29.9065 28.2649 29.9131 28.2899C29.9263 28.34 29.9424 28.4091 29.9571 28.494C29.9865 28.6633 30.0112 28.8996 29.9947 29.1765C29.9611 29.7365 29.7574 30.4595 29.1 31.1058C29.0892 31.1164 29.078 31.1264 29.0663 31.136C28.3256 31.7428 27.2935 32.1364 26.3833 32.4544C26.23 32.508 26.0807 32.5592 25.9355 32.6089C25.6341 32.7123 25.3501 32.8096 25.0835 32.91C24.6883 33.0589 24.3775 33.1981 24.1604 33.3404C23.9595 33.4721 23.6403 33.6234 23.2655 33.7837C22.8807 33.9482 22.4048 34.1354 21.8695 34.3373C20.8661 34.7157 19.6389 35.1511 18.383 35.592C18.2454 36.1444 18.1032 36.733 17.959 37.3308L17.9462 37.3837C17.7834 38.0585 17.6181 38.7435 17.4549 39.395C17.123 40.7201 16.7906 41.9451 16.4949 42.672C16.0509 43.763 15.6498 45.7819 15.4046 47.568C15.2974 48.3489 15.222 49.0703 15.1862 49.6299C15.1682 49.9103 15.1606 50.1438 15.163 50.3208C15.1652 50.4812 15.1759 50.5564 15.1786 50.5758C15.1793 50.5805 15.1795 50.5819 15.179 50.5804C15.271 50.8518 15.3745 51.3367 15.4897 51.8759C15.5183 52.0099 15.5477 52.1472 15.5777 52.2855C15.735 53.0092 15.9217 53.8115 16.1514 54.4926C16.2547 54.7989 16.3635 55.0709 16.4774 55.2949C16.4733 55.2868 16.4804 55.3029 16.5187 55.3416C16.5544 55.3778 16.6058 55.4221 16.6739 55.4723C16.8103 55.5729 16.9907 55.6803 17.1918 55.7791C17.6144 55.9868 18.0277 56.1081 18.2423 56.1081C18.371 56.1081 18.527 56.1278 18.6717 56.2074C18.8342 56.2969 18.9628 56.4539 18.9978 56.6603C19.0289 56.8437 18.9755 57.0029 18.9211 57.1098C18.8644 57.2213 18.7858 57.3182 18.7034 57.3993C18.3818 57.7154 17.8107 57.9773 17.137 57.9773C17.13 57.9773 17.1033 57.9783 17.061 57.9798C16.8625 57.987 16.3201 58.0065 15.8493 57.9974C15.5452 57.9916 15.221 57.9746 14.9424 57.9336C14.8035 57.9131 14.6627 57.8849 14.5355 57.8437C14.4194 57.806 14.2604 57.741 14.1339 57.6166C13.7171 57.2069 13.5737 56.7836 13.4388 56.3856L13.4306 56.3612C13.2968 55.9666 13.1481 55.5286 12.7442 54.933C12.4018 54.4282 11.8007 54.1104 11.0802 53.7296C11.0503 53.7138 11.0202 53.6979 10.9899 53.6818C10.6332 53.493 10.2494 53.2838 9.92575 53.0277C9.59693 52.7675 9.2995 52.4358 9.14767 51.988C8.89236 51.2351 9.13859 50.5964 9.47978 50.1094C9.72553 49.7586 10.0627 49.4336 10.3224 49.1833C10.4005 49.108 10.4716 49.0394 10.5311 48.979C10.6389 48.8695 10.7108 48.7867 10.7548 48.7219C10.9336 48.4582 11.1085 48.046 11.1719 46.7761C11.2178 45.8541 11.2041 44.5153 11.1112 42.5066C11.0422 41.0143 11.1329 39.5869 11.3184 38.2626C10.6494 38.6651 9.86277 39.2511 9.0611 39.8483L8.95975 39.9238C8.0625 40.592 7.13637 41.2775 6.42242 41.6284C6.14362 41.7655 5.86508 41.8979 5.59008 42.0286C5.18666 42.2204 4.79084 42.4086 4.41292 42.6024C3.77613 42.929 3.28675 43.2253 3.01549 43.492C2.80717 43.6968 2.63497 43.936 2.45214 44.1899C2.37329 44.2995 2.29246 44.4118 2.20591 44.5252C2.08011 44.6901 1.92388 44.8799 1.74342 45.0089C1.54731 45.1491 1.23592 45.2718 0.897039 45.1052C0.725652 45.021 0.637523 44.8787 0.593951 44.7818C0.549074 44.6821 0.527469 44.5788 0.515796 44.4915C0.492263 44.3156 0.497303 44.1096 0.515987 43.9021C0.553947 43.4804 0.657804 42.9543 0.801274 42.4324C0.94487 41.9102 1.13428 41.3698 1.35207 40.9232C1.46083 40.7001 1.5822 40.489 1.71583 40.3119C1.84433 40.1416 2.01153 39.9659 2.22337 39.8618C2.67199 39.6413 3.18192 39.389 3.60795 39.0688C4.03779 38.7457 4.31071 38.4055 4.38552 38.0378C4.4316 37.8113 4.4447 37.5529 4.45891 37.2389L4.45984 37.2182C4.47311 36.9242 4.48845 36.5847 4.54966 36.2538C4.61333 35.9096 4.73061 35.5482 4.96617 35.2187C5.20485 34.8848 5.54446 34.6124 6.00774 34.4172C6.34904 34.2734 6.66502 34.219 6.96445 34.2525C7.26411 34.286 7.50418 34.4028 7.69828 34.5318C7.83934 34.6255 7.9771 34.7418 8.08632 34.8339C8.11589 34.8589 8.14337 34.8821 8.16826 34.9025C8.30208 35.0128 8.40101 35.082 8.49854 35.1228C8.61373 35.1709 8.78196 35.2041 9.10247 35.0691C9.44181 34.9261 9.97381 34.5965 10.6411 34.1371C11.2824 33.6954 12.0133 33.159 12.7614 32.6091C13.0651 31.7898 13.3576 31.1147 13.5866 30.6151C13.7076 30.3511 13.8108 30.1362 13.8875 29.9768C13.9263 29.8962 13.957 29.8326 13.9806 29.7825C13.9923 29.7577 14.0013 29.7382 14.008 29.7232C14.0142 29.7093 14.0167 29.703 14.0172 29.7019C14.0173 29.7017 14.0172 29.7018 14.0172 29.7019C14.15 29.3537 14.2333 28.6969 14.2645 27.8116C14.2949 26.9474 14.2747 25.9298 14.2335 24.9021C14.1962 23.9729 14.1405 23.0226 14.0913 22.1818C14.0334 21.1942 13.9844 20.3578 13.9844 19.8841C13.9844 18.5346 14.3204 15.9349 14.5147 14.6113C14.1188 14.1339 13.5928 13.25 13.2442 12.2218C12.8381 11.0242 12.6344 9.51871 13.2639 8.15728C13.8744 6.83705 15.0426 5.85053 16.0824 5.13105C16.5541 4.80463 17.0143 4.52346 17.3976 4.28926C17.4404 4.26313 17.4822 4.23759 17.523 4.21263C17.9552 3.94795 18.2188 3.77771 18.334 3.66452C18.5896 3.41319 18.9014 3.02238 19.1457 2.69776ZM15.4038 15.4662C15.2149 16.8511 14.9844 18.8161 14.9844 19.8841C14.9844 20.3412 15.0305 21.121 15.0863 22.0672C15.1358 22.9046 15.1929 23.8723 15.2327 24.862C15.2743 25.8987 15.2956 26.9454 15.2639 27.8468C15.2329 28.7271 15.1503 29.5373 14.9516 30.0582C14.9259 30.1256 14.8698 30.242 14.8084 30.3692C14.8018 30.3829 14.7952 30.3967 14.7885 30.4105C14.7124 30.5686 14.6126 30.7766 14.4957 31.0317C14.4314 31.1721 14.3619 31.3267 14.2884 31.495C15.2551 30.8013 16.1638 30.1849 16.813 29.8659C17.7047 29.4276 18.7015 28.9899 19.6924 28.6073C19.9864 27.1067 20.3527 25.4932 20.7119 23.9108C20.7462 23.7598 20.7804 23.6091 20.8145 23.4588C20.2766 22.6306 19.7324 21.8276 19.2325 21.09C19.0861 20.8741 18.9435 20.6637 18.806 20.4599C18.1745 19.524 17.6352 18.7069 17.3545 18.1551C16.6265 16.7238 15.9685 15.9996 15.4038 15.4662ZM21.5698 24.6493C21.2968 25.8535 21.0269 27.0573 20.7927 28.2051C21.6345 27.9156 22.4515 27.6792 23.1678 27.5359C22.7427 26.6269 22.1818 25.6409 21.5698 24.6493ZM12.1093 36.7882C12.0019 36.6347 11.8677 36.4047 11.7551 36.1002C11.5983 35.6763 11.5016 35.1486 11.4539 34.79C12.0622 34.3641 12.733 33.871 13.4038 33.378L13.4749 33.3258C14.9571 32.2364 16.395 31.1856 17.2541 30.7633C18.1957 30.3005 19.2609 29.8371 20.3066 29.4433C21.6877 28.9231 23.0032 28.5366 23.9473 28.4206C24.1024 28.4015 24.2397 28.311 24.3183 28.176C24.397 28.0409 24.408 27.8769 24.3481 27.7325C23.7472 26.2856 22.7669 24.6388 21.7688 23.0927C21.1873 22.1918 20.5929 21.3147 20.0569 20.524C19.9115 20.3094 19.7703 20.1012 19.6349 19.9005C18.992 18.9477 18.4926 18.1868 18.2459 17.7017C17.2871 15.8168 16.3887 15.0034 15.748 14.4233C15.6193 14.3067 15.5009 14.1996 15.3946 14.095C15.1334 13.8383 14.5605 12.9897 14.1912 11.9007C13.8237 10.8167 13.6958 9.60588 14.1716 8.57698C14.6664 7.5069 15.6499 6.64636 16.6514 5.95337C17.0983 5.64409 17.5345 5.37758 17.9196 5.14222C17.9621 5.11626 18.0039 5.09069 18.0451 5.06547C18.4336 4.82764 18.8185 4.59044 19.035 4.37768C19.3478 4.07016 19.6974 3.62765 19.9447 3.29902C20.0718 3.13012 20.2574 3.0638 20.4141 3.09569C20.9412 3.20299 21.5761 3.37 22.1746 3.59467C22.7808 3.82223 23.3123 4.09525 23.6621 4.39876C24.2928 4.94597 25.0426 5.72497 25.5936 6.32429C25.7531 6.49782 25.76 6.76936 25.5969 6.95975L22.4913 10.5838C22.1022 11.0379 22.0169 11.683 22.2893 12.2231C22.499 12.639 22.7271 13.083 22.9686 13.5533C24.6966 16.9174 27.114 21.6239 28.4365 26.9581C28.4394 26.9697 28.4427 26.9812 28.4464 26.9925C28.6002 27.4651 28.7227 27.8448 28.8067 28.1063L28.9031 28.4066L28.9361 28.5101L28.9379 28.5155C28.9378 28.5154 28.9378 28.5155 28.9379 28.5155C28.9379 28.5156 28.938 28.516 28.9382 28.5165C28.9383 28.517 28.9385 28.5177 28.9388 28.5185C28.9401 28.5228 28.9426 28.5314 28.946 28.5441C28.9526 28.5696 28.9624 28.6109 28.9719 28.6651C28.9908 28.7743 29.0075 28.9318 28.9965 29.1167C28.975 29.4759 28.8499 29.9411 28.4149 30.3768C27.8296 30.849 26.9688 31.1906 26.0535 31.5104C25.9135 31.5593 25.7713 31.608 25.6295 31.6567C25.3198 31.7629 25.0117 31.8685 24.7311 31.9742C24.3222 32.1282 23.9256 32.2986 23.6122 32.504C23.4932 32.5821 23.2481 32.7036 22.8724 32.8642C22.5067 33.0205 22.046 33.202 21.5166 33.4017C20.4582 33.8008 19.1426 34.266 17.798 34.7375C17.5516 34.8239 17.3042 34.9106 17.057 34.9972C15.1636 35.6602 13.2906 36.3161 12.1093 36.7882ZM10.5405 35.4061C10.6033 35.7393 10.6935 36.1126 10.8172 36.4471C10.9251 36.7389 11.0528 36.989 11.1795 37.1936C11.1295 37.2188 11.0833 37.2433 11.0413 37.2669C10.2713 37.6994 9.35505 38.3822 8.49179 39.0254C8.44854 39.0576 8.40543 39.0898 8.36247 39.1218C7.43602 39.8117 6.5937 40.43 5.98131 40.731C5.72939 40.8548 5.46001 40.983 5.18712 41.1128C4.76835 41.3121 4.34135 41.5153 3.95656 41.7127C3.32227 42.038 2.70638 42.3936 2.31447 42.7788C2.04067 43.048 1.78744 43.3997 1.58929 43.6749C1.57306 43.6975 1.5572 43.7195 1.54173 43.7409C1.58565 43.4354 1.66259 43.0718 1.76549 42.6975C1.89822 42.2148 2.06803 41.7365 2.2509 41.3615C2.34247 41.1737 2.43179 41.0233 2.51404 40.9143C2.55476 40.8603 2.59 40.8215 2.61857 40.795C2.63259 40.782 2.6438 40.7731 2.65202 40.7672C2.65607 40.7643 2.65918 40.7623 2.66132 40.761C2.66347 40.7597 2.66452 40.7592 2.66448 40.7592L2.6795 40.7518C3.11371 40.5384 3.70128 40.2497 4.20884 39.8681C4.71846 39.485 5.2192 38.956 5.36545 38.2372C5.4289 37.9253 5.44398 37.5916 5.45726 37.2978L5.45788 37.2841C5.47202 36.9716 5.48509 36.6946 5.53298 36.4357C5.57986 36.1823 5.65602 35.9732 5.77968 35.8003C5.90021 35.6316 6.08561 35.4695 6.396 35.3387C6.61532 35.2463 6.75841 35.2357 6.85329 35.2463C6.94792 35.2569 7.0374 35.2933 7.14486 35.3647C7.23388 35.4238 7.31091 35.4887 7.4101 35.5722C7.4472 35.6035 7.48741 35.6373 7.5325 35.6744C7.68112 35.7969 7.87346 35.9453 8.11283 36.0454C8.50974 36.2113 8.95904 36.2146 9.49072 35.9906C9.78149 35.8681 10.1418 35.6613 10.5405 35.4061ZM12.41 37.745C12.1654 39.1978 12.0329 40.7891 12.1101 42.4604C12.1952 44.2991 12.2157 45.606 12.182 46.5581C12.192 46.5642 12.2025 46.5704 12.2134 46.5768C12.3238 46.6413 12.4639 46.7118 12.6188 46.7769C12.941 46.9123 13.269 47 13.5 47H14.4756C14.7259 45.309 15.1126 43.4158 15.5686 42.2951C15.833 41.6453 16.1495 40.491 16.4849 39.152C16.647 38.5048 16.8114 37.8235 16.9745 37.1474L16.9869 37.0963C17.0771 36.7222 17.167 36.35 17.2557 35.9871C15.3576 36.6519 13.5307 37.2931 12.41 37.745ZM14.3401 48H13.5C13.074 48 12.6021 47.8546 12.2313 47.6988C12.1885 47.6808 12.1463 47.6623 12.1048 47.6435C12.0094 48.4432 11.8386 48.9054 11.5824 49.2832C11.4862 49.425 11.3626 49.5597 11.2438 49.6804C11.1484 49.7774 11.0529 49.8696 10.9592 49.96C10.7152 50.1957 10.4838 50.4191 10.2988 50.6832C10.0641 51.0181 9.97794 51.3226 10.0947 51.6669C10.1639 51.871 10.3086 52.0554 10.5462 52.2435C10.789 52.4355 11.096 52.6066 11.4577 52.798C11.5075 52.8244 11.5585 52.8511 11.6105 52.8784C12.2659 53.2222 13.083 53.651 13.5719 54.3718C14.0519 55.0797 14.2349 55.6193 14.3774 56.0395C14.512 56.4363 14.5918 56.6554 14.8126 56.8811C14.8196 56.884 14.8298 56.8878 14.8438 56.8924C14.8982 56.91 14.9791 56.9282 15.088 56.9443C15.3051 56.9762 15.5807 56.9921 15.8685 56.9976C16.294 57.0058 16.6531 56.9928 16.8934 56.9841C16.9991 56.9803 17.0817 56.9773 17.137 56.9773C17.2384 56.9773 17.3332 56.9678 17.4205 56.9517C17.1883 56.8754 16.9575 56.7782 16.7507 56.6766C16.5097 56.5581 16.2756 56.421 16.0805 56.2772C15.9009 56.1448 15.6966 55.9654 15.5861 55.7483C15.4429 55.4667 15.3164 55.1459 15.2039 54.8122C14.9548 54.0735 14.7582 53.2233 14.6005 52.4979C14.5655 52.3367 14.5327 52.1837 14.502 52.0402C14.3889 51.512 14.3033 51.1121 14.2319 50.9015C14.1775 50.7409 14.1657 50.5243 14.1631 50.3345C14.1602 50.1219 14.1694 49.8602 14.1882 49.5659C14.2169 49.1187 14.2688 48.5814 14.3401 48ZM18.2583 57.1089C18.2583 57.1089 18.2573 57.1088 18.2553 57.1085L18.2583 57.1089Z" fill="black"/>
</g>
<defs>
<clipPath id="clip0_3026_186647">
<rect width="30" height="60" fill="white"/>
</clipPath>
</defs>
</svg>
