<svg width="30" height="30" viewBox="0 0 30 30" fill="none" xmlns="http://www.w3.org/2000/svg">
<path d="M23.508 8.78661C24.1889 9.45473 24.6996 10.2624 25 11.14L24.9599 11.1599C25.0501 11.4192 24.9099 11.6984 24.6495 11.7881C24.3892 11.8779 24.1088 11.7383 24.0187 11.479C23.7683 10.7411 23.3477 10.073 22.777 9.51456C22.2062 8.95613 21.5153 8.52735 20.7342 8.25811C19.7528 7.91906 18.6614 7.94898 17.7101 8.35782C16.7588 8.7567 16.0278 9.49461 15.6573 10.4021C15.5271 10.7311 15.467 11.0901 15.477 11.4391C15.487 11.7981 15.5772 12.1471 15.7374 12.4662C15.8976 12.7953 16.1279 13.0845 16.4083 13.3238C16.6887 13.5631 17.0291 13.7526 17.3896 13.8722H17.4097C17.67 13.972 17.9404 14.0119 18.2107 14.0119C18.4911 14.0019 18.7515 13.952 19.0018 13.8423C19.2522 13.7426 19.4725 13.593 19.6527 13.4036C19.833 13.2141 19.9731 12.9947 20.0633 12.7654V12.7554C20.1334 12.6058 20.1634 12.4463 20.1534 12.2768C20.1434 12.1072 20.1033 11.9477 20.0332 11.7981C19.9531 11.6485 19.853 11.5189 19.7228 11.3992C19.5926 11.2796 19.4324 11.1898 19.2622 11.13C19.0319 11.0502 18.7815 11.0602 18.5612 11.1499C18.3409 11.2397 18.1707 11.3992 18.0906 11.5987C17.9804 11.8579 17.68 11.9676 17.4297 11.8579C17.1693 11.7482 17.0592 11.4491 17.1693 11.1998C17.3596 10.7511 17.7301 10.412 18.1807 10.2226C18.6313 10.0431 19.132 10.0331 19.5926 10.1926C19.883 10.2924 20.1534 10.4519 20.3837 10.6513C20.614 10.8508 20.8043 11.1001 20.9345 11.3693C21.0646 11.6386 21.1447 11.9377 21.1447 12.2369C21.1548 12.536 21.1047 12.8352 20.9945 13.1244C20.8543 13.4833 20.6441 13.8124 20.3737 14.0916C20.1033 14.3708 19.7729 14.5902 19.4024 14.7498C19.0319 14.9093 18.6413 14.9991 18.2408 14.9991C17.8503 15.009 17.4597 14.9392 17.0892 14.7996H17.0692C16.5885 14.6401 16.1479 14.3908 15.7674 14.0717C15.3769 13.7426 15.0665 13.3437 14.8462 12.895C14.6459 12.4862 14.5357 12.0374 14.5057 11.5887C14.2353 10.8308 13.8348 10.0431 13.294 9.51456C12.7233 8.95613 12.0323 8.52735 11.2513 8.25811C10.2699 7.91906 9.17843 7.94898 8.22713 8.35782C7.27584 8.7567 6.54484 9.49461 6.17434 10.4021C6.04416 10.7311 5.98408 11.0901 5.99409 11.4391C6.0041 11.7981 6.09423 12.1471 6.25445 12.4662C6.41466 12.7953 6.64498 13.0845 6.92536 13.3238C7.20574 13.5631 7.54621 13.7526 7.9067 13.8722H7.92672C8.18708 13.972 8.44743 14.0218 8.72782 14.0119C9.0082 14.0019 9.26855 13.952 9.5189 13.8423C9.76924 13.7426 9.98954 13.593 10.1698 13.4036C10.35 13.2141 10.4902 12.9947 10.5803 12.7654V12.7554C10.6504 12.6058 10.6705 12.4363 10.6705 12.2768C10.6605 12.1072 10.6204 11.9477 10.5503 11.7981C10.4702 11.6485 10.3701 11.5189 10.2399 11.3992C10.1097 11.2796 9.94948 11.1898 9.77925 11.13V11.12C9.54894 11.0402 9.2986 11.0502 9.07829 11.14C8.85799 11.2297 8.68776 11.3893 8.60765 11.5887C8.4975 11.848 8.20711 11.9577 7.94675 11.848C7.6864 11.7383 7.57625 11.4391 7.6864 11.1898C7.88667 10.7411 8.24716 10.4021 8.69778 10.2126C9.14839 10.0331 9.64907 10.0231 10.1097 10.1827C10.4001 10.2824 10.6705 10.4419 10.9008 10.6414C11.1311 10.8408 11.3214 11.0901 11.4515 11.3593C11.5817 11.6286 11.6618 11.9277 11.6618 12.2269C11.6718 12.526 11.6218 12.8252 11.5116 13.1144C11.3714 13.4734 11.1611 13.8024 10.8908 14.0817C10.6204 14.3609 10.2899 14.5802 9.91944 14.7398C9.54894 14.8993 9.1584 14.9891 8.75786 14.9891C8.36733 14.9991 7.97679 14.9293 7.60629 14.7897H7.58626C7.10561 14.6301 6.665 14.3808 6.28449 14.0617C5.89395 13.7326 5.58353 13.3338 5.36323 12.885C5.14293 12.4363 5.02277 11.9577 5.00274 11.4591C4.98271 10.9704 5.07283 10.4719 5.26309 10.0131C5.73374 8.85642 6.665 7.92904 7.85663 7.4105C9.03824 6.91191 10.3801 6.86205 11.6017 7.29084C12.513 7.60994 13.3341 8.1185 14.015 8.78661C14.3355 9.09574 14.6058 9.47467 14.8361 9.86357C15.3168 8.76667 16.218 7.88915 17.3496 7.4105C18.5312 6.91191 19.873 6.86205 21.0947 7.29084C22.0059 7.60994 22.827 8.1185 23.508 8.78661Z" fill="black"/>
<path d="M23.508 17.7866C24.1889 18.4547 24.6996 19.2624 25 20.14L24.9599 20.1599C25.0501 20.4192 24.9099 20.6984 24.6495 20.7881C24.3892 20.8779 24.1088 20.7383 24.0187 20.479C23.7683 19.7411 23.3477 19.073 22.777 18.5146C22.2062 17.9561 21.5153 17.5273 20.7342 17.2581C19.7528 16.9191 18.6614 16.949 17.7101 17.3578C16.7588 17.7567 16.0278 18.4946 15.6573 19.4021C15.5271 19.7311 15.467 20.0901 15.477 20.4391C15.487 20.7981 15.5772 21.1471 15.7374 21.4662C15.8976 21.7953 16.1279 22.0845 16.4083 22.3238C16.6887 22.5631 17.0291 22.7526 17.3896 22.8722H17.4097C17.67 22.972 17.9404 23.0119 18.2107 23.0119C18.4911 23.0019 18.7515 22.952 19.0018 22.8423C19.2522 22.7426 19.4725 22.593 19.6527 22.4036C19.833 22.2141 19.9731 21.9947 20.0633 21.7654V21.7554C20.1334 21.6058 20.1634 21.4463 20.1534 21.2768C20.1434 21.1072 20.1033 20.9477 20.0332 20.7981C19.9531 20.6485 19.853 20.5189 19.7228 20.3992C19.5926 20.2796 19.4324 20.1898 19.2622 20.13C19.0319 20.0502 18.7815 20.0602 18.5612 20.1499C18.3409 20.2397 18.1707 20.3992 18.0906 20.5987C17.9804 20.8579 17.68 20.9676 17.4297 20.8579C17.1693 20.7482 17.0592 20.4491 17.1693 20.1998C17.3596 19.7511 17.7301 19.412 18.1807 19.2226C18.6313 19.0431 19.132 19.0331 19.5926 19.1926C19.883 19.2924 20.1534 19.4519 20.3837 19.6513C20.614 19.8508 20.8043 20.1001 20.9345 20.3693C21.0646 20.6386 21.1447 20.9377 21.1447 21.2369C21.1548 21.536 21.1047 21.8352 20.9945 22.1244C20.8543 22.4833 20.6441 22.8124 20.3737 23.0916C20.1033 23.3708 19.7729 23.5902 19.4024 23.7498C19.0319 23.9093 18.6413 23.9991 18.2408 23.9991C17.8503 24.009 17.4597 23.9392 17.0892 23.7996H17.0692C16.5885 23.6401 16.1479 23.3908 15.7674 23.0717C15.3769 22.7426 15.0665 22.3437 14.8462 21.895C14.6459 21.4862 14.5357 21.0374 14.5057 20.5887C14.2353 19.8308 13.8348 19.0431 13.294 18.5146C12.7233 17.9561 12.0323 17.5273 11.2513 17.2581C10.2699 16.9191 9.17843 16.949 8.22713 17.3578C7.27584 17.7567 6.54484 18.4946 6.17434 19.4021C6.04416 19.7311 5.98408 20.0901 5.99409 20.4391C6.0041 20.7981 6.09423 21.1471 6.25445 21.4662C6.41466 21.7953 6.64498 22.0845 6.92536 22.3238C7.20574 22.5631 7.54621 22.7526 7.9067 22.8722H7.92672C8.18708 22.972 8.44743 23.0218 8.72782 23.0119C9.0082 23.0019 9.26855 22.952 9.5189 22.8423C9.76924 22.7426 9.98954 22.593 10.1698 22.4036C10.35 22.2141 10.4902 21.9947 10.5803 21.7654V21.7554C10.6504 21.6058 10.6705 21.4363 10.6705 21.2768C10.6605 21.1072 10.6204 20.9477 10.5503 20.7981C10.4702 20.6485 10.3701 20.5189 10.2399 20.3992C10.1097 20.2796 9.94948 20.1898 9.77925 20.13V20.12C9.54894 20.0402 9.2986 20.0502 9.07829 20.14C8.85799 20.2297 8.68776 20.3893 8.60765 20.5887C8.4975 20.848 8.20711 20.9577 7.94675 20.848C7.6864 20.7383 7.57625 20.4391 7.6864 20.1898C7.88667 19.7411 8.24716 19.4021 8.69778 19.2126C9.14839 19.0331 9.64907 19.0231 10.1097 19.1827C10.4001 19.2824 10.6705 19.4419 10.9008 19.6414C11.1311 19.8408 11.3214 20.0901 11.4515 20.3593C11.5817 20.6286 11.6618 20.9277 11.6618 21.2269C11.6718 21.526 11.6218 21.8252 11.5116 22.1144C11.3714 22.4734 11.1611 22.8024 10.8908 23.0817C10.6204 23.3609 10.2899 23.5802 9.91944 23.7398C9.54894 23.8993 9.1584 23.9891 8.75786 23.9891C8.36733 23.9991 7.97679 23.9293 7.60629 23.7897H7.58626C7.10561 23.6301 6.665 23.3808 6.28449 23.0617C5.89395 22.7326 5.58353 22.3338 5.36323 21.885C5.14293 21.4363 5.02277 20.9577 5.00274 20.4591C4.98271 19.9704 5.07283 19.4719 5.26309 19.0131C5.73374 17.8564 6.665 16.929 7.85663 16.4105C9.03824 15.9119 10.3801 15.8621 11.6017 16.2908C12.513 16.6099 13.3341 17.1185 14.015 17.7866C14.3355 18.0957 14.6058 18.4747 14.8361 18.8636C15.3168 17.7667 16.218 16.8891 17.3496 16.4105C18.5312 15.9119 19.873 15.8621 21.0947 16.2908C22.0059 16.6099 22.827 17.1185 23.508 17.7866Z" fill="black"/>
</svg>
