<svg width="30" height="60" viewBox="0 0 30 60" fill="none" xmlns="http://www.w3.org/2000/svg">
<g clip-path="url(#clip0_3026_186599)">
<path d="M23.9139 3.76436C22.9922 2.95087 21.1856 2.44869 20.0965 2.25783C19.9301 2.22866 19.7645 2.30248 19.6665 2.44013C19.4603 2.7297 19.0854 3.2391 18.7435 3.6133C18.6947 3.66676 18.6465 3.71745 18.5996 3.76436C19.6199 4.18153 21.8221 5.08191 22.5853 5.53574C23.3558 5.99394 24.6197 7.33614 25.1221 8.01855L26.225 6.7093C26.3648 6.54335 26.3641 6.30071 26.2206 6.13788C25.6765 5.5202 24.7114 4.46823 23.9139 3.76436Z" fill="#789CB9"/>
<path fill-rule="evenodd" clip-rule="evenodd" d="M28.4774 7.42143C28.6995 7.42818 28.8906 7.58072 28.9463 7.79584L29.2239 8.86762C29.2931 9.13494 29.1325 9.40778 28.8652 9.47701C28.5979 9.54625 28.325 9.38566 28.2558 9.11834L28.2289 9.01462L26.504 11.1747C26.3317 11.3905 26.017 11.4257 25.8013 11.2534C25.5855 11.0811 25.5502 10.7664 25.7226 10.5507L27.4475 8.39061L27.3404 8.38735C27.0644 8.37897 26.8475 8.14842 26.8558 7.8724C26.8642 7.59639 27.0948 7.37943 27.3708 7.38782L28.4774 7.42143Z" fill="black"/>
<path fill-rule="evenodd" clip-rule="evenodd" d="M17.7775 0.315955C17.9996 0.322703 18.1907 0.475239 18.2464 0.690364L18.524 1.76214C18.5932 2.02947 18.4326 2.3023 18.1653 2.37153C17.898 2.44077 17.6251 2.28019 17.5559 2.01287L17.529 1.90914L17.327 2.16211L17.325 2.16473L17.317 2.17469C17.3104 2.18289 17.3011 2.1942 17.2894 2.20836C17.2659 2.23666 17.2322 2.2764 17.1887 2.32551C17.1017 2.42366 16.9753 2.55972 16.8128 2.7171C16.4889 3.03084 16.016 3.4349 15.4213 3.79172C14.8596 4.12873 14.3545 4.40937 13.9895 4.60588C13.8069 4.7042 13.6592 4.78161 13.5566 4.83465C13.5054 4.86117 13.4654 4.88161 13.438 4.89553L13.4065 4.91147L13.3981 4.91568L13.3949 4.9173C13.1479 5.04079 12.8475 4.94071 12.724 4.69372C12.6005 4.44674 12.7006 4.14643 12.9476 4.02292L12.9495 4.02196L12.9564 4.01848L12.9849 4.00404C13.0103 3.99115 13.0481 3.9718 13.0972 3.94643C13.1953 3.89567 13.3382 3.82085 13.5154 3.72541C13.8701 3.53442 14.3614 3.2615 14.9068 2.93422C15.4193 2.62676 15.8321 2.27492 16.1171 1.99883C16.259 1.86131 16.3679 1.74397 16.4401 1.66245C16.4762 1.62173 16.503 1.59007 16.5201 1.56943L16.5385 1.54704L16.5421 1.54253L16.5447 1.53916L16.7476 1.28513L16.6405 1.28188C16.3645 1.27349 16.1476 1.04294 16.1559 0.766927C16.1643 0.490912 16.3949 0.273954 16.6709 0.282339L17.7775 0.315955Z" fill="black"/>
<path fill-rule="evenodd" clip-rule="evenodd" d="M22.5501 11.0735L24.8987 8.28547C25.0306 8.12893 25.0385 7.90224 24.9091 7.74364C24.3215 7.02331 23.2637 5.93836 22.5867 5.53579C21.8235 5.08196 19.6214 4.18158 18.601 3.7644C18.4184 3.94706 18.0437 4.17994 17.5734 4.47226C16.3334 5.24302 14.4286 6.427 13.6259 8.19298C12.5188 10.6287 14.2902 13.7287 14.9545 14.393C14.7676 15.6477 14.3939 18.5115 14.3939 19.9287C14.3939 20.4028 14.4415 21.226 14.4984 22.2113C14.6543 24.9072 14.8803 28.8171 14.3939 30.1144C14.3762 30.1616 14.3291 30.261 14.2591 30.4089C14.0336 30.8853 13.5702 31.8644 13.0861 33.2151L13.0181 33.2659C11.485 34.4122 9.98414 35.5343 9.19732 35.8715C8.42231 36.2037 8.03481 35.8715 7.64732 35.5394C7.25983 35.2073 6.87234 34.8751 6.09737 35.2073C4.9377 35.7043 4.89355 36.6971 4.8521 37.6293C4.83815 37.9431 4.8245 38.2499 4.76875 38.5287C4.54732 39.6358 3.2188 40.3001 2.33308 40.743C1.44737 41.1858 0.561655 44.9501 1.00451 45.1715C1.28682 45.3127 1.56912 44.914 1.90878 44.4343C2.10195 44.1614 2.31368 43.8624 2.55451 43.6215C3.08594 43.0901 4.18422 42.5587 5.2825 42.0273C5.55707 41.8944 5.83165 41.7616 6.09737 41.6287C6.7899 41.2824 7.72308 40.5752 8.67739 39.8519C9.55387 39.1876 10.4482 38.5099 11.1902 38.0858C11.3427 37.9987 11.5746 37.8901 11.87 37.7643C11.5899 39.3488 11.4311 41.1043 11.5153 42.9573C11.7367 47.8287 11.5153 48.9358 11.0725 49.6001C10.9551 49.7762 10.7598 49.9679 10.5446 50.1792C9.94783 50.7651 9.197 51.5023 9.52246 52.4787C9.75744 53.1837 10.4912 53.5769 11.2605 53.9892C11.9411 54.354 12.6496 54.7337 13.0653 55.3573C13.5081 56.0215 13.6742 56.5198 13.8126 56.9349C13.951 57.3501 14.0617 57.6823 14.3939 58.0144C14.6988 58.3193 16.3203 58.2611 16.8799 58.241C16.9628 58.238 17.0224 58.2358 17.051 58.2358C18.1581 58.2358 18.8224 57.3501 18.1581 57.3501C17.4939 57.3501 16.1653 56.6858 15.9439 56.243C15.4705 55.2963 15.1454 53.7496 14.9064 52.6128C14.7919 52.0678 14.6971 51.617 14.6153 51.3715C14.3939 50.7073 15.0581 45.1715 15.9439 42.9573C16.3612 41.914 16.8768 39.7402 17.3749 37.6401C17.5465 36.9166 17.7161 36.2018 17.8788 35.545C20.5716 34.5843 23.1707 33.6417 23.8117 33.2144C24.2582 32.9167 24.9548 32.6738 25.7111 32.41C26.755 32.0459 27.9126 31.6421 28.683 31.0001C29.7902 29.893 29.3474 28.5644 29.3474 28.5644C29.3474 28.5644 29.1642 27.9789 28.8557 27.0144C27.5158 21.5168 25.0658 16.6657 23.336 13.2407C23.0277 12.6304 22.7423 12.0653 22.4902 11.5499C22.4135 11.3931 22.4377 11.207 22.5501 11.0735ZM23.8115 28.1214C23.2278 26.6917 22.2667 25.0457 21.2696 23.4743C21.22 23.697 21.1701 23.9205 21.1202 24.1445C20.738 25.8568 20.3503 27.5944 20.0492 29.1924C21.444 28.658 22.8061 28.247 23.8115 28.1214Z" fill="#789CB9" fill-opacity="0.5"/>
<path fill-rule="evenodd" clip-rule="evenodd" d="M19.1457 2.69776C19.473 2.26282 20.0297 1.99694 20.6136 2.11579C21.1802 2.23114 21.8677 2.41133 22.5261 2.65845C23.1767 2.90268 23.8364 3.22602 24.3175 3.64344C24.9923 4.22893 25.773 5.04192 26.3297 5.64749C26.8421 6.20481 26.8391 7.04697 26.3562 7.61045L23.2507 11.2345C23.1197 11.3874 23.0945 11.5991 23.1821 11.7728C23.3883 12.1816 23.614 12.6209 23.8543 13.0883C25.5783 16.443 28.0492 21.251 29.4028 26.7C29.5544 27.166 29.6754 27.5409 29.7588 27.8002L29.8555 28.102L29.887 28.2004L29.8878 28.2031L29.8886 28.2055L29.889 28.2068L29.89 28.2098L29.896 28.2291C29.9006 28.2444 29.9065 28.2649 29.9131 28.2899C29.9263 28.34 29.9424 28.4091 29.9571 28.494C29.9865 28.6633 30.0112 28.8996 29.9947 29.1765C29.9611 29.7365 29.7574 30.4595 29.1 31.1058C29.0892 31.1164 29.078 31.1264 29.0663 31.136C28.3256 31.7428 27.2935 32.1364 26.3833 32.4544C26.23 32.508 26.0807 32.5592 25.9355 32.6089C25.6341 32.7123 25.3501 32.8096 25.0835 32.91C24.6883 33.0589 24.3775 33.1981 24.1604 33.3404C23.9595 33.4721 23.6403 33.6234 23.2655 33.7837C22.8807 33.9482 22.4048 34.1355 21.8695 34.3373C20.8661 34.7157 19.6389 35.1511 18.383 35.592C18.2454 36.1444 18.1032 36.733 17.959 37.3308L17.9464 37.3832C17.7835 38.0581 17.6182 38.7433 17.4549 39.395C17.123 40.7201 16.7906 41.9451 16.4949 42.672C16.0776 43.6974 15.6972 45.546 15.4489 47.2546C15.3259 48.1011 15.2377 48.8966 15.1938 49.5166C15.1719 49.8272 15.1615 50.0875 15.1627 50.2851C15.1638 50.4718 15.1758 50.5569 15.1786 50.5763C15.1791 50.58 15.1793 50.5813 15.179 50.5804C15.2529 50.7984 15.3294 51.1341 15.4093 51.5022C15.4341 51.6162 15.4595 51.7353 15.4859 51.8584C15.5477 52.1475 15.6144 52.4593 15.6884 52.7832C15.9018 53.7168 16.1594 54.6696 16.4774 55.2949C16.4733 55.2868 16.4804 55.3029 16.5187 55.3416C16.5544 55.3778 16.6058 55.4221 16.6739 55.4723C16.8103 55.5729 16.9907 55.6803 17.1918 55.7791C17.6144 55.9868 18.0277 56.1081 18.2423 56.1081C18.371 56.1081 18.527 56.1278 18.6717 56.2074C18.8342 56.2969 18.9628 56.4539 18.9978 56.6604C19.0289 56.8437 18.9755 57.0029 18.9211 57.1098C18.8644 57.2213 18.7858 57.3182 18.7034 57.3993C18.3818 57.7154 17.8107 57.9773 17.137 57.9773C17.13 57.9773 17.1033 57.9783 17.061 57.9798C16.8625 57.987 16.3201 58.0065 15.8493 57.9974C15.5452 57.9916 15.221 57.9746 14.9424 57.9336C14.8035 57.9131 14.6627 57.8849 14.5355 57.8437C14.4194 57.806 14.2604 57.741 14.1339 57.6166C13.7171 57.2069 13.5737 56.7835 13.4388 56.3856L13.4306 56.3612C13.2968 55.9666 13.1481 55.5286 12.7442 54.933C12.4018 54.4282 11.8007 54.1104 11.0801 53.7296C11.0503 53.7138 11.0202 53.6979 10.9899 53.6818C10.6332 53.493 10.2494 53.2838 9.92575 53.0277C9.59693 52.7675 9.2995 52.4358 9.14767 51.988C8.84233 51.0876 9.25237 50.3599 9.68002 49.8495C9.8795 49.6113 10.1036 49.3951 10.2909 49.2145C10.3043 49.2015 10.3176 49.1887 10.3307 49.176C10.5416 48.9723 10.6792 48.8333 10.7548 48.7219C10.9094 48.4939 11.0612 48.1541 11.1402 47.2479C11.22 46.3327 11.2216 44.8944 11.1112 42.5066C11.0422 41.0143 11.1329 39.5869 11.3184 38.2626C10.6494 38.6651 9.86286 39.251 9.06123 39.8482L8.95975 39.9238C8.0625 40.592 7.13637 41.2775 6.42242 41.6284C6.14364 41.7654 5.86514 41.8979 5.59016 42.0286C5.18671 42.2204 4.79086 42.4086 4.41292 42.6024C3.77614 42.929 3.28675 43.2253 3.01549 43.492C2.80718 43.6968 2.63498 43.936 2.45216 44.1899C2.3733 44.2995 2.29246 44.4118 2.20591 44.5252C2.08011 44.6901 1.92388 44.8799 1.74342 45.0089C1.54731 45.1491 1.23592 45.2718 0.897039 45.1052C0.725652 45.021 0.637523 44.8787 0.593951 44.7819C0.549074 44.6821 0.527469 44.5788 0.515796 44.4915C0.492263 44.3156 0.497303 44.1096 0.515987 43.9021C0.553947 43.4804 0.657804 42.9543 0.801274 42.4324C0.94487 41.9102 1.13428 41.3698 1.35207 40.9232C1.46083 40.7001 1.5822 40.489 1.71583 40.3119C1.84433 40.1416 2.01153 39.9659 2.22337 39.8618C2.67199 39.6413 3.18192 39.389 3.60795 39.0688C4.03779 38.7456 4.31071 38.4055 4.38552 38.0378C4.4316 37.8113 4.4447 37.5529 4.45891 37.2389L4.45984 37.2182C4.47311 36.9242 4.48845 36.5847 4.54966 36.2538C4.61333 35.9096 4.73061 35.5482 4.96617 35.2187C5.20485 34.8848 5.54446 34.6124 6.00774 34.4172C6.48615 34.2156 6.90318 34.1955 7.2803 34.3226C7.61341 34.4349 7.87016 34.6517 8.04996 34.8035C8.05723 34.8096 8.06437 34.8156 8.07139 34.8215C8.27763 34.9953 8.40056 35.0914 8.53752 35.1375C8.64396 35.1734 8.8072 35.1935 9.10247 35.0691C9.44713 34.9239 9.98977 34.5866 10.6699 34.1172C11.3044 33.6793 12.0245 33.1507 12.7614 32.6091C13.0651 31.7898 13.3576 31.1147 13.5866 30.6151C13.7076 30.3511 13.8108 30.1362 13.8875 29.9768C13.9263 29.8962 13.957 29.8326 13.9806 29.7825C13.9923 29.7577 14.0013 29.7382 14.008 29.7232C14.0142 29.7093 14.0167 29.703 14.0172 29.7019C14.0173 29.7017 14.0172 29.7018 14.0172 29.7019C14.15 29.3537 14.2333 28.6969 14.2645 27.8116C14.2949 26.9474 14.2747 25.9298 14.2335 24.9021C14.1962 23.9729 14.1405 23.0226 14.0913 22.1818C14.0334 21.1942 13.9844 20.3578 13.9844 19.8841C13.9844 18.5346 14.3204 15.9349 14.5147 14.6113C14.1188 14.1339 13.5928 13.25 13.2442 12.2218C12.8381 11.0242 12.6344 9.51871 13.2639 8.15728C13.8744 6.83705 15.0426 5.85053 16.0824 5.13105C16.5541 4.80461 17.0143 4.52344 17.3977 4.28923C17.4404 4.26311 17.4822 4.23758 17.523 4.21263C17.9552 3.94795 18.2188 3.77771 18.334 3.66452C18.5897 3.41319 18.9014 3.02238 19.1457 2.69776ZM15.4038 15.4662C15.2149 16.8511 14.9844 18.8161 14.9844 19.8841C14.9844 20.3412 15.0305 21.121 15.0863 22.0672C15.1358 22.9046 15.1929 23.8723 15.2327 24.862C15.2743 25.8987 15.2956 26.9454 15.2639 27.8468C15.2329 28.7271 15.1503 29.5373 14.9516 30.0582C14.9259 30.1256 14.8698 30.242 14.8084 30.3692C14.8018 30.3829 14.7952 30.3967 14.7885 30.4105C14.7124 30.5686 14.6126 30.7766 14.4957 31.0317C14.4314 31.1721 14.3619 31.3267 14.2884 31.495C15.2551 30.8013 16.1638 30.1849 16.813 29.8659C17.7047 29.4276 18.7015 28.9899 19.6924 28.6073C19.9864 27.1067 20.3527 25.4933 20.7119 23.9108C20.7462 23.7598 20.7804 23.6091 20.8145 23.4588C20.2766 22.6306 19.7324 21.8276 19.2326 21.0901C19.0862 20.8741 18.9436 20.6637 18.806 20.4599C18.1745 19.524 17.6352 18.7069 17.3545 18.1551C16.6265 16.7238 15.9685 15.9997 15.4038 15.4662ZM21.5698 24.6493C21.2968 25.8535 21.0269 27.0573 20.7927 28.2051C21.6345 27.9156 22.4515 27.6792 23.1678 27.5359C22.7427 26.6269 22.1818 25.6409 21.5698 24.6493ZM12.41 37.745C12.1654 39.1978 12.0329 40.7891 12.1101 42.4604C12.2208 44.8533 12.2224 46.3485 12.1364 47.3347C12.0496 48.3299 11.8699 48.8593 11.5824 49.2832C11.4369 49.4977 11.2153 49.7119 11.0255 49.8952L10.9938 49.9259C10.799 50.1139 10.6107 50.2958 10.4466 50.4916C10.1005 50.9047 9.95792 51.2635 10.0947 51.6669C10.1639 51.871 10.3086 52.0554 10.5462 52.2435C10.789 52.4355 11.096 52.6066 11.4577 52.798C11.5075 52.8244 11.5585 52.8511 11.6105 52.8784C12.2659 53.2223 13.083 53.651 13.5719 54.3718C14.0519 55.0797 14.2349 55.6193 14.3774 56.0395C14.512 56.4362 14.5918 56.6554 14.8126 56.8811C14.8196 56.884 14.8298 56.8878 14.8438 56.8924C14.8982 56.91 14.9791 56.9282 15.088 56.9443C15.3051 56.9762 15.5807 56.9921 15.8685 56.9976C16.294 57.0058 16.6531 56.9928 16.8934 56.9841C16.9991 56.9803 17.0817 56.9773 17.137 56.9773C17.2384 56.9773 17.3332 56.9678 17.4205 56.9517C17.1883 56.8754 16.9575 56.7782 16.7507 56.6766C16.5097 56.5581 16.2756 56.421 16.0805 56.2772C15.9009 56.1448 15.6966 55.9654 15.5861 55.7483C15.2051 54.9993 14.9255 53.9334 14.7136 53.0061C14.6379 52.675 14.5687 52.3514 14.5063 52.0597C14.4804 51.9385 14.4556 51.8228 14.4321 51.7143C14.3489 51.3311 14.284 51.0552 14.2319 50.9015C14.1747 50.7329 14.1639 50.4987 14.1627 50.2911C14.1613 50.0584 14.1734 49.7703 14.1963 49.446C14.2423 48.7961 14.3337 47.9755 14.4593 47.1107C14.7084 45.3968 15.1017 43.4426 15.5686 42.2951C15.833 41.6453 16.1495 40.491 16.4849 39.152C16.647 38.5048 16.8114 37.8235 16.9745 37.1474L16.9869 37.0963C17.0771 36.7222 17.167 36.35 17.2557 35.9871C15.3576 36.6519 13.5307 37.2931 12.41 37.745ZM18.2583 57.1089C18.2583 57.1089 18.2573 57.1088 18.2553 57.1085L18.2583 57.1089ZM20.4141 3.09569C20.2574 3.0638 20.0718 3.13012 19.9447 3.29902C19.8259 3.45694 19.6834 3.64115 19.5328 3.82404C19.9666 3.99988 20.4724 4.20721 20.9656 4.41654C21.7318 4.74179 22.5023 5.08615 22.9157 5.32781C23.358 5.58634 23.903 6.06621 24.3817 6.53978C24.6784 6.83335 24.9653 7.14019 25.2052 7.41678L25.5969 6.95975C25.76 6.76936 25.7531 6.49782 25.5936 6.32429C25.0426 5.72497 24.2928 4.94597 23.6621 4.39876C23.3123 4.09525 22.7808 3.82223 22.1746 3.59467C21.5761 3.37 20.9412 3.20299 20.4141 3.09569ZM24.5467 8.18524C24.313 7.90833 24.0058 7.57462 23.6784 7.25067C23.2085 6.78582 22.7381 6.38227 22.4111 6.19113C22.0626 5.98742 21.3529 5.66729 20.5748 5.33705C19.934 5.06505 19.2702 4.79588 18.7719 4.59519C18.5643 4.74689 18.3055 4.90604 18.0451 5.06547C18.0039 5.09069 17.9621 5.11626 17.9196 5.14222C17.5345 5.37758 17.0983 5.64409 16.6514 5.95337C15.6499 6.64636 14.6664 7.5069 14.1716 8.57698C13.6958 9.60588 13.8237 10.8167 14.1912 11.9007C14.5605 12.9897 15.1334 13.8383 15.3946 14.095C15.5009 14.1996 15.6193 14.3067 15.748 14.4233C16.3887 15.0034 17.2871 15.8168 18.2459 17.7017C18.4926 18.1868 18.9919 18.9477 19.6349 19.9005C19.7704 20.1012 19.9115 20.3094 20.057 20.5241C20.5929 21.3148 21.1873 22.1918 21.7688 23.0927C22.7669 24.6388 23.7472 26.2856 24.3481 27.7325C24.408 27.8769 24.397 28.0409 24.3183 28.176C24.2397 28.311 24.1024 28.4015 23.9473 28.4206C23.0032 28.5366 21.6877 28.9231 20.3066 29.4433C19.2609 29.8371 18.1957 30.3005 17.2541 30.7633C16.395 31.1856 14.9571 32.2364 13.4749 33.3258L13.4039 33.378C12.6525 33.9302 11.9011 34.4825 11.2379 34.9402C10.5647 35.4048 9.94316 35.8 9.49072 35.9906C9.01229 36.1922 8.59526 36.2122 8.21814 36.0851C7.88502 35.9729 7.62827 35.7561 7.44847 35.6043C7.4412 35.5982 7.43405 35.5922 7.42703 35.5863C7.22079 35.4125 7.09787 35.3164 6.9609 35.2703C6.85447 35.2344 6.69125 35.2143 6.396 35.3387C6.08561 35.4695 5.90021 35.6316 5.77968 35.8002C5.65602 35.9732 5.57986 36.1823 5.53298 36.4357C5.48509 36.6946 5.47202 36.9716 5.45788 37.2841L5.45726 37.2978C5.44398 37.5916 5.4289 37.9253 5.36545 38.2372C5.2192 38.956 4.71846 39.485 4.20884 39.8681C3.70127 40.2497 3.11367 40.5385 2.67947 40.7519L2.66448 40.7592C2.66452 40.7592 2.66347 40.7597 2.66132 40.761C2.65918 40.7623 2.65607 40.7643 2.65202 40.7672C2.6438 40.7731 2.63259 40.782 2.61857 40.795C2.59 40.8215 2.55476 40.8603 2.51404 40.9143C2.43179 41.0233 2.34247 41.1737 2.2509 41.3615C2.06803 41.7365 1.89822 42.2148 1.76549 42.6975C1.66259 43.0718 1.58565 43.4354 1.54173 43.7409C1.55721 43.7195 1.57307 43.6975 1.5893 43.6749C1.78745 43.3997 2.04068 43.048 2.31447 42.7788C2.70638 42.3936 3.32227 42.038 3.95656 41.7127C4.34135 41.5153 4.76836 41.3121 5.18713 41.1128C5.46001 40.983 5.72939 40.8548 5.98131 40.731C6.5937 40.43 7.43602 39.8117 8.36247 39.1218C8.40541 39.0898 8.4485 39.0577 8.49173 39.0255C9.35501 38.3822 10.2713 37.6994 11.0413 37.2669C11.2199 37.1666 11.4734 37.051 11.7716 36.9261C12.9105 36.4492 14.9714 35.7275 17.0571 34.9971C17.3042 34.9106 17.5517 34.8239 17.798 34.7375C19.1426 34.266 20.4582 33.8008 21.5166 33.4017C22.046 33.202 22.5067 33.0205 22.8724 32.8642C23.2481 32.7036 23.4932 32.5821 23.6122 32.504C23.9256 32.2986 24.3222 32.1282 24.7311 31.9742C25.0117 31.8685 25.3198 31.7629 25.6295 31.6567C25.7713 31.608 25.9135 31.5593 26.0535 31.5104C26.9688 31.1906 27.8296 30.849 28.4149 30.3768C28.8499 29.9411 28.975 29.4759 28.9965 29.1167C29.0075 28.9318 28.9908 28.7743 28.9719 28.6651C28.9624 28.6109 28.9526 28.5696 28.946 28.5441C28.9426 28.5314 28.9401 28.5228 28.9388 28.5185C28.9385 28.5177 28.9383 28.517 28.9382 28.5165C28.938 28.516 28.9382 28.5166 28.9382 28.5165C28.9381 28.5164 28.9379 28.5155 28.9379 28.5155L28.9362 28.5105L28.9031 28.4066L28.8067 28.1063C28.7227 27.8448 28.6002 27.4651 28.4464 26.9925C28.4427 26.9812 28.4394 26.9697 28.4365 26.9581C27.114 21.6239 24.6966 16.9174 22.9686 13.5533C22.7271 13.083 22.499 12.639 22.2893 12.2231C22.0169 11.683 22.1022 11.0379 22.4913 10.5838L24.5467 8.18524Z" fill="black"/>
</g>
<defs>
<clipPath id="clip0_3026_186599">
<rect width="30" height="60" fill="white"/>
</clipPath>
</defs>
</svg>
