<svg width="30" height="60" viewBox="0 0 30 60" fill="none" xmlns="http://www.w3.org/2000/svg">
<path fill-rule="evenodd" clip-rule="evenodd" d="M22.4467 11.6757L24.7502 8.93856C24.8795 8.78488 24.8873 8.56232 24.7604 8.40661C24.184 7.69943 23.1466 6.63428 22.4826 6.23906C21.734 5.79351 19.5742 4.90956 18.5734 4.5C18.3943 4.67932 18.0268 4.90795 17.5656 5.19493C16.3493 5.95164 14.4811 7.11401 13.6938 8.84775C12.6079 11.239 14.3454 14.2824 14.9969 14.9346C14.8136 16.1665 14.4471 18.978 14.4471 20.3693C14.4471 20.8348 14.4937 21.6429 14.5496 22.6102C14.7025 25.2569 14.9242 29.0955 14.4471 30.3691C14.4297 30.4154 14.3835 30.513 14.3149 30.6582C14.0937 31.126 13.6392 32.0872 13.1643 33.4132L13.0976 33.4631C11.5941 34.5884 10.122 35.6901 9.35026 36.0212C8.59013 36.3473 8.21007 36.0212 7.83002 35.6951C7.44997 35.369 7.06992 35.0429 6.30983 35.369C5.17242 35.857 5.12912 36.8317 5.08846 37.7469C5.07478 38.0549 5.0614 38.3561 5.00671 38.6298C4.78954 39.7168 3.48652 40.3689 2.61782 40.8037C1.74911 41.2385 0.880397 44.9341 1.31475 45.1515C1.59163 45.29 1.86852 44.8986 2.20166 44.4276C2.39112 44.1598 2.59878 43.8662 2.83499 43.6297C3.35622 43.108 4.43341 42.5863 5.5106 42.0646C5.77991 41.9341 6.04921 41.8037 6.30983 41.6733C6.98906 41.3333 7.90433 40.639 8.84032 39.9289C9.69997 39.2768 10.5771 38.6114 11.3049 38.1951C11.4545 38.1095 11.6819 38.0029 11.9716 37.8794C11.6969 39.435 11.5411 41.1584 11.6237 42.9776C11.8409 47.7601 11.6237 48.847 11.1894 49.4992C11.0742 49.6721 10.8828 49.8603 10.6716 50.0678C10.0864 50.643 9.34995 51.3667 9.66915 52.3253C9.89963 53.0174 10.6193 53.4034 11.3739 53.8082C12.0414 54.1663 12.7362 54.5391 13.144 55.1513C13.5783 55.8034 13.7412 56.2926 13.8769 56.7002C14.0127 57.1078 14.1213 57.4339 14.447 57.7599C14.7461 58.0593 16.3365 58.0021 16.8854 57.9823C16.9667 57.9794 17.0251 57.9773 17.0532 57.9773C18.139 57.9773 18.7906 57.1078 18.139 57.1078C17.4875 57.1078 16.1845 56.4556 15.9673 56.0208C15.503 55.0915 15.1841 53.573 14.9498 52.4569C14.8374 51.9218 14.7444 51.4793 14.6642 51.2383C14.447 50.5862 15.0986 45.1515 15.9673 42.9776C16.3766 41.9534 16.8823 39.8192 17.3708 37.7575C17.5392 37.0471 17.7055 36.3454 17.8651 35.7006C20.5062 34.7574 23.0554 33.832 23.684 33.4125C24.122 33.1203 24.8052 32.8818 25.5469 32.6228C26.5708 32.2654 27.7062 31.869 28.4619 31.2387C29.5477 30.1517 29.1134 28.8474 29.1134 28.8474C29.1134 28.8474 28.9338 28.2726 28.6312 27.3257C27.3171 21.9284 24.9141 17.1659 23.2175 13.8034C22.9151 13.2041 22.6352 12.6494 22.3879 12.1434C22.3127 11.9894 22.3364 11.8068 22.4467 11.6757ZM23.6838 28.4124C23.1114 27.0089 22.1687 25.3929 21.1908 23.8502C21.1421 24.0688 21.0932 24.2883 21.0442 24.5081C20.6694 26.1892 20.2891 27.8951 19.9938 29.4639C21.3618 28.9393 22.6977 28.5358 23.6838 28.4124Z" fill="#789CB9" fill-opacity="0.5"/>
<path d="M26.3298 11.0782C25.3458 11.6546 24.1439 11.8542 23.3583 11.9222C22.9824 11.9547 22.7304 12.3631 22.9018 12.6992C23.092 13.0721 23.2967 13.4678 23.5124 13.8848L23.5355 13.9294L16.549 16.5613C16.6586 16.6956 16.7706 16.8412 16.8848 17H14.7383C14.8351 16.2208 14.9363 15.5051 15.0094 15.0261C14.3355 14.3681 12.5384 11.2975 13.6615 8.88497C14.7847 6.47239 18.0348 5.15644 18.7088 4.49847C18.7534 4.45491 18.7991 4.40806 18.8455 4.35874C19.1948 3.98723 19.5801 3.4762 19.7911 3.18682C19.8906 3.05047 20.0585 2.97736 20.2274 3.00625C21.3323 3.1953 23.165 3.69271 24.1001 4.49847C24.8577 5.15137 27.099 7.07758 28.211 8.09637C28.5631 8.41892 28.5911 8.9379 28.278 9.29833C27.7825 9.86856 27.0144 10.6771 26.3298 11.0782Z" fill="#789CB9"/>
<path fill-rule="evenodd" clip-rule="evenodd" d="M19.1457 3.19776C19.473 2.76282 20.0297 2.49694 20.6136 2.61579C21.1802 2.73114 21.8677 2.91133 22.5261 3.15845C23.1767 3.40268 23.8364 3.72602 24.3175 4.14344C25.0765 4.80204 27.4599 6.90961 28.5847 7.96646C29.1004 8.45103 29.1646 9.2255 28.7409 9.78935C28.388 10.2589 27.8552 10.9199 27.3277 11.3776C26.7754 11.8569 26.0185 12.1122 25.3128 12.2536C24.5963 12.3971 23.8712 12.4349 23.3305 12.4379C23.3232 12.4379 23.3173 12.4396 23.3112 12.4431C23.304 12.4472 23.2966 12.454 23.2911 12.4625C23.2868 12.4691 23.2854 12.474 23.285 12.4761C23.285 12.4762 23.2849 12.476 23.285 12.4761C23.4636 12.8281 23.6551 13.2009 23.857 13.594L23.8631 13.6058C25.5861 16.9594 28.0503 21.7556 29.4028 27.2C29.5544 27.666 29.6754 28.0409 29.7588 28.3002L29.8555 28.602L29.887 28.7004L29.8878 28.7031L29.8886 28.7055L29.889 28.7068L29.89 28.7098L29.896 28.7291C29.9006 28.7444 29.9065 28.7649 29.9131 28.7899C29.9263 28.84 29.9424 28.9091 29.9571 28.994C29.9865 29.1633 30.0112 29.3996 29.9947 29.6765C29.9611 30.2365 29.7574 30.9595 29.1 31.6058C29.0892 31.6164 29.078 31.6264 29.0663 31.636C28.3256 32.2428 27.2935 32.6364 26.3833 32.9544C26.23 33.008 26.0807 33.0592 25.9355 33.1089C25.6341 33.2123 25.3501 33.3096 25.0835 33.41C24.6883 33.5589 24.3775 33.6981 24.1604 33.8404C23.9595 33.9721 23.6403 34.1234 23.2655 34.2837C22.8807 34.4482 22.4048 34.6354 21.8695 34.8373C20.8661 35.2157 19.6389 35.6511 18.383 36.092C18.2454 36.6444 18.1032 37.233 17.959 37.8308L17.9461 37.8843C17.7833 38.5588 17.6181 39.2437 17.4549 39.895C17.123 41.2201 16.7906 42.4451 16.4949 43.172C16.0776 44.1974 15.6972 46.046 15.4489 47.7546C15.3259 48.6011 15.2377 49.3966 15.1938 50.0166C15.1719 50.3272 15.1615 50.5875 15.1627 50.7851C15.1638 50.9718 15.1758 51.0569 15.1786 51.0763C15.1791 51.08 15.1793 51.0813 15.179 51.0804C15.2529 51.2984 15.3294 51.6341 15.4093 52.0022C15.4341 52.1162 15.4595 52.2353 15.4859 52.3584C15.5477 52.6475 15.6144 52.9593 15.6884 53.2832C15.9018 54.2168 16.1594 55.1696 16.4774 55.7949C16.4767 55.7936 16.4764 55.7929 16.4764 55.7929C16.4765 55.7928 16.4868 55.8094 16.5187 55.8416C16.5544 55.8778 16.6058 55.9221 16.6739 55.9723C16.8103 56.0729 16.9907 56.1803 17.1918 56.2791C17.6144 56.4868 18.0277 56.6081 18.2423 56.6081C18.371 56.6081 18.527 56.6278 18.6717 56.7074C18.8342 56.7969 18.9628 56.9539 18.9978 57.1603C19.0289 57.3437 18.9755 57.5029 18.9211 57.6098C18.8644 57.7213 18.7858 57.8182 18.7034 57.8993C18.3818 58.2154 17.8107 58.4773 17.137 58.4773C17.13 58.4773 17.1033 58.4783 17.061 58.4798C16.8625 58.487 16.3201 58.5065 15.8493 58.4974C15.5452 58.4916 15.221 58.4746 14.9424 58.4336C14.8035 58.4131 14.6627 58.3849 14.5355 58.3437C14.4194 58.306 14.2604 58.241 14.1339 58.1166C13.7171 57.7069 13.5737 57.2836 13.4388 56.8856L13.4306 56.8612C13.2968 56.4666 13.1481 56.0286 12.7442 55.433C12.4018 54.9282 11.8007 54.6104 11.0801 54.2295C11.0502 54.2138 11.0202 54.1979 10.9899 54.1819C10.6332 53.993 10.2494 53.7838 9.92575 53.5277C9.59693 53.2675 9.2995 52.9358 9.14766 52.488C8.84233 51.5876 9.25237 50.8599 9.68002 50.3495C9.8795 50.1113 10.1036 49.8951 10.2909 49.7145C10.3043 49.7015 10.3176 49.6886 10.3307 49.676C10.5416 49.4723 10.6792 49.3333 10.7548 49.2219C10.9094 48.9939 11.0612 48.6541 11.1402 47.7479C11.22 46.8327 11.2216 45.3944 11.1112 43.0066C11.0422 41.5143 11.1329 40.0869 11.3184 38.7626C10.6494 39.1651 9.86275 39.7511 9.06108 40.3483L8.95975 40.4238C8.06249 41.092 7.13637 41.7775 6.42242 42.1284C6.14365 42.2654 5.86514 42.3979 5.59017 42.5286C5.18671 42.7204 4.79086 42.9086 4.41292 43.1024C3.77614 43.429 3.28675 43.7253 3.01549 43.992C2.80718 44.1968 2.63497 44.436 2.45215 44.6899C2.37329 44.7995 2.29246 44.9118 2.20591 45.0252C2.08011 45.1901 1.92388 45.3799 1.74342 45.5089C1.54731 45.6491 1.23592 45.7718 0.897039 45.6052C0.725652 45.521 0.637523 45.3787 0.593951 45.2818C0.549074 45.1821 0.527469 45.0788 0.515796 44.9915C0.492263 44.8156 0.497303 44.6096 0.515987 44.4021C0.553947 43.9804 0.657804 43.4543 0.801274 42.9324C0.94487 42.4102 1.13428 41.8698 1.35207 41.4232C1.46083 41.2001 1.5822 40.989 1.71583 40.8119C1.84433 40.6416 2.01153 40.4659 2.22337 40.3618C2.67199 40.1413 3.18192 39.889 3.60795 39.5688C4.03779 39.2456 4.31071 38.9055 4.38552 38.5378C4.4316 38.3113 4.4447 38.0529 4.45891 37.7389L4.45984 37.7182C4.47311 37.4242 4.48845 37.0847 4.54966 36.7538C4.61333 36.4096 4.73061 36.0482 4.96617 35.7187C5.20485 35.3848 5.54446 35.1124 6.00774 34.9172C6.48615 34.7156 6.90318 34.6955 7.2803 34.8226C7.61341 34.9349 7.87015 35.1517 8.04995 35.3035C8.05723 35.3096 8.06437 35.3156 8.07139 35.3215C8.27763 35.4953 8.40056 35.5914 8.53752 35.6375C8.64396 35.6734 8.8072 35.6935 9.10247 35.5691C9.44713 35.4239 9.98977 35.0866 10.6699 34.6172C11.3044 34.1793 12.0245 33.6507 12.7614 33.1091C13.0651 32.2898 13.3576 31.6147 13.5866 31.1151C13.7076 30.8511 13.8108 30.6362 13.8875 30.4768C13.9263 30.3962 13.957 30.3326 13.9806 30.2825C13.9923 30.2577 14.0013 30.2382 14.008 30.2232C14.0142 30.2093 14.0167 30.203 14.0172 30.2019C14.0173 30.2017 14.0172 30.2018 14.0172 30.2019C14.15 29.8537 14.2333 29.1969 14.2645 28.3116C14.2949 27.4474 14.2747 26.4298 14.2335 25.4021C14.1962 24.4729 14.1405 23.5226 14.0913 22.6818C14.0334 21.6942 13.9844 20.8578 13.9844 20.3841C13.9844 19.5033 14.1265 18.103 14.2765 16.8828C14.3591 16.2105 14.4454 15.5832 14.5147 15.1113C14.1188 14.6339 13.5928 13.75 13.2442 12.7218C12.8381 11.5242 12.6344 10.0187 13.2639 8.65728C13.8744 7.33705 15.0426 6.35053 16.0824 5.63105C16.5541 5.30463 17.0143 5.02346 17.3976 4.78926C17.4404 4.76313 17.4822 4.73759 17.523 4.71263C17.9552 4.44795 18.2188 4.27771 18.334 4.16452C18.5896 3.91319 18.9014 3.52238 19.1457 3.19776ZM15.4038 15.9658C15.383 16.1185 15.3616 16.2785 15.3401 16.4438H15.8761C15.7114 16.2628 15.5548 16.1079 15.4038 15.9658ZM16.6524 17.4438H15.2164C15.0887 18.5396 14.9844 19.6685 14.9844 20.3841C14.9844 20.8412 15.0305 21.621 15.0863 22.5672C15.1358 23.4046 15.1929 24.3723 15.2327 25.362C15.2743 26.3987 15.2956 27.4454 15.2639 28.3468C15.2329 29.2271 15.1503 30.0373 14.9516 30.5582C14.9259 30.6256 14.8698 30.742 14.8084 30.8693C14.8018 30.8829 14.7952 30.8967 14.7885 30.9105C14.7124 31.0686 14.6126 31.2766 14.4957 31.5317C14.4314 31.6721 14.3619 31.8267 14.2884 31.995C15.2551 31.3013 16.1638 30.6849 16.813 30.3659C17.7047 29.9276 18.7015 29.4899 19.6924 29.1073C19.9864 27.6067 20.3527 25.9932 20.7119 24.4108C20.7462 24.2598 20.7804 24.1091 20.8145 23.9588C20.2766 23.1306 19.7324 22.3276 19.2325 21.59C19.0861 21.3741 18.9435 21.1637 18.806 20.9599C18.1745 20.024 17.6352 19.2069 17.3545 18.6551C17.1121 18.1784 16.8771 17.7807 16.6524 17.4438ZM21.5698 25.1493C21.2968 26.3535 21.0269 27.5573 20.7927 28.7051C21.6345 28.4156 22.4515 28.1792 23.1678 28.0359C22.7427 27.1269 22.1818 26.1409 21.5698 25.1493ZM17.475 16.8749C17.7258 17.2496 17.9835 17.6859 18.2459 18.2017C18.4926 18.6868 18.9919 19.4477 19.6349 20.4005C19.7703 20.6012 19.9115 20.8094 20.0569 21.024C20.5928 21.8147 21.1873 22.6918 21.7688 23.5927C22.7668 25.1388 23.7472 26.7856 24.3481 28.2325C24.408 28.3769 24.397 28.5409 24.3183 28.676C24.2397 28.811 24.1024 28.9015 23.9473 28.9206C23.0032 29.0366 21.6877 29.4231 20.3066 29.9433C19.2609 30.3371 18.1957 30.8005 17.2541 31.2633C16.395 31.6856 14.9571 32.7364 13.4749 33.8258L13.4039 33.878C12.6525 34.4302 11.9011 34.9825 11.2379 35.4402C10.5647 35.9048 9.94316 36.3 9.49072 36.4906C9.01229 36.6922 8.59526 36.7123 8.21814 36.5852C7.88501 36.4729 7.62826 36.2561 7.44845 36.1043C7.44119 36.0982 7.43405 36.0922 7.42703 36.0863C7.22079 35.9125 7.09787 35.8164 6.9609 35.7703C6.85447 35.7344 6.69125 35.7143 6.396 35.8387C6.08561 35.9695 5.90021 36.1316 5.77968 36.3003C5.65602 36.4732 5.57985 36.6823 5.53298 36.9357C5.48509 37.1946 5.47202 37.4716 5.45788 37.7841L5.45726 37.7978C5.44398 38.0916 5.4289 38.4253 5.36545 38.7372C5.2192 39.456 4.71846 39.985 4.20884 40.3681C3.70128 40.7497 3.11371 41.0384 2.67951 41.2518L2.66448 41.2592C2.66452 41.2592 2.66347 41.2597 2.66132 41.261C2.65918 41.2623 2.65607 41.2643 2.65202 41.2672C2.6438 41.2731 2.63259 41.282 2.61857 41.295C2.59 41.3215 2.55476 41.3603 2.51404 41.4143C2.43179 41.5233 2.34247 41.6737 2.2509 41.8615C2.06803 42.2365 1.89822 42.7148 1.76549 43.1975C1.66259 43.5718 1.58565 43.9354 1.54173 44.2409C1.55721 44.2195 1.57307 44.1975 1.5893 44.1749C1.78745 43.8997 2.04068 43.548 2.31447 43.2788C2.70638 42.8936 3.32227 42.538 3.95656 42.2127C4.34133 42.0153 4.76832 41.8121 5.18707 41.6129C5.45997 41.483 5.72938 41.3548 5.98131 41.231C6.5937 40.93 7.43602 40.3117 8.36247 39.6217C8.40545 39.5897 8.44858 39.5576 8.49185 39.5254C9.3551 38.8821 10.2713 38.1994 11.0413 37.7669C11.2199 37.6666 11.4734 37.551 11.7716 37.4261C12.9105 36.9492 14.9714 36.2275 17.057 35.4971C17.3042 35.4106 17.5516 35.3239 17.798 35.2375C19.1426 34.766 20.4581 34.3008 21.5166 33.9017C22.046 33.702 22.5067 33.5205 22.8724 33.3642C23.2481 33.2036 23.4932 33.0821 23.6122 33.004C23.9256 32.7986 24.3222 32.6282 24.7311 32.4742C25.0117 32.3685 25.3198 32.2629 25.6295 32.1567C25.7713 32.108 25.9135 32.0593 26.0535 32.0104C26.9688 31.6906 27.8296 31.349 28.4149 30.8768C28.8498 30.4411 28.9749 29.9759 28.9965 29.6167C29.0075 29.4318 28.9908 29.2743 28.9719 29.1651C28.9624 29.1109 28.9526 29.0696 28.9459 29.0441C28.9426 29.0314 28.9401 29.0228 28.9388 29.0185C28.9385 29.0177 28.9383 29.017 28.9382 29.0165C28.938 29.016 28.9382 29.0166 28.9382 29.0165C28.9381 29.0164 28.9378 29.0155 28.9379 29.0155L28.9361 29.0105L28.9031 28.9066L28.8067 28.6063C28.7227 28.3448 28.6002 27.9651 28.4464 27.4925C28.4427 27.4812 28.4394 27.4697 28.4365 27.4581C27.1692 22.3465 24.893 17.8035 23.1839 14.4722L17.475 16.8749ZM22.7258 13.5801C22.611 13.3563 22.5 13.139 22.3933 12.9288C22.0338 12.2201 22.5978 11.4419 23.325 11.4379C23.8308 11.4351 24.4861 11.3993 25.1163 11.2731C25.7572 11.1447 26.3132 10.934 26.6723 10.6223C27.1155 10.2378 27.5958 9.64849 27.9414 9.18859C28.0603 9.03047 28.0424 8.82907 27.9 8.69524C26.7899 7.65222 24.4185 5.555 23.6621 4.89876C23.3123 4.59525 22.7808 4.32223 22.1746 4.09467C21.5761 3.87 20.9412 3.70299 20.4141 3.59569C20.2574 3.5638 20.0718 3.63012 19.9447 3.79902C19.6974 4.12765 19.3478 4.57016 19.035 4.87768C18.8185 5.09044 18.4336 5.32764 18.0451 5.56547C18.004 5.59068 17.9621 5.61625 17.9196 5.6422C17.5345 5.87757 17.0984 6.14408 16.6514 6.45337C15.6499 7.14636 14.6664 8.0069 14.1716 9.07698C13.6958 10.1059 13.8237 11.3167 14.1912 12.4007C14.5605 13.4897 15.1334 14.3383 15.3946 14.595C15.4905 14.6893 15.602 14.7903 15.7259 14.9026C16.0409 15.1881 16.436 15.5462 16.8581 16.0496L22.7258 13.5801ZM12.41 38.245C12.1654 39.6978 12.0329 41.2891 12.1101 42.9604C12.2208 45.3533 12.2224 46.8485 12.1364 47.8347C12.0496 48.8299 11.8699 49.3593 11.5824 49.7832C11.4369 49.9977 11.2153 50.2119 11.0255 50.3952L10.9938 50.4259C10.799 50.6139 10.6107 50.7958 10.4466 50.9916C10.1005 51.4047 9.95792 51.7635 10.0947 52.1669C10.1639 52.371 10.3086 52.5554 10.5462 52.7435C10.789 52.9355 11.096 53.1066 11.4577 53.298C11.5075 53.3244 11.5585 53.3511 11.6105 53.3784C12.2659 53.7223 13.083 54.151 13.5719 54.8718C14.0519 55.5797 14.2349 56.1193 14.3774 56.5395C14.512 56.9363 14.5918 57.1554 14.8126 57.3811C14.8196 57.384 14.8298 57.3878 14.8438 57.3924C14.8982 57.41 14.9791 57.4282 15.088 57.4443C15.3051 57.4762 15.5807 57.4921 15.8685 57.4976C16.294 57.5058 16.6531 57.4928 16.8934 57.4841C16.9991 57.4803 17.0817 57.4773 17.137 57.4773C17.2384 57.4773 17.3332 57.4678 17.4205 57.4517C17.1883 57.3754 16.9575 57.2782 16.7507 57.1766C16.5097 57.0581 16.2756 56.921 16.0805 56.7772C15.9009 56.6448 15.6966 56.4654 15.5861 56.2483C15.2051 55.4993 14.9255 54.4334 14.7135 53.5061C14.6379 53.175 14.5687 52.8514 14.5063 52.5597C14.4804 52.4385 14.4556 52.3228 14.4321 52.2143C14.3489 51.8311 14.284 51.5552 14.2319 51.4015C14.1747 51.2329 14.1639 50.9987 14.1627 50.7911C14.1613 50.5584 14.1734 50.2703 14.1963 49.946C14.2423 49.2961 14.3337 48.4755 14.4593 47.6107C14.7084 45.8968 15.1017 43.9426 15.5686 42.7951C15.833 42.1453 16.1495 40.991 16.4849 39.652C16.647 39.0048 16.8114 38.3235 16.9745 37.6474L16.9869 37.5963C17.0771 37.2222 17.167 36.85 17.2557 36.4871C15.3576 37.1519 13.5307 37.7931 12.41 38.245ZM18.2583 57.6089C18.2581 57.6089 18.2571 57.6088 18.2554 57.6085L18.2583 57.6089Z" fill="black"/>
</svg>
