<svg width="30" height="60" viewBox="0 0 30 60" fill="none" xmlns="http://www.w3.org/2000/svg">
<g clip-path="url(#clip0_3026_186626)">
<path fill-rule="evenodd" clip-rule="evenodd" d="M22.6634 11.3091L25.012 8.52107C25.1438 8.36453 26.6294 6.6586 26.5 6.5C25.9124 5.77968 25.177 4.90257 24.5 4.5C23.7368 4.04617 21.5203 2.91717 20.5 2.5C20.3173 2.68266 18.157 4.41554 17.6867 4.70785C16.4467 5.47862 14.5419 6.6626 13.7392 8.42857C12.6321 10.8643 14.4035 13.9643 15.0678 14.6286C14.8809 15.8833 14.5072 18.7471 14.5072 20.1643C14.5072 20.6384 14.5548 21.4616 14.6117 22.4469C14.7676 25.1428 14.9936 29.0527 14.5072 30.35C14.4895 30.3971 14.4424 30.4966 14.3724 30.6445C14.1469 31.1209 13.6835 32.1 13.1994 33.4507L13.1313 33.5015C11.5983 34.6478 10.0974 35.7699 9.3106 36.1071C8.53559 36.4393 8.14809 36.1071 7.7606 35.775C7.37311 35.4429 6.98562 35.1107 6.21065 35.4429C5.05098 35.9399 5.00683 36.9327 4.96538 37.8649C4.95143 38.1787 4.93778 38.4855 4.88203 38.7643C4.6606 39.8714 3.33208 40.5357 2.44637 40.9786C1.56065 41.4214 0.674937 45.1857 1.11779 45.4071C1.4001 45.5483 1.6824 45.1496 2.02206 44.6698C2.21524 44.397 2.42696 44.098 2.66779 43.8571C3.19922 43.3257 4.2975 42.7943 5.39578 42.2629C5.67035 42.13 5.94493 41.9971 6.21065 41.8643C6.90318 41.518 7.83636 40.8108 8.79068 40.0875C9.66715 39.4232 10.5615 38.7455 11.3035 38.3214C11.456 38.2343 11.6879 38.1257 11.9832 37.9999C11.7032 39.5844 11.5444 41.3399 11.6286 43.1929C11.85 48.0643 11.6286 49.1714 11.1857 49.8357C11.0683 50.0118 10.8731 50.2035 10.6579 50.4148C10.0611 51.0007 9.31028 51.7379 9.63574 52.7143C9.87072 53.4193 10.6045 53.8125 11.3738 54.2248C12.0544 54.5896 12.7628 54.9693 13.1786 55.5929C13.6214 56.2571 13.7875 56.7554 13.9259 57.1705C14.0643 57.5857 14.175 57.9179 14.5071 58.25C14.8121 58.5549 16.4336 58.4967 16.9932 58.4765C17.0761 58.4736 17.1357 58.4714 17.1643 58.4714C18.2714 58.4714 18.9357 57.5857 18.2714 57.5857C17.6071 57.5857 16.2786 56.9214 16.0571 56.4786C15.5838 55.5319 15.2587 53.9852 15.0197 52.8484C14.9051 52.3034 14.8104 51.8526 14.7286 51.6071C14.5071 50.9429 15.1714 45.4071 16.0571 43.1929C16.4744 42.1496 16.9901 39.9758 17.4882 37.8757C17.6598 37.1522 17.8294 36.4374 17.9921 35.7806C20.6849 34.8199 23.284 33.8773 23.9249 33.45C24.3714 33.1523 25.0681 32.9094 25.8243 32.6456C26.8683 32.2815 28.0259 31.8777 28.7963 31.2357C29.9035 30.1286 29.4606 28.8 29.4606 28.8C29.4606 28.8 29.2775 28.2145 28.9689 27.25C27.6291 21.7524 25.1791 16.9013 23.4493 13.4763C23.141 12.8659 22.8556 12.3008 22.6035 11.7855C22.5267 11.6287 22.551 11.4426 22.6634 11.3091ZM23.9248 28.357C23.3411 26.9273 22.38 25.2812 21.3829 23.7099C21.3333 23.9326 21.2834 24.1561 21.2334 24.3801C20.8513 26.0924 20.4635 27.83 20.1625 29.428C21.5573 28.8936 22.9193 28.4826 23.9248 28.357Z" fill="#789CB9" fill-opacity="0.5"/>
<path fill-rule="evenodd" clip-rule="evenodd" d="M19.1457 2.69776C19.473 2.26282 20.0297 1.99694 20.6136 2.11579C21.1802 2.23114 21.8677 2.41133 22.5261 2.65845C23.1767 2.90268 23.8364 3.22602 24.3175 3.64344C24.9923 4.22893 25.773 5.04192 26.3297 5.64749C26.8421 6.20481 26.8391 7.04697 26.3562 7.61045L23.2507 11.2345C23.1197 11.3874 23.0945 11.5991 23.1821 11.7728C23.3883 12.1816 23.614 12.6209 23.8543 13.0883C25.5783 16.443 28.0492 21.251 29.4028 26.7C29.5544 27.166 29.6754 27.5409 29.7588 27.8002L29.8555 28.102L29.887 28.2004L29.8878 28.2031L29.8886 28.2055L29.889 28.2068L29.89 28.2098L29.896 28.2291C29.9006 28.2444 29.9065 28.2649 29.9131 28.2899C29.9263 28.34 29.9424 28.4091 29.9571 28.494C29.9865 28.6633 30.0112 28.8996 29.9947 29.1765C29.9611 29.7365 29.7574 30.4595 29.1 31.1058C29.0892 31.1164 29.078 31.1264 29.0663 31.136C28.3256 31.7428 27.2935 32.1364 26.3833 32.4544C26.23 32.508 26.0807 32.5592 25.9355 32.6089C25.6341 32.7123 25.3501 32.8096 25.0835 32.91C24.6883 33.0589 24.3775 33.1981 24.1604 33.3404C23.9595 33.4721 23.6403 33.6234 23.2655 33.7837C22.8807 33.9482 22.4048 34.1355 21.8695 34.3373C20.8661 34.7157 19.6389 35.1511 18.383 35.592C18.2454 36.1444 18.1032 36.733 17.959 37.3308L17.9464 37.3832C17.7835 38.0581 17.6182 38.7433 17.4549 39.395C17.123 40.7201 16.7906 41.9451 16.4949 42.672C16.0776 43.6974 15.6972 45.546 15.4489 47.2546C15.3259 48.1011 15.2377 48.8966 15.1938 49.5166C15.1719 49.8272 15.1615 50.0875 15.1627 50.2851C15.1638 50.4718 15.1758 50.5569 15.1786 50.5763C15.1791 50.58 15.179 50.5804 15.179 50.5804C15.2529 50.7984 15.3294 51.1341 15.4093 51.5022C15.4341 51.6162 15.4595 51.7353 15.4859 51.8584C15.5477 52.1475 15.6144 52.4593 15.6884 52.7832C15.9018 53.7168 16.1594 54.6696 16.4774 55.2949C16.4733 55.2868 16.4804 55.3029 16.5187 55.3416C16.5544 55.3778 16.6058 55.4221 16.6739 55.4723C16.8103 55.5729 16.9907 55.6803 17.1918 55.7791C17.6144 55.9868 18.0277 56.1081 18.2423 56.1081C18.371 56.1081 18.527 56.1278 18.6717 56.2074C18.8342 56.2969 18.9628 56.4539 18.9978 56.6604C19.0289 56.8437 18.9755 57.0029 18.9211 57.1098C18.8644 57.2213 18.7858 57.3182 18.7034 57.3993C18.3818 57.7154 17.8107 57.9773 17.137 57.9773C17.13 57.9773 17.1033 57.9783 17.061 57.9798C16.8625 57.987 16.3201 58.0065 15.8493 57.9974C15.5452 57.9916 15.221 57.9746 14.9424 57.9336C14.8035 57.9131 14.6627 57.8849 14.5355 57.8437C14.4194 57.806 14.2604 57.741 14.1339 57.6166C13.7171 57.2069 13.5737 56.7835 13.4388 56.3856L13.4306 56.3612C13.2968 55.9666 13.1481 55.5286 12.7442 54.933C12.4018 54.4282 11.8007 54.1104 11.0801 53.7296C11.0503 53.7138 11.0202 53.6979 10.9899 53.6818C10.6332 53.493 10.2494 53.2838 9.92575 53.0277C9.59693 52.7675 9.2995 52.4358 9.14767 51.988C8.84233 51.0876 9.25237 50.3599 9.68002 49.8495C9.8795 49.6113 10.1036 49.3951 10.2909 49.2145C10.3043 49.2015 10.3176 49.1887 10.3307 49.176C10.5416 48.9723 10.6792 48.8333 10.7548 48.7219C10.9094 48.4939 11.0612 48.1541 11.1402 47.2479C11.22 46.3327 11.2216 44.8944 11.1112 42.5066C11.0422 41.0143 11.1329 39.5869 11.3184 38.2626C10.6494 38.6651 9.86286 39.251 9.06123 39.8482L8.95975 39.9238C8.0625 40.592 7.13637 41.2775 6.42242 41.6284C6.14364 41.7654 5.86514 41.8979 5.59016 42.0286C5.18671 42.2204 4.79086 42.4086 4.41292 42.6024C3.77614 42.929 3.28675 43.2253 3.01549 43.492C2.80718 43.6968 2.63498 43.936 2.45216 44.1899C2.3733 44.2995 2.29246 44.4118 2.20591 44.5252C2.08011 44.6901 1.92388 44.8799 1.74342 45.0089C1.54731 45.1491 1.23592 45.2718 0.897039 45.1052C0.725652 45.021 0.637523 44.8787 0.593951 44.7819C0.549074 44.6821 0.527469 44.5788 0.515796 44.4915C0.492263 44.3156 0.497303 44.1096 0.515987 43.9021C0.553947 43.4804 0.657804 42.9543 0.801274 42.4324C0.94487 41.9102 1.13428 41.3698 1.35207 40.9232C1.46083 40.7001 1.5822 40.489 1.71583 40.3119C1.84433 40.1416 2.01153 39.9659 2.22337 39.8618C2.67199 39.6413 3.18192 39.389 3.60795 39.0688C4.03779 38.7456 4.31071 38.4055 4.38552 38.0378C4.4316 37.8113 4.4447 37.5529 4.45891 37.2389L4.45984 37.2182C4.47311 36.9242 4.48845 36.5847 4.54966 36.2538C4.61333 35.9096 4.73061 35.5482 4.96617 35.2187C5.20485 34.8848 5.54446 34.6124 6.00774 34.4172C6.48615 34.2156 6.90318 34.1955 7.2803 34.3226C7.61341 34.4349 7.87016 34.6517 8.04996 34.8035C8.05723 34.8096 8.06437 34.8156 8.07139 34.8215C8.27763 34.9953 8.40056 35.0914 8.53752 35.1375C8.64396 35.1734 8.8072 35.1935 9.10247 35.0691C9.44713 34.9239 9.98977 34.5866 10.6699 34.1172C11.3044 33.6793 12.0245 33.1507 12.7614 32.6091C13.0651 31.7898 13.3576 31.1147 13.5866 30.6151C13.7076 30.3511 13.8108 30.1362 13.8875 29.9768C13.9263 29.8962 13.957 29.8326 13.9806 29.7825C13.9923 29.7577 14.0013 29.7382 14.008 29.7232C14.0142 29.7093 14.0172 29.7019 14.0172 29.7019C14.15 29.3537 14.2333 28.6969 14.2645 27.8116C14.2949 26.9474 14.2747 25.9298 14.2335 24.9021C14.1962 23.9729 14.1405 23.0226 14.0913 22.1818C14.0334 21.1942 13.9844 20.3578 13.9844 19.8841C13.9844 18.5346 14.3204 15.9349 14.5147 14.6113C14.1188 14.1339 13.5928 13.25 13.2442 12.2218C12.8381 11.0242 12.6344 9.51871 13.2639 8.15728C13.8744 6.83705 15.0426 5.85053 16.0824 5.13105C16.5541 4.80461 17.0143 4.52344 17.3977 4.28923C17.4404 4.26311 17.4822 4.23758 17.523 4.21263C17.9552 3.94795 18.2188 3.77771 18.334 3.66452C18.5897 3.41319 18.9014 3.02238 19.1457 2.69776ZM15.4038 15.4662C15.2149 16.8511 14.9844 18.8161 14.9844 19.8841C14.9844 20.3412 15.0305 21.121 15.0863 22.0672C15.1358 22.9046 15.1929 23.8723 15.2327 24.862C15.2743 25.8987 15.2956 26.9454 15.2639 27.8468C15.2329 28.7271 15.1503 29.5373 14.9516 30.0582C14.9259 30.1256 14.8698 30.242 14.8084 30.3692C14.8018 30.3829 14.7952 30.3967 14.7885 30.4105C14.7124 30.5686 14.6126 30.7766 14.4957 31.0317C14.4314 31.1721 14.3619 31.3267 14.2884 31.495C15.2551 30.8013 16.1638 30.1849 16.813 29.8659C17.7047 29.4276 18.7015 28.9899 19.6924 28.6073C19.9864 27.1067 20.3527 25.4933 20.7119 23.9108C20.7462 23.7598 20.7804 23.6091 20.8145 23.4588C20.2766 22.6306 19.7324 21.8276 19.2326 21.0901C19.0862 20.8741 18.9436 20.6637 18.806 20.4599C18.1745 19.524 17.6352 18.7069 17.3545 18.1551C16.6265 16.7238 15.9685 15.9997 15.4038 15.4662ZM21.5698 24.6493C21.2968 25.8535 21.0269 27.0573 20.7927 28.2051C21.6345 27.9156 22.4515 27.6792 23.1678 27.5359C22.7427 26.6269 22.1818 25.6409 21.5698 24.6493ZM12.41 37.745C12.1654 39.1978 12.0329 40.7891 12.1101 42.4604C12.2208 44.8533 12.2224 46.3485 12.1364 47.3347C12.0496 48.3299 11.8699 48.8593 11.5824 49.2832C11.4369 49.4977 11.2153 49.7119 11.0255 49.8952L10.9938 49.9259C10.799 50.1139 10.6107 50.2958 10.4466 50.4916C10.1005 50.9047 9.95792 51.2635 10.0947 51.6669C10.1639 51.871 10.3086 52.0554 10.5462 52.2435C10.789 52.4355 11.096 52.6066 11.4577 52.798C11.5075 52.8244 11.5585 52.8511 11.6105 52.8784C12.2659 53.2223 13.083 53.651 13.5719 54.3718C14.0519 55.0797 14.2349 55.6193 14.3774 56.0395C14.512 56.4362 14.5918 56.6554 14.8126 56.8811C14.8196 56.884 14.8298 56.8878 14.8438 56.8924C14.8982 56.91 14.9791 56.9282 15.088 56.9443C15.3051 56.9762 15.5807 56.9921 15.8685 56.9976C16.294 57.0058 16.6531 56.9928 16.8934 56.9841C16.9991 56.9803 17.0817 56.9773 17.137 56.9773C17.2384 56.9773 17.3332 56.9678 17.4205 56.9517C17.1883 56.8754 16.9575 56.7782 16.7507 56.6766C16.5097 56.5581 16.2756 56.421 16.0805 56.2772C15.9009 56.1448 15.6966 55.9654 15.5861 55.7483C15.2051 54.9993 14.9255 53.9334 14.7136 53.0061C14.6379 52.675 14.5687 52.3514 14.5063 52.0597C14.4804 51.9385 14.4556 51.8228 14.4321 51.7143C14.3489 51.3311 14.284 51.0552 14.2319 50.9015C14.1747 50.7329 14.1639 50.4987 14.1627 50.2911C14.1613 50.0584 14.1734 49.7703 14.1963 49.446C14.2423 48.7961 14.3337 47.9755 14.4593 47.1107C14.7084 45.3968 15.1017 43.4426 15.5686 42.2951C15.833 41.6453 16.1495 40.491 16.4849 39.152C16.647 38.5048 16.8114 37.8235 16.9745 37.1474L16.9869 37.0963C17.0771 36.7222 17.167 36.35 17.2557 35.9871C15.3576 36.6519 13.5307 37.2931 12.41 37.745ZM18.2583 57.1089C18.2583 57.1089 18.2573 57.1088 18.2553 57.1085L18.2583 57.1089ZM20.4141 3.09569C20.2574 3.0638 20.0718 3.13012 19.9447 3.29902C19.8259 3.45694 19.6834 3.64115 19.5328 3.82404C19.9666 3.99988 20.4724 4.20721 20.9656 4.41654C21.7318 4.74179 22.5023 5.08615 22.9157 5.32781C23.358 5.58634 23.903 6.06621 24.3817 6.53978C24.6784 6.83335 24.9653 7.14019 25.2052 7.41678L25.5969 6.95975C25.76 6.76936 25.7531 6.49782 25.5936 6.32429C25.0426 5.72497 24.2928 4.94597 23.6621 4.39876C23.3123 4.09525 22.7808 3.82223 22.1746 3.59467C21.5761 3.37 20.9412 3.20299 20.4141 3.09569ZM24.5467 8.18524C24.313 7.90833 24.0058 7.57462 23.6784 7.25067C23.2085 6.78582 22.7381 6.38227 22.4111 6.19113C22.0626 5.98742 21.3529 5.66729 20.5748 5.33705C19.934 5.06505 19.2702 4.79588 18.7719 4.59519C18.5643 4.74689 18.3055 4.90604 18.0451 5.06547C18.0039 5.09069 17.9621 5.11626 17.9196 5.14222C17.5345 5.37758 17.0983 5.64409 16.6514 5.95337C15.6499 6.64636 14.6664 7.5069 14.1716 8.57698C13.6958 9.60588 13.8237 10.8167 14.1912 11.9007C14.5605 12.9897 15.1334 13.8383 15.3946 14.095C15.5009 14.1996 15.6193 14.3067 15.748 14.4233C16.3887 15.0034 17.2871 15.8168 18.2459 17.7017C18.4926 18.1868 18.9919 18.9477 19.6349 19.9005C19.7704 20.1012 19.9115 20.3094 20.057 20.5241C20.5929 21.3148 21.1873 22.1918 21.7688 23.0927C22.7669 24.6388 23.7472 26.2856 24.3481 27.7325C24.408 27.8769 24.397 28.0409 24.3183 28.176C24.2397 28.311 24.1024 28.4015 23.9473 28.4206C23.0032 28.5366 21.6877 28.9231 20.3066 29.4433C19.2609 29.8371 18.1957 30.3005 17.2541 30.7633C16.395 31.1856 14.9571 32.2364 13.4749 33.3258L13.4039 33.378C12.6525 33.9302 11.9011 34.4825 11.2379 34.9402C10.5647 35.4048 9.94316 35.8 9.49072 35.9906C9.01229 36.1922 8.59526 36.2122 8.21814 36.0851C7.88502 35.9729 7.62827 35.7561 7.44847 35.6043C7.4412 35.5982 7.43405 35.5922 7.42703 35.5863C7.22079 35.4125 7.09787 35.3164 6.9609 35.2703C6.85447 35.2344 6.69125 35.2143 6.396 35.3387C6.08561 35.4695 5.90021 35.6316 5.77968 35.8002C5.65602 35.9732 5.57986 36.1823 5.53298 36.4357C5.48509 36.6946 5.47202 36.9716 5.45788 37.2841L5.45726 37.2978C5.44398 37.5916 5.4289 37.9253 5.36545 38.2372C5.2192 38.956 4.71846 39.485 4.20884 39.8681C3.70127 40.2497 3.11367 40.5385 2.67947 40.7519L2.66448 40.7592C2.66448 40.7592 2.66347 40.7597 2.66132 40.761C2.65918 40.7623 2.65607 40.7643 2.65202 40.7672C2.6438 40.7731 2.63259 40.782 2.61857 40.795C2.59 40.8215 2.55476 40.8603 2.51404 40.9143C2.43179 41.0233 2.34247 41.1737 2.2509 41.3615C2.06803 41.7365 1.89822 42.2148 1.76549 42.6975C1.66259 43.0718 1.58565 43.4354 1.54173 43.7409C1.55721 43.7195 1.57307 43.6975 1.5893 43.6749C1.78745 43.3997 2.04068 43.048 2.31447 42.7788C2.70638 42.3936 3.32227 42.038 3.95656 41.7127C4.34135 41.5153 4.76836 41.3121 5.18713 41.1128C5.46001 40.983 5.72939 40.8548 5.98131 40.731C6.5937 40.43 7.43602 39.8117 8.36247 39.1218C8.40541 39.0898 8.4485 39.0577 8.49173 39.0255C9.35501 38.3822 10.2713 37.6994 11.0413 37.2669C11.2199 37.1666 11.4734 37.051 11.7716 36.9261C12.9105 36.4492 14.9714 35.7275 17.0571 34.9971C17.3042 34.9106 17.5517 34.8239 17.798 34.7375C19.1426 34.266 20.4582 33.8008 21.5166 33.4017C22.046 33.202 22.5067 33.0205 22.8724 32.8642C23.2481 32.7036 23.4932 32.5821 23.6122 32.504C23.9256 32.2986 24.3222 32.1282 24.7311 31.9742C25.0117 31.8685 25.3198 31.7629 25.6295 31.6567C25.7713 31.608 25.9135 31.5593 26.0535 31.5104C26.9688 31.1906 27.8296 30.849 28.4149 30.3768C28.8499 29.9411 28.975 29.4759 28.9965 29.1167C29.0075 28.9318 28.9908 28.7743 28.9719 28.6651C28.9624 28.6109 28.9526 28.5696 28.946 28.5441C28.9426 28.5314 28.9401 28.5228 28.9388 28.5185L28.9382 28.5165L28.9379 28.5155L28.9362 28.5105L28.9031 28.4066L28.8067 28.1063C28.7227 27.8448 28.6002 27.4651 28.4464 26.9925C28.4427 26.9812 28.4394 26.9697 28.4365 26.9581C27.114 21.6239 24.6966 16.9174 22.9686 13.5533C22.7271 13.083 22.499 12.639 22.2893 12.2231C22.0169 11.683 22.1022 11.0379 22.4913 10.5838L24.5467 8.18524Z" fill="black"/>
<path fill-rule="evenodd" clip-rule="evenodd" d="M26.3843 14.0997C26.4953 13.9072 26.7201 13.8111 26.936 13.8638L28.0154 14.1272C28.2837 14.1927 28.4481 14.4633 28.3826 14.7315C28.3171 14.9998 28.0466 15.1642 27.7783 15.0987L27.7058 15.081C28.6147 17.1209 29.3482 19.2278 29.9795 21.358C30.058 21.6227 29.907 21.901 29.6422 21.9795C29.3775 22.0579 29.0992 21.9069 29.0207 21.6421C28.3924 19.5221 27.6658 17.4403 26.7686 15.4348L26.6954 15.5618C26.5574 15.801 26.2516 15.8831 26.0124 15.7451C25.7732 15.6071 25.6912 15.3014 25.8291 15.0622L26.3843 14.0997ZM25.9503 34.8005C26.0859 34.5599 26.3909 34.4749 26.6314 34.6105L27.5993 35.1562C27.7929 35.2653 27.8912 35.4891 27.8406 35.7055L27.5877 36.7875C27.5249 37.0564 27.256 37.2234 26.9871 37.1606C26.7182 37.0977 26.5511 36.8288 26.614 36.5599L26.6323 36.4816C24.4433 37.4609 22.1578 38.1838 19.9096 38.895C19.8233 38.9222 19.7371 38.9495 19.651 38.9768C19.3877 39.0601 19.1068 38.9142 19.0234 38.6509C18.9401 38.3877 19.086 38.1067 19.3493 38.0234C19.4266 37.9989 19.5039 37.9744 19.5812 37.95C21.8634 37.228 24.1185 36.5146 26.2635 35.5511L26.1403 35.4816C25.8997 35.3459 25.8147 35.041 25.9503 34.8005Z" fill="black"/>
</g>
<defs>
<clipPath id="clip0_3026_186626">
<rect width="30" height="60" fill="white"/>
</clipPath>
</defs>
</svg>
