<svg width="30" height="30" viewBox="0 0 30 30" fill="none" xmlns="http://www.w3.org/2000/svg">
<path fill-rule="evenodd" clip-rule="evenodd" d="M10 12.5C10 10.2909 11.7909 8.5 14 8.5C15.4536 8.5 16.727 9.27538 17.4276 10.4368C17.1582 10.6632 16.9191 10.9246 16.7173 11.214C16.2652 11.8621 16 12.6508 16 13.5C16 13.7761 16.2239 14 16.5 14C16.7761 14 17 13.7761 17 13.5C17 12.8619 17.1986 12.2718 17.5374 11.786C17.7547 11.4745 18.0297 11.206 18.3467 10.9962C18.8205 10.6826 19.3881 10.5 20 10.5C21.6569 10.5 23 11.8431 23 13.5C23 14.0395 22.858 14.5443 22.6098 14.9807C22.3879 15.3708 22.0808 15.7066 21.714 15.9626C21.4875 16.1205 21.4319 16.4322 21.5899 16.6587C21.7479 16.8852 22.0596 16.9407 22.286 16.7827C22.6357 16.5389 22.9445 16.2406 23.2003 15.9C23.6864 16.2652 24 16.8463 24 17.5C24 18.6046 23.1046 19.5 22 19.5C21.7239 19.5 21.5 19.7239 21.5 20C21.5 20.2761 21.7239 20.5 22 20.5C23.6569 20.5 25 19.1569 25 17.5C25 16.4729 24.4839 15.5672 23.6982 15.0267C23.8927 14.5559 24 14.04 24 13.5C24 11.2909 22.2091 9.5 20 9.5C19.38 9.5 18.7921 9.64137 18.2677 9.89368C17.3895 8.45873 15.8071 7.5 14 7.5C11.2386 7.5 9 9.73858 9 12.5C6.79086 12.5 5 14.2909 5 16.5C5 18.4403 6.38096 20.0569 8.21336 20.4226C8.48416 20.4766 8.7475 20.3009 8.80155 20.0301C8.85559 19.7593 8.67987 19.496 8.40907 19.4419C7.03517 19.1677 6 17.9542 6 16.5C6 14.8431 7.34315 13.5 9 13.5C9.03363 13.5 9.06712 13.5006 9.10045 13.5016C9.20739 14.0273 9.39678 14.523 9.65443 14.9746C9.79128 15.2145 10.0967 15.298 10.3365 15.1611C10.5763 15.0243 10.6598 14.7189 10.523 14.4791C10.2652 14.0273 10.0931 13.5207 10.0285 12.9808C10.0097 12.8234 10 12.6629 10 12.5ZM15 16L15.327 15.6218C15.1392 15.4594 14.8608 15.4594 14.673 15.6218L15 16ZM20 20.3077C20.3601 20.6546 20.3599 20.6547 20.3599 20.6547L20.3584 20.6563L20.3552 20.6596L20.3446 20.6705C20.3356 20.6796 20.3228 20.6924 20.3066 20.7085C20.2742 20.7406 20.2277 20.7858 20.1696 20.8401C20.0537 20.9485 19.8894 21.0951 19.6955 21.2484C19.326 21.5404 18.7792 21.9135 18.2265 22.0281C17.7951 22.1175 17.3503 22.054 16.9543 21.9387C16.5542 21.8222 16.1688 21.6423 15.8393 21.4612C15.7198 21.3955 15.6061 21.3288 15.5 21.2636V24C15.5 24.2761 15.2761 24.5 15 24.5C14.7239 24.5 14.5 24.2761 14.5 24V21.2294C14.3304 21.3319 14.1428 21.4403 13.9473 21.5445C13.5901 21.735 13.1861 21.9229 12.8087 22.0299C12.6197 22.0835 12.4187 22.1224 12.2225 22.1236C12.0276 22.1247 11.8021 22.0887 11.6006 21.9565L9.72563 20.7257C9.60124 20.644 9.51967 20.5112 9.50311 20.3634C9.48654 20.2155 9.5367 20.0679 9.63993 19.9608L10 20.3077C9.63993 19.9608 9.63993 19.9608 9.63993 19.9608L9.64161 19.959L9.64476 19.9558L9.65542 19.9449C9.66442 19.9358 9.67718 19.9229 9.6934 19.9069C9.72584 19.8747 9.77228 19.8296 9.83041 19.7752C9.94628 19.6669 10.1106 19.5203 10.3045 19.367C10.674 19.075 11.2208 18.7019 11.7735 18.5873C12.2049 18.4979 12.6497 18.5614 13.0457 18.6767C13.1644 18.7113 13.2818 18.7514 13.3969 18.7955C13.2836 18.4883 13.2089 18.1379 13.254 17.7832C13.3284 17.1974 13.7292 16.639 14.0338 16.2781C14.1963 16.0856 14.3541 15.9235 14.4711 15.8095C14.5298 15.7523 14.5788 15.7066 14.6138 15.6747C14.6313 15.6587 14.6454 15.6461 14.6554 15.6372L14.6674 15.6266L14.671 15.6235L14.6722 15.6224L14.673 15.6218C14.673 15.6218 14.673 15.6218 15 16C15.327 15.6218 15.327 15.6218 15.327 15.6218L15.3278 15.6224L15.329 15.6235L15.3326 15.6266L15.3446 15.6372C15.3546 15.6461 15.3687 15.6587 15.3862 15.6747C15.4212 15.7066 15.4702 15.7523 15.5289 15.8095C15.6459 15.9235 15.8037 16.0856 15.9662 16.2781C16.2708 16.639 16.6716 17.1974 16.746 17.7832C16.7911 18.1379 16.7164 18.4883 16.6031 18.7955C16.7182 18.7514 16.8356 18.7113 16.9543 18.6767C17.3503 18.5614 17.7951 18.4979 18.2265 18.5873C18.7792 18.7019 19.326 19.075 19.6955 19.367C19.8894 19.5203 20.0537 19.6669 20.1696 19.7752C20.2277 19.8296 20.2742 19.8747 20.3066 19.9069C20.3159 19.9161 20.3241 19.9243 20.3311 19.9313C20.3362 19.9365 20.3407 19.941 20.3446 19.9449L20.3552 19.9558L20.3584 19.959L20.3594 19.9601C20.3594 19.9601 20.3601 19.9608 20 20.3077ZM20 20.3077L20.3594 19.9601C20.546 20.1538 20.5465 20.4611 20.3599 20.6547L20 20.3077ZM15.263 19.1947C15.1742 19.3246 15.0837 19.4445 15 19.5492C14.9163 19.4445 14.8258 19.3246 14.737 19.1947C14.5848 18.972 14.4458 18.7315 14.3533 18.4971C14.2591 18.2587 14.2268 18.0609 14.246 17.9091C14.2808 17.6351 14.5049 17.2704 14.798 16.9232C14.8673 16.8411 14.936 16.7651 15 16.6973C15.064 16.7651 15.1327 16.8411 15.202 16.9232C15.4951 17.2704 15.7192 17.6351 15.754 17.9091C15.7732 18.0609 15.7409 18.2587 15.6467 18.4971C15.5542 18.7315 15.4152 18.972 15.263 19.1947ZM13.4768 20.6621C13.7063 20.5398 13.9265 20.4097 14.1163 20.2918C13.9852 20.2073 13.8374 20.1176 13.679 20.0305C13.388 19.8706 13.0726 19.7261 12.7661 19.6368C12.4556 19.5464 12.1882 19.5226 11.9765 19.5665C11.6681 19.6305 11.2774 19.8727 10.9246 20.1515C10.8857 20.1823 10.8481 20.2128 10.8121 20.2426L12.1434 21.1166C12.1499 21.1185 12.1715 21.1238 12.2166 21.1236C12.2913 21.1231 12.3974 21.1072 12.5357 21.0679C12.8129 20.9893 13.1443 20.8394 13.4768 20.6621ZM16.321 20.5849C16.1526 20.4923 15.9963 20.3968 15.8592 20.3077C15.9963 20.2186 16.1526 20.1231 16.321 20.0305C16.612 19.8706 16.9274 19.7261 17.2339 19.6368C17.5444 19.5464 17.8118 19.5226 18.0235 19.5665C18.3319 19.6305 18.7226 19.8727 19.0754 20.1515C19.143 20.205 19.2067 20.2576 19.2652 20.3077C19.2067 20.3578 19.143 20.4104 19.0754 20.4639C18.7226 20.7426 18.3319 20.9849 18.0235 21.0489C17.8118 21.0928 17.5444 21.069 17.2339 20.9786C16.9274 20.8893 16.612 20.7448 16.321 20.5849Z" fill="black"/>
</svg>
