<svg width="24" height="20" viewBox="0 0 24 20" fill="none" xmlns="http://www.w3.org/2000/svg">
<path fill-rule="evenodd" clip-rule="evenodd" d="M0 2C0 1.26362 0.596954 0.666668 1.33333 0.666668H22.6667C23.403 0.666668 24 1.26362 24 2V7.75758C24 8.50431 23.3997 9.06775 22.707 9.10991C17.7531 9.41138 13.8125 13.2611 13.4967 18.0438C13.4512 18.7328 12.8903 19.3333 12.1429 19.3333H11.8571C11.1097 19.3333 10.5488 18.7328 10.5033 18.0438C10.1876 13.2611 6.24689 9.41138 1.29299 9.10991C0.600306 9.06775 0 8.50431 0 7.75758V2ZM22.6667 2H1.33333V7.75758C1.33333 7.75762 1.33333 7.75767 1.33334 7.75771C1.33375 7.75851 1.33498 7.76061 1.33778 7.76346C1.34548 7.77129 1.35821 7.77808 1.37398 7.77904C6.96982 8.11957 11.4719 12.4758 11.8338 17.956C11.8349 17.9731 11.8423 17.9869 11.8507 17.9952C11.8539 17.9983 11.8562 17.9996 11.857 18C11.8571 18 11.8571 18 11.8571 18H12.1429C12.1429 18 12.1429 18 12.143 18C12.1438 17.9996 12.1461 17.9983 12.1493 17.9952C12.1577 17.9869 12.1651 17.9731 12.1662 17.956C12.5281 12.4758 17.0302 8.11957 22.626 7.77904C22.6418 7.77808 22.6545 7.77129 22.6622 7.76346C22.6641 7.76152 22.6653 7.75993 22.666 7.75886C22.6663 7.75835 22.6665 7.75796 22.6667 7.7577C22.6667 7.75766 22.6667 7.75762 22.6667 7.75758V2Z" fill="black"/>
</svg>
