<svg width="24" height="24" viewBox="0 0 24 24" fill="none" xmlns="http://www.w3.org/2000/svg">
<path fill-rule="evenodd" clip-rule="evenodd" d="M5 5.5C5 4.67157 5.67157 4 6.5 4H17.5C18.3284 4 19 4.67157 19 5.5V18.5C19 19.3284 18.3284 20 17.5 20H6.5C5.67157 20 5 19.3284 5 18.5V5.5ZM6.5 5C6.22386 5 6 5.22386 6 5.5V7.21429H18V5.5C18 5.22386 17.7761 5 17.5 5H6.5ZM18 8.21429H6V18.5C6 18.7761 6.22386 19 6.5 19H17.5C17.7761 19 18 18.7761 18 18.5V8.21429ZM12.5833 6.10714C12.5833 5.831 12.8072 5.60714 13.0833 5.60714H14.1667C14.4428 5.60714 14.6667 5.831 14.6667 6.10714C14.6667 6.38329 14.4428 6.60714 14.1667 6.60714H13.0833C12.8072 6.60714 12.5833 6.38329 12.5833 6.10714ZM15.2917 6.10714C15.2917 5.831 15.5155 5.60714 15.7917 5.60714H16.875C17.1511 5.60714 17.375 5.831 17.375 6.10714C17.375 6.38329 17.1511 6.60714 16.875 6.60714H15.7917C15.5155 6.60714 15.2917 6.38329 15.2917 6.10714ZM12 10C10.067 10 8.5 11.567 8.5 13.5C8.5 15.433 10.067 17 12 17C13.933 17 15.5 15.433 15.5 13.5C15.5 11.567 13.933 10 12 10ZM7.5 13.5C7.5 11.0147 9.51472 9 12 9C14.4853 9 16.5 11.0147 16.5 13.5C16.5 15.9853 14.4853 18 12 18C9.51472 18 7.5 15.9853 7.5 13.5Z" fill="black"/>
</svg>
