<svg width="30" height="30" viewBox="0 0 30 30" fill="none" xmlns="http://www.w3.org/2000/svg">
<path d="M8.86507 7.85696C8.28479 7.85696 7.82553 8.34738 7.86404 8.9259L7.94902 10.2024C7.9674 10.4786 8.2064 10.6876 8.48282 10.6693C8.75925 10.6509 8.96843 10.4121 8.95005 10.1359L8.86507 8.85937L10.9499 8.85937C11.227 8.85937 11.4516 8.63497 11.4516 8.35817C11.4516 8.08136 11.227 7.85696 10.9499 7.85696H8.86507Z" fill="black"/>
<path d="M13.5709 7.85696C13.2939 7.85696 13.0693 8.08136 13.0693 8.35817C13.0693 8.63497 13.2939 8.85937 13.5709 8.85937H16.4301C16.7072 8.85937 16.9318 8.63497 16.9318 8.35817C16.9318 8.08136 16.7072 7.85696 16.4301 7.85696H13.5709Z" fill="black"/>
<path d="M19.2894 7.85696C19.0123 7.85696 18.7877 8.08136 18.7877 8.35817C18.7877 8.63497 19.0123 8.85937 19.2894 8.85937H21.1349L21.0474 10.1349C21.0285 10.4111 21.2372 10.6503 21.5136 10.6692C21.7899 10.6881 22.0294 10.4796 22.0483 10.2034L22.1358 8.92791C22.1755 8.34867 21.716 7.85696 21.1349 7.85696H19.2894Z" fill="black"/>
<path d="M21.9178 12.1064C21.9367 11.8302 21.728 11.591 21.4516 11.5721C21.1752 11.5531 20.9358 11.7617 20.9169 12.0378L20.7471 14.5138C20.7281 14.7899 20.9368 15.0291 21.2132 15.0481C21.4896 15.067 21.729 14.8585 21.748 14.5823L21.9178 12.1064Z" fill="black"/>
<path d="M9.07673 12.0388C9.05834 11.7626 8.81935 11.5536 8.54292 11.572C8.26649 11.5904 8.05731 11.8292 8.0757 12.1054L8.24052 14.5813C8.25891 14.8575 8.4979 15.0665 8.77433 15.0481C9.05076 15.0298 9.25994 14.791 9.24155 14.5148L9.07673 12.0388Z" fill="black"/>
<path d="M21.5781 17.0583C21.5971 16.7821 21.3884 16.5429 21.112 16.524C20.8356 16.505 20.5962 16.7136 20.5772 16.9897L20.5252 17.749L19.563 18.1741C19.3097 18.2861 19.1951 18.582 19.3071 18.8352C19.4192 19.0884 19.7154 19.2028 19.9688 19.0909L20.9309 18.6658C21.2714 18.5154 21.5006 18.1888 21.5261 17.8176L21.5781 17.0583Z" fill="black"/>
<path d="M9.40638 16.9907C9.38799 16.7145 9.149 16.5055 8.87257 16.5239C8.59615 16.5423 8.38696 16.7811 8.40535 17.0573L8.47451 18.0961C8.50028 18.4832 8.74723 18.8206 9.10855 18.9625L10.0516 19.3329C10.3095 19.4342 10.6006 19.3074 10.702 19.0498C10.8033 18.7922 10.6765 18.5012 10.4186 18.4L9.47554 18.0296L9.40638 16.9907Z" fill="black"/>
<path d="M16.633 20.5647C16.8864 20.4527 17.0009 20.1568 16.8889 19.9036C16.7769 19.6504 16.4806 19.536 16.2273 19.6479L14.9891 20.1949L13.7544 19.71C13.4966 19.6087 13.2054 19.7355 13.104 19.9931C13.0027 20.2507 13.1296 20.5417 13.3874 20.6429L14.6222 21.1278C14.8715 21.2258 15.1498 21.22 15.3949 21.1117L16.633 20.5647Z" fill="black"/>
<path fill-rule="evenodd" clip-rule="evenodd" d="M6.00328 5C5.42488 5 4.96629 5.48739 5.00195 6.0642L5.90299 20.6404C5.92645 21.0199 6.1628 21.3535 6.51326 21.5017L14.5973 24.9207C14.8615 25.0324 15.1608 25.0258 15.4197 24.9026L23.5276 21.0449C23.8563 20.8885 24.0744 20.5665 24.0975 20.2035L24.9979 6.06607C25.0347 5.48858 24.5759 5 23.9967 5H6.00328ZM6.90432 20.5786L6.00328 6.00241H23.9967L23.0963 20.1399L14.9884 23.9976L6.90432 20.5786Z" fill="black"/>
</svg>
