<svg width="30" height="30" viewBox="0 0 30 30" fill="none" xmlns="http://www.w3.org/2000/svg">
<path fill-rule="evenodd" clip-rule="evenodd" d="M15.4288 9.25726C15.764 8.69852 16.3575 8.28445 17.1278 7.98947C17.8955 7.69551 18.7929 7.53788 19.6644 7.46262C20.5325 7.38766 21.3541 7.39609 21.9603 7.42367C22.2628 7.43743 22.51 7.45589 22.6808 7.47079C22.7661 7.47824 22.8322 7.4848 22.8764 7.48942L22.9259 7.49477L22.9377 7.49612L22.9406 7.49647C23.2147 7.52929 23.4636 7.33373 23.4965 7.0596C23.5294 6.78543 23.3331 6.5364 23.0589 6.50349L23.0576 6.50333L23.0532 6.50282L23.0377 6.50105L22.9804 6.49485C22.9309 6.48967 22.8591 6.48256 22.7677 6.47458C22.5851 6.45863 22.3239 6.43918 22.0058 6.4247C21.3709 6.39582 20.5031 6.38648 19.5784 6.46633C18.657 6.54589 17.6579 6.71568 16.7702 7.0556C15.8852 7.3945 15.0645 7.92079 14.5713 8.74276C14.2161 9.33473 14.0534 10.0445 13.9933 10.7423C13.9329 11.4443 13.9737 12.1681 14.0516 12.8134C14.1296 13.4603 14.2464 14.0403 14.3435 14.4582C14.3921 14.6675 14.436 14.8371 14.468 14.9553C14.484 15.0144 14.497 15.0607 14.5062 15.0927L14.517 15.1299L14.5201 15.1401L14.521 15.1431L14.5213 15.1444L14.5218 15.1459L14.5239 15.1529L14.5327 15.1833C14.5406 15.2108 14.5523 15.2522 14.5669 15.3061C14.5961 15.414 14.637 15.5719 14.6825 15.7681C14.7739 16.1613 14.8831 16.7046 14.9557 17.3064C15.0286 17.91 15.0631 18.5607 15.0105 19.172C14.9575 19.7875 14.8189 20.3301 14.5713 20.7428C14.2361 21.3015 13.6426 21.7156 12.8723 22.0106C12.1046 22.3045 11.2072 22.4621 10.3357 22.5374C9.46758 22.6124 8.64602 22.6039 8.03978 22.5764C7.73732 22.5626 7.49005 22.5441 7.31933 22.5292C7.23401 22.5218 7.16791 22.5152 7.12371 22.5106L7.07421 22.5052L7.06243 22.5039L7.05964 22.5036C6.78553 22.4708 6.53652 22.6663 6.50361 22.9404C6.4707 23.2146 6.66628 23.4635 6.94046 23.4964L6.94251 23.4967L6.94687 23.4972L6.96238 23.499L7.01967 23.5052C7.0692 23.5104 7.14099 23.5175 7.23235 23.5254C7.415 23.5414 7.67623 23.5608 7.99433 23.5753C8.62921 23.6042 9.49698 23.6135 10.4217 23.5337C11.3431 23.4541 12.3422 23.2843 13.2299 22.9444C14.1149 22.6055 14.9356 22.0792 15.4288 21.2573C15.784 20.6653 15.9467 19.9556 16.0068 19.2577C16.0672 18.5557 16.0264 17.8319 15.9485 17.1867C15.8705 16.5397 15.7537 15.9597 15.6566 15.5419C15.608 15.3325 15.5641 15.1629 15.5321 15.0447C15.5161 14.9856 15.5031 14.9393 15.4939 14.9073L15.4831 14.8701L15.48 14.8599L15.4791 14.8569L15.4787 14.8554L15.4783 14.8541L15.4762 14.8471L15.4674 14.8167C15.4595 14.7893 15.4478 14.7479 15.4332 14.6939C15.404 14.586 15.3631 14.4282 15.3176 14.2319C15.2262 13.8387 15.117 13.2955 15.0444 12.6936C14.9715 12.09 14.937 11.4393 14.9896 10.828C15.0426 10.2125 15.1812 9.66991 15.4288 9.25726ZM6.94046 23.4964C6.94038 23.4964 6.94038 23.4964 6.94739 23.4382C6.95424 23.3813 6.96782 23.2685 6.9946 23.0454L6.94046 23.4964ZM23 7.00001L23.0589 6.50349C23.0591 6.50351 23.0596 6.50358 23 7.00001ZM18.6464 9.64645C18.8417 9.45118 19.1583 9.45118 19.3536 9.64645L22.5 12.7929V12C22.5 11.7239 22.7239 11.5 23 11.5C23.2761 11.5 23.5 11.7239 23.5 12V14C23.5 14.2761 23.2761 14.5 23 14.5H21C20.7239 14.5 20.5 14.2761 20.5 14C20.5 13.7239 20.7239 13.5 21 13.5H21.7929L18.6464 10.3536C18.4512 10.1583 18.4512 9.84171 18.6464 9.64645ZM6.5 14C6.5 13.7239 6.72386 13.5 7 13.5H9C9.27614 13.5 9.5 13.7239 9.5 14C9.5 14.2761 9.27614 14.5 9 14.5H8.20711L11.3536 17.6464C11.5488 17.8417 11.5488 18.1583 11.3536 18.3536C11.1583 18.5488 10.8417 18.5488 10.6464 18.3536L7.5 15.2071V16C7.5 16.2761 7.27614 16.5 7 16.5C6.72386 16.5 6.5 16.2761 6.5 16V14Z" fill="black"/>
</svg>
