<svg width="24" height="24" viewBox="0 0 24 24" fill="none" xmlns="http://www.w3.org/2000/svg">
<path d="M7.96146 17.1923C8.59871 17.1923 9.11531 16.6757 9.11531 16.0385C9.11531 15.4012 8.59871 14.8846 7.96146 14.8846C7.32421 14.8846 6.80762 15.4012 6.80762 16.0385C6.80762 16.6757 7.32421 17.1923 7.96146 17.1923Z" fill="black"/>
<path fill-rule="evenodd" clip-rule="evenodd" d="M7.96154 4C9.77642 4 11.3055 5.22 11.7748 6.88462H18.5C19.3284 6.88462 20 7.55619 20 8.38461V18.5C20 19.3284 19.3284 20 18.5 20H7.96154C5.77364 20 4 18.2264 4 16.0385V7.96154C4 5.77364 5.77364 4 7.96154 4ZM5 7.96154C5 6.32593 6.32593 5 7.96154 5C9.42848 5 10.6472 6.06706 10.8821 7.46734C10.909 7.62774 10.9231 7.7928 10.9231 7.96154V13.4072C10.1974 12.5911 9.13953 12.0769 7.96154 12.0769C6.78355 12.0769 5.72564 12.5911 5 13.4072V7.96154ZM7.96154 13.0769C9.59715 13.0769 10.9231 14.4028 10.9231 16.0385C10.9231 17.6741 9.59715 19 7.96154 19C6.32593 19 5 17.6741 5 16.0385C5 14.4028 6.32593 13.0769 7.96154 13.0769ZM11.9231 16.0385C11.9231 17.2165 11.4089 18.2744 10.5928 19H18.5C18.7761 19 19 18.7761 19 18.5V8.38461C19 8.10847 18.7761 7.88461 18.5 7.88461H11.9223C11.9228 7.9102 11.9231 7.93584 11.9231 7.96154V16.0385Z" fill="black"/>
</svg>
