<svg width="150" height="327" viewBox="0 0 150 327" fill="none" xmlns="http://www.w3.org/2000/svg">
<g clip-path="url(#clip0_492_91330)">
<path d="M75.91 63.5399C74.91 58.2099 71.91 58.7499 70.99 53.4199C70.07 48.0899 72.99 47.5399 72.06 42.2099C71.29 37.9099 69.18 37.4299 67.9 34.5999C67.3041 28.3708 64.3984 22.5904 59.7547 18.396C55.111 14.2016 49.0657 11.8972 42.8083 11.936C36.5509 11.9749 30.5346 14.3543 25.9434 18.6061C21.3522 22.8578 18.5185 28.6739 18 34.9099C16.71 37.4699 14.74 38.0799 14 42.2099C13 47.5399 16 48.0799 15.07 53.4199C14.14 58.7599 11.07 58.2099 10.15 63.5399L35.45 68.0999L36.68 61.3099C40.8445 62.3897 45.2155 62.3897 49.38 61.3099L50.61 68.1399L75.91 63.5399Z" fill="#646464"/>
<path d="M24 41C23.6086 43.1782 23.4111 45.3869 23.41 47.6C23.41 62.6 32.16 74.72 42.96 74.72C53.76 74.72 62.51 62.59 62.51 47.61C62.5089 45.3969 62.3115 43.1882 61.92 41.01L24 41Z" fill="#BEBEBE"/>
<path d="M43.19 190C43.19 190 40.46 225.09 38.19 234.74C35.92 244.39 40.45 255.44 37.13 293.99C36.57 300.47 38.24 305.11 37.86 308.62C37.48 312.13 38.1 314.7 39.12 320.01C39.69 322.96 39.68 324.56 38.26 325.4C36.7317 325.985 35.1065 326.277 33.47 326.26H21.47C20.8123 326.26 20.1696 326.063 19.6253 325.694C19.081 325.325 18.6602 324.801 18.4176 324.189C18.175 323.578 18.1218 322.908 18.2649 322.266C18.408 321.624 18.7407 321.04 19.22 320.59C19.5383 320.295 19.8721 320.018 20.22 319.76C27 314.94 26.43 309 26.43 309C28.51 291.86 20.43 281.65 20.72 263.95C21.16 239.85 17.8 237.51 16.57 217.04C14.75 186.86 20.05 178.04 20.57 164.16C21.93 125.26 18.43 112.36 18.43 112.36C18.43 112.36 10.91 134.36 10.91 153.62C10.91 165.74 13.52 204.41 13.52 204.41L14.87 215.08C10.31 212.77 5.97996 209.71 5.28996 204.71C4.44996 198.58 6.79996 195.1 6.01996 189.35C5.69996 186.93 1.39996 166.86 0.309956 152.2C-0.720044 138.71 0.999956 121.73 4.99996 109.81C12.44 87.6496 19 88.3796 28.94 86.2596C38.88 84.1396 36.2 72.5996 36.2 72.5996H50.2C50.2 72.5996 47.53 84.1296 57.44 86.2596C67.35 88.3896 73.93 87.6496 81.37 109.81C85.37 121.73 86.95 138.7 86.13 152.18C85.41 163.97 80.13 189.03 79.83 191.45C79.06 197.2 82.03 200.36 80.64 205.72C79.37 210.6 76.64 212.96 72.08 215.27L73.08 200.41C73.08 200.41 75.5 165.72 75.5 153.6C75.5 134.36 67.98 112.34 67.98 112.34C67.98 112.34 64.4799 125.24 65.84 164.14C66.32 178.01 72.07 187.41 70.26 217.59C69.02 238.06 65.26 239.83 65.65 263.93C66 281.63 57.87 291.84 60 309C60 309 59.47 315 66.23 319.77C66.5798 320.026 66.9137 320.303 67.23 320.6C67.7009 321.05 68.027 321.631 68.1666 322.267C68.3062 322.904 68.2529 323.568 68.0136 324.174C67.7744 324.78 67.3599 325.301 66.8232 325.671C66.2864 326.041 65.6517 326.242 65 326.25H52.91C51.2767 326.266 49.6551 325.974 48.13 325.39C47.1911 324.885 46.4502 324.078 46.0273 323.1C45.6044 322.122 45.5243 321.029 45.8 320C46.8 314.69 48.9 312.12 48.52 308.61C48.14 305.1 49.82 300.46 49.26 293.98C45.93 255.43 50.46 244.39 48.19 234.73C45.92 225.07 43.19 189.99 43.19 189.99" fill="#BEBEBE"/>
<path d="M43.54 91.4098C30.22 91.4098 29.91 86.0098 29.91 86.0098L21.73 87.7698C24.73 99.3898 21.32 106.37 17.78 112.44L20.84 147.15L65.54 146.5L68 112.34C63.896 104.758 62.4657 96.0143 63.94 87.5198L57.43 86.2598C57.43 86.2598 55.77 91.4098 43.54 91.4098Z" fill="#646464"/>
<path d="M41 216.1L43.41 194.1C43.41 194.1 42.91 194.58 45.27 216.1H70.63C71.1 210.17 70.93 204.81 70.94 201.44C70.94 188.44 65.82 161.18 65.82 161.18C33.24 165.02 20.64 160.73 20.64 160.73C20.64 160.73 14.7 176.52 14.83 201.14C14.83 205.14 15.58 210.69 16.19 216.14L41 216.1Z" fill="#646464"/>
<path d="M69.38 183.25L69.75 186.36C70.7339 186.533 71.7033 186.781 72.65 187.1C69.23 188.33 58.47 189.72 42.72 189.72C26.97 189.72 16.21 188.33 12.79 187.1C13.6819 186.794 14.5941 186.55 15.52 186.37L15.84 183.29C10.25 184.29 8.95996 185.58 8.95996 187.1C8.95996 188.92 10.79 190.36 19.71 191.5C27.3451 192.369 35.0257 192.777 42.71 192.72C50.3942 192.778 58.0749 192.37 65.71 191.5C74.64 190.36 76.47 188.92 76.47 187.1C76.48 185.56 75.16 184.29 69.38 183.25Z" fill="#FF5923"/>
<path d="M68 112.34L67.82 115.43C68.4373 115.58 69.045 115.767 69.64 115.99C66.87 117.1 58 118.61 43 118.61C28 118.61 19 117.1 16.28 116C16.841 115.78 17.4155 115.596 18 115.45L17.78 112.45C13.33 113.53 12.59 114.78 12.59 116.01C12.59 117.57 13.77 119.19 22.33 120.41C29.1851 121.275 36.0908 121.675 43 121.61C49.8962 121.667 56.7885 121.259 63.63 120.39C72.19 119.17 73.37 117.55 73.37 115.99C73.32 114.75 72.62 113.42 68 112.34Z" fill="#FF5923"/>
<path d="M65.55 150V153.06C66.7265 153.266 67.8814 153.581 69 154C66.36 155.1 57.75 156.62 43.08 156.62C28.41 156.62 19.75 155.08 17.11 154C18.3195 153.552 19.5683 153.217 20.84 153V150C14.43 151.18 13.46 152.63 13.46 154C13.46 155.37 14.61 157.17 22.97 158.4C29.6115 159.256 36.3037 159.657 43 159.6C49.71 159.652 56.4156 159.244 63.07 158.38C71.42 157.15 72.57 155.54 72.57 153.98C72.6 152.59 71.67 151.16 65.55 150Z" fill="#FF5923"/>
</g>
<circle cx="138" cy="12" r="9" fill="#FF5923"/>
<path d="M134.045 15H135.407L136.164 13.3008H139.841L140.598 15H141.955L138.791 7.99805H137.214L134.045 15ZM136.672 12.1289L138 9.15039L139.328 12.1289H136.672Z" fill="white"/>
<line x1="104.25" y1="12" x2="104.25" y2="326" stroke="black" stroke-width="0.5"/>
<line x1="104" y1="11.75" x2="126" y2="11.75" stroke="black" stroke-width="0.5"/>
<circle cx="138" cy="154" r="9" fill="#FF5923"/>
<path d="M138.161 157.161C140.046 157.161 141.35 156.248 141.667 154.783L140.441 154.5C140.236 155.447 139.426 156.004 138.21 156.004C136.657 156.004 135.637 155.086 135.637 153.514C135.637 151.976 136.618 150.994 138.234 150.994C139.348 150.994 140.188 151.453 140.432 152.322L141.628 152.063C141.301 150.672 139.987 149.837 138.22 149.837C135.92 149.837 134.377 151.258 134.377 153.553C134.377 155.818 135.876 157.161 138.161 157.161Z" fill="white"/>
<circle cx="138" cy="188" r="9" fill="#FF5923"/>
<path d="M134.738 191H137.858C140.114 191 141.604 189.643 141.604 187.47C141.604 185.316 140.144 183.998 137.917 183.998H134.738V191ZM135.979 189.828V185.17H137.731C139.67 185.17 140.344 186.244 140.344 187.489C140.344 188.734 139.67 189.828 137.731 189.828H135.979Z" fill="white"/>
<circle cx="138" cy="117" r="9" fill="#FF5923"/>
<path d="M135.139 120H138.713C140.192 120 141.198 119.121 141.198 117.905C141.198 117.09 140.744 116.523 139.899 116.294C140.632 116.04 140.993 115.449 140.993 114.722C140.993 113.638 140.202 112.998 138.635 112.998H135.139V120ZM136.379 118.843V116.865H138.698C139.431 116.865 139.938 117.188 139.938 117.827C139.938 118.447 139.465 118.843 138.708 118.843H136.379ZM136.379 115.854V114.155H138.674C139.201 114.155 139.753 114.341 139.753 114.98C139.753 115.542 139.323 115.854 138.591 115.854H136.379Z" fill="white"/>
<line x1="78" y1="153.75" x2="126" y2="153.75" stroke="black" stroke-width="0.5"/>
<line x1="78" y1="187.75" x2="126" y2="187.75" stroke="black" stroke-width="0.5"/>
<line x1="77" y1="116.75" x2="126" y2="116.75" stroke="black" stroke-width="0.5"/>
<defs>
<clipPath id="clip0_492_91330">
<rect width="86.32" height="314.25" fill="white" transform="translate(0 12)"/>
</clipPath>
</defs>
</svg>
