<svg width="154" height="327" viewBox="0 0 154 327" fill="none" xmlns="http://www.w3.org/2000/svg">
<g clip-path="url(#clip0_492_91332)">
<path d="M18.16 34.0596C18.16 41.2396 12.16 41.2396 12.16 48.4296C12.16 55.6196 18.16 55.6196 18.16 62.7996C18.16 69.9796 12.16 69.9896 12.16 77.1796H42.54V34.0596H18.16Z" fill="#646464"/>
<path d="M68 34.0596C68 41.2396 74 41.2396 74 48.4296C74 55.6196 68 55.6196 68 62.7996C68 69.9796 74 69.9996 74 77.1796H43.63V34.0596H68Z" fill="#646464"/>
<path d="M43.09 62.1C56.9247 62.1 68.14 50.8847 68.14 37.05C68.14 23.2153 56.9247 12 43.09 12C29.2552 12 18.04 23.2153 18.04 37.05C18.04 50.8847 29.2552 62.1 43.09 62.1Z" fill="#646464"/>
<path d="M43.09 74.72C53.8871 74.72 62.64 62.5824 62.64 47.61C62.64 32.6376 53.8871 20.5 43.09 20.5C32.2928 20.5 23.54 32.6376 23.54 47.61C23.54 62.5824 32.2928 74.72 43.09 74.72Z" fill="#BEBEBE"/>
<path d="M43.19 190C43.19 190 40.46 225.09 38.19 234.74C35.92 244.39 40.45 255.44 37.13 293.99C36.57 300.47 38.24 305.11 37.86 308.62C37.48 312.13 38.1 314.7 39.12 320.01C39.69 322.96 39.68 324.56 38.26 325.4C36.7317 325.985 35.1066 326.277 33.47 326.26H21.47C20.8123 326.26 20.1696 326.063 19.6253 325.694C19.081 325.325 18.6603 324.801 18.4177 324.189C18.1751 323.578 18.1219 322.908 18.265 322.266C18.408 321.624 18.7408 321.04 19.22 320.59C19.5383 320.295 19.8721 320.018 20.22 319.76C27 314.94 26.43 309 26.43 309C28.51 291.86 20.43 281.65 20.72 263.95C21.16 239.85 17.8 237.51 16.57 217.04C14.75 186.86 19.88 177.38 20.37 163.51C21.72 124.61 18.37 112.36 18.37 112.36C18.37 112.36 10.85 134.36 10.85 153.62C10.85 165.74 12.92 204.77 12.92 204.77L13.66 215.22C9.10002 212.91 5.92002 209.71 5.23002 204.71C4.39002 198.58 6.74002 195.1 5.96002 189.35C5.64002 186.93 1.34002 166.86 0.250016 152.2C-0.719984 138.71 1.00002 121.73 5.00002 109.81C12.44 87.6496 19 88.3796 28.94 86.2596C38.88 84.1396 36.2 72.5996 36.2 72.5996H50.2C50.2 72.5996 47.53 84.1296 57.44 86.2596C67.35 88.3896 73.93 87.6496 81.37 109.81C85.37 121.73 86.95 138.7 86.13 152.18C85.41 163.97 80.13 189.03 79.83 191.45C79.06 197.2 82.03 200.36 80.64 205.72C79.37 210.6 76.12 213.23 71.56 215.53L71.82 207.66C71.82 207.66 75.53 165.72 75.53 153.6C75.53 134.36 68.01 112.34 68.01 112.34C68.01 112.34 64.51 125.24 65.87 164.14C66.35 178.01 71.6 187.31 69.78 217.49C68.55 237.96 65.24 239.83 65.68 263.93C66 281.63 57.87 291.84 60 309C60 309 59.47 315 66.23 319.77C66.5798 320.026 66.9138 320.303 67.23 320.6C67.701 321.05 68.0271 321.631 68.1666 322.267C68.3062 322.904 68.253 323.568 68.0137 324.174C67.7744 324.78 67.36 325.301 66.8232 325.671C66.2865 326.041 65.6517 326.242 65 326.25H52.91C51.2768 326.266 49.6552 325.974 48.13 325.39C47.1912 324.885 46.4502 324.078 46.0273 323.1C45.6044 322.122 45.5243 321.029 45.8 320C46.8 314.69 48.9 312.12 48.52 308.61C48.14 305.1 49.82 300.46 49.26 293.98C45.93 255.43 50.46 244.39 48.19 234.73C45.92 225.07 43.19 189.99 43.19 189.99" fill="#BEBEBE"/>
<path d="M20.49 159.73C20.49 159.73 40.2 165.82 65.77 160.48C65.77 160.48 71 189.64 70.94 201.48C70.94 210.11 68.94 231.73 67.27 242.72C65.6 253.71 65.38 259.61 65.66 263.97C66.25 273.23 63.58 280.71 61.66 288.78L48.75 288.65C48.75 288.65 47.44 267.65 48.17 256.87C48.9545 248.75 48.7193 240.563 47.47 232.5C45.47 218.06 43.47 193.39 43.47 193.39L39.56 229C39.56 229 37.66 238.28 37.75 241.69C38.08 255.02 39.04 261.69 38.55 271.37C38.31 275.97 37.55 289.78 37.55 289.78H24.72C24.72 289.78 20.28 275.27 20.41 261.57C20.52 250.39 20.41 247.18 19.29 242.57C18.17 237.96 14.19 213.8 14.15 201.51C14.1363 187.343 16.274 173.256 20.49 159.73Z" fill="#646464"/>
<path d="M64.81 46.59C57.93 46.59 57.93 42.46 51.05 42.46C44.17 42.46 44.17 46.59 37.29 46.59C30.41 46.59 30.42 42.46 23.54 42.46C23.54 42.46 26.78 18.82 44.17 17.35C61.56 15.88 64.81 46.59 64.81 46.59Z" fill="#646464"/>
<path d="M18 114L20.42 131.56H65.89L67.38 122.77L68.38 113.49L68.25 89.0798L65 87.8598L65.11 107.94L22.21 108.66L21.42 87.7998L18.19 88.9998C18.19 88.9998 18.15 113.83 18 114Z" fill="#646464"/>
<path d="M65.59 150V153C66.787 153.23 67.9616 153.564 69.1 154C66.46 155.1 57.85 156.62 43.18 156.62C28.51 156.62 19.9 155.08 17.26 154C18.353 153.589 19.4809 153.278 20.63 153.07V150.01C14.5 151.17 13.57 152.61 13.57 154.01C13.57 155.57 14.72 157.18 23.08 158.41C29.731 159.274 36.4333 159.682 43.14 159.63C49.85 159.682 56.5557 159.274 63.21 158.41C71.56 157.18 72.71 155.57 72.71 154.01C72.75 152.58 71.81 151.14 65.59 150Z" fill="#FF5923"/>
</g>
<circle cx="142" cy="12" r="9" fill="#FF5923"/>
<path d="M138.045 15H139.407L140.164 13.3008H143.841L144.598 15H145.955L142.791 7.99805H141.214L138.045 15ZM140.672 12.1289L142 9.15039L143.328 12.1289H140.672Z" fill="white"/>
<line x1="108.25" y1="12" x2="108.25" y2="326" stroke="black" stroke-width="0.5"/>
<line x1="108" y1="11.75" x2="130" y2="11.75" stroke="black" stroke-width="0.5"/>
<circle cx="142" cy="155" r="9" fill="#FF5923"/>
<path d="M139.139 158H142.713C144.192 158 145.198 157.121 145.198 155.905C145.198 155.09 144.744 154.523 143.899 154.294C144.632 154.04 144.993 153.449 144.993 152.722C144.993 151.638 144.202 150.998 142.635 150.998H139.139V158ZM140.379 156.843V154.865H142.698C143.431 154.865 143.938 155.188 143.938 155.827C143.938 156.447 143.465 156.843 142.708 156.843H140.379ZM140.379 153.854V152.155H142.674C143.201 152.155 143.753 152.341 143.753 152.98C143.753 153.542 143.323 153.854 142.591 153.854H140.379Z" fill="white"/>
<line x1="79" y1="154.75" x2="130" y2="154.75" stroke="black" stroke-width="0.5"/>
<defs>
<clipPath id="clip0_492_91332">
<rect width="86.32" height="314.25" fill="white" transform="translate(0 12)"/>
</clipPath>
</defs>
</svg>
