<svg xmlns="http://www.w3.org/2000/svg" viewBox="0 0 58.32 77.12"><defs><style>.cls-1{fill:#1d1d1b;}</style></defs><title>Risorsa 9</title><g id="Livello_2" data-name="Livello 2"><g id="Livello_1-2" data-name="Livello 1"><path class="cls-1" d="M49.76,8.56A28.13,28.13,0,0,1,58.32,29.2a28,28,0,0,1-8.56,20.6,28.21,28.21,0,0,1-20.64,8.52A28.11,28.11,0,0,1,8.56,49.8,28,28,0,0,1,0,29.2,28.13,28.13,0,0,1,8.56,8.56,28,28,0,0,1,29.12,0,28.13,28.13,0,0,1,49.76,8.56ZM55.2,63v4.64H3.12V63Zm0,9.36v4.72H3.12V72.4ZM46.44,46.52A23.61,23.61,0,0,0,53.6,29.2a23.61,23.61,0,0,0-7.16-17.32A23.61,23.61,0,0,0,29.12,4.72a23.51,23.51,0,0,0-17.24,7.16A23.61,23.61,0,0,0,4.72,29.2a23.61,23.61,0,0,0,7.16,17.32,23.51,23.51,0,0,0,17.24,7.16A23.61,23.61,0,0,0,46.44,46.52Zm1.08-28.84L39.76,45.84h-5l-5.6-21.52H29L23.28,45.84h-5L10.8,17.68h5l5,21.52H21l5.68-21.52h5L37.2,39.2h.08l5.2-21.52Z"/></g></g></svg>