<svg xmlns="http://www.w3.org/2000/svg" viewBox="0 0 77.6 52.08"><defs><style>.cls-1{fill:#1d1d1b;}</style></defs><title>Risorsa 24</title><g id="Livello_2" data-name="Livello 2"><g id="Livello_1-2" data-name="Livello 1"><path class="cls-1" d="M72.8,0h4.8L69.68,45,72.48,47,69.84,50.8l-1-.72-.32,2H9.12l-.4-2.16-1.2.88L4.8,47l3-2.08L0,0H4.8l.72,4.24,2-2.88,4.64,3.2A8.46,8.46,0,0,1,16.8,3.12a7.55,7.55,0,0,1,3.88,1,8.43,8.43,0,0,1,2.6,2.2,12.67,12.67,0,0,0,2.08,2.2,3.58,3.58,0,0,0,5,0,12.67,12.67,0,0,0,2.08-2.2A8.43,8.43,0,0,1,35,4.12a7.55,7.55,0,0,1,3.88-1,7.75,7.75,0,0,1,3.92,1,8.39,8.39,0,0,1,2.64,2.2,12.67,12.67,0,0,0,2.08,2.2,3.58,3.58,0,0,0,5,0,12.67,12.67,0,0,0,2.08-2.2,8.39,8.39,0,0,1,2.64-2.2,7.75,7.75,0,0,1,3.92-1A8.18,8.18,0,0,1,65.44,4.4l4.4-3,2.24,3.12ZM8.8,7.92l-3-2.08L6.4,9.52A4.8,4.8,0,0,0,8.8,7.92ZM7.2,14l4.88,27.84L34.64,26.08,12.56,10.56A9.73,9.73,0,0,1,7.2,14ZM38.64,29,13,47l.08.48H64.56v-.32ZM16.56,7.68l5,3.6c-.21-.21-.56-.6-1-1.16s-.85-1-1.12-1.24a5.15,5.15,0,0,0-1.12-.8,3.06,3.06,0,0,0-1.52-.4ZM38.64,23.2,52,13.84a8.24,8.24,0,0,1-2,.24,7.1,7.1,0,0,1-4.72-1.6,32.51,32.51,0,0,1-3.36-3.2,4.1,4.1,0,0,0-3-1.6,3.68,3.68,0,0,0-2.44,1,14.9,14.9,0,0,0-2.08,2.2,8.87,8.87,0,0,1-2.64,2.2,7.55,7.55,0,0,1-3.88,1,9.32,9.32,0,0,1-3-.48ZM65.52,42,70.4,13.92a9.71,9.71,0,0,1-5.28-3.6L42.72,26.08Zm-8.4-31.76,3.6-2.56a1.79,1.79,0,0,0-.76.16l-.6.28a3.35,3.35,0,0,0-.64.48l-.52.48-.56.6Zm14.08-.8.64-3.84-3,2.16A4.92,4.92,0,0,0,71.2,9.44Z"/></g></g></svg>