<svg xmlns="http://www.w3.org/2000/svg" viewBox="0 0 67.68 52.08"><defs><style>.cls-1{fill:#1d1d1b;}</style></defs><title>Risorsa 31</title><g id="Livello_2" data-name="Livello 2"><g id="Livello_1-2" data-name="Livello 1"><path class="cls-1" d="M59.84,10.64V41.52L67.68,47,65,50.8l-5.2-3.6v4.88h-52V47.2l-5.2,3.6L0,47l7.84-5.44V10.64L0,5.12,2.64,1.28l5.2,3.6V0h52V4.88L65,1.28l2.64,3.84ZM55.2,8.24V4.72H12.48V8.24L17.84,12a20.44,20.44,0,0,1,16-7.28,20.44,20.44,0,0,1,16,7.28ZM12.48,13.92V38.24l2.64-1.92a21.33,21.33,0,0,1,0-20.56Zm0,30v3.52H55.2V43.92l-5.36-3.76a20.44,20.44,0,0,1-16,7.28,20.44,20.44,0,0,1-16-7.28ZM19,18.48a16.13,16.13,0,0,0-1.84,7.6A15.65,15.65,0,0,0,19,33.6l10.72-7.52Zm2.64-3.84L33.84,23.2,46,14.64a16.15,16.15,0,0,0-12.16-5.2A16.15,16.15,0,0,0,21.68,14.64ZM33.84,29,21.68,37.44a15.88,15.88,0,0,0,12.16,5.28A15.88,15.88,0,0,0,46,37.44ZM48.72,33.6a16.63,16.63,0,0,0,1.76-7.52,17.47,17.47,0,0,0-1.76-7.6l-10.8,7.6ZM55.2,13.92l-2.64,1.84A21.08,21.08,0,0,1,55.2,26.08Zm0,24.32V26.08a20.92,20.92,0,0,1-2.64,10.24Z"/></g></g></svg>