<svg xmlns="http://www.w3.org/2000/svg" viewBox="0 0 77.6 52.08"><defs><style>.cls-1{fill:#1d1d1b;}</style></defs><title>Risorsa 41</title><g id="Livello_2" data-name="Livello 2"><g id="Livello_1-2" data-name="Livello 1"><path class="cls-1" d="M72.8,0h4.8L68.48,52.08H9.12L0,0H4.8L6.4,9.52A4.71,4.71,0,0,0,8.52,8.24a24,24,0,0,0,2-2.12,8.72,8.72,0,0,1,2.52-2,7.66,7.66,0,0,1,3.8-.92,7.55,7.55,0,0,1,3.88,1,8.78,8.78,0,0,1,2.6,2.16,13.62,13.62,0,0,0,2.08,2.16,3.58,3.58,0,0,0,5,0A13.62,13.62,0,0,0,32.4,6.36,8.78,8.78,0,0,1,35,4.2a7.55,7.55,0,0,1,3.88-1,7.75,7.75,0,0,1,3.92,1,8.74,8.74,0,0,1,2.64,2.16,13.62,13.62,0,0,0,2.08,2.16,3.58,3.58,0,0,0,5,0,13.62,13.62,0,0,0,2.08-2.16A8.74,8.74,0,0,1,57.2,4.2,8.13,8.13,0,0,1,67.32,6,22.86,22.86,0,0,0,69.2,8.16a4.51,4.51,0,0,0,2,1.28ZM64.56,47.44,70.4,13.92a7.19,7.19,0,0,1-3.64-2c-1.09-1.07-2.08-2-3-2.92a3.83,3.83,0,0,0-2.68-1.32,4.1,4.1,0,0,0-3,1.6,32.51,32.51,0,0,1-3.36,3.2,7.76,7.76,0,0,1-9.44,0,32.51,32.51,0,0,1-3.36-3.2,4.1,4.1,0,0,0-3-1.6,3.68,3.68,0,0,0-2.44,1,14.9,14.9,0,0,0-2.08,2.2,8.87,8.87,0,0,1-2.64,2.2,8,8,0,0,1-7.76,0,8.87,8.87,0,0,1-2.64-2.2,14.9,14.9,0,0,0-2.08-2.2,3.68,3.68,0,0,0-2.44-1A3.84,3.84,0,0,0,14,9c-.88.91-1.89,1.89-3,3a7.65,7.65,0,0,1-3.8,2L13,47.44ZM34.32,30.24v.08A3.86,3.86,0,0,1,36.92,32a5.48,5.48,0,0,1,.92,3.12,5.21,5.21,0,0,1-2,4.32A7.58,7.58,0,0,1,31,41a6.72,6.72,0,0,1-5-1.76,7,7,0,0,1-1.84-5h3.2a4.13,4.13,0,0,0,.88,2.92A3.35,3.35,0,0,0,31,38.4a3.84,3.84,0,0,0,2.64-.92,3.19,3.19,0,0,0,1-2.52q0-3.28-4.32-3.28H29.6V29.36c2.88.11,4.32-.91,4.32-3a2.46,2.46,0,0,0-.88-2,3.18,3.18,0,0,0-2.16-.76,2.83,2.83,0,0,0-2.4,1.2,4.11,4.11,0,0,0-.8,2.72H24.56A7.39,7.39,0,0,1,26.4,22.8,5.86,5.86,0,0,1,31,21a6.79,6.79,0,0,1,4.28,1.4,4.55,4.55,0,0,1,1.8,3.8A3.91,3.91,0,0,1,34.32,30.24Zm19,.8a15.52,15.52,0,0,1-1.48,7,5.36,5.36,0,0,1-5.24,3,5.3,5.3,0,0,1-5.16-3,15.52,15.52,0,0,1-1.48-7Q39.92,21,46.56,21T53.28,31Zm-3.12,0q0-7.44-3.6-7.44T43,31q0,7.37,3.52,7.36T50.16,31Z"/></g></g></svg>