<svg xmlns="http://www.w3.org/2000/svg" viewBox="0 0 58.32 58.32"><defs><style>.cls-1{fill:#1d1d1b;}</style></defs><title>Risorsa 16</title><g id="Livello_2" data-name="Livello 2"><g id="Livello_1-2" data-name="Livello 1"><path class="cls-1" d="M49.76,8.56A28.13,28.13,0,0,1,58.32,29.2a28,28,0,0,1-8.56,20.6,28.21,28.21,0,0,1-20.64,8.52A28.11,28.11,0,0,1,8.56,49.8,28,28,0,0,1,0,29.2,28.13,28.13,0,0,1,8.56,8.56,28,28,0,0,1,29.12,0,28.13,28.13,0,0,1,49.76,8.56Zm-3.32,38A23.61,23.61,0,0,0,53.6,29.2a23.61,23.61,0,0,0-7.16-17.32A23.61,23.61,0,0,0,29.12,4.72a23.51,23.51,0,0,0-17.24,7.16A23.61,23.61,0,0,0,4.72,29.2a23.61,23.61,0,0,0,7.16,17.32,23.51,23.51,0,0,0,17.24,7.16A23.61,23.61,0,0,0,46.44,46.52Zm-5.92-27.2a9.29,9.29,0,0,1,2.12,6,9.37,9.37,0,0,1-2.08,6C39.17,33.13,36.67,34,33,34H25.6V44.8h-5V16.72H33C36.61,16.72,39.11,17.59,40.52,19.32Zm-2.76,6q0-4.63-4.88-4.64H25.6V30h7.2a5.6,5.6,0,0,0,3.48-1.12A4.12,4.12,0,0,0,37.76,25.36Z"/></g></g></svg>