<svg xmlns="http://www.w3.org/2000/svg" viewBox="0 0 67.68 58.32"><defs><style>.cls-1{fill:#1d1d1b;}</style></defs><title>Risorsa 12</title><g id="Livello_2" data-name="Livello 2"><g id="Livello_1-2" data-name="Livello 1"><path class="cls-1" d="M59,14.32A28.37,28.37,0,0,1,63.12,29.2,27.72,27.72,0,0,1,59,44l8.64,6.08L65,53.92l-8.72-6.08A28.82,28.82,0,0,1,34,58.32,29,29,0,0,1,11.52,47.76L2.64,53.92,0,50.08l8.8-6.16a28.23,28.23,0,0,1-4-14.72,28.23,28.23,0,0,1,4-14.72L0,8.32,2.64,4.48l8.88,6.16a29.06,29.06,0,0,1,10-7.8,29.11,29.11,0,0,1,25,0,28.11,28.11,0,0,1,9.84,7.76L65,4.48l2.64,3.84ZM12.64,17.2a24,24,0,0,0-3.12,12,24,24,0,0,0,3.12,12l17.12-12Zm39.84-4A24.24,24.24,0,0,0,34,4.72a23.44,23.44,0,0,0-18.64,8.64l18.48,13ZM15.36,45A23.44,23.44,0,0,0,34,53.68,23.56,23.56,0,0,0,44.24,51.4a24.68,24.68,0,0,0,8.24-6.28l-18.64-13ZM55.2,41.36A24.18,24.18,0,0,0,55.2,17L37.92,29.2Z"/></g></g></svg>