<svg xmlns="http://www.w3.org/2000/svg" viewBox="0 0 77.6 57.12"><defs><style>.cls-1{fill:#1d1d1b;}</style></defs><title>Risorsa 38</title><g id="Livello_2" data-name="Livello 2"><g id="Livello_1-2" data-name="Livello 1"><path class="cls-1" d="M72.8,5h4.8L68.48,57.12H9.12L0,5H4.8l1.6,9.52a4.71,4.71,0,0,0,2.12-1.28,24,24,0,0,0,2-2.12,8.72,8.72,0,0,1,2.52-2,7.66,7.66,0,0,1,3.8-.92q3.76,0,7.2,3.84c-.05,0-.05-.19,0-.56a12.46,12.46,0,0,1,2.28-7A12.15,12.15,0,0,1,32,0V2.56a10.83,10.83,0,0,0-4.12,3.8,9.84,9.84,0,0,0-1.56,5.4l-.08,17c0,1.17.4,1.76,1.2,1.76s1.2-.61,1.2-1.84V16.08a9.79,9.79,0,0,0,8.08-3.84v3.28A12.45,12.45,0,0,1,31,18.24V28.4q0,4.49-3.52,4.48a3.13,3.13,0,0,1-2.6-1.16,4.57,4.57,0,0,1-.92-2.92L24,18.16a18.54,18.54,0,0,1-3.24-3q-2.36-2.47-4-2.48A3.84,3.84,0,0,0,14,14.08c-.88.91-1.89,1.89-3,3a7.65,7.65,0,0,1-3.8,2L13,52.48H64.56L70.4,19a10.16,10.16,0,0,1-5-3.4q-2.56-2.84-4.24-2.84T57,15.36a13.89,13.89,0,0,1-3.88,3.2V34q0,4.48-3.52,4.48a3,3,0,0,1-1.2-.24c0,.16,0,.57,0,1.24a11.08,11.08,0,0,1,0,1.44q0,.44-.12,1.32A3.42,3.42,0,0,1,48,43.56q-.24.44-.6,1a2,2,0,0,1-1,.76,4.43,4.43,0,0,1-2.88,0,3.2,3.2,0,0,1-3.28,2.48,3.25,3.25,0,0,1-3.36-2.48,3.45,3.45,0,0,1-1.36.24,3.13,3.13,0,0,1-2.6-1.16A4.44,4.44,0,0,1,32,41.52V22.32h2.32v18.8c0,1.39.4,2.08,1.2,2.08s1.2-.51,1.2-1.52V22.32H39V43.44c0,1.33.4,2,1.2,2s1.2-.61,1.2-1.84l-.08-21.28h2.4v18.8c0,1.39.37,2.08,1.12,2.08s1.2-.61,1.2-1.84v-19H48.4V34.08c0,1.33.4,2,1.2,2s1.2-.59,1.2-1.76V11.76A10.26,10.26,0,0,0,49.4,6.6a10,10,0,0,0-3.8-3.8V.24Q53.11,3.53,53.12,13c.16-.16.4-.41.72-.76s.55-.59.68-.72l.64-.64c.29-.29.52-.51.68-.64l.68-.56a2.88,2.88,0,0,1,.76-.48c.21-.08.48-.2.8-.36A3.37,3.37,0,0,1,59,8.48l1-.16a8.44,8.44,0,0,1,1.12-.08,7.69,7.69,0,0,1,3.72.88,7.77,7.77,0,0,1,2.48,2A22.86,22.86,0,0,0,69.2,13.2a4.51,4.51,0,0,0,2,1.28Z"/></g></g></svg>