<svg xmlns="http://www.w3.org/2000/svg" viewBox="0 0 77.6 52.08"><defs><style>.cls-1{fill:#1d1d1b;}</style></defs><title>Risorsa 18</title><g id="Livello_2" data-name="Livello 2"><g id="Livello_1-2" data-name="Livello 1"><path class="cls-1" d="M66.08,9.68,77.6,52.08H0l2.24-3.52,3.44-5.48c1.39-2.21,2.73-4.39,4-6.52S11.79,33.17,12,32.8a36,36,0,0,1,3.84-5.24,14.59,14.59,0,0,1,4.88-3.2A19.12,19.12,0,0,1,28.4,23h1.76L4.8,5.2,7.52,1.36,38.32,23H39L60.72,7.68l-.8-3H19.28V0H63.52L64.8,4.88l5-3.52L72.48,5.2ZM28.4,27.6q-5,0-7.36,1.68a20.72,20.72,0,0,0-5.12,6.08c-1.44,2.19-2.85,4.45-4.24,6.8L32.4,27.6ZM38.64,29,12.32,47.44H65ZM45,27.6,71,45.92l-5-18.32ZM64.88,23,62,12.48,47.2,23Z"/></g></g></svg>