<svg xmlns="http://www.w3.org/2000/svg" viewBox="0 0 67.68 55.68"><defs><style>.cls-1{fill:#1d1d1b;}</style></defs><title>Risorsa 34</title><g id="Livello_2" data-name="Livello 2"><g id="Livello_1-2" data-name="Livello 1"><path class="cls-1" d="M47.28,23.12,59.84,45l7.84,5.52-2.56,3.68,1,1.44H2l.72-1.28H2.64L0,50.56,8.16,44.8l12.4-21.6L0,8.72,2.64,5,23,19.12,34,0,44.88,19,65,5l2.64,3.76ZM11.76,48l-1.68,2.8H57.92l-1.6-2.48L33.84,32.48ZM24.48,25.92l-7.2,12.56,12.48-8.8ZM41,21.76,34,9.2,26.8,21.84l7,5Zm9.76,17L43.36,25.84l-5.44,3.84Z"/></g></g></svg>