<svg xmlns="http://www.w3.org/2000/svg" viewBox="0 0 77.6 52.08"><defs><style>.cls-1{fill:#1d1d1b;}</style></defs><title>Risorsa 19</title><g id="Livello_2" data-name="Livello 2"><g id="Livello_1-2" data-name="Livello 1"><path class="cls-1" d="M77.6,52.08H0l2.24-3.52,3.44-5.48c1.39-2.21,2.73-4.39,4-6.52S11.79,33.17,12,32.8a36,36,0,0,1,3.84-5.24,14.59,14.59,0,0,1,4.88-3.2A19.12,19.12,0,0,1,28.4,23H64.88l-5-18.24H19.28V0H63.52ZM66.08,27.6H28.4q-5,0-7.36,1.68a20.72,20.72,0,0,0-5.12,6.08c-.37.59-1.47,2.33-3.28,5.24S9.41,45.79,8.4,47.44h63ZM43.8,35.32a3.09,3.09,0,1,1-2.2-.92A3,3,0,0,1,43.8,35.32Z"/></g></g></svg>