<svg width="30" height="60" viewBox="0 0 30 60" fill="none" xmlns="http://www.w3.org/2000/svg">
<g clip-path="url(#clip0_3026_186684)">
<path fill-rule="evenodd" clip-rule="evenodd" d="M22.9058 11.4059L25.9373 8.11129C26.2635 7.75684 26.2949 7.21738 26.0154 6.82508C25.4215 5.99145 24.58 4.83883 24 4.49979C23.3804 4.13763 22.1277 3.64354 21.1335 3.25142C20.9051 3.16133 20.6903 3.07661 20.5 3.00012C20.3277 3.16947 19.8618 3.48546 19.2472 3.90239C17.4956 5.09041 14.5359 7.09796 13.7177 8.86733C12.6125 11.2577 14.3809 14.2999 15.0441 14.9518C14.971 15.4338 14.8694 16.1579 14.7728 16.944C14.6226 18.166 14.4844 19.538 14.4844 20.3843C14.4844 20.8496 14.5319 21.6574 14.5888 22.6244C14.7444 25.27 14.9701 29.1071 14.4844 30.3802C14.4668 30.4265 14.4198 30.5241 14.3499 30.6692C14.1248 31.1368 13.6621 32.0976 13.1788 33.4231L13.1107 33.4731L13.1107 33.4732C12.0701 34.238 11.0443 34.9919 10.2473 35.5002C10.1649 35.8335 10 36.6002 10 37.0002C10 37.6935 10.2373 38.0716 10.4338 38.3846C10.4888 38.4722 10.5406 38.5548 10.5831 38.6377C10.828 38.4751 11.0639 38.3279 11.2861 38.2031C11.4384 38.1175 11.6699 38.011 11.9647 37.8875C11.6851 39.4425 11.5266 41.1653 11.6107 42.9837C11.739 45.7585 11.7183 47.2887 11.592 48.2118C11.6439 48.2569 11.6987 48.3098 11.7573 48.3663C12.0404 48.6395 12.4142 49.0002 13 49.0002C13.7071 49.0002 14.8264 48.643 14.8264 48.643C15.0559 46.734 15.5045 44.2794 16.0318 42.9837C16.4484 41.9599 16.9631 39.8266 17.4604 37.7657C17.6317 37.0556 17.801 36.3541 17.9635 35.7096C20.6518 34.7668 23.2465 33.8417 23.8863 33.4224C24.3321 33.1303 25.0275 32.8919 25.7825 32.633C26.8247 32.2757 27.9803 31.8795 28.7495 31.2494C29.8548 30.1629 29.4127 28.8591 29.4127 28.8591C29.4127 28.8591 29.2298 28.2845 28.9218 27.338C27.5857 21.9486 25.1436 17.1924 23.417 13.8319L23.4116 13.8212C23.1753 13.3613 22.9524 12.9276 22.7477 12.522C22.5619 12.1537 22.6264 11.7095 22.9058 11.4059ZM23.6851 27.8383C23.1127 26.4361 22.17 24.8217 21.1921 23.2805C21.1434 23.4989 21.0945 23.7181 21.0455 23.9378C20.6707 25.6172 20.2904 27.3215 19.9951 28.8888C21.3631 28.3647 22.699 27.9616 23.6851 27.8383Z" fill="#789CB9"/>
<path fill-rule="evenodd" clip-rule="evenodd" d="M19.1457 3.19776C19.473 2.76282 20.0297 2.49694 20.6136 2.61579C21.1802 2.73114 21.8677 2.91133 22.5261 3.15845C23.1767 3.40268 23.8364 3.72602 24.3175 4.14344C24.9923 4.72893 25.773 5.54192 26.3297 6.14749C26.8421 6.70481 26.8391 7.54697 26.3562 8.11045L23.2507 11.7345C23.1201 11.8869 23.0947 12.0995 23.1826 12.2737C23.3896 12.684 23.6155 13.1239 23.8566 13.5931L23.8631 13.6058C25.5861 16.9594 28.0503 21.7556 29.4028 27.2C29.5544 27.666 29.6754 28.0409 29.7588 28.3002L29.8555 28.602L29.887 28.7004L29.8878 28.7031L29.8886 28.7055L29.889 28.7068L29.89 28.7098L29.896 28.7291C29.9006 28.7444 29.9065 28.7649 29.9131 28.7899C29.9263 28.84 29.9424 28.9091 29.9571 28.994C29.9865 29.1633 30.0112 29.3996 29.9947 29.6765C29.9611 30.2365 29.7574 30.9595 29.1 31.6058C29.0892 31.6164 29.078 31.6264 29.0663 31.636C28.3256 32.2428 27.2935 32.6364 26.3833 32.9544C26.23 33.008 26.0807 33.0592 25.9355 33.1089C25.6341 33.2123 25.3501 33.3096 25.0835 33.41C24.6883 33.5589 24.3775 33.6981 24.1604 33.8404C23.9595 33.9721 23.6403 34.1234 23.2655 34.2837C22.8807 34.4482 22.4048 34.6354 21.8695 34.8373C20.8661 35.2157 19.6389 35.6511 18.383 36.092C18.2454 36.6444 18.1032 37.233 17.959 37.8308L17.9461 37.8843C17.7833 38.5588 17.6181 39.2437 17.4549 39.895C17.123 41.2201 16.7906 42.4451 16.4949 43.172C15.9951 44.4003 15.552 46.7963 15.3229 48.7025C15.2461 49.3413 15.1949 49.9125 15.1736 50.352C15.163 50.5723 15.1602 50.7531 15.1646 50.8897C15.1683 51.0041 15.1765 51.0599 15.179 51.0765C15.1798 51.0824 15.18 51.0834 15.179 51.0804C15.2529 51.2984 15.3294 51.6341 15.4093 52.0022C15.4341 52.1162 15.4595 52.2353 15.4859 52.3584C15.5477 52.6475 15.6144 52.9593 15.6884 53.2832C15.9018 54.2168 16.1594 55.1696 16.4774 55.7949C16.4767 55.7936 16.4764 55.7929 16.4764 55.7929C16.4765 55.7928 16.4868 55.8094 16.5187 55.8416C16.5544 55.8778 16.6058 55.9221 16.6739 55.9723C16.8103 56.0729 16.9907 56.1803 17.1918 56.2791C17.6144 56.4868 18.0277 56.6081 18.2423 56.6081C18.371 56.6081 18.527 56.6278 18.6717 56.7074C18.8342 56.7969 18.9628 56.9539 18.9978 57.1603C19.0289 57.3437 18.9755 57.5029 18.9211 57.6098C18.8644 57.7213 18.7858 57.8182 18.7034 57.8993C18.3818 58.2154 17.8107 58.4773 17.137 58.4773C17.13 58.4773 17.1033 58.4783 17.061 58.4798C16.8625 58.487 16.3201 58.5065 15.8493 58.4974C15.5452 58.4916 15.221 58.4746 14.9424 58.4336C14.8035 58.4131 14.6627 58.3849 14.5355 58.3437C14.4194 58.306 14.2604 58.241 14.1339 58.1166C13.7171 57.7069 13.5737 57.2836 13.4388 56.8856L13.4306 56.8612C13.2968 56.4666 13.1481 56.0286 12.7442 55.433C12.4018 54.9282 11.8007 54.6104 11.0801 54.2295C11.0502 54.2138 11.0202 54.1979 10.9899 54.1819C10.6332 53.993 10.2494 53.7838 9.92575 53.5277C9.59693 53.2675 9.2995 52.9358 9.14766 52.488C8.84233 51.5876 9.25237 50.8599 9.68002 50.3495C9.8795 50.1113 10.1036 49.8951 10.2909 49.7145C10.3043 49.7015 10.3176 49.6886 10.3307 49.676C10.5416 49.4723 10.6792 49.3333 10.7548 49.2219C10.8857 49.0288 11.0126 48.7578 11.0966 48.1438C11.216 47.2712 11.2396 45.7827 11.1112 43.0066C11.0422 41.5143 11.1329 40.0869 11.3184 38.7627C11.172 38.8508 11.0187 38.9484 10.8595 39.0541C10.3003 39.4252 9.69406 39.8768 9.08326 40.3318C8.91146 40.4598 8.73931 40.588 8.56773 40.7149C7.80411 41.2792 7.03784 41.8259 6.42242 42.1284C6.14365 42.2654 5.86514 42.3979 5.59017 42.5286C5.18671 42.7204 4.79086 42.9086 4.41292 43.1024C3.77614 43.429 3.28675 43.7253 3.01549 43.992C2.80718 44.1968 2.63497 44.436 2.45215 44.6899C2.37329 44.7995 2.29246 44.9118 2.20591 45.0252C2.08011 45.1901 1.92388 45.3799 1.74342 45.5089C1.54731 45.6491 1.23592 45.7718 0.897039 45.6052C0.725652 45.521 0.637523 45.3787 0.593951 45.2818C0.549074 45.1821 0.527469 45.0788 0.515796 44.9915C0.492263 44.8156 0.497303 44.6096 0.515987 44.4021C0.553947 43.9804 0.657804 43.4543 0.801274 42.9324C0.94487 42.4102 1.13428 41.8698 1.35207 41.4232C1.46083 41.2001 1.5822 40.989 1.71583 40.8119C1.84433 40.6416 2.01153 40.4659 2.22337 40.3618C2.67199 40.1413 3.18192 39.889 3.60795 39.5688C4.03779 39.2456 4.31071 38.9055 4.38552 38.5378C4.4316 38.3113 4.4447 38.0529 4.45891 37.7389L4.45984 37.7182C4.47311 37.4242 4.48845 37.0847 4.54966 36.7538C4.61333 36.4096 4.73061 36.0482 4.96617 35.7187C5.20485 35.3848 5.54446 35.1124 6.00774 34.9172C6.48615 34.7156 6.90318 34.6955 7.2803 34.8226C7.61341 34.9349 7.87015 35.1517 8.04995 35.3035C8.05723 35.3096 8.06437 35.3156 8.07139 35.3215C8.27763 35.4953 8.40056 35.5914 8.53752 35.6375C8.64396 35.6734 8.8072 35.6935 9.10247 35.5691C9.31361 35.4801 9.6091 35.314 9.97848 35.0784C10.7454 34.5893 11.735 33.8635 12.7614 33.1091C13.0651 32.2898 13.3576 31.6147 13.5866 31.1151C13.7076 30.8511 13.8108 30.6362 13.8875 30.4768C13.9263 30.3962 13.957 30.3326 13.9806 30.2825C13.9923 30.2577 14.0013 30.2382 14.008 30.2232C14.0142 30.2093 14.0167 30.203 14.0172 30.2019C14.0173 30.2017 14.0172 30.2018 14.0172 30.2019C14.15 29.8537 14.2333 29.1969 14.2645 28.3116C14.2949 27.4474 14.2747 26.4298 14.2335 25.4021C14.1962 24.4729 14.1405 23.5226 14.0913 22.6818C14.0334 21.6942 13.9844 20.8578 13.9844 20.3841C13.9844 19.5033 14.1265 18.103 14.2765 16.8828C14.3591 16.2105 14.4454 15.5832 14.5147 15.1113C14.1188 14.6339 13.5928 13.75 13.2442 12.7218C12.8381 11.5242 12.6344 10.0187 13.2639 8.65728C13.8744 7.33705 15.0426 6.35053 16.0824 5.63105C16.5541 5.30463 17.0143 5.02346 17.3976 4.78926C17.4404 4.76313 17.4822 4.73759 17.523 4.71263C17.9552 4.44795 18.2188 4.27771 18.334 4.16452C18.5896 3.91319 18.9014 3.52238 19.1457 3.19776ZM15.4038 15.9661C15.3601 16.2864 15.314 16.6388 15.269 17.0048C15.1186 18.2286 14.9844 19.5724 14.9844 20.3841C14.9844 20.8412 15.0305 21.621 15.0863 22.5672C15.1358 23.4046 15.1929 24.3723 15.2327 25.362C15.2743 26.3987 15.2956 27.4454 15.2639 28.3468C15.2329 29.2271 15.1503 30.0373 14.9516 30.5582C14.9259 30.6256 14.8698 30.742 14.8084 30.8693C14.8018 30.8829 14.7952 30.8967 14.7885 30.9105C14.7124 31.0686 14.6126 31.2766 14.4957 31.5317C14.4314 31.6721 14.3619 31.8267 14.2884 31.995C15.2551 31.3013 16.1638 30.6849 16.813 30.3659C17.7047 29.9276 18.7015 29.4899 19.6924 29.1073C19.9864 27.6067 20.3527 25.9932 20.7119 24.4108C20.7462 24.2598 20.7804 24.1091 20.8145 23.9588C20.2766 23.1306 19.7324 22.3276 19.2325 21.59C19.0861 21.3741 18.9435 21.1637 18.806 20.9599C18.1745 20.024 17.6352 19.2069 17.3545 18.6551C17.0594 18.0747 16.7753 17.6115 16.5073 17.2325C16.1026 16.6603 15.7392 16.2819 15.4038 15.9661ZM21.5698 25.1493C21.2968 26.3535 21.0269 27.5573 20.7927 28.7051C21.6345 28.4156 22.4515 28.1792 23.1678 28.0359C22.7427 27.1269 22.1818 26.1409 21.5698 25.1493ZM12.41 38.245C12.1654 39.6978 12.0329 41.2891 12.1101 42.9604C12.2274 45.4963 12.2226 47.0277 12.1191 48.0157C12.131 48.0269 12.1427 48.0381 12.1544 48.049C12.4261 48.3056 12.632 48.5 13 48.5C13.29 48.5 13.6974 48.4235 14.0605 48.3355C14.1749 48.3077 14.2805 48.2799 14.3709 48.2551C14.6112 46.3922 15.0452 44.0814 15.5686 42.7951C15.833 42.1453 16.1495 40.991 16.4849 39.652C16.647 39.0048 16.8114 38.3235 16.9745 37.6474L16.9869 37.5963C17.0771 37.2222 17.167 36.85 17.2557 36.4871C15.3576 37.1519 13.5307 37.7931 12.41 38.245ZM14.2496 49.3185C13.8816 49.406 13.4 49.5 13 49.5C12.5509 49.5 12.1821 49.3341 11.8973 49.1414C11.8116 49.3957 11.7069 49.5995 11.5824 49.7832C11.4369 49.9977 11.2153 50.2119 11.0255 50.3952L10.9938 50.4259C10.799 50.6139 10.6107 50.7958 10.4466 50.9916C10.1005 51.4047 9.95792 51.7635 10.0947 52.1669C10.1639 52.371 10.3086 52.5554 10.5462 52.7435C10.789 52.9355 11.096 53.1066 11.4577 53.298C11.5075 53.3244 11.5585 53.3511 11.6105 53.3784C12.2659 53.7223 13.083 54.151 13.5719 54.8718C14.0519 55.5797 14.2349 56.1193 14.3774 56.5395C14.512 56.9363 14.5918 57.1554 14.8126 57.3811C14.8196 57.384 14.8298 57.3878 14.8438 57.3924C14.8982 57.41 14.9791 57.4282 15.088 57.4443C15.3051 57.4762 15.5807 57.4921 15.8685 57.4976C16.294 57.5058 16.6531 57.4928 16.8934 57.4841C16.9991 57.4803 17.0817 57.4773 17.137 57.4773C17.2384 57.4773 17.3332 57.4678 17.4205 57.4517C17.1883 57.3754 16.9575 57.2782 16.7507 57.1766C16.5097 57.0581 16.2756 56.921 16.0805 56.7772C15.9009 56.6448 15.6966 56.4654 15.5861 56.2483C15.2051 55.4993 14.9255 54.4334 14.7135 53.5061C14.6379 53.175 14.5687 52.8514 14.5063 52.5597C14.4804 52.4385 14.4556 52.3228 14.4321 52.2143C14.3489 51.8311 14.284 51.5552 14.2319 51.4015C14.1834 51.2585 14.1701 51.0771 14.1651 50.9218C14.1595 50.7485 14.1634 50.5385 14.1748 50.3038C14.1886 50.0169 14.2141 49.6833 14.2496 49.3185ZM18.2583 57.6089C18.2581 57.6089 18.2571 57.6088 18.2554 57.6085L18.2583 57.6089ZM20.4141 3.59569C20.2574 3.5638 20.0718 3.63012 19.9447 3.79902C19.8259 3.95694 19.6834 4.14115 19.5328 4.32404C19.9666 4.49988 20.4724 4.70721 20.9655 4.91654C21.7318 5.24179 22.5023 5.58615 22.9157 5.82781C23.3617 6.08849 23.903 6.57834 24.375 7.0576C24.6674 7.35453 24.9489 7.66363 25.1848 7.9406L25.5969 7.45975C25.76 7.26936 25.7531 6.99782 25.5936 6.82429C25.0426 6.22497 24.2928 5.44597 23.6621 4.89876C23.3123 4.59525 22.7808 4.32223 22.1746 4.09467C21.5761 3.87 20.9412 3.70299 20.4141 3.59569ZM24.5254 8.71014C24.2918 8.42858 23.9866 8.08836 23.6625 7.7593C23.1973 7.28691 22.7344 6.88011 22.4111 6.69113C22.0626 6.48742 21.3529 6.16729 20.5748 5.83705C19.934 5.56505 19.2702 5.29588 18.7719 5.09519C18.5643 5.24689 18.3055 5.40604 18.0451 5.56547C18.004 5.59068 17.9621 5.61625 17.9196 5.6422C17.5345 5.87757 17.0984 6.14408 16.6514 6.45337C15.6499 7.14636 14.6664 8.0069 14.1716 9.07698C13.6958 10.1059 13.8237 11.3167 14.1912 12.4007C14.5605 13.4897 15.1334 14.3383 15.3946 14.595C15.4928 14.6916 15.6055 14.7937 15.7302 14.9065C16.157 15.2931 16.7232 15.8059 17.3238 16.6551C17.6218 17.0765 17.9304 17.5816 18.2459 18.2017C18.4926 18.6868 18.9919 19.4477 19.6349 20.4005C19.7703 20.6012 19.9115 20.8094 20.0569 21.024C20.5928 21.8147 21.1873 22.6918 21.7688 23.5927C22.7668 25.1388 23.7472 26.7856 24.3481 28.2325C24.408 28.3769 24.397 28.5409 24.3183 28.676C24.2397 28.811 24.1024 28.9015 23.9473 28.9206C23.0032 29.0366 21.6877 29.4231 20.3066 29.9433C19.2609 30.3371 18.1957 30.8005 17.2541 31.2633C16.395 31.6856 14.9571 32.7364 13.4749 33.8258L13.3971 33.883C12.4359 34.5895 11.4709 35.2987 10.6878 35.8107C10.6549 35.9559 10.6176 36.1336 10.5847 36.3145C10.5335 36.5958 10.5 36.8489 10.5 37C10.5 37.4549 10.6072 37.6982 10.7497 37.938C10.8484 37.8778 10.9457 37.8206 11.0413 37.7669C11.2199 37.6666 11.4734 37.551 11.7716 37.4261C12.9105 36.9492 14.9714 36.2275 17.057 35.4971C17.3042 35.4106 17.5516 35.3239 17.798 35.2375C19.1426 34.766 20.4581 34.3008 21.5166 33.9017C22.046 33.702 22.5067 33.5205 22.8724 33.3642C23.2481 33.2036 23.4932 33.0821 23.6122 33.004C23.9256 32.7986 24.3222 32.6282 24.7311 32.4742C25.0117 32.3685 25.3198 32.2629 25.6295 32.1567C25.7713 32.108 25.9135 32.0593 26.0535 32.0104C26.9688 31.6906 27.8296 31.349 28.4149 30.8768C28.8498 30.4411 28.9749 29.9759 28.9965 29.6167C29.0075 29.4318 28.9908 29.2743 28.9719 29.1651C28.9624 29.1109 28.9526 29.0696 28.9459 29.0441C28.9426 29.0314 28.9401 29.0228 28.9388 29.0185C28.9385 29.0177 28.9383 29.017 28.9382 29.0165C28.938 29.016 28.9382 29.0166 28.9382 29.0165C28.9381 29.0164 28.9378 29.0155 28.9379 29.0155L28.9361 29.0105L28.9031 28.9066L28.8067 28.6063C28.7227 28.3448 28.6002 27.9651 28.4464 27.4925C28.4427 27.4812 28.4394 27.4697 28.4365 27.4581C27.1161 22.1324 24.7005 17.424 22.9723 14.0602L22.9667 14.0493C22.7262 13.5812 22.4986 13.1381 22.2897 12.724C22.0176 12.1845 22.1018 11.5384 22.4913 11.0838L24.5254 8.71014ZM9.90917 38.4917C9.72089 38.1717 9.5 37.6938 9.5 37C9.5 36.8438 9.51927 36.6556 9.54645 36.4665C9.52763 36.4749 9.50905 36.4829 9.49072 36.4906C9.01229 36.6922 8.59526 36.7123 8.21814 36.5852C7.88501 36.4729 7.62826 36.2561 7.44845 36.1043C7.44119 36.0982 7.43405 36.0922 7.42703 36.0863C7.22079 35.9125 7.09787 35.8164 6.9609 35.7703C6.85447 35.7344 6.69125 35.7143 6.396 35.8387C6.08561 35.9695 5.90021 36.1316 5.77968 36.3003C5.65602 36.4732 5.57985 36.6823 5.53298 36.9357C5.48509 37.1946 5.47202 37.4716 5.45788 37.7841L5.45726 37.7978C5.44398 38.0916 5.4289 38.4253 5.36545 38.7372C5.2192 39.456 4.71846 39.985 4.20884 40.3681C3.70128 40.7497 3.11371 41.0384 2.67951 41.2518L2.66448 41.2592C2.66452 41.2592 2.66347 41.2597 2.66132 41.261C2.65918 41.2623 2.65607 41.2643 2.65202 41.2672C2.6438 41.2731 2.63259 41.282 2.61857 41.295C2.59 41.3215 2.55476 41.3603 2.51404 41.4143C2.43179 41.5233 2.34247 41.6737 2.2509 41.8615C2.06803 42.2365 1.89822 42.7148 1.76549 43.1975C1.66259 43.5718 1.58565 43.9354 1.54173 44.2409C1.55721 44.2195 1.57307 44.1975 1.5893 44.1749C1.78745 43.8997 2.04068 43.548 2.31447 43.2788C2.70638 42.8936 3.32227 42.538 3.95656 42.2127C4.34133 42.0153 4.76832 41.8121 5.18707 41.6129C5.45997 41.483 5.72938 41.3548 5.98131 41.231C6.50176 40.9752 7.1956 40.4855 7.97338 39.9107C8.13684 39.7898 8.30351 39.6657 8.47184 39.5402C8.94915 39.1846 9.43988 38.819 9.90917 38.4917Z" fill="black"/>
<path fill-rule="evenodd" clip-rule="evenodd" d="M26.3843 14.0996C26.4953 13.9071 26.7201 13.811 26.936 13.8637L28.0154 14.1271C28.2837 14.1926 28.4481 14.4632 28.3826 14.7314C28.3171 14.9997 28.0466 15.1641 27.7783 15.0986L27.7058 15.0809C28.6147 17.1207 29.3482 19.2276 29.9795 21.3579C30.058 21.6226 29.907 21.9009 29.6422 21.9793C29.3775 22.0578 29.0992 21.9068 29.0207 21.642C28.3924 19.522 27.6658 17.4402 26.7686 15.4347L26.6954 15.5617C26.5574 15.8009 26.2516 15.883 26.0124 15.745C25.7732 15.607 25.6912 15.3013 25.8291 15.0621L26.3843 14.0996ZM25.9503 34.8003C26.0859 34.5598 26.3909 34.4747 26.6314 34.6104L27.5993 35.1561C27.7929 35.2652 27.8912 35.489 27.8406 35.7054L27.5877 36.7873C27.5249 37.0562 27.256 37.2233 26.9871 37.1604C26.7182 37.0976 26.5511 36.8287 26.614 36.5598L26.6323 36.4814C24.4433 37.4608 22.1578 38.1837 19.9096 38.8948C19.8233 38.9221 19.7371 38.9494 19.651 38.9766C19.3877 39.06 19.1068 38.9141 19.0234 38.6508C18.9401 38.3875 19.086 38.1066 19.3493 38.0232C19.4266 37.9988 19.5039 37.9743 19.5812 37.9499C21.8634 37.2279 24.1185 36.5145 26.2635 35.5509L26.1403 35.4814C25.8997 35.3458 25.8147 35.0409 25.9503 34.8003Z" fill="black"/>
</g>
<defs>
<clipPath id="clip0_3026_186684">
<rect width="30" height="60" fill="white"/>
</clipPath>
</defs>
</svg>
