<svg width="30" height="60" viewBox="0 0 30 60" fill="none" xmlns="http://www.w3.org/2000/svg">
<path fill-rule="evenodd" clip-rule="evenodd" d="M22.7762 11.4268L23.0076 11.0921C23.2522 10.7385 23.243 10.2688 22.9661 9.93976C22.2603 9.10091 21.1071 7.85468 20.5 7.49982C20.3387 7.40551 20.1306 7.27983 19.8932 7.13641C19.0093 6.60252 17.7185 5.82277 16.9156 5.50006C16.739 5.67362 16.5081 5.824 16.2435 5.99636C15.5143 6.47142 14.5288 7.11339 13.7177 8.86734C12.6125 11.2577 14.3809 14.2999 15.0441 14.9518C14.971 15.4338 14.8694 16.1579 14.7728 16.944C14.6226 18.166 14.4844 19.538 14.4844 20.3843C14.4844 20.8496 14.5319 21.6574 14.5888 22.6244C14.7444 25.27 14.9701 29.1071 14.4844 30.3802C14.4668 30.4265 14.4198 30.5241 14.3499 30.6692C14.1248 31.1368 13.6621 32.0976 13.1788 33.4231L13.1107 33.4731C12.0701 34.238 11.0443 34.9919 10.2473 35.5002C10.1649 35.8335 10 36.6002 10 37.0002C10 37.6935 10.2373 38.0716 10.4338 38.3846C10.4888 38.4722 10.5406 38.5548 10.5831 38.6377C10.828 38.4751 11.0639 38.3279 11.2861 38.2031C11.4384 38.1175 11.6699 38.011 11.9647 37.8875C11.6851 39.4425 11.5266 41.1653 11.6107 42.9837C11.739 45.7585 11.7183 47.2887 11.592 48.2119C11.6439 48.2569 11.6987 48.3098 11.7573 48.3663C12.0404 48.6395 12.4142 49.0002 13 49.0002C13.7071 49.0002 14.8264 48.643 14.8264 48.643C15.0559 46.734 15.5045 44.2794 16.0318 42.9837C16.4484 41.9599 16.9631 39.8266 17.4604 37.7657C17.6317 37.0556 17.801 36.3541 17.9635 35.7096C20.6518 34.7668 23.2465 33.8417 23.8863 33.4224C24.3321 33.1303 25.0275 32.8919 25.7825 32.633C26.8247 32.2757 27.9803 31.8795 28.7495 31.2494C29.8548 30.1629 29.4127 28.8591 29.4127 28.8591C29.4127 28.8591 29.2298 28.2845 28.9218 27.338C27.5857 21.9486 25.1436 17.1924 23.417 13.8319L23.4115 13.8212C23.1583 13.3282 22.9204 12.8653 22.7039 12.4349C22.541 12.1113 22.5701 11.7249 22.7762 11.4268ZM23.6851 27.8383C23.1127 26.4361 22.17 24.8217 21.1921 23.2805C21.1434 23.4989 21.0945 23.7181 21.0455 23.9378C20.6707 25.6172 20.2904 27.3215 19.9951 28.8888C21.3631 28.3647 22.699 27.9616 23.6851 27.8383Z" fill="#789CB9"/>
<path d="M23.9898 4.52111L24.3175 4.14345L23.9898 4.52111ZM15.0441 14.9516L15.3946 14.595L15.0441 14.9516ZM13.7177 8.86715L13.2639 8.6573L13.7177 8.86715ZM18.6845 4.52111L19.035 4.87769L18.6845 4.52111ZM14.4844 30.38L14.0172 30.2018L14.4844 30.38ZM11.6107 42.9835L12.1102 42.9604L11.6107 42.9835ZM11.1686 49.5026L10.7548 49.2219L11.1686 49.5026ZM14.4844 57.76L14.1339 58.1166L14.4844 57.76ZM16.0318 56.0216L16.4774 55.7949L16.0318 56.0216ZM14.7054 51.241L15.179 51.0804L14.7054 51.241ZM16.0318 42.9835L15.5686 42.7951L16.0318 42.9835ZM29.4127 28.8589L28.9362 29.0106L28.9392 29.0195L29.4127 28.8589ZM28.7495 31.2492L29.0663 31.636C29.078 31.6264 29.0892 31.6164 29.1 31.6058L28.7495 31.2492ZM23.8863 33.4222L23.6122 33.004L23.8863 33.4222ZM11.2861 38.2029L11.531 38.6388L11.2861 38.2029ZM6.20187 41.6797L6.42242 42.1284L6.20187 41.6797ZM9.29659 36.0299L9.49072 36.4906L9.29659 36.0299ZM17.0335 30.8146L17.2541 31.2633L17.0335 30.8146ZM23.8863 28.4243L23.9473 28.9206C24.1024 28.9015 24.2397 28.811 24.3183 28.676C24.397 28.5409 24.408 28.3769 24.3481 28.2325L23.8863 28.4243ZM17.8002 18.4284L18.2459 18.2017L17.8002 18.4284ZM28.9218 27.3378L28.4365 27.4581C28.4394 27.4697 28.4427 27.4812 28.4464 27.4925L28.9218 27.3378ZM21.3487 23.8638L21.7688 23.5927L21.3487 23.8638ZM17.9635 35.7094L17.798 35.2376L17.9635 35.7094ZM11.9647 37.8873L11.7716 37.4261L11.9647 37.8873ZM13.1788 33.4229L13.4749 33.8258L13.1788 33.4229ZM25.1365 8.76546L25.5161 9.09081L25.1365 8.76546ZM23.417 13.8317L23.8618 13.6032L23.417 13.8317ZM14.7728 16.9438L15.269 17.0048L14.7728 16.9438ZM16.9156 16.9438L17.3238 16.6551L16.9156 16.9438ZM14.8264 48.6428L15.3229 48.7025L14.8264 48.6428ZM23 11.2586L22.6203 10.9333V10.9333L23 11.2586ZM23.417 10.772L23.7967 11.0973L23.417 10.772ZM22.7362 12.4989L23.1826 12.2737L22.7362 12.4989ZM22.871 11.4092L23.2507 11.7345L22.871 11.4092ZM25.9617 6.4859L25.5936 6.82431L25.9617 6.4859ZM25.9765 7.78511L26.3562 8.11046L25.9765 7.78511ZM20.5138 3.10575L20.4141 3.59571L20.5138 3.10575ZM19.5452 3.4984L19.1457 3.19778L19.5452 3.4984ZM20.4141 3.59571C20.9412 3.703 21.5761 3.87001 22.1746 4.09468C22.7808 4.32224 23.3123 4.59526 23.6621 4.89878L24.3175 4.14345C23.8364 3.72603 23.1767 3.40269 22.5261 3.15847C21.8677 2.91135 21.1802 2.73115 20.6136 2.6158L20.4141 3.59571ZM23.6621 4.89878C24.2928 5.44599 25.0426 6.22498 25.5936 6.82431L26.3297 6.1475C25.773 5.54193 24.9923 4.72894 24.3175 4.14345L23.6621 4.89878ZM15.3946 14.595C15.1334 14.3383 14.5605 13.4897 14.1912 12.4007C13.8237 11.3167 13.6958 10.1059 14.1716 9.077L13.2639 8.6573C12.6344 10.0187 12.8381 11.5242 13.2442 12.7218C13.6486 13.9145 14.2916 14.913 14.6935 15.3082L15.3946 14.595ZM19.035 4.87769C19.3478 4.57017 19.6974 4.12766 19.9447 3.79903L19.1457 3.19778C18.9014 3.52239 18.5897 3.9132 18.334 4.16453L19.035 4.87769ZM13.9844 20.3841C13.9844 21.261 14.1523 23.3814 14.2335 25.4021C14.2748 26.4298 14.2949 27.4474 14.2645 28.3116C14.2333 29.1969 14.1501 29.8535 14.0172 30.2018L14.9516 30.5582C15.1503 30.0373 15.2329 29.2271 15.2639 28.3468C15.2956 27.4454 15.2743 26.3987 15.2327 25.362C15.148 23.254 14.9844 21.2456 14.9844 20.3841H13.9844ZM10.7548 49.2219C10.6792 49.3333 10.5416 49.4723 10.3307 49.676C10.136 49.8641 9.89386 50.0942 9.68002 50.3495C9.25237 50.8599 8.84233 51.5876 9.14767 52.4881L10.0947 52.1669C9.95792 51.7636 10.1005 51.4047 10.4466 50.9917C10.6196 50.7851 10.8195 50.5942 11.0255 50.3952C11.2153 50.2119 11.4369 49.9978 11.5824 49.7832L10.7548 49.2219ZM9.14767 52.4881C9.29951 52.9358 9.59693 53.2675 9.92575 53.5277C10.2495 53.7838 10.6332 53.993 10.9899 54.1819C11.7504 54.5844 12.3876 54.9072 12.7442 55.4331L13.5719 54.8718C13.0442 54.0938 12.1341 53.656 11.4577 53.298C11.096 53.1066 10.789 52.9355 10.5462 52.7435C10.3086 52.5555 10.1639 52.371 10.0947 52.1669L9.14767 52.4881ZM12.7442 55.4331C13.1481 56.0286 13.2968 56.4666 13.4306 56.8613C13.5679 57.2663 13.7086 57.6986 14.1339 58.1166L14.8349 57.4035C14.597 57.1696 14.5166 56.95 14.3776 56.5401C14.2351 56.1199 14.0522 55.58 13.5719 54.8718L12.7442 55.4331ZM14.1339 58.1166C14.2604 58.241 14.4194 58.306 14.5355 58.3437C14.6627 58.3849 14.8035 58.4132 14.9424 58.4336C15.221 58.4746 15.5452 58.4916 15.8493 58.4974C16.4205 58.5084 17.0972 58.4773 17.137 58.4773V57.4773C16.9559 57.4773 16.481 57.5094 15.8685 57.4976C15.5807 57.4921 15.3051 57.4762 15.088 57.4443C14.9791 57.4282 14.8982 57.41 14.8438 57.3924C14.7783 57.3711 14.7957 57.365 14.8349 57.4035L14.1339 58.1166ZM17.137 58.4773C17.8107 58.4773 18.3818 58.2154 18.7034 57.8993C18.7858 57.8182 18.8644 57.7213 18.9211 57.6098C18.9755 57.5029 19.0289 57.3437 18.9978 57.1604C18.9628 56.9539 18.8342 56.7969 18.6717 56.7075C18.527 56.6278 18.371 56.6081 18.2423 56.6081V57.6081C18.2794 57.6081 18.2478 57.6156 18.1894 57.5835C18.1133 57.5416 18.0331 57.4525 18.0119 57.3275C17.9946 57.2257 18.0272 57.1615 18.0298 57.1565C18.0347 57.1469 18.0304 57.1586 18.0023 57.1862C17.8818 57.3047 17.5687 57.4773 17.137 57.4773V58.4773ZM18.2423 56.6081C18.0277 56.6081 17.6144 56.4868 17.1918 56.2791C16.9907 56.1803 16.8103 56.0729 16.6739 55.9723C16.6058 55.9221 16.5544 55.8778 16.5187 55.8416C16.4804 55.803 16.4733 55.7868 16.4774 55.7949L15.5861 56.2483C15.6966 56.4654 15.9009 56.6448 16.0805 56.7772C16.2756 56.9211 16.5097 57.0581 16.7507 57.1766C17.2123 57.4035 17.7938 57.6081 18.2423 57.6081V56.6081ZM16.4774 55.7949C16.1594 55.1696 15.9018 54.2168 15.6884 53.2832C15.5828 52.8214 15.4922 52.384 15.4093 52.0022C15.3294 51.6341 15.2529 51.2984 15.179 51.0804L14.2319 51.4015C14.284 51.5552 14.3489 51.8311 14.4321 52.2143C14.5123 52.5838 14.6064 53.0375 14.7136 53.5061C14.9255 54.4334 15.2051 55.4993 15.5861 56.2483L16.4774 55.7949ZM29.4127 28.8589C28.9392 29.0195 28.9391 29.0192 28.939 29.019C28.939 29.0189 28.9389 29.0187 28.9389 29.0186C28.9388 29.0183 28.9387 29.018 28.9386 29.0178C28.9385 29.0173 28.9383 29.0169 28.9382 29.0166C28.938 29.0159 28.9379 29.0156 28.9379 29.0155C28.9378 29.0154 28.9381 29.0164 28.9388 29.0185C28.9401 29.0228 28.9426 29.0315 28.946 29.0442C28.9526 29.0696 28.9624 29.1109 28.9719 29.1651C28.9908 29.2743 29.0075 29.4318 28.9965 29.6167C28.9747 29.9803 28.8468 30.4524 28.399 30.8927L29.1 31.6058C29.7574 30.9595 29.9611 30.2365 29.9947 29.6765C30.0112 29.3996 29.9865 29.1633 29.9571 28.9941C29.9424 28.9091 29.9263 28.84 29.9131 28.7899C29.9065 28.7649 29.9006 28.7445 29.896 28.7291C29.8937 28.7214 29.8916 28.715 29.89 28.7098C29.8892 28.7073 29.8884 28.705 29.8878 28.7031C29.8875 28.7021 29.8872 28.7013 29.8869 28.7005C29.8868 28.7001 29.8867 28.6997 29.8866 28.6994C29.8865 28.6992 29.8864 28.6989 29.8864 28.6988C29.8863 28.6986 29.8862 28.6984 29.4127 28.8589ZM28.4326 30.8624C27.8471 31.3421 26.9781 31.6873 26.0535 32.0104C25.6077 32.1661 25.1402 32.3201 24.7311 32.4742C24.3222 32.6282 23.9256 32.7987 23.6122 33.004L24.1604 33.8404C24.3775 33.6981 24.6883 33.5589 25.0835 33.41C25.4785 33.2613 25.9118 33.1192 26.3833 32.9544C27.2935 32.6364 28.3256 32.2428 29.0663 31.636L28.4326 30.8624ZM5.98132 41.231C5.3428 41.5448 4.5921 41.8867 3.95656 42.2127C3.32227 42.538 2.70638 42.8936 2.31447 43.2789L3.0155 43.992C3.28675 43.7253 3.77614 43.4291 4.41292 43.1025C5.04845 42.7765 5.73461 42.4665 6.42242 42.1284L5.98132 41.231ZM2.31447 43.2789C1.94947 43.6377 1.62102 44.1432 1.41088 44.4186C1.28799 44.5797 1.20935 44.6615 1.16184 44.6955C1.12999 44.7182 1.22033 44.6499 1.33815 44.7078L0.897042 45.6053C1.23592 45.7718 1.54731 45.6492 1.74342 45.509C1.92388 45.3799 2.08011 45.1901 2.20591 45.0252C2.49315 44.6487 2.71733 44.2851 3.0155 43.992L2.31447 43.2789ZM1.33815 44.7078C1.45427 44.7649 1.4975 44.8529 1.50588 44.8715C1.51557 44.893 1.51171 44.8943 1.50697 44.8589C1.49769 44.7896 1.49611 44.6679 1.51196 44.4917C1.54308 44.1461 1.63265 43.6807 1.7655 43.1976C1.89822 42.7148 2.06803 42.2365 2.2509 41.8615C2.34247 41.6737 2.43179 41.5233 2.51404 41.4143C2.55476 41.3603 2.59 41.3216 2.61857 41.295C2.63259 41.282 2.6438 41.2731 2.65202 41.2672C2.65607 41.2643 2.65918 41.2623 2.66133 41.261C2.66347 41.2597 2.66453 41.2592 2.66448 41.2592L2.22338 40.3618C2.01153 40.4659 1.84434 40.6416 1.71583 40.8119C1.5822 40.989 1.46083 41.2002 1.35207 41.4232C1.13428 41.8699 0.944873 42.4102 0.801277 42.9325C0.657806 43.4543 0.55395 43.9804 0.51599 44.4021C0.497306 44.6096 0.492266 44.8156 0.515799 44.9915C0.527472 45.0788 0.549077 45.1821 0.593954 45.2819C0.637526 45.3787 0.725655 45.521 0.897042 45.6053L1.33815 44.7078ZM2.66448 41.2592C3.10009 41.0451 3.69541 40.7541 4.20884 40.3681C4.71846 39.985 5.2192 39.456 5.36545 38.7372L4.38552 38.5378C4.31071 38.9055 4.03779 39.2457 3.60795 39.5688C3.18193 39.889 2.67199 40.1413 2.22338 40.3618L2.66448 41.2592ZM5.36545 38.7372C5.4299 38.4204 5.44445 38.0812 5.45789 37.7841C5.47202 37.4716 5.48509 37.1946 5.53298 36.9357C5.57986 36.6823 5.65602 36.4733 5.77968 36.3003C5.90022 36.1316 6.08561 35.9695 6.396 35.8387L6.00774 34.9172C5.54446 35.1124 5.20486 35.3848 4.96617 35.7187C4.73061 36.0482 4.61334 36.4096 4.54967 36.7538C4.48701 37.0925 4.47242 37.4402 4.45891 37.7389C4.4447 38.053 4.4316 38.3113 4.38552 38.5378L5.36545 38.7372ZM6.396 35.8387C6.69126 35.7143 6.85448 35.7344 6.96091 35.7703C7.09787 35.8164 7.22079 35.9125 7.42703 36.0863C7.60763 36.2384 7.87155 36.4683 8.21814 36.5852C8.59526 36.7123 9.0123 36.6922 9.49072 36.4906L9.10247 35.5691C8.8072 35.6935 8.64397 35.6734 8.53753 35.6375C8.40056 35.5914 8.27763 35.4953 8.07139 35.3215C7.8908 35.1694 7.62688 34.9395 7.2803 34.8227C6.90318 34.6956 6.48615 34.7156 6.00774 34.9172L6.396 35.8387ZM28.4464 27.4925C28.6002 27.9651 28.7227 28.3449 28.8067 28.6063C28.8488 28.737 28.8812 28.8382 28.9031 28.9066C28.914 28.9408 28.9223 28.9669 28.9279 28.9843C28.9307 28.993 28.9328 28.9996 28.9342 29.004C28.9349 29.0062 28.9354 29.0078 28.9357 29.0089C28.9359 29.0095 28.936 29.0099 28.9361 29.0102C28.9362 29.0103 28.9362 29.0104 28.9362 29.0105C28.9362 29.0105 28.9362 29.0105 28.9362 29.0105C28.9362 29.0105 28.9362 29.0105 28.9362 29.0105C28.9362 29.0105 28.9362 29.0105 29.4127 28.8589C29.8891 28.7073 29.8891 28.7073 29.8891 28.7073C29.8891 28.7073 29.8891 28.7072 29.8891 28.7072C29.8891 28.7072 29.8891 28.7072 29.8891 28.7071C29.8891 28.7071 29.889 28.707 29.889 28.7068C29.8889 28.7065 29.8888 28.7061 29.8886 28.7055C29.8882 28.7044 29.8877 28.7027 29.887 28.7004C29.8855 28.6959 29.8834 28.6892 29.8806 28.6804C29.8749 28.6627 29.8666 28.6365 29.8555 28.602C29.8335 28.5331 29.801 28.4315 29.7588 28.3003C29.6744 28.0378 29.5515 27.6569 29.3973 27.1831L28.4464 27.4925ZM24.3481 28.2325C23.7472 26.7856 22.7669 25.1389 21.7688 23.5927L20.9286 24.135C21.9214 25.673 22.8601 27.2569 23.4245 28.6161L24.3481 28.2325ZM21.7688 23.5927C21.0295 22.4473 20.2692 21.3404 19.6349 20.4005C18.992 19.4477 18.4926 18.6868 18.2459 18.2017L17.3545 18.6551C17.6352 19.2069 18.1745 20.0241 18.806 20.9599C19.4463 21.9087 20.1966 23.001 20.9286 24.135L21.7688 23.5927ZM20.6215 29.5695C20.9593 27.8066 21.4074 25.8684 21.8363 23.9743L20.861 23.7534C20.4341 25.6388 19.9811 27.5977 19.6393 29.3812L20.6215 29.5695ZM17.2541 31.2633C18.1957 30.8005 19.2609 30.3371 20.3066 29.9433L19.9542 29.0074C18.878 29.4127 17.7832 29.889 16.813 30.3659L17.2541 31.2633ZM20.3066 29.9433C21.6877 29.4231 23.0032 29.0366 23.9473 28.9206L23.8253 27.928C22.7619 28.0587 21.3579 28.4788 19.9542 29.0074L20.3066 29.9433ZM23.6122 33.004C23.4932 33.0821 23.2481 33.2036 22.8724 33.3642C22.5067 33.5205 22.046 33.702 21.5166 33.9017C20.4582 34.3008 19.1426 34.766 17.798 35.2376L18.1289 36.1812C19.4726 35.71 20.7986 35.2412 21.8695 34.8373C22.4048 34.6355 22.8807 34.4482 23.2655 34.2837C23.6403 34.1234 23.9595 33.9721 24.1604 33.8404L23.6122 33.004ZM16.4949 43.172C16.7906 42.4452 17.123 41.2201 17.4549 39.895C17.6224 39.2265 17.7921 38.5226 17.959 37.8308C18.1261 37.1381 18.2905 36.4575 18.4483 35.8316L17.4786 35.5872C17.3194 36.2189 17.1538 36.9044 16.9869 37.5963C16.8197 38.2891 16.6511 38.9885 16.4849 39.652C16.1495 40.991 15.833 42.1453 15.5686 42.7951L16.4949 43.172ZM17.798 35.2376C15.4728 36.053 13.0455 36.8927 11.7716 37.4261L12.1579 38.3485C13.3962 37.83 15.7822 37.0042 18.1289 36.1812L17.798 35.2376ZM11.7716 37.4261C11.4734 37.551 11.2199 37.6666 11.0413 37.7669L11.531 38.6388C11.657 38.5681 11.8664 38.4706 12.1579 38.3485L11.7716 37.4261ZM11.4726 37.7988C11.1875 39.3843 11.0251 41.1449 11.1112 43.0066L12.1102 42.9604C12.0281 41.1852 12.1827 39.5003 12.4568 37.9758L11.4726 37.7988ZM14.0172 30.2018C14.0175 30.2011 14.0152 30.207 14.008 30.2232C14.0013 30.2382 13.9923 30.2577 13.9806 30.2825C13.957 30.3326 13.9263 30.3963 13.8875 30.4768C13.8108 30.6362 13.7076 30.8511 13.5866 31.1151C13.3445 31.6434 13.0313 32.3679 12.709 33.2516L13.6485 33.5942C13.9596 32.7411 14.2619 32.0418 14.4957 31.5317C14.6126 31.2766 14.7124 31.0686 14.7885 30.9105C14.8574 30.7675 14.9231 30.6328 14.9516 30.5582L14.0172 30.2018ZM13.4749 33.8258C14.9571 32.7364 16.395 31.6856 17.2541 31.2633L16.813 30.3659C15.8532 30.8377 14.3256 31.9595 12.8827 33.02L13.4749 33.8258ZM22.2897 12.7241C22.5002 13.1413 22.7297 13.588 22.9723 14.0602L23.8618 13.6032C23.6188 13.1302 23.391 12.687 23.1826 12.2737L22.2897 12.7241ZM22.9723 14.0602C24.7006 17.424 27.1161 22.1324 28.4365 27.4581L29.4071 27.2175C28.0552 21.7645 25.5867 16.9605 23.8618 13.6032L22.9723 14.0602ZM14.5497 14.8767C14.476 15.3633 14.3737 16.092 14.2765 16.8828L15.269 17.0048C15.3651 16.2234 15.4661 15.504 15.5384 15.0265L14.5497 14.8767ZM14.2765 16.8828C14.1265 18.103 13.9844 19.5033 13.9844 20.3841H14.9844C14.9844 19.5724 15.1186 18.2287 15.269 17.0048L14.2765 16.8828ZM18.2459 18.2017C17.9304 17.5816 17.6218 17.0765 17.3238 16.6551L16.5073 17.2325C16.7753 17.6115 17.0594 18.0748 17.3545 18.6551L18.2459 18.2017ZM17.3238 16.6551C16.5479 15.5579 15.8292 15.0223 15.3946 14.595L14.6935 15.3082C15.2189 15.8246 15.8002 16.2326 16.5073 17.2325L17.3238 16.6551ZM9.49072 36.4906C9.78229 36.3678 10.1355 36.1644 10.5162 35.9216L9.97849 35.0784C9.6091 35.314 9.31361 35.4801 9.10247 35.5691L9.49072 36.4906ZM10.5162 35.9216C11.3478 35.3912 12.4167 34.6036 13.4749 33.8258L12.8827 33.02C11.8132 33.8061 10.7755 34.5701 9.97849 35.0784L10.5162 35.9216ZM9.76197 35.3799C9.71857 35.5554 9.65445 35.8407 9.60082 36.1355C9.54893 36.4209 9.5 36.7511 9.5 37H10.5C10.5 36.8489 10.5335 36.5958 10.5847 36.3145C10.6341 36.0426 10.6937 35.7779 10.7327 35.6201L9.76197 35.3799ZM11.0413 37.7669C10.8051 37.8996 10.5583 38.0538 10.3066 38.2209L10.8595 39.0541C11.0978 38.896 11.3227 38.7558 11.531 38.6388L11.0413 37.7669ZM10.3066 38.2209C9.56214 38.7148 8.7332 39.3491 7.97338 39.9107C7.19561 40.4855 6.50176 40.9752 5.98132 41.231L6.42242 42.1284C7.03785 41.8259 7.80412 41.2792 8.56773 40.7149C9.34931 40.1372 10.143 39.5295 10.8595 39.0541L10.3066 38.2209ZM9.5 37C9.5 38.0474 10.0035 38.6029 10.1381 38.8656L11.028 38.4094C10.774 37.9138 10.5 37.7272 10.5 37H9.5ZM11.1112 43.0066C11.2396 45.7827 11.216 47.2712 11.0966 48.1439L12.0874 48.2795C12.2206 47.3059 12.2384 45.7338 12.1102 42.9604L11.1112 43.0066ZM11.0966 48.1439C11.0126 48.7578 10.8857 49.0288 10.7548 49.2219L11.5824 49.7832C11.8224 49.4292 11.9887 49.0002 12.0874 48.2795L11.0966 48.1439ZM11.2642 48.5892C11.4611 48.7602 12.0514 49.5 13 49.5V48.5C12.5344 48.5 12.3282 48.1887 11.9198 47.8341L11.2642 48.5892ZM15.3229 48.7025C15.552 46.7963 15.9951 44.4003 16.4949 43.172L15.5686 42.7951C15.014 44.1581 14.5598 46.6713 14.33 48.5831L15.3229 48.7025ZM13 49.5C13.4171 49.5 13.9229 49.3978 14.2962 49.3073C14.4889 49.2606 14.6581 49.214 14.7792 49.179C14.8399 49.1615 14.8888 49.1468 14.923 49.1363C14.9401 49.1311 14.9535 49.127 14.9628 49.124C14.9675 49.1226 14.9712 49.1214 14.9738 49.1206C14.9751 49.1202 14.9762 49.1199 14.9769 49.1196C14.9773 49.1195 14.9776 49.1194 14.9779 49.1193C14.978 49.1193 14.9781 49.1192 14.9782 49.1192C14.9783 49.1192 14.9783 49.1192 14.9783 49.1192C14.9784 49.1191 14.9784 49.1191 14.8264 48.6428C14.6744 48.1665 14.6745 48.1665 14.6745 48.1664C14.6745 48.1664 14.6745 48.1664 14.6745 48.1664C14.6746 48.1664 14.6746 48.1664 14.6746 48.1664C14.6745 48.1664 14.6745 48.1665 14.6743 48.1665C14.674 48.1666 14.6734 48.1668 14.6726 48.167C14.6709 48.1676 14.6682 48.1684 14.6645 48.1696C14.6572 48.1719 14.6458 48.1754 14.6309 48.1799C14.6011 48.189 14.5571 48.2023 14.5018 48.2182C14.391 48.2502 14.2361 48.2929 14.0605 48.3355C13.6974 48.4235 13.29 48.5 13 48.5V49.5ZM15.179 51.0804C15.1828 51.0919 15.1695 51.0442 15.1646 50.8897C15.1602 50.7531 15.163 50.5723 15.1736 50.352C15.1949 49.9125 15.2461 49.3413 15.3229 48.7025L14.33 48.5831C14.2514 49.2369 14.1975 49.8331 14.1748 50.3038C14.1634 50.5385 14.1595 50.7485 14.1651 50.9218C14.1701 51.0771 14.1834 51.2585 14.2319 51.4015L15.179 51.0804ZM25.5969 7.45976L24.7568 8.44011L25.5161 9.09081L26.3562 8.11046L25.5969 7.45976ZM14.1716 9.077C14.7279 7.87385 15.8988 6.94024 17.0084 6.21321L16.4604 5.37676C15.3305 6.11704 13.9468 7.1805 13.2639 8.6573L14.1716 9.077ZM17.0084 6.21321C17.4398 5.93057 17.8421 5.6913 18.192 5.47525C18.5193 5.27315 18.841 5.06833 19.035 4.87769L18.334 4.16453C18.2365 4.26036 18.022 4.40493 17.6666 4.62438C17.3338 4.82988 16.9067 5.08432 16.4604 5.37676L17.0084 6.21321ZM16.472 6.2206C16.9705 6.52795 17.8959 6.90396 18.709 7.26714C19.1313 7.4558 19.5384 7.64661 19.8857 7.83657C20.2408 8.03077 20.4984 8.20555 20.6464 8.35355L21.3536 7.64645C21.1016 7.39445 20.7412 7.16465 20.3655 6.9592C19.9821 6.74953 19.5457 6.54565 19.1168 6.3541C18.2275 5.95686 17.4201 5.63036 16.9968 5.36937L16.472 6.2206ZM22.6203 10.9333L22.4913 11.0838L23.2507 11.7345L23.3797 11.584L22.6203 10.9333ZM24.7568 8.44011L23.0374 10.4466L23.7967 11.0973L25.5161 9.09081L24.7568 8.44011ZM23.0374 10.4466L22.6203 10.9333L23.3797 11.584L23.7967 11.0973L23.0374 10.4466ZM20.6464 8.35355C21.0301 8.73723 21.622 9.41533 22.1276 10.0099C22.3782 10.3046 22.6041 10.5746 22.7674 10.771C22.849 10.8692 22.9149 10.9488 22.9603 11.0039C22.983 11.0314 23.0006 11.0528 23.0125 11.0672C23.0184 11.0744 23.023 11.0799 23.026 11.0836C23.0275 11.0854 23.0286 11.0868 23.0293 11.0877C23.0297 11.0882 23.03 11.0885 23.0302 11.0887C23.0303 11.0888 23.0303 11.0889 23.0304 11.089C23.0304 11.089 23.0304 11.089 23.0304 11.089C23.0304 11.089 23.0304 11.089 23.417 10.772C23.8037 10.4549 23.8037 10.4549 23.8036 10.4549C23.8036 10.4549 23.8036 10.4548 23.8036 10.4548C23.8035 10.4547 23.8034 10.4546 23.8033 10.4545C23.8031 10.4542 23.8028 10.4539 23.8024 10.4534C23.8016 10.4524 23.8004 10.4509 23.7988 10.449C23.7956 10.4451 23.791 10.4394 23.7849 10.432C23.7727 10.4172 23.7547 10.3954 23.7317 10.3675C23.6855 10.3116 23.6188 10.2309 23.5363 10.1317C23.3714 9.93332 23.1431 9.66035 22.8894 9.36208C22.3865 8.77066 21.7699 8.06277 21.3536 7.64645L20.6464 8.35355ZM23.1826 12.2737C23.0947 12.0995 23.1201 11.8869 23.2507 11.7345L22.4913 11.0838C22.1018 11.5384 22.0176 12.1845 22.2897 12.7241L23.1826 12.2737ZM25.5936 6.82431C25.7531 6.99784 25.76 7.26938 25.5969 7.45976L26.3562 8.11046C26.8391 7.54698 26.8421 6.70482 26.3297 6.1475L25.5936 6.82431ZM20.6136 2.6158C20.0297 2.49695 19.473 2.76283 19.1457 3.19778L19.9447 3.79903C20.0718 3.63013 20.2574 3.56381 20.4141 3.59571L20.6136 2.6158Z" fill="black"/>
</svg>
