<svg width="30" height="30" viewBox="0 0 30 30" fill="none" xmlns="http://www.w3.org/2000/svg">
<path fill-rule="evenodd" clip-rule="evenodd" d="M24.5683 6.07373C24.7018 6.15558 24.7893 6.29523 24.8046 6.45107C24.8902 7.32123 25.0191 8.89228 24.9976 10.6413C24.9762 12.3827 24.8057 14.3375 24.2739 15.9598C23.788 17.4424 22.7191 18.9678 21.5426 20.2795C20.3609 21.597 19.033 22.7403 17.9797 23.4544C17.8969 23.5105 17.7991 23.5405 17.6991 23.5405C17.4089 23.5405 17.0269 23.597 16.5344 23.6791C16.4712 23.6896 16.4065 23.7005 16.3405 23.7117C15.9074 23.7846 15.4153 23.8675 14.8951 23.9252C13.6946 24.0583 12.2852 24.0659 10.9029 23.5037C9.85636 23.078 8.65222 22.0649 7.60657 20.9649C6.55129 19.8548 5.59487 18.5894 5.05938 17.5911C4.98667 17.4555 4.98041 17.294 5.04239 17.1532C5.10438 17.0125 5.22772 16.908 5.37681 16.8701C6.75606 16.5195 9.68683 16.0061 12.2684 16.8812C13.6106 17.3361 14.9091 18.4466 15.9366 19.5925C16.1883 19.8732 16.4275 20.1603 16.6506 20.4461C16.5728 19.9978 16.5 19.5215 16.4403 19.0303C16.2262 17.2666 16.1723 15.2386 16.7157 13.5808C17.3331 11.6969 18.624 10.0345 20.0198 8.74224C21.4155 7.45014 22.9556 6.49169 24.1249 6.03435C24.2707 5.97731 24.4348 5.99189 24.5683 6.07373ZM15.889 21.0955C15.6735 20.818 15.4401 20.5367 15.192 20.2601C14.2033 19.1575 13.0451 18.2004 11.9474 17.8283C9.97999 17.1614 7.72213 17.3963 6.27751 17.6901C6.78547 18.4888 7.52039 19.4228 8.33135 20.2759C9.35526 21.353 10.4385 22.2352 11.2797 22.5774C12.439 23.0489 13.6556 23.0565 14.7848 22.9313C15.2748 22.8769 15.7372 22.7991 16.1716 22.726C16.2384 22.7148 16.3045 22.7036 16.37 22.6927C16.3913 22.6892 16.4126 22.6856 16.4339 22.6821C15.3961 21.9202 13.9716 21.0273 12.4286 20.4026C11.7881 20.1433 10.924 19.8914 10.2061 19.7019C9.84997 19.6079 9.53512 19.5306 9.30943 19.4769C9.19664 19.45 9.10628 19.4291 9.04436 19.4149L8.9736 19.3989L8.95565 19.3948L8.95028 19.3936C8.68066 19.334 8.51025 19.067 8.56991 18.7974C8.62957 18.5278 8.89651 18.3576 9.16613 18.4172L9.17335 18.4188L9.19302 18.4232L9.26748 18.4401C9.33196 18.4549 9.42517 18.4765 9.54107 18.5041C9.77273 18.5593 10.0957 18.6385 10.4613 18.735C11.1867 18.9265 12.1017 19.1915 12.8038 19.4757C13.9261 19.9301 14.9833 20.5145 15.889 21.0955ZM18.3848 21.9065C19.16 21.2815 20.0116 20.4888 20.7982 19.6118C21.9359 18.3433 22.9004 16.9397 23.3237 15.6483C23.8085 14.1693 23.9768 12.3335 23.9977 10.629C24.0137 9.32359 23.9433 8.1168 23.8717 7.24117C22.9237 7.71148 21.7734 8.48161 20.6992 9.47605C19.3787 10.6986 18.2128 12.2236 17.6659 13.8922C17.1928 15.3358 17.2236 17.1844 17.433 18.9098C17.5 19.4611 17.5841 19.9924 17.6731 20.4858C18.0435 18.9536 18.5979 17.1553 19.2741 15.6042C19.7061 14.6133 20.361 13.5503 20.898 12.7463C21.1682 12.3417 21.4121 11.9976 21.5886 11.7543C21.6769 11.6325 21.7484 11.5359 21.7982 11.4693C21.8231 11.436 21.8425 11.4102 21.8559 11.3926L21.8713 11.3723L21.8754 11.3669L21.8765 11.3654C22.0445 11.1463 22.3589 11.1041 22.5781 11.2721C22.7972 11.4401 22.8387 11.7539 22.6708 11.9731L22.6699 11.9742L22.6667 11.9784L22.6531 11.9964C22.6409 12.0124 22.6227 12.0365 22.5991 12.068C22.552 12.1311 22.4832 12.2239 22.398 12.3415C22.2274 12.5766 21.9912 12.91 21.7296 13.3017C21.2029 14.0903 20.587 15.0949 20.1907 16.0039C19.3502 17.932 18.7046 20.2645 18.3848 21.9065Z" fill="black"/>
</svg>
