<svg width="30" height="30" viewBox="0 0 30 30" fill="none" xmlns="http://www.w3.org/2000/svg">
<path fill-rule="evenodd" clip-rule="evenodd" d="M5.5 23C5.5 24.3807 6.61929 25.5 8 25.5H23C24.3807 25.5 25.5 24.3807 25.5 23V8C25.5 6.61929 24.3807 5.5 23 5.5H8C6.61929 5.5 5.5 6.61929 5.5 8V23ZM8 24.5C7.17157 24.5 6.5 23.8284 6.5 23L6.5 8C6.5 7.17157 7.17157 6.5 8 6.5L23 6.5C23.8284 6.5 24.5 7.17157 24.5 8V23C24.5 23.8284 23.8284 24.5 23 24.5H8ZM18.875 9.5H20C20.2043 9.5 20.3979 9.54057 20.5741 9.61363C20.8291 9.7194 21.1217 9.59837 21.2274 9.34329C21.3332 9.08821 21.2122 8.79568 20.9571 8.6899C20.6616 8.56738 20.3381 8.5 20 8.5H18.875C18.5989 8.5 18.375 8.72386 18.375 9C18.375 9.27614 18.5989 9.5 18.875 9.5ZM14.375 9.5H16.625C16.9011 9.5 17.125 9.27614 17.125 9C17.125 8.72386 16.9011 8.5 16.625 8.5H14.375C14.0989 8.5 13.875 8.72386 13.875 9C13.875 9.27614 14.0989 9.5 14.375 9.5ZM11 9.5H12.125C12.4011 9.5 12.625 9.27614 12.625 9C12.625 8.72386 12.4011 8.5 12.125 8.5H11C10.6619 8.5 10.3384 8.56738 10.0429 8.6899C9.78782 8.79568 9.66678 9.08821 9.77256 9.34329C9.87834 9.59837 10.1709 9.7194 10.426 9.61363C10.6021 9.54057 10.7957 9.5 11 9.5ZM9.61363 10.426C9.7194 10.1709 9.59837 9.87834 9.34329 9.77256C9.08821 9.66679 8.79568 9.78782 8.6899 10.0429C8.56738 10.3384 8.5 10.6619 8.5 11V12.125C8.5 12.4011 8.72386 12.625 9 12.625C9.27614 12.625 9.5 12.4011 9.5 12.125V11C9.5 10.7957 9.54057 10.6021 9.61363 10.426ZM22.3101 10.0429C22.2043 9.78782 21.9118 9.66679 21.6567 9.77256C21.4016 9.87834 21.2806 10.1709 21.3864 10.426C21.4594 10.6021 21.5 10.7957 21.5 11V12.125C21.5 12.4011 21.7239 12.625 22 12.625C22.2761 12.625 22.5 12.4011 22.5 12.125V11C22.5 10.6619 22.4326 10.3384 22.3101 10.0429ZM22.5 14.375C22.5 14.0989 22.2761 13.875 22 13.875C21.7239 13.875 21.5 14.0989 21.5 14.375V16.625C21.5 16.9011 21.7239 17.125 22 17.125C22.2761 17.125 22.5 16.9011 22.5 16.625V14.375ZM9.5 14.375C9.5 14.0989 9.27614 13.875 9 13.875C8.72386 13.875 8.5 14.0989 8.5 14.375V16.625C8.5 16.9011 8.72386 17.125 9 17.125C9.27614 17.125 9.5 16.9011 9.5 16.625V14.375ZM9.5 18.875C9.5 18.5989 9.27614 18.375 9 18.375C8.72386 18.375 8.5 18.5989 8.5 18.875V20C8.5 20.3381 8.56738 20.6616 8.6899 20.9571C8.79568 21.2122 9.08821 21.3332 9.34329 21.2274C9.59837 21.1217 9.7194 20.8291 9.61363 20.574C9.54057 20.3979 9.5 20.2043 9.5 20V18.875ZM22.5 18.875C22.5 18.5989 22.2761 18.375 22 18.375C21.7239 18.375 21.5 18.5989 21.5 18.875V20C21.5 20.2043 21.4594 20.3979 21.3864 20.574C21.2806 20.8291 21.4016 21.1217 21.6567 21.2274C21.9118 21.3332 22.2043 21.2122 22.3101 20.9571C22.4326 20.6616 22.5 20.3381 22.5 20V18.875ZM10.426 21.3864C10.1709 21.2806 9.87834 21.4016 9.77256 21.6567C9.66679 21.9118 9.78782 22.2043 10.0429 22.3101C10.3384 22.4326 10.6619 22.5 11 22.5H12.125C12.4011 22.5 12.625 22.2761 12.625 22C12.625 21.7239 12.4011 21.5 12.125 21.5H11C10.7957 21.5 10.6021 21.4594 10.426 21.3864ZM20.9571 22.3101C21.2122 22.2043 21.3332 21.9118 21.2274 21.6567C21.1217 21.4016 20.8291 21.2806 20.5741 21.3864C20.3979 21.4594 20.2043 21.5 20 21.5H18.875C18.5989 21.5 18.375 21.7239 18.375 22C18.375 22.2761 18.5989 22.5 18.875 22.5H20C20.3381 22.5 20.6616 22.4326 20.9571 22.3101ZM14.375 21.5C14.0989 21.5 13.875 21.7239 13.875 22C13.875 22.2761 14.0989 22.5 14.375 22.5H16.625C16.9011 22.5 17.125 22.2761 17.125 22C17.125 21.7239 16.9011 21.5 16.625 21.5H14.375Z" fill="black"/>
</svg>
