<svg width="30" height="60" viewBox="0 0 30 60" fill="none" xmlns="http://www.w3.org/2000/svg">
<g clip-path="url(#clip0_3026_186657)">
<path d="M9.62118 51.4479C9.17907 50.1718 10.7265 49.321 11.1686 48.683C11.3917 48.3609 11.5586 47.9305 11.6406 46.9815C11.7212 46.0503 11.7202 44.6197 11.6107 42.3023C11.5266 40.5225 11.6851 38.8363 11.9647 37.3143C11.8337 37.368 11.7153 37.4184 11.6107 37.4653C11.4799 37.5238 11.3708 37.5767 11.2861 37.6232C11.0639 37.7454 10.828 37.8895 10.5831 38.0486C9.1221 38.9974 7.33774 40.4798 6.20187 41.0262C4.87554 41.6643 3.32815 42.3023 2.66498 42.9404C2.00182 43.5785 1.55971 44.6419 1.1176 44.4292C0.675485 44.2165 1.55971 40.6008 2.44393 40.1755C3.32815 39.7501 4.65443 39.112 4.87549 38.0486C5.09654 36.9851 4.65453 35.4963 6.20187 34.8583C7.74921 34.2202 7.74921 36.1344 9.29659 35.4963C9.55618 35.3893 9.89361 35.1999 10.2843 34.9546C10.4252 34.8661 10.5729 34.7704 10.7264 34.6687C11.4358 34.1986 12.2685 33.5996 13.1109 32.9936L13.1788 32.9447C13.8121 31.2448 14.4099 30.1577 14.4844 29.9664C14.6157 29.6295 14.6951 29.109 14.7378 28.4776H18.0213C18.5518 28.4776 19.7002 28.6194 20.2081 28.6903C20.1816 28.8214 20.1557 28.9517 20.1304 29.081C21.5228 28.5677 22.8826 28.173 23.8863 28.0523C23.7408 27.7093 23.5718 27.3534 23.3845 26.9888C24.0928 26.7052 25.6669 26.0955 26.2969 25.9254C26.927 25.7552 28.036 25.5709 28.5118 25.5C28.6574 25.9902 28.7946 26.4867 28.9218 26.9888C29.2298 27.9152 29.4127 28.4776 29.4127 28.4776C29.4127 28.4776 29.8547 29.7538 28.7495 30.8172C27.4231 31.8806 24.9474 32.2635 23.8863 32.9441C23.2465 33.3545 20.6518 34.2599 17.9635 35.1827C17.3295 37.6446 16.5919 40.955 16.0318 42.3023C15.5252 43.5209 15.0912 45.7865 14.8544 47.6195C14.6779 48.986 14.611 50.112 14.7054 50.3845C14.9575 51.112 15.3327 53.7185 16.0318 55.0636C16.2528 55.489 17.5792 56.1271 18.2423 56.1271C18.9055 56.1271 18.2423 56.9778 17.137 56.9778C16.916 56.9778 14.8339 57.1014 14.4844 56.7651C13.8212 56.1271 14.0423 55.489 13.158 54.2129C12.2738 52.9367 10.0633 52.7241 9.62118 51.4479Z" fill="#789CB9"/>
<path fill-rule="evenodd" clip-rule="evenodd" d="M19.1457 2.69776C19.473 2.26282 20.0297 1.99694 20.6136 2.11579C21.1802 2.23114 21.8677 2.41133 22.5261 2.65845C23.1767 2.90268 23.8364 3.22602 24.3175 3.64344C24.9923 4.22893 25.773 5.04192 26.3297 5.64749C26.8421 6.20481 26.8391 7.04697 26.3562 7.61045L23.2507 11.2345C23.1201 11.3869 23.0947 11.5995 23.1826 11.7737C23.3885 12.182 23.6139 12.6206 23.8538 13.0874C25.4113 16.1184 27.5789 20.3364 28.98 25.1361C29.1302 25.6507 29.2717 26.1722 29.4028 26.7C29.5544 27.166 29.6754 27.5409 29.7588 27.8002L29.8555 28.102L29.887 28.2004L29.8878 28.2031L29.8886 28.2055L29.889 28.2068L29.89 28.2098L29.896 28.2291C29.9006 28.2444 29.9065 28.2649 29.9131 28.2899C29.9263 28.34 29.9424 28.4091 29.9571 28.494C29.9865 28.6633 30.0112 28.8996 29.9947 29.1765C29.9611 29.7365 29.7574 30.4595 29.1 31.1058C29.0892 31.1164 29.078 31.1264 29.0663 31.136C28.3256 31.7428 27.2935 32.1364 26.3833 32.4544C26.23 32.508 26.0807 32.5592 25.9355 32.6089C25.6341 32.7123 25.3501 32.8096 25.0835 32.91C24.6883 33.0589 24.3775 33.1981 24.1604 33.3404C23.8175 33.5651 23.075 33.8761 22.179 34.2197C21.1239 34.6242 19.7706 35.1048 18.383 35.592C18.2454 36.1444 18.1032 36.733 17.959 37.3308L17.9462 37.3837C17.7834 38.0585 17.6181 38.7435 17.4549 39.395C17.123 40.7201 16.7906 41.9451 16.4949 42.672C16.0776 43.6974 15.6972 45.546 15.4489 47.2546C15.3259 48.1011 15.2377 48.8966 15.1938 49.5166C15.1719 49.8272 15.1615 50.0875 15.1627 50.2851C15.1638 50.4718 15.1758 50.5569 15.1786 50.5763C15.1791 50.58 15.1793 50.5813 15.179 50.5804C15.271 50.8518 15.3745 51.3367 15.4897 51.8759C15.5183 52.0099 15.5477 52.1472 15.5777 52.2855C15.735 53.0092 15.9217 53.8115 16.1514 54.4926C16.2547 54.7989 16.3635 55.0709 16.4774 55.2949C16.4733 55.2868 16.4804 55.3029 16.5187 55.3416C16.5544 55.3778 16.6058 55.4221 16.6739 55.4723C16.8103 55.5729 16.9907 55.6803 17.1918 55.7791C17.6144 55.9868 18.0277 56.1081 18.2423 56.1081C18.371 56.1081 18.527 56.1278 18.6717 56.2074C18.8342 56.2969 18.9628 56.4539 18.9978 56.6603C19.0289 56.8437 18.9755 57.0029 18.9211 57.1098C18.8644 57.2213 18.7858 57.3182 18.7034 57.3993C18.3818 57.7154 17.8107 57.9773 17.137 57.9773C17.13 57.9773 17.1033 57.9783 17.061 57.9798C16.8625 57.987 16.3201 58.0065 15.8493 57.9974C15.5452 57.9916 15.221 57.9746 14.9424 57.9336C14.8035 57.9131 14.6627 57.8849 14.5355 57.8437C14.4194 57.806 14.2604 57.741 14.1339 57.6166C13.7171 57.2069 13.5737 56.7836 13.4388 56.3856L13.4306 56.3612C13.2968 55.9666 13.1481 55.5286 12.7442 54.933C12.4018 54.4282 11.8007 54.1104 11.0802 53.7296C11.0503 53.7138 11.0202 53.6979 10.9899 53.6818C10.6332 53.493 10.2494 53.2838 9.92575 53.0277C9.59693 52.7675 9.2995 52.4358 9.14767 51.988C8.89236 51.2351 9.13859 50.5964 9.47978 50.1094C9.72553 49.7586 10.0627 49.4336 10.3224 49.1833C10.4005 49.108 10.4716 49.0394 10.5311 48.979C10.6389 48.8695 10.7108 48.7867 10.7548 48.7219C10.9094 48.4939 11.0612 48.1541 11.1402 47.2479C11.22 46.3327 11.2216 44.8943 11.1112 42.5066C11.0422 41.0143 11.1329 39.5869 11.3184 38.2626C10.6494 38.6651 9.86277 39.2511 9.0611 39.8483L8.95975 39.9238C8.0625 40.592 7.13637 41.2775 6.42242 41.6284C6.14362 41.7655 5.86508 41.8979 5.59008 42.0286C5.18666 42.2204 4.79084 42.4086 4.41292 42.6024C3.77613 42.929 3.28675 43.2253 3.01549 43.492C2.80717 43.6968 2.63497 43.936 2.45214 44.1899C2.37329 44.2995 2.29246 44.4118 2.20591 44.5252C2.08011 44.6901 1.92388 44.8799 1.74342 45.0089C1.54731 45.1491 1.23592 45.2718 0.897039 45.1052C0.725652 45.021 0.637523 44.8787 0.593951 44.7818C0.549074 44.6821 0.527469 44.5788 0.515796 44.4915C0.492263 44.3156 0.497303 44.1096 0.515987 43.9021C0.553947 43.4804 0.657804 42.9543 0.801274 42.4324C0.94487 41.9102 1.13428 41.3698 1.35207 40.9232C1.46083 40.7001 1.5822 40.489 1.71583 40.3119C1.84433 40.1416 2.01153 39.9659 2.22337 39.8618C2.67199 39.6413 3.18192 39.389 3.60795 39.0688C4.03779 38.7457 4.31071 38.4055 4.38552 38.0378C4.4316 37.8113 4.4447 37.5529 4.45891 37.2389L4.45984 37.2182C4.47311 36.9242 4.48845 36.5847 4.54966 36.2538C4.61333 35.9096 4.73061 35.5482 4.96617 35.2187C5.20485 34.8848 5.54446 34.6124 6.00774 34.4172C6.34904 34.2734 6.66502 34.219 6.96445 34.2525C7.26411 34.286 7.50418 34.4028 7.69828 34.5318C7.83934 34.6255 7.9771 34.7418 8.08632 34.8339C8.11589 34.8589 8.14337 34.8821 8.16826 34.9025C8.30208 35.0128 8.40101 35.082 8.49854 35.1228C8.61373 35.1709 8.78196 35.2041 9.10247 35.0691C9.44713 34.9239 9.98977 34.5866 10.6699 34.1172C11.3044 33.6793 12.0245 33.1507 12.7614 32.6091C13.0651 31.7898 13.3576 31.1147 13.5866 30.6151C13.7076 30.3511 13.8108 30.1362 13.8875 29.9768C13.9263 29.8962 13.957 29.8326 13.9806 29.7825C13.9923 29.7577 14.0013 29.7382 14.008 29.7232C14.0142 29.7093 14.0167 29.703 14.0172 29.7019C14.0173 29.7017 14.0172 29.7018 14.0172 29.7019C14.1118 29.454 14.1852 29.0346 14.2292 28.4617C14.3258 27.2035 14.2671 25.4346 14.1813 23.7794C14.1526 23.2265 14.1207 22.6837 14.0911 22.1794C14.0335 21.1988 13.9844 20.3641 13.9844 19.8841C13.9844 18.5346 14.3204 15.9349 14.5147 14.6113C14.1188 14.1339 13.5928 13.25 13.2442 12.2218C12.8381 11.0242 12.6344 9.51871 13.2639 8.15728C13.8744 6.83705 15.0426 5.85053 16.0824 5.13105C16.5541 4.80463 17.0143 4.52346 17.3976 4.28926C17.4404 4.26313 17.4822 4.23759 17.523 4.21263C17.9552 3.94795 18.2188 3.77771 18.334 3.66452C18.5896 3.41319 18.9014 3.02238 19.1457 2.69776ZM15.4038 15.4662C15.2149 16.8511 14.9844 18.8161 14.9844 19.8841C14.9844 20.3349 15.0304 21.1159 15.0864 22.0686C15.1166 22.5803 15.1496 23.1415 15.18 23.7277C15.2538 25.152 15.3108 26.7092 15.2594 27.9644C16.0208 27.9168 17.0554 27.8589 17.5 27.8589C17.9789 27.8589 19.0526 27.9911 19.795 28.093C20.0692 26.7417 20.3934 25.3139 20.712 23.9104C20.7463 23.7595 20.7804 23.6089 20.8145 23.4588C20.2766 22.6306 19.7324 21.8276 19.2325 21.09C19.0861 20.8741 18.9435 20.6637 18.806 20.4599C18.1745 19.524 17.6352 18.7069 17.3545 18.1551C16.6265 16.7238 15.9685 15.9996 15.4038 15.4662ZM21.5698 24.6493C21.2969 25.8533 21.0269 27.057 20.7927 28.2051C21.6345 27.9156 22.4514 27.6792 23.1678 27.536C23.1298 27.4546 23.0906 27.3726 23.0504 27.29C22.641 26.4486 22.126 25.5503 21.5698 24.6493ZM24.1791 27.3422C24.2382 27.4735 24.2946 27.6037 24.3481 27.7325C24.408 27.8769 24.397 28.0409 24.3183 28.176C24.2397 28.311 24.1024 28.4015 23.9473 28.4206C23.0032 28.5366 21.6877 28.9231 20.3066 29.4433C19.2609 29.8371 18.1957 30.3005 17.2541 30.7633C16.395 31.1856 14.9571 32.2364 13.4749 33.3258L13.4039 33.378C12.6525 33.9302 11.9011 34.4825 11.2379 34.9402C10.5647 35.4048 9.94316 35.8 9.49072 35.9906C8.95904 36.2146 8.50974 36.2113 8.11283 36.0454C7.87346 35.9453 7.68112 35.7969 7.5325 35.6744C7.48741 35.6373 7.4472 35.6035 7.4101 35.5722C7.31091 35.4887 7.23388 35.4238 7.14486 35.3647C7.0374 35.2933 6.94792 35.2569 6.85329 35.2463C6.75841 35.2357 6.61532 35.2463 6.396 35.3387C6.08561 35.4695 5.90021 35.6316 5.77968 35.8003C5.65602 35.9732 5.57986 36.1823 5.53298 36.4357C5.48509 36.6946 5.47202 36.9716 5.45788 37.2841L5.45726 37.2978C5.44398 37.5916 5.4289 37.9253 5.36545 38.2372C5.2192 38.956 4.71846 39.485 4.20884 39.8681C3.70128 40.2497 3.11371 40.5384 2.6795 40.7518L2.66448 40.7592C2.66452 40.7592 2.66347 40.7597 2.66132 40.761C2.65918 40.7623 2.65607 40.7643 2.65202 40.7672C2.6438 40.7731 2.63259 40.782 2.61857 40.795C2.59 40.8215 2.55476 40.8603 2.51404 40.9143C2.43179 41.0233 2.34247 41.1737 2.2509 41.3615C2.06803 41.7365 1.89822 42.2148 1.76549 42.6975C1.66259 43.0718 1.58565 43.4354 1.54173 43.7409C1.5572 43.7195 1.57306 43.6975 1.58929 43.6749C1.78744 43.3997 2.04067 43.048 2.31447 42.7788C2.70638 42.3936 3.32227 42.038 3.95656 41.7127C4.34135 41.5153 4.76835 41.3121 5.18712 41.1128C5.46001 40.983 5.72939 40.8548 5.98131 40.731C6.5937 40.43 7.43602 39.8117 8.36247 39.1218C8.40543 39.0898 8.44854 39.0576 8.49179 39.0254C9.35505 38.3822 10.2713 37.6994 11.0413 37.2669C11.2199 37.1666 11.4734 37.051 11.7716 36.9261C12.9105 36.4492 14.9714 35.7275 17.057 34.9972C17.3042 34.9106 17.5516 34.8239 17.798 34.7375C19.2755 34.2194 20.7171 33.7092 21.821 33.2859C22.7496 32.9299 23.3783 32.6573 23.6122 32.504C23.9256 32.2986 24.3222 32.1282 24.7311 31.9742C25.0117 31.8685 25.3198 31.7629 25.6295 31.6567C25.7713 31.608 25.9135 31.5593 26.0535 31.5104C26.9688 31.1906 27.8296 30.849 28.4149 30.3768C28.8499 29.9411 28.975 29.4759 28.9965 29.1167C29.0075 28.9318 28.9908 28.7743 28.9719 28.6651C28.9624 28.6109 28.9526 28.5696 28.946 28.5441C28.9426 28.5314 28.9401 28.5228 28.9388 28.5185C28.9385 28.5177 28.9383 28.517 28.9382 28.5165C28.938 28.516 28.9382 28.5166 28.9382 28.5165C28.9381 28.5164 28.9378 28.5155 28.9379 28.5155L28.9362 28.5105L28.9031 28.4066L28.8067 28.1063C28.7227 27.8448 28.6002 27.4651 28.4464 26.9925C28.4427 26.9812 28.4394 26.9697 28.4365 26.9581C28.344 26.585 28.2461 26.2148 28.1434 25.8478C27.5823 25.9614 26.7825 26.1678 26.2236 26.4472C25.6086 26.7547 24.7726 27.1048 24.1791 27.3422ZM27.861 24.885C26.4883 20.4052 24.4691 16.4742 22.9691 13.5542C22.7276 13.0839 22.4995 12.6399 22.2897 12.224C22.0176 11.6845 22.1018 11.0384 22.4913 10.5838L25.5969 6.95975C25.76 6.76936 25.7531 6.49782 25.5936 6.32429C25.0426 5.72497 24.2928 4.94597 23.6621 4.39876C23.3123 4.09525 22.7808 3.82223 22.1746 3.59467C21.5761 3.37 20.9412 3.20299 20.4141 3.09569C20.2574 3.0638 20.0718 3.13012 19.9447 3.29902C19.6974 3.62765 19.3478 4.07016 19.035 4.37768C18.8185 4.59044 18.4336 4.82764 18.0451 5.06547C18.0039 5.09069 17.9621 5.11626 17.9196 5.14222C17.5345 5.37758 17.0983 5.64409 16.6514 5.95337C15.6499 6.64636 14.6664 7.5069 14.1716 8.57698C13.6958 9.60588 13.8237 10.8167 14.1912 11.9007C14.5605 12.9897 15.1334 13.8383 15.3946 14.095C15.5009 14.1996 15.6193 14.3067 15.748 14.4233C16.3887 15.0034 17.2871 15.8168 18.2459 17.7017C18.4926 18.1868 18.992 18.9477 19.6349 19.9005C19.7703 20.1012 19.9115 20.3094 20.0569 20.524C20.5929 21.3147 21.1873 22.1918 21.7688 23.0927C22.4811 24.1961 23.1822 25.3477 23.743 26.4396C24.324 26.2083 25.1723 25.8548 25.7764 25.5528C26.4105 25.2357 27.2515 25.0126 27.861 24.885ZM18.7867 28.9714C18.1028 29.2571 17.4325 29.5614 16.813 29.8659C16.1638 30.1849 15.2551 30.8013 14.2884 31.495C14.3619 31.3267 14.4314 31.1721 14.4957 31.0317C14.6126 30.7766 14.7124 30.5686 14.7885 30.4105C14.7952 30.3967 14.8018 30.3829 14.8084 30.3692C14.8698 30.242 14.9259 30.1256 14.9516 30.0582C15.063 29.7662 15.1362 29.3897 15.185 28.9711C15.9517 28.9223 17.0612 28.8589 17.5 28.8589C17.7599 28.8589 18.2647 28.909 18.7867 28.9714ZM12.41 37.745C12.1654 39.1978 12.0329 40.7891 12.1101 42.4604C12.2208 44.8533 12.2224 46.3485 12.1364 47.3347C12.0496 48.3299 11.8699 48.8593 11.5824 49.2832C11.4862 49.425 11.3626 49.5597 11.2438 49.6804C11.1484 49.7774 11.0529 49.8696 10.9592 49.96C10.7152 50.1957 10.4838 50.4191 10.2988 50.6832C10.0641 51.0181 9.97794 51.3226 10.0947 51.6669C10.1639 51.871 10.3086 52.0554 10.5462 52.2435C10.789 52.4355 11.096 52.6066 11.4577 52.798C11.5075 52.8244 11.5585 52.8511 11.6105 52.8784C12.2659 53.2222 13.083 53.651 13.5719 54.3718C14.0519 55.0797 14.2349 55.6193 14.3774 56.0395C14.512 56.4363 14.5918 56.6554 14.8126 56.8811C14.8196 56.884 14.8298 56.8878 14.8438 56.8924C14.8982 56.91 14.9791 56.9282 15.088 56.9443C15.3051 56.9762 15.5807 56.9921 15.8685 56.9976C16.294 57.0058 16.6531 56.9928 16.8934 56.9841C16.9991 56.9803 17.0817 56.9773 17.137 56.9773C17.2384 56.9773 17.3332 56.9678 17.4205 56.9517C17.1883 56.8754 16.9575 56.7782 16.7507 56.6766C16.5097 56.5581 16.2756 56.421 16.0805 56.2772C15.9009 56.1448 15.6966 55.9654 15.5861 55.7483C15.4429 55.4667 15.3164 55.1459 15.2039 54.8122C14.9548 54.0735 14.7582 53.2233 14.6005 52.4979C14.5655 52.3367 14.5327 52.1837 14.502 52.0402C14.3889 51.512 14.3033 51.1121 14.2319 50.9015C14.1747 50.7329 14.1639 50.4987 14.1627 50.2911C14.1613 50.0584 14.1734 49.7703 14.1963 49.446C14.2423 48.7961 14.3337 47.9755 14.4593 47.1107C14.7084 45.3968 15.1017 43.4426 15.5686 42.2951C15.833 41.6453 16.1495 40.491 16.4849 39.152C16.647 38.5048 16.8114 37.8235 16.9745 37.1474L16.9869 37.0963C17.0771 36.7222 17.167 36.35 17.2557 35.9871C15.3576 36.6519 13.5307 37.2931 12.41 37.745ZM18.2583 57.1089C18.2583 57.1089 18.2573 57.1088 18.2553 57.1085L18.2583 57.1089Z" fill="black"/>
</g>
<defs>
<clipPath id="clip0_3026_186657">
<rect width="30" height="60" fill="white"/>
</clipPath>
</defs>
</svg>
