<svg width="177" height="370" viewBox="0 0 177 370" fill="none" xmlns="http://www.w3.org/2000/svg">
<g clip-path="url(#clip0_492_91329)">
<path d="M97.08 191.33C98.08 184.42 109.58 153.06 109.52 136.22C109.52 129.22 107.66 117.45 106.52 104.51C105.52 93.8697 107.93 85.1497 103.38 76.6797C97.81 66.3497 80.54 66.4097 71.67 63.5597C63.07 60.7997 64.25 50.7197 64.25 50.7197H45.25C45.25 50.7197 46.43 60.7997 37.83 63.5597C29 66.4097 11.71 66.3497 6.14999 76.6797C1.59999 85.1497 3.99999 93.8697 2.99999 104.51C1.83999 117.45 -1.09969e-05 129.25 -1.09969e-05 136.22C-0.060011 153.06 11.48 184.42 12.44 191.33C13.18 196.72 10.34 198.9 11.01 206.92C11.38 211.44 14.31 218.44 19.43 221C18.6515 210.128 18.4746 199.221 18.9 188.33C17.9 175.24 16.06 149.09 16.19 141.45C16.36 131.13 17.72 127.58 19.68 119.63C20.03 118.21 20.8 113.84 21.34 110.74L20.43 102.29L21.43 102.18L22.05 107.9C22.8 110.42 26.31 122.36 26.62 126.8C27.51 139.52 27.9 152.7 27.9 152.7C24.69 160.63 21.37 168.27 19.9 187.93C19.4653 198.657 19.6155 209.399 20.35 220.11C21.8726 233.485 25.2796 246.578 30.47 259C33.64 266.55 26.47 281.94 28.83 299.41C31.19 316.88 39.56 336.41 37.46 354.84C37.46 354.84 37.28 360.68 29.32 364.02C29.0071 364.211 28.7241 364.446 28.48 364.72C28.0846 365.104 27.8105 365.596 27.6916 366.134C27.5728 366.672 27.6143 367.234 27.8112 367.749C28.008 368.264 28.3515 368.71 28.7992 369.032C29.2469 369.354 29.7791 369.537 30.33 369.56H43.25C44.2113 369.573 45.1571 369.317 45.98 368.82C46.7602 368.372 47.3711 367.68 47.7182 366.85C48.0653 366.021 48.1292 365.099 47.9 364.23C47.05 359.7 46.55 357.52 46.9 354.52C47.2271 350.354 47.0255 346.164 46.3 342.05C45.45 336.58 48.6 321.05 50.5 307.99C52.4 294.93 45.64 277.99 46.5 266.25C46.88 260.97 46.44 257.57 48.11 249.3C52.59 227.21 53.92 196.53 53.92 196.53H57.24C57.24 196.53 58.07 226.35 62.54 249.3C64.16 257.58 63.77 260.97 64.15 266.25C64.99 277.95 58.24 294.93 60.15 307.99C62.06 321.05 65.15 336.58 64.35 342.05C63.6191 346.164 63.4175 350.354 63.75 354.52C64.06 357.52 63.55 359.7 62.75 364.23C62.5182 365.098 62.5798 366.019 62.9251 366.849C63.2705 367.679 63.8804 368.372 64.66 368.82C65.4839 369.314 66.429 369.571 67.39 369.56H80.21C80.7609 369.537 81.2931 369.354 81.7408 369.032C82.1884 368.71 82.532 368.264 82.7288 367.749C82.9257 367.234 82.9672 366.672 82.8484 366.134C82.7295 365.596 82.4554 365.104 82.06 364.72C81.8148 364.444 81.528 364.207 81.21 364.02C73.26 360.68 73.08 354.84 73.08 354.84C70.98 336.4 79.32 316.84 81.71 299.41C84.1 281.98 76.9 266.51 80.07 259C85.0424 246.877 88.3231 234.127 89.82 221.11C89.87 221.11 91.04 198.73 90.82 191.93C89.56 169.29 86.01 161.18 82.6 152.74C82.6 152.74 82.99 139.56 83.88 126.84C84.18 122.59 87.4 111.48 88.34 108.32L89.34 100.96L90.34 101.09L89.13 110.37C89.67 113.49 90.49 118.18 90.86 119.67C92.86 127.67 94.18 131.17 94.35 141.49C94.48 148.92 92.72 173.88 91.72 187.28C92.1835 198.299 92.0399 209.336 91.29 220.34C95.67 217.34 98.16 211.11 98.51 206.96C99.17 198.9 96.34 196.72 97.08 191.33Z" fill="#BEBEBE"/>
<path d="M89.58 222.43C89.42 223.59 89.24 224.96 89.19 225.43C89.9941 225.643 90.7599 225.98 91.46 226.43C90.11 227.43 84.24 229.05 74.14 229.05C64.04 229.05 58.14 227.43 56.82 226.43C57.5519 225.973 58.352 225.635 59.19 225.43L58.85 222.43C55.3 223.43 53.64 224.68 53.64 226.43C53.64 228.43 55.78 229.81 60.39 230.81C64.9211 231.672 69.5282 232.07 74.14 232C78.7568 232.054 83.3672 231.638 87.9 230.76C92.5 229.76 94.65 228.37 94.65 226.38C94.65 224.67 93 223.39 89.58 222.43Z" fill="#FF5923"/>
<path d="M83.3001 137.2L83.14 140.2C84.4332 140.395 85.71 140.686 86.9601 141.07C83.2801 142.31 71.8901 143.69 55.2401 143.69C38.5901 143.69 27.2401 142.31 23.5201 141.07C24.7878 140.687 26.081 140.393 27.39 140.19L27.24 137.19C20.95 138.19 19.55 139.48 19.55 141.08C19.55 142.95 21.45 144.34 30.89 145.48C38.9768 146.351 47.1068 146.758 55.2401 146.7C63.3733 146.758 71.5033 146.351 79.59 145.48C89.03 144.34 90.9301 142.95 90.9301 141.08C90.9301 139.48 89.5301 138.24 83.3001 137.2Z" fill="#FF5923"/>
<path d="M52.82 216L54.08 205.84C54.5819 206.224 55.2111 206.403 55.84 206.34C56.5103 206.367 57.1729 206.189 57.74 205.83C57.74 205.83 57.74 209.83 58.15 216H90.44C90.73 212.19 90.98 207.83 91.15 202.81C91.5337 191.517 90.5805 180.219 88.31 169.15C85.85 158 82.64 152.7 82.64 152.7C82.64 152.7 74.64 155.97 57.37 156.28C47.4314 156.397 37.5215 155.193 27.9 152.7C27.9 152.7 24.24 157.93 21.26 175.7C19.127 189.025 18.7035 202.568 20 216H52.82Z" fill="#646464"/>
<path d="M90.2299 181L90.5599 184.09C91.6499 184.28 92.5599 184.47 93.2599 184.66C88.6999 185.93 74.9999 187.31 54.9999 187.31C34.9999 187.31 21.3299 185.93 16.7699 184.69C17.8566 184.405 18.9583 184.182 20.0699 184.02L20.4699 180.92C12.9399 182.06 12.1899 183.4 12.1899 184.69C12.1899 186.23 13.1899 187.84 25.7199 189.09C33.5499 189.88 43.9499 190.31 54.9999 190.31C66.0499 190.31 76.4599 189.88 84.2899 189.09C96.7699 187.84 97.8199 186.23 97.8199 184.69C97.8399 183.44 97.1299 182.14 90.2299 181Z" fill="#FF5923"/>
<path d="M54.88 38.92C65.6275 38.92 74.34 30.2075 74.34 19.46C74.34 8.71254 65.6275 0 54.88 0C44.1326 0 35.42 8.71254 35.42 19.46C35.42 30.2075 44.1326 38.92 54.88 38.92Z" fill="#646464"/>
<path d="M70.72 21.6005C70.7208 18.2251 69.6337 14.9394 67.62 12.2305H42.16C40.1537 14.9426 39.0706 18.2269 39.07 21.6005V38.3505C39.07 38.3505 38.15 44.0005 44.76 50.7405C44.76 50.7405 50.67 56.8105 54.89 56.8005C58.46 57.0705 63.56 52.2005 63.56 52.2005C71.56 45.4105 70.72 38.3505 70.72 38.3505V21.6005Z" fill="#BEBEBE"/>
<path d="M57.5101 0.84C56.2641 0.486627 54.9986 0.206151 53.7201 0C49.1701 0.22 40.5601 1.43 31.3101 13.44C32.5841 15.9374 34.5219 18.0353 36.9106 19.5031C39.2993 20.9709 42.0464 21.7518 44.8501 21.76C54.5101 21.76 60.0101 18.17 64.6701 12.04C66.8701 16.61 70.6701 21.6 76.2801 23.28C74.3501 8 66.8301 2.11 57.5101 0.84Z" fill="#646464"/>
</g>
<circle cx="165" cy="185" r="9" fill="#FF5923"/>
<path d="M162.139 188H165.713C167.192 188 168.198 187.121 168.198 185.905C168.198 185.09 167.744 184.523 166.899 184.294C167.632 184.04 167.993 183.449 167.993 182.722C167.993 181.638 167.202 180.998 165.635 180.998H162.139V188ZM163.379 186.843V184.865H165.698C166.431 184.865 166.938 185.188 166.938 185.827C166.938 186.447 166.465 186.843 165.708 186.843H163.379ZM163.379 183.854V182.155H165.674C166.201 182.155 166.753 182.341 166.753 182.98C166.753 183.542 166.323 183.854 165.591 183.854H163.379Z" fill="white"/>
<circle cx="165" cy="227" r="9" fill="#FF5923"/>
<path d="M165.161 230.161C167.046 230.161 168.35 229.248 168.667 227.783L167.441 227.5C167.236 228.447 166.426 229.004 165.21 229.004C163.657 229.004 162.637 228.086 162.637 226.514C162.637 224.976 163.618 223.994 165.234 223.994C166.348 223.994 167.188 224.453 167.432 225.322L168.628 225.063C168.301 223.672 166.987 222.837 165.22 222.837C162.92 222.837 161.377 224.258 161.377 226.553C161.377 228.818 162.876 230.161 165.161 230.161Z" fill="white"/>
<circle cx="165" cy="142" r="9" fill="#FF5923"/>
<path d="M161.045 145H162.407L163.164 143.301H166.841L167.598 145H168.955L165.791 137.998H164.214L161.045 145ZM163.672 142.129L165 139.15L166.328 142.129H163.672Z" fill="white"/>
<line x1="100" y1="184.75" x2="153" y2="184.75" stroke="black" stroke-width="0.5"/>
<line x1="100" y1="226.75" x2="153" y2="226.75" stroke="black" stroke-width="0.5"/>
<line x1="93" y1="141.75" x2="153" y2="141.75" stroke="black" stroke-width="0.5"/>
<defs>
<clipPath id="clip0_492_91329">
<rect width="109.52" height="369.52" fill="white"/>
</clipPath>
</defs>
</svg>
