<svg width="30" height="30" viewBox="0 0 30 30" fill="none" xmlns="http://www.w3.org/2000/svg">
<path fill-rule="evenodd" clip-rule="evenodd" d="M24.8097 5.10744C24.9574 5.22397 25.0272 5.41356 24.9903 5.59806C24.7118 6.99058 24.0798 9.13614 23.2154 11.2373C22.3564 13.3253 21.2403 15.4383 19.9679 16.7107C18.5374 18.1411 16.6512 19.0765 14.9068 19.7422C14.0313 20.0762 13.1816 20.3459 12.4324 20.5758C12.279 20.6228 12.1306 20.668 11.9875 20.7116C11.4585 20.8726 11.0015 21.0117 10.6298 21.1436L5.80699 24.8947C5.58902 25.0642 5.27488 25.0249 5.10535 24.807C4.93581 24.589 4.97508 24.2749 5.19305 24.1053L10.0788 20.3053L10.0921 20.2953L10.1029 20.2874L10.1358 20.2635C10.1649 20.2423 10.2079 20.2108 10.2635 20.1699C10.3746 20.0882 10.5359 19.969 10.7359 19.8196C11.1361 19.5208 11.6904 19.1014 12.3073 18.6194C13.5465 17.6514 15.0185 16.4459 16.0036 15.4607C16.9988 14.4655 18.075 13.2551 18.9058 12.2891C19.3204 11.807 19.6723 11.3876 19.9204 11.0889C20.0445 10.9395 20.1425 10.8204 20.2095 10.7388L20.2858 10.6454L20.3113 10.6141L20.7 10.9286L21.0884 11.2435L21.0813 11.2523L21.061 11.2772L20.9828 11.3728C20.9146 11.4559 20.8152 11.5767 20.6897 11.7278C20.4387 12.03 20.083 12.4539 19.664 12.9412C18.8275 13.9138 17.7323 15.1463 16.7107 16.1678C15.6989 17.1796 14.2234 18.3893 12.9949 19.3512C13.4955 19.1895 14.0191 19.0106 14.5503 18.8079C16.2441 18.1616 17.9769 17.2874 19.2608 16.0036C20.3868 14.8776 21.4421 12.9192 22.2906 10.8568C22.9445 9.26748 23.4591 7.6574 23.7805 6.39813C22.652 6.95375 21.1821 7.72992 19.6938 8.61668C17.7437 9.77865 15.7969 11.1102 14.5393 12.3678C12.0286 14.8785 11.2257 17.5964 10.8738 19.1799C10.8139 19.4495 10.5468 19.6194 10.2773 19.5595C10.0077 19.4996 9.83774 19.2325 9.89764 18.963C10.2696 17.2894 11.1314 14.3615 13.8322 11.6607C15.1803 10.3126 17.2145 8.92993 19.1819 7.75762C21.1569 6.58084 23.0997 5.59564 24.2905 5.04602C24.4613 4.96718 24.662 4.99091 24.8097 5.10744ZM20.7 10.9286L21.0884 11.2435C21.2623 11.029 21.2294 10.7141 21.0149 10.5402C20.8004 10.3663 20.4852 10.3996 20.3113 10.6141L20.7 10.9286Z" fill="black"/>
</svg>
