<svg width="30" height="30" viewBox="0 0 30 30" fill="none" xmlns="http://www.w3.org/2000/svg">
<path d="M8.69013 22.072L8.21251 22.2199L8.69013 22.072ZM10.9205 15.8052C10.7034 16.6442 10.5 17.6499 10.5 18.5H11.5C11.5 17.7802 11.6769 16.874 11.8886 16.0558L10.9205 15.8052ZM10.5 18.5C10.5 19.3501 10.7034 20.3558 10.9205 21.1948L11.8886 20.9442C11.6769 20.126 11.5 19.2198 11.5 18.5H10.5ZM9.16776 21.9241C8.87424 20.9763 8.5 19.5505 8.5 18.5H7.5C7.5 19.7166 7.91871 21.2712 8.21251 22.2199L9.16776 21.9241ZM8.5 18.5C8.5 17.4495 8.87424 16.0237 9.16776 15.0759L8.21251 14.7801C7.91871 15.7288 7.5 17.2834 7.5 18.5H8.5ZM9.97899 22.5C9.59638 22.5 9.27312 22.2643 9.16776 21.9241L8.21251 22.2199C8.45528 23.0038 9.18477 23.5 9.97899 23.5V22.5ZM9.97899 23.5C11.3183 23.5 12.2076 22.1769 11.8886 20.9442L10.9205 21.1948C11.0924 21.8589 10.5991 22.5 9.97899 22.5V23.5ZM9.97899 14.5C10.5991 14.5 11.0924 15.1411 10.9205 15.8052L11.8886 16.0558C12.2076 14.8231 11.3183 13.5 9.97899 13.5V14.5ZM9.97899 13.5C9.18477 13.5 8.45528 13.9962 8.21251 14.7801L9.16776 15.0759C9.27312 14.7357 9.59638 14.5 9.97899 14.5V13.5Z" fill="black"/>
<path d="M13.1948 10.9205C12.3558 10.7034 11.3501 10.5 10.5 10.5L10.5 11.5C11.2198 11.5 12.126 11.6769 12.9442 11.8886L13.1948 10.9205ZM10.5 10.5C9.64992 10.5 8.64423 10.7034 7.80523 10.9205L8.05577 11.8886C8.87399 11.6769 9.7802 11.5 10.5 11.5L10.5 10.5ZM7.07592 9.16776C8.02373 8.87424 9.44954 8.5 10.5 8.5L10.5 7.5C9.28339 7.5 7.72884 7.91871 6.7801 8.21251L7.07592 9.16776ZM10.5 8.5C11.5505 8.5 12.9763 8.87424 13.9241 9.16776L14.2199 8.21251C13.2712 7.91871 11.7166 7.5 10.5 7.5L10.5 8.5ZM14.5 9.97899C14.5 10.5991 13.8589 11.0924 13.1948 10.9205L12.9442 11.8886C14.1769 12.2076 15.5 11.3183 15.5 9.97899L14.5 9.97899ZM15.5 9.97899C15.5 9.18477 15.0038 8.45528 14.2199 8.21251L13.9241 9.16776C14.2643 9.27312 14.5 9.59638 14.5 9.97899L15.5 9.97899ZM6.5 9.97899C6.5 9.59638 6.73569 9.27312 7.07592 9.16776L6.7801 8.21251C5.99617 8.45528 5.5 9.18477 5.5 9.97899L6.5 9.97899ZM5.5 9.97899C5.5 11.3183 6.82306 12.2076 8.05577 11.8886L7.80523 10.9205C7.14105 11.0924 6.5 10.5991 6.5 9.97899L5.5 9.97899Z" fill="black"/>
<path d="M15.8052 19.0795C16.6442 19.2966 17.6499 19.5 18.5 19.5L18.5 18.5C17.7802 18.5 16.874 18.3231 16.0558 18.1114L15.8052 19.0795ZM18.5 19.5C19.3501 19.5 20.3558 19.2966 21.1948 19.0795L20.9442 18.1114C20.126 18.3231 19.2198 18.5 18.5 18.5L18.5 19.5ZM21.9241 20.8322C20.9763 21.1258 19.5505 21.5 18.5 21.5L18.5 22.5C19.7166 22.5 21.2712 22.0813 22.2199 21.7875L21.9241 20.8322ZM18.5 21.5C17.4495 21.5 16.0237 21.1258 15.0759 20.8322L14.7801 21.7875C15.7288 22.0813 17.2834 22.5 18.5 22.5L18.5 21.5ZM14.5 20.021C14.5 19.4009 15.1411 18.9076 15.8052 19.0795L16.0558 18.1114C14.8231 17.7924 13.5 18.6817 13.5 20.021L14.5 20.021ZM13.5 20.021C13.5 20.8152 13.9962 21.5447 14.7801 21.7875L15.0759 20.8322C14.7357 20.7269 14.5 20.4036 14.5 20.021L13.5 20.021ZM22.5 20.021C22.5 20.4036 22.2643 20.7269 21.9241 20.8322L22.2199 21.7875C23.0038 21.5447 23.5 20.8152 23.5 20.021L22.5 20.021ZM23.5 20.021C23.5 18.6817 22.1769 17.7924 20.9442 18.1114L21.1948 19.0795C21.8589 18.9076 22.5 19.4009 22.5 20.021L23.5 20.021Z" fill="black"/>
<path d="M20.8322 8.07592C21.1258 9.02373 21.5 10.4495 21.5 11.5H22.5C22.5 10.2834 22.0813 8.72884 21.7875 7.7801L20.8322 8.07592ZM21.5 11.5C21.5 12.5505 21.1258 13.9763 20.8322 14.9241L21.7875 15.2199C22.0813 14.2712 22.5 12.7166 22.5 11.5H21.5ZM19.0795 14.1948C19.2966 13.3558 19.5 12.3501 19.5 11.5H18.5C18.5 12.2198 18.3231 13.126 18.1114 13.9442L19.0795 14.1948ZM19.5 11.5C19.5 10.6499 19.2966 9.64423 19.0795 8.80523L18.1114 9.05577C18.3231 9.87399 18.5 10.7802 18.5 11.5H19.5ZM20.021 15.5C19.4009 15.5 18.9076 14.8589 19.0795 14.1948L18.1114 13.9442C17.7924 15.1769 18.6817 16.5 20.021 16.5V15.5ZM20.021 16.5C20.8152 16.5 21.5447 16.0038 21.7875 15.2199L20.8322 14.9241C20.7269 15.2643 20.4036 15.5 20.021 15.5V16.5ZM20.021 7.5C20.4036 7.5 20.7269 7.73569 20.8322 8.07592L21.7875 7.7801C21.5447 6.99617 20.8152 6.5 20.021 6.5V7.5ZM20.021 6.5C18.6817 6.5 17.7924 7.82306 18.1114 9.05577L19.0795 8.80523C18.9076 8.14105 19.4009 7.5 20.021 7.5V6.5Z" fill="black"/>
</svg>
