<svg width="30" height="30" viewBox="0 0 30 30" fill="none" xmlns="http://www.w3.org/2000/svg">
<path fill-rule="evenodd" clip-rule="evenodd" d="M9.98933 6.5734C10.225 6.42943 10.5327 6.50376 10.6767 6.7394L11.9958 8.89853C12.1217 8.86875 12.2529 8.85301 12.3875 8.85301C13.1412 8.85301 13.7842 9.34569 13.9988 10.0295H16.0012C16.2158 9.34569 16.8588 8.85301 17.6125 8.85301C17.7471 8.85301 17.8783 8.86875 18.0042 8.89853L19.3233 6.7394C19.4673 6.50376 19.775 6.42943 20.0107 6.5734C20.2463 6.71736 20.3206 7.0251 20.1767 7.26074L18.8656 9.40675C19.1348 9.70319 19.3 10.0966 19.3 10.5295C19.3 10.9596 19.1369 11.3507 18.8708 11.6465L20.1078 13.5961C20.2224 13.5717 20.3411 13.5589 20.4625 13.5589C21.2162 13.5589 21.8592 14.0516 22.0738 14.7354H24.5C24.7761 14.7354 25 14.9592 25 15.2354C25 15.5115 24.7761 15.7354 24.5 15.7354H22.0738C21.8592 16.4192 21.2162 16.9118 20.4625 16.9118C20.2722 16.9118 20.0889 16.8804 19.9177 16.8224L18.8792 18.3631C19.1404 18.6577 19.3 19.0451 19.3 19.4707C19.3 19.9036 19.1348 20.297 18.8656 20.5934L20.1767 22.7394C20.3206 22.975 20.2463 23.2828 20.0107 23.4267C19.775 23.5707 19.4673 23.4964 19.3233 23.2607L18.0042 21.1016C17.8783 21.1314 17.7471 21.1471 17.6125 21.1471C16.8588 21.1471 16.2158 20.6544 16.0012 19.9707H13.9988C13.7842 20.6544 13.1412 21.1471 12.3875 21.1471C12.2529 21.1471 12.1217 21.1314 11.9958 21.1016L10.6767 23.2607C10.5327 23.4964 10.225 23.5707 9.98933 23.4267C9.75368 23.2828 9.67936 22.975 9.82333 22.7394L11.1344 20.5934C10.8652 20.297 10.7 19.9036 10.7 19.4707C10.7 19.0451 10.8596 18.6577 11.1208 18.3631L10.0823 16.8224C9.91114 16.8804 9.72778 16.9118 9.5375 16.9118C8.78379 16.9118 8.14077 16.4192 7.92619 15.7354H5.5C5.22386 15.7354 5 15.5115 5 15.2354C5 14.9592 5.22386 14.7354 5.5 14.7354H7.92619C8.14077 14.0516 8.78379 13.5589 9.5375 13.5589C9.65893 13.5589 9.77764 13.5717 9.89222 13.5961L11.1292 11.6465C10.8631 11.3507 10.7 10.9596 10.7 10.5295C10.7 10.0966 10.8652 9.70319 11.1344 9.40675L9.82333 7.26074C9.67936 7.0251 9.75368 6.71736 9.98933 6.5734ZM11.9886 12.1587L10.7658 14.0859C11.0497 14.3852 11.225 14.7892 11.225 15.2354C11.225 15.6106 11.1008 15.9564 10.8923 16.2349L11.977 17.8443C12.1086 17.8115 12.2462 17.7942 12.3875 17.7942C13.1412 17.7942 13.7842 18.2869 13.9988 18.9707H16.0012C16.2158 18.2869 16.8588 17.7942 17.6125 17.7942C17.7538 17.7942 17.8914 17.8115 18.023 17.8443L19.1077 16.2349C18.8992 15.9564 18.775 15.6106 18.775 15.2354C18.775 14.7892 18.9503 14.3852 19.2342 14.0859L18.0114 12.1587C17.8833 12.1896 17.7497 12.206 17.6125 12.206C16.8588 12.206 16.2158 11.7133 16.0012 11.0295H13.9988C13.7842 11.7133 13.1412 12.206 12.3875 12.206C12.2503 12.206 12.1167 12.1896 11.9886 12.1587ZM12.3875 9.85301C12.2587 9.85301 12.1399 9.88738 12.038 9.94671C11.8332 10.0661 11.7 10.2837 11.7 10.5295C11.7 10.7752 11.8332 10.9929 12.038 11.1123C12.1399 11.1716 12.2587 11.206 12.3875 11.206C12.7716 11.206 13.075 10.8987 13.075 10.5295C13.075 10.1603 12.7716 9.85301 12.3875 9.85301ZM17.6125 9.85301C17.2284 9.85301 16.925 10.1603 16.925 10.5295C16.925 10.8987 17.2284 11.206 17.6125 11.206C17.7413 11.206 17.8601 11.1716 17.962 11.1123C18.1668 10.9929 18.3 10.7752 18.3 10.5295C18.3 10.2837 18.1668 10.0661 17.962 9.94671C17.8601 9.88738 17.7413 9.85301 17.6125 9.85301ZM9.5375 14.5589C9.1534 14.5589 8.85 14.8661 8.85 15.2354C8.85 15.6046 9.1534 15.9118 9.5375 15.9118C9.69402 15.9118 9.83665 15.861 9.9515 15.7755C10.1195 15.6505 10.225 15.4544 10.225 15.2354C10.225 14.9811 10.0822 14.7566 9.86532 14.6405C9.76854 14.5887 9.65737 14.5589 9.5375 14.5589ZM20.4625 14.5589C20.3426 14.5589 20.2315 14.5887 20.1347 14.6405C19.9178 14.7566 19.775 14.9811 19.775 15.2354C19.775 15.4544 19.8805 15.6505 20.0485 15.7755C20.1633 15.861 20.306 15.9118 20.4625 15.9118C20.8466 15.9118 21.15 15.6046 21.15 15.2354C21.15 14.8661 20.8466 14.5589 20.4625 14.5589ZM12.3875 18.7942C12.2587 18.7942 12.1399 18.8286 12.038 18.8879C11.8332 19.0073 11.7 19.2249 11.7 19.4707C11.7 19.7164 11.8332 19.9341 12.038 20.0534C12.1399 20.1128 12.2587 20.1471 12.3875 20.1471C12.7716 20.1471 13.075 19.8399 13.075 19.4707C13.075 19.1014 12.7716 18.7942 12.3875 18.7942ZM17.6125 18.7942C17.2284 18.7942 16.925 19.1014 16.925 19.4707C16.925 19.8399 17.2284 20.1471 17.6125 20.1471C17.7413 20.1471 17.8601 20.1128 17.962 20.0534C18.1668 19.9341 18.3 19.7164 18.3 19.4707C18.3 19.2249 18.1668 19.0073 17.962 18.8879C17.8601 18.8286 17.7413 18.7942 17.6125 18.7942Z" fill="black"/>
</svg>
