<svg width="30" height="30" viewBox="0 0 30 30" fill="none" xmlns="http://www.w3.org/2000/svg">
<path fill-rule="evenodd" clip-rule="evenodd" d="M10.2804 19.5001C9.86253 19.814 9.34314 20 8.78031 20H8.53113C7.15041 20 6.03113 18.8807 6.03113 17.5V7.5C6.03113 6.11929 7.15042 5 8.53113 5H8.78031C10.161 5 11.2803 6.11929 11.2803 7.5L11.2803 10.4999C11.6981 10.186 12.2175 10 12.7804 10H13.0295C13.5924 10 14.1118 10.186 14.5296 10.4999V7.5C14.5296 6.11929 15.6489 5 17.0296 5H17.2788C18.6595 5 19.7788 6.11929 19.7788 7.5V10.4999C20.1966 10.186 20.716 10 21.2788 10H21.528C22.9087 10 24.028 11.1193 24.028 12.5L24.028 22.5C24.028 23.8807 22.9087 25 21.528 25H21.2788C19.8981 25 18.7788 23.8807 18.7788 22.5V19.5001C18.361 19.814 17.8416 20 17.2788 20H17.0296C16.4668 20 15.9474 19.814 15.5295 19.5001V22.5C15.5295 23.8807 14.4103 25 13.0295 25H12.7804C11.3997 25 10.2804 23.8807 10.2804 22.5L10.2804 19.5001ZM10.2803 17.5C10.2803 18.3284 9.60874 19 8.78031 19H8.53113C7.7027 19 7.03113 18.3284 7.03113 17.5L7.03113 7.5C7.03113 6.67157 7.7027 6 8.53113 6H8.78031C9.60874 6 10.2803 6.67157 10.2803 7.5L10.2803 17.5ZM14.5295 22.5C14.5295 23.3284 13.858 24 13.0295 24H12.7804C11.9519 24 11.2804 23.3284 11.2804 22.5L11.2804 12.5C11.2804 11.6716 11.9519 11 12.7804 11H13.0295C13.858 11 14.5295 11.6716 14.5295 12.5L14.5295 22.5ZM21.528 24C22.3564 24 23.028 23.3284 23.028 22.5L23.028 12.5C23.028 11.6716 22.3565 11 21.528 11H21.2788C20.4504 11 19.7788 11.6716 19.7788 12.5L19.7788 22.5C19.7788 23.3284 20.4504 24 21.2788 24H21.528ZM18.7788 17.5C18.7788 18.3284 18.1072 19 17.2788 19H17.0296C16.2012 19 15.5296 18.3284 15.5296 17.5L15.5296 7.5C15.5296 6.67157 16.2012 6 17.0296 6H17.2788C18.1072 6 18.7788 6.67157 18.7788 7.5L18.7788 17.5Z" fill="black"/>
</svg>
