<svg width="30" height="30" viewBox="0 0 30 30" fill="none" xmlns="http://www.w3.org/2000/svg">
<path fill-rule="evenodd" clip-rule="evenodd" d="M7.59119 8.59175C7.24349 8.24627 6.67843 8.24627 6.33073 8.59175C5.98481 8.93546 5.98481 9.49138 6.33073 9.83508L10.8406 14.3161C11.1883 14.6615 11.7533 14.6615 12.101 14.3161C12.447 13.9724 12.447 13.4164 12.101 13.0727L7.59119 8.59175ZM5.6259 7.88237C6.3636 7.1494 7.55832 7.1494 8.29602 7.88237L12.8059 12.3634C13.5453 13.0981 13.5453 14.2907 12.8059 15.0254C12.0682 15.7584 10.8734 15.7584 10.1357 15.0254L5.6259 10.5445C4.88642 9.80971 4.88642 8.61712 5.6259 7.88237ZM15.3985 8.59175C15.0508 8.24627 14.4858 8.24627 14.1381 8.59175C13.7921 8.93546 13.7921 9.49138 14.1381 9.83508L18.6479 14.3161C18.9956 14.6615 19.5607 14.6615 19.9084 14.3161C20.2543 13.9724 20.2543 13.4164 19.9084 13.0727L15.3985 8.59175ZM13.4332 7.88237C14.1709 7.1494 15.3656 7.1494 16.1033 7.88237L20.6132 12.3634C21.3527 13.0981 21.3527 14.2907 20.6132 15.0254C19.8755 15.7584 18.6808 15.7584 17.9431 15.0254L13.4332 10.5445C12.6937 9.80971 12.6937 8.61712 13.4332 7.88237ZM14.0392 15.6398C14.7769 14.9069 15.9717 14.9069 16.7094 15.6398C17.4488 16.3746 17.4488 17.5672 16.7094 18.3019L12.1995 22.7829C11.4618 23.5159 10.2671 23.5159 9.52939 22.7829C8.78991 22.0482 8.78991 20.8556 9.52939 20.1208L14.0392 15.6398ZM16.0045 16.3492C15.6568 16.0037 15.0918 16.0037 14.7441 16.3492L10.2342 20.8302C9.8883 21.1739 9.8883 21.7298 10.2342 22.0735C10.5819 22.419 11.147 22.419 11.4947 22.0735L16.0045 17.5926C16.3504 17.2488 16.3504 16.6929 16.0045 16.3492ZM21.8466 15.6398C22.5843 14.9069 23.779 14.9069 24.5167 15.6398C25.2562 16.3746 25.2562 17.5672 24.5167 18.3019L20.0068 22.7829C19.2691 23.5159 18.0744 23.5159 17.3367 22.7829C16.5972 22.0482 16.5972 20.8556 17.3367 20.1208L21.8466 15.6398ZM23.8118 16.3492C23.4641 16.0037 22.8991 16.0037 22.5514 16.3492L18.0415 20.8302C17.6956 21.1739 17.6956 21.7298 18.0415 22.0735C18.3892 22.419 18.9543 22.419 19.302 22.0735L23.8118 17.5926C24.1578 17.2488 24.1578 16.6929 23.8118 16.3492Z" fill="black"/>
</svg>
