<svg width="26" height="22" viewBox="0 0 26 22" fill="none" xmlns="http://www.w3.org/2000/svg">
<path fill-rule="evenodd" clip-rule="evenodd" d="M25.666 21C25.666 21.3682 25.3675 21.6667 24.9993 21.6667L0.999347 21.6667C0.631158 21.6667 0.332681 21.3682 0.332681 21C0.332681 20.6318 0.631158 20.3333 0.999347 20.3333L1.93449 20.3333L6.33268 12.1653L6.33267 7.00001C6.33267 3.31811 9.31744 0.333343 12.9993 0.333343C16.6812 0.333343 19.666 3.31811 19.666 7.00001L19.666 12.1653L24.0642 20.3333L24.9993 20.3333C25.3675 20.3333 25.666 20.6318 25.666 21ZM22.5499 20.3333L18.9993 13.7395L15.4488 20.3333L22.5499 20.3333ZM13.9345 20.3333L18.3327 12.1653L18.3327 7.00001C18.3327 4.05449 15.9449 1.66668 12.9993 1.66668C10.0538 1.66668 7.66601 4.05449 7.66601 7.00001L7.66601 12.1653L12.0642 20.3333L13.9345 20.3333ZM10.5499 20.3333L6.99934 13.7395L3.44882 20.3333L10.5499 20.3333Z" fill="black"/>
</svg>
