<svg width="24" height="22" viewBox="0 0 24 22" fill="none" xmlns="http://www.w3.org/2000/svg">
<path fill-rule="evenodd" clip-rule="evenodd" d="M4 1.00001C4 0.631822 3.70152 0.333344 3.33333 0.333344C2.96514 0.333344 2.66667 0.631822 2.66667 1.00001V11.6227C2.21366 11.8191 1.80171 12.0986 1.45295 12.4471L1.44166 12.4584L1.43093 12.4702C0.807863 13.1553 0.3678 13.9841 0.151713 14.8814C-0.0640764 15.7775 -0.049451 16.7126 0.194191 17.6016C0.44139 18.5414 0.939199 19.3975 1.63472 20.0814C2.33088 20.7659 3.1996 21.2528 4.14984 21.4923C4.91871 21.6883 5.72111 21.7195 6.50312 21.5838C7.28553 21.448 8.02985 21.1483 8.68581 20.7042C8.86628 20.5821 9.00795 20.4928 9.13323 20.4138C9.46334 20.2058 9.67974 20.0694 10.1927 19.5922L10.5538 19.5838H11.2204H12.8184H13.2204C13.2204 19.5838 13.5068 19.5838 13.5814 19.5922C14.2729 19.9992 14.6267 20.2388 15.2303 20.6474C15.2577 20.666 15.2857 20.6849 15.3142 20.7042C15.9701 21.1483 16.7145 21.448 17.4969 21.5838C18.2789 21.7195 19.0814 21.6883 19.8503 21.4922C20.8005 21.2527 21.6691 20.7659 22.3653 20.0814C23.0608 19.3975 23.5586 18.5414 23.8058 17.6016C24.0494 16.7127 24.0641 15.7775 23.8483 14.8814C23.6322 13.9841 23.1921 13.1553 22.5691 12.4702L22.5583 12.4584L22.5471 12.4471C22.1983 12.0986 21.7863 11.8191 21.3333 11.6227V1.00001C21.3333 0.631822 21.0349 0.333344 20.6667 0.333344C20.2985 0.333344 20 0.631822 20 1.00001V11.3035C19.9223 11.2987 19.8443 11.2962 19.7663 11.296C19.2494 11.2948 18.7372 11.3946 18.2591 11.5897C17.7811 11.7849 17.3462 12.0718 16.9801 12.4342L13.9745 15.407H10.0255L7.01973 12.434C6.65361 12.0717 6.21889 11.7849 5.74087 11.5897C5.2628 11.3946 4.75059 11.2948 4.23372 11.296C4.15566 11.2962 4.07772 11.2987 4 11.3035V1.00001ZM9.65615 16.9171L6.08209 13.382C5.84101 13.1433 5.55375 12.9535 5.23696 12.8242C4.92015 12.6949 4.5802 12.6286 4.23681 12.6294C3.89342 12.6302 3.5538 12.698 3.23762 12.8288C2.92631 12.9576 2.64407 13.1447 2.40643 13.3793C1.93911 13.8972 1.61004 14.5207 1.44799 15.1936C1.28469 15.8717 1.29598 16.5792 1.48089 17.252L1.48296 17.2596C1.66847 17.9669 2.0433 18.6132 2.56953 19.1307C3.09583 19.6481 3.75421 20.0176 4.47638 20.1995L4.4784 20.2C5.06526 20.3498 5.67802 20.3737 6.27517 20.2701C6.8723 20.1665 7.43944 19.9378 7.93841 19.6001C8.43734 19.2624 8.85633 18.8235 9.16763 18.3136C9.18043 18.2927 9.19303 18.2716 9.20544 18.2505H14.7946C14.807 18.2716 14.8196 18.2927 14.8324 18.3136C15.1437 18.8235 15.5627 19.2624 16.0616 19.6001C16.5606 19.9378 17.1277 20.1665 17.7248 20.2701C18.322 20.3737 18.9347 20.3498 19.5216 20.2L19.5236 20.1995C20.2458 20.0176 20.9042 19.6481 21.4305 19.1307C21.9567 18.6132 22.3316 17.9669 22.5171 17.2596L22.5191 17.252C22.704 16.5792 22.7153 15.8717 22.552 15.1936C22.39 14.5207 22.0609 13.8972 21.5936 13.3793C21.3559 13.1447 21.0737 12.9576 20.7624 12.8288C20.4462 12.698 20.1066 12.6302 19.7632 12.6294C19.4198 12.6286 19.0798 12.6949 18.763 12.8242C18.4463 12.9535 18.1592 13.1432 17.9181 13.3818L14.3439 16.9171H9.65615Z" fill="black"/>
</svg>
