<svg width="24" height="22" viewBox="0 0 24 22" fill="none" xmlns="http://www.w3.org/2000/svg">
<path fill-rule="evenodd" clip-rule="evenodd" d="M5.33589 0.333344C5.70389 0.333344 6.00222 0.631509 6.00222 0.999316V7.04145C6.01318 8.61799 6.64453 10.1276 7.76074 11.2432C8.88524 12.3671 10.4098 12.9991 11.9999 13.0009C13.59 12.9991 15.1146 12.3671 16.2391 11.2432C17.3652 10.1178 17.9978 8.59134 17.9978 6.99973H18.0111V0.999316C18.0111 0.631509 18.3095 0.333344 18.6775 0.333344C19.0455 0.333344 19.3438 0.631509 19.3438 0.999316V10.3333C19.3438 10.864 19.5547 11.3729 19.9302 11.7481C20.3056 12.1234 20.8148 12.3342 21.3458 12.3342H23.3337C23.7017 12.3342 24 12.6323 24 13.0001V18.3339C24 19.2178 23.6487 20.0655 23.0233 20.6905C22.3979 21.3155 21.5498 21.6667 20.6653 21.6667H3.33465C2.45025 21.6667 1.60206 21.3155 0.976697 20.6905C0.351329 20.0655 0 19.2178 0 18.3339V13.0001C0 12.6323 0.298329 12.3342 0.666337 12.3342H2.66757C3.19853 12.3342 3.70774 12.1234 4.08318 11.7481C4.45863 11.3729 4.66955 10.864 4.66955 10.3333V7.0459C4.66945 7.03051 4.6694 7.01512 4.6694 6.99973L4.66955 0.999316C4.66955 0.631509 4.96788 0.333344 5.33589 0.333344ZM5.91556 11.0882C5.77555 11.6899 5.46964 12.2461 5.02553 12.69C4.40016 13.315 3.55198 13.6661 2.66757 13.6661H1.33267V18.3339C1.33267 18.8645 1.5436 19.3734 1.91904 19.7487C2.29448 20.1239 2.8037 20.3347 3.33465 20.3347H20.6653C21.1963 20.3347 21.7055 20.1239 22.081 19.7487C22.4564 19.3734 22.6673 18.8645 22.6673 18.3339V13.6661H21.3458C20.4614 13.6661 19.6132 13.315 18.9878 12.69C18.54 12.2424 18.2327 11.6807 18.0943 11.0732C17.8292 11.47 17.524 11.8427 17.1815 12.185C15.8086 13.5571 13.9477 14.3293 12.0065 14.3328C12.0021 14.3328 11.9977 14.3328 11.9933 14.3328M11.9933 14.3328C10.0522 14.3293 8.19126 13.5571 6.8184 12.185C6.48018 11.847 6.1784 11.4794 5.91556 11.0882" fill="black"/>
</svg>
