<svg width="30" height="60" viewBox="0 0 30 60" fill="none" xmlns="http://www.w3.org/2000/svg">
<g clip-path="url(#clip0_3026_186663)">
<path fill-rule="evenodd" clip-rule="evenodd" d="M10.6716 49.4728C10.0864 50.0475 9.34995 50.7705 9.66916 51.7281C9.89963 52.4196 10.6193 52.8052 11.3739 53.2097C12.0414 53.5674 12.7362 53.9398 13.144 54.5514C13.5783 55.203 13.7412 55.6916 13.8769 56.0988C14.0127 56.506 14.1213 56.8318 14.447 57.1576C14.7461 57.4566 16.3365 57.3995 16.8854 57.3798C16.9667 57.3768 17.0251 57.3747 17.0532 57.3747C18.139 57.3747 18.7906 56.506 18.139 56.506C17.4875 56.506 16.1845 55.8545 15.9673 55.4201C15.503 54.4917 15.1842 52.9747 14.9498 51.8596C14.8374 51.3251 14.7444 50.8829 14.6642 50.6422C14.5715 50.364 14.6372 49.2142 14.8106 47.8189C15.0432 45.9472 15.4696 43.6337 15.9673 42.3895C16.3766 41.3663 16.8823 39.2342 17.3708 37.1745C17.5392 36.4648 17.7055 35.7637 17.8651 35.1195C20.5062 34.1773 23.0554 33.2528 23.684 32.8337C24.122 32.5417 24.8052 32.3034 25.5469 32.0447C26.5708 31.6876 27.7062 31.2916 28.4619 30.6619C29.5477 29.576 29.1134 28.273 29.1134 28.273C29.1134 28.273 28.9338 27.6987 28.6312 26.7527C28.5062 26.24 28.3714 25.7331 28.2283 25.2325C27.5371 22.8145 26.6522 20.5457 25.7476 18.5C25.3108 18.5724 24.188 18.804 23.191 19.1515C22.1941 19.499 20.6443 20.8238 19.994 21.4427C20.2932 21.8938 20.6025 22.3637 20.9114 22.8435C20.4809 22.6988 18.759 22.4092 17.9219 22.4092C17.2884 22.4092 16.2685 22.575 15.3863 22.7184C15.1026 22.7645 14.8332 22.8083 14.5954 22.8435C14.696 24.6395 14.7942 26.7656 14.696 28.273C14.654 28.9176 14.5761 29.4491 14.4471 29.7932C14.4297 29.8395 14.3835 29.937 14.3149 30.082C14.0937 30.5493 13.6392 31.5096 13.1643 32.8344L13.0976 32.8843C12.27 33.5031 11.452 34.1147 10.755 34.5947C10.6042 34.6986 10.459 34.7963 10.3207 34.8866C9.9368 35.1372 9.60529 35.3305 9.35026 35.4398C8.59013 35.7656 8.21007 35.4398 7.83002 35.1141C7.44997 34.7883 7.06992 34.4625 6.30983 34.7883C5.17242 35.2758 5.12912 36.2496 5.08846 37.1639C5.07478 37.4716 5.0614 37.7725 5.00671 38.046C4.78954 39.1318 3.48652 39.7834 2.61782 40.2177C1.74911 40.6521 0.880396 44.3441 1.31475 44.5613C1.59163 44.6997 1.86852 44.3087 2.20166 43.8381C2.39112 43.5705 2.59879 43.2772 2.83499 43.041C3.35622 42.5198 4.43341 41.9986 5.5106 41.4774C5.77991 41.3471 6.04921 41.2167 6.30983 41.0864C6.98906 40.7468 7.90433 40.0532 8.84032 39.3438C9.44211 38.8877 10.0525 38.4251 10.6142 38.046C10.8548 37.8835 11.0866 37.7364 11.3049 37.6116C11.388 37.5641 11.4952 37.5101 11.6237 37.4503C11.7265 37.4025 11.8429 37.351 11.9716 37.2962C11.6969 38.8503 11.5411 40.5721 11.6237 42.3895C11.7313 44.7558 11.7323 46.2165 11.6532 47.1674C11.5725 48.1365 11.4086 48.576 11.1894 48.9048C11.0742 49.0775 10.8828 49.2655 10.6716 49.4728ZM23.6842 27.8385C23.1117 26.4363 22.169 24.8218 21.1911 23.2806C21.1425 23.499 21.0936 23.7182 21.0446 23.9378C20.6697 25.6173 20.2894 27.3216 19.9941 28.8889C21.3622 28.3648 22.6981 27.9618 23.6842 27.8385Z" fill="#789CB9"/>
<path fill-rule="evenodd" clip-rule="evenodd" d="M19.1457 2.69776C19.473 2.26282 20.0297 1.99694 20.6136 2.11579C21.1802 2.23114 21.8677 2.41133 22.5261 2.65845C23.1767 2.90268 23.8364 3.22602 24.3175 3.64344C24.9923 4.22893 25.773 5.04192 26.3297 5.64749C26.8421 6.20481 26.8391 7.04697 26.3562 7.61045L23.2507 11.2345C23.1199 11.3871 23.0946 11.5993 23.1824 11.7733C23.3877 12.1803 23.6127 12.6183 23.8523 13.0846C24.5847 14.5102 25.4534 16.2009 26.3096 18.0811C27.2773 20.2062 28.2357 22.5866 28.98 25.1361C29.1302 25.6507 29.2717 26.1722 29.4028 26.7C29.5544 27.166 29.6754 27.5409 29.7588 27.8002L29.8555 28.102L29.887 28.2004L29.8878 28.2031L29.8886 28.2055L29.889 28.2068L29.89 28.2098L29.896 28.2291C29.9006 28.2444 29.9065 28.2649 29.9131 28.2899C29.9263 28.34 29.9424 28.4091 29.9571 28.494C29.9865 28.6633 30.0112 28.8996 29.9947 29.1765C29.9611 29.7365 29.7574 30.4595 29.1 31.1058C29.0892 31.1164 29.078 31.1264 29.0663 31.136C28.3256 31.7428 27.2935 32.1364 26.3833 32.4544C26.23 32.508 26.0807 32.5592 25.9355 32.6089C25.6341 32.7123 25.3501 32.8096 25.0835 32.91C24.6883 33.0589 24.3775 33.1981 24.1604 33.3404C23.8175 33.5651 23.075 33.8761 22.179 34.2197C21.1239 34.6242 19.7706 35.1048 18.383 35.592C18.2454 36.1444 18.1032 36.733 17.959 37.3308L17.9462 37.3837C17.7834 38.0585 17.6181 38.7435 17.4549 39.395C17.123 40.7201 16.7906 41.9451 16.4949 42.672C16.0776 43.6974 15.6972 45.546 15.4489 47.2546C15.3259 48.1011 15.2377 48.8966 15.1938 49.5166C15.1719 49.8272 15.1615 50.0875 15.1627 50.2851C15.1638 50.4718 15.1758 50.5569 15.1786 50.5763C15.1791 50.58 15.1793 50.5813 15.179 50.5804C15.271 50.8518 15.3745 51.3367 15.4897 51.8759C15.5183 52.0099 15.5477 52.1472 15.5777 52.2855C15.735 53.0092 15.9217 53.8115 16.1514 54.4926C16.2547 54.7989 16.3635 55.0709 16.4774 55.2949C16.4733 55.2868 16.4804 55.3029 16.5187 55.3416C16.5544 55.3778 16.6058 55.4221 16.6739 55.4723C16.8103 55.5729 16.9907 55.6803 17.1918 55.7791C17.6144 55.9868 18.0277 56.1081 18.2423 56.1081C18.371 56.1081 18.527 56.1278 18.6717 56.2074C18.8342 56.2969 18.9628 56.4539 18.9978 56.6603C19.0289 56.8437 18.9755 57.0029 18.9211 57.1098C18.8644 57.2213 18.7858 57.3182 18.7034 57.3993C18.3818 57.7154 17.8107 57.9773 17.137 57.9773C17.13 57.9773 17.1033 57.9783 17.061 57.9798C16.8625 57.987 16.3201 58.0065 15.8493 57.9974C15.5452 57.9916 15.221 57.9746 14.9424 57.9336C14.8035 57.9131 14.6627 57.8849 14.5355 57.8437C14.4194 57.806 14.2604 57.741 14.1339 57.6166C13.7171 57.2069 13.5737 56.7836 13.4388 56.3856L13.4306 56.3612C13.2968 55.9666 13.1481 55.5286 12.7442 54.933C12.4018 54.4282 11.8007 54.1104 11.0802 53.7296C11.0503 53.7138 11.0202 53.6979 10.9899 53.6818C10.6332 53.493 10.2494 53.2838 9.92575 53.0277C9.59693 52.7675 9.2995 52.4358 9.14767 51.988C8.89236 51.2351 9.13859 50.5964 9.47978 50.1094C9.72553 49.7586 10.0627 49.4336 10.3224 49.1833C10.4005 49.108 10.4716 49.0394 10.5311 48.979C10.6389 48.8695 10.7108 48.7867 10.7548 48.7219C10.9094 48.4939 11.0612 48.1541 11.1402 47.2479C11.22 46.3327 11.2216 44.8943 11.1112 42.5066C11.0422 41.0143 11.1329 39.5869 11.3184 38.2626C10.6494 38.6651 9.86277 39.2511 9.0611 39.8483L8.95975 39.9238C8.0625 40.592 7.13637 41.2775 6.42242 41.6284C6.14362 41.7655 5.86508 41.8979 5.59008 42.0286C5.18666 42.2204 4.79084 42.4086 4.41292 42.6024C3.77613 42.929 3.28675 43.2253 3.01549 43.492C2.80717 43.6968 2.63497 43.936 2.45214 44.1899C2.37329 44.2995 2.29246 44.4118 2.20591 44.5252C2.08011 44.6901 1.92388 44.8799 1.74342 45.0089C1.54731 45.1491 1.23592 45.2718 0.897039 45.1052C0.725652 45.021 0.637523 44.8787 0.593951 44.7818C0.549074 44.6821 0.527469 44.5788 0.515796 44.4915C0.492263 44.3156 0.497303 44.1096 0.515987 43.9021C0.553947 43.4804 0.657804 42.9543 0.801274 42.4324C0.94487 41.9102 1.13428 41.3698 1.35207 40.9232C1.46083 40.7001 1.5822 40.489 1.71583 40.3119C1.84433 40.1416 2.01153 39.9659 2.22337 39.8618C2.67199 39.6413 3.18192 39.389 3.60795 39.0688C4.03779 38.7457 4.31071 38.4055 4.38552 38.0378C4.4316 37.8113 4.4447 37.5529 4.45891 37.2389L4.45984 37.2182C4.47311 36.9242 4.48845 36.5847 4.54966 36.2538C4.61333 35.9096 4.73061 35.5482 4.96617 35.2187C5.20485 34.8848 5.54446 34.6124 6.00774 34.4172C6.34904 34.2734 6.66502 34.219 6.96445 34.2525C7.26411 34.286 7.50418 34.4028 7.69828 34.5318C7.83934 34.6255 7.9771 34.7418 8.08632 34.8339C8.11589 34.8589 8.14337 34.8821 8.16826 34.9025C8.30208 35.0128 8.40101 35.082 8.49854 35.1228C8.61373 35.1709 8.78196 35.2041 9.10247 35.0691C9.44713 34.9239 9.98977 34.5866 10.6699 34.1172C11.3044 33.6793 12.0245 33.1507 12.7614 32.6091C13.0651 31.7898 13.3576 31.1147 13.5866 30.6151C13.7076 30.3511 13.8108 30.1362 13.8875 29.9768C13.9263 29.8962 13.957 29.8326 13.9806 29.7825C13.9923 29.7577 14.0013 29.7382 14.008 29.7232C14.0142 29.7093 14.0167 29.703 14.0172 29.7019C14.0173 29.7017 14.0172 29.7018 14.0172 29.7019C14.1118 29.454 14.1852 29.0346 14.2292 28.4617C14.341 27.0063 14.2449 24.8732 14.1404 23.0282C14.1237 22.733 14.1067 22.4444 14.0904 22.1673C14.0333 21.1961 13.9844 20.3656 13.9844 19.8841C13.9844 18.5346 14.3204 15.9349 14.5147 14.6113C14.1188 14.1339 13.5928 13.25 13.2442 12.2218C12.8381 11.0242 12.6344 9.51871 13.2639 8.15728C13.8744 6.83705 15.0426 5.85053 16.0824 5.13105C16.5541 4.80463 17.0143 4.52346 17.3976 4.28926C17.4404 4.26313 17.4822 4.23759 17.523 4.21263C17.9552 3.94795 18.2188 3.77771 18.334 3.66452C18.5896 3.41319 18.9014 3.02238 19.1457 2.69776ZM15.4038 15.4662C15.2149 16.8511 14.9844 18.8161 14.9844 19.8841C14.9844 20.3333 15.0306 21.1185 15.0871 22.0808C15.0932 22.1838 15.0994 22.2889 15.1056 22.3958C15.4442 22.3302 15.8389 22.2582 16.2347 22.1939C16.8745 22.0901 17.5547 22 18 22C18.5102 22 19.2838 22.0822 19.9629 22.1713C19.88 22.0478 19.7976 21.9254 19.7159 21.8044C19.5535 21.5637 19.393 21.327 19.2363 21.0958C18.4109 19.8781 17.6904 18.8153 17.3545 18.1551C16.6265 16.7238 15.9685 15.9996 15.4038 15.4662ZM20.7029 23.2874C19.9658 23.1727 18.6804 23 18 23C17.6453 23 17.0387 23.0765 16.395 23.181C15.9569 23.2521 15.5191 23.3332 15.1628 23.4035C15.2569 25.1403 15.3349 27.1234 15.2262 28.5383C15.1809 29.1283 15.1002 29.6685 14.9516 30.0582C14.9259 30.1256 14.8698 30.242 14.8084 30.3692C14.8018 30.3829 14.7952 30.3967 14.7885 30.4105C14.7124 30.5686 14.6126 30.7766 14.4957 31.0317C14.4314 31.1721 14.3619 31.3267 14.2884 31.495C15.2551 30.8013 16.1638 30.1849 16.813 29.8659C17.7047 29.4276 18.7015 28.9899 19.6924 28.6072C19.6956 28.5909 19.6989 28.5745 19.7021 28.558C19.9943 27.0719 20.3566 25.476 20.712 23.9104C20.7463 23.7595 20.7804 23.6089 20.8145 23.4588C20.7773 23.4015 20.7401 23.3444 20.7029 23.2874ZM21.5698 24.6493C21.2969 25.8533 21.0269 27.057 20.7927 28.2051C21.6345 27.9156 22.4514 27.6792 23.1678 27.536C23.1298 27.4546 23.0906 27.3726 23.0504 27.29C22.641 26.4486 22.126 25.5503 21.5698 24.6493ZM12.41 37.745C12.1654 39.1978 12.0329 40.7891 12.1101 42.4604C12.2208 44.8533 12.2224 46.3485 12.1364 47.3347C12.0496 48.3299 11.8699 48.8593 11.5824 49.2832C11.4862 49.425 11.3626 49.5597 11.2438 49.6804C11.1484 49.7774 11.0529 49.8696 10.9592 49.96C10.7152 50.1957 10.4838 50.4191 10.2988 50.6832C10.0641 51.0181 9.97794 51.3226 10.0947 51.6669C10.1639 51.871 10.3086 52.0554 10.5462 52.2435C10.789 52.4355 11.096 52.6066 11.4577 52.798C11.5075 52.8244 11.5585 52.8511 11.6105 52.8784C12.2659 53.2222 13.083 53.651 13.5719 54.3718C14.0519 55.0797 14.2349 55.6193 14.3774 56.0395C14.512 56.4363 14.5918 56.6554 14.8126 56.8811C14.8196 56.884 14.8298 56.8878 14.8438 56.8924C14.8982 56.91 14.9791 56.9282 15.088 56.9443C15.3051 56.9762 15.5807 56.9921 15.8685 56.9976C16.294 57.0058 16.6531 56.9928 16.8934 56.9841C16.9991 56.9803 17.0817 56.9773 17.137 56.9773C17.2384 56.9773 17.3332 56.9678 17.4205 56.9517C17.1883 56.8754 16.9575 56.7782 16.7507 56.6766C16.5097 56.5581 16.2756 56.421 16.0805 56.2772C15.9009 56.1448 15.6966 55.9654 15.5861 55.7483C15.4429 55.4667 15.3164 55.1459 15.2039 54.8122C14.9548 54.0735 14.7582 53.2233 14.6005 52.4979C14.5655 52.3367 14.5327 52.1837 14.502 52.0402C14.3889 51.512 14.3033 51.1121 14.2319 50.9015C14.1747 50.7329 14.1639 50.4987 14.1627 50.2911C14.1613 50.0584 14.1734 49.7703 14.1963 49.446C14.2423 48.7961 14.3337 47.9755 14.4593 47.1107C14.7084 45.3968 15.1017 43.4426 15.5686 42.2951C15.833 41.6453 16.1495 40.491 16.4849 39.152C16.647 38.5048 16.8114 37.8235 16.9745 37.1474L16.9869 37.0963C17.0771 36.7222 17.167 36.35 17.2557 35.9871C15.3576 36.6519 13.5307 37.2931 12.41 37.745ZM18.2583 57.1089C18.2583 57.1089 18.2573 57.1088 18.2553 57.1085L18.2583 57.1089ZM20.4141 3.09569C20.2574 3.0638 20.0718 3.13012 19.9447 3.29902C19.6974 3.62765 19.3478 4.07016 19.035 4.37768C18.8185 4.59044 18.4336 4.82764 18.0451 5.06547C18.0039 5.09069 17.9621 5.11626 17.9196 5.14222C17.5345 5.37758 17.0983 5.64409 16.6514 5.95337C15.6499 6.64636 14.6664 7.5069 14.1716 8.57698C13.6958 9.60588 13.8237 10.8167 14.1912 11.9007C14.5605 12.9897 15.1334 13.8383 15.3946 14.095C15.5009 14.1996 15.6193 14.3067 15.748 14.4233C16.3887 15.0034 17.2871 15.8168 18.2459 17.7017C18.5504 18.3005 19.2239 19.2944 20.0532 20.5184C20.1002 20.5877 20.1477 20.6578 20.1956 20.7285C20.3899 20.5317 20.6145 20.3143 20.8515 20.1005C21.2927 19.7026 21.8126 19.2847 22.2764 19.0528C22.959 18.7115 24.273 18.2634 25.1623 17.9801C24.3958 16.3309 23.6331 14.8464 22.9707 13.557C22.7287 13.086 22.5001 12.6411 22.2895 12.2236C22.0173 11.6839 22.102 11.0382 22.4913 10.5838L25.5969 6.95975C25.76 6.76936 25.7531 6.49782 25.5936 6.32429C25.0426 5.72497 24.2928 4.94597 23.6621 4.39876C23.3123 4.09525 22.7808 3.82223 22.1746 3.59467C21.5761 3.37 20.9412 3.20299 20.4141 3.09569ZM25.5806 18.8965C24.7049 19.173 23.3643 19.6268 22.7236 19.9472C22.3874 20.1153 21.9508 20.4556 21.5213 20.843C21.2393 21.0973 20.9758 21.3578 20.767 21.575C20.9812 21.8939 21.1994 22.2213 21.4179 22.554C21.5349 22.7321 21.6521 22.9118 21.7688 23.0927C22.5715 24.3362 23.3601 25.6409 23.9496 26.8524C24.0949 27.151 24.2287 27.4452 24.3481 27.7325C24.408 27.8769 24.397 28.0409 24.3183 28.176C24.2397 28.311 24.1024 28.4015 23.9473 28.4206C23.0032 28.5366 21.6877 28.9231 20.3066 29.4433C19.2609 29.8371 18.1957 30.3005 17.2541 30.7633C16.395 31.1856 14.9571 32.2364 13.4749 33.3258L13.4039 33.378C12.6525 33.9302 11.9011 34.4825 11.2379 34.9402C10.5647 35.4048 9.94316 35.8 9.49072 35.9906C8.95904 36.2146 8.50974 36.2113 8.11283 36.0454C7.87346 35.9453 7.68112 35.7969 7.5325 35.6744C7.48741 35.6373 7.4472 35.6035 7.4101 35.5722C7.31091 35.4887 7.23388 35.4238 7.14486 35.3647C7.0374 35.2933 6.94792 35.2569 6.85329 35.2463C6.75841 35.2357 6.61532 35.2463 6.396 35.3387C6.08561 35.4695 5.90021 35.6316 5.77968 35.8003C5.65602 35.9732 5.57986 36.1823 5.53298 36.4357C5.48509 36.6946 5.47202 36.9716 5.45788 37.2841L5.45726 37.2978C5.44398 37.5916 5.4289 37.9253 5.36545 38.2372C5.2192 38.956 4.71846 39.485 4.20884 39.8681C3.70128 40.2497 3.11371 40.5384 2.6795 40.7518L2.66448 40.7592C2.66452 40.7592 2.66347 40.7597 2.66132 40.761C2.65918 40.7623 2.65607 40.7643 2.65202 40.7672C2.6438 40.7731 2.63259 40.782 2.61857 40.795C2.59 40.8215 2.55476 40.8603 2.51404 40.9143C2.43179 41.0233 2.34247 41.1737 2.2509 41.3615C2.06803 41.7365 1.89822 42.2148 1.76549 42.6975C1.66259 43.0718 1.58565 43.4354 1.54173 43.7409C1.5572 43.7195 1.57306 43.6975 1.58929 43.6749C1.78744 43.3997 2.04067 43.048 2.31447 42.7788C2.70638 42.3936 3.32227 42.038 3.95656 41.7127C4.34135 41.5153 4.76835 41.3121 5.18712 41.1128C5.46001 40.983 5.72939 40.8548 5.98131 40.731C6.5937 40.43 7.43602 39.8117 8.36247 39.1218C8.40543 39.0898 8.44854 39.0576 8.49179 39.0254C9.35505 38.3822 10.2713 37.6994 11.0413 37.2669C11.2199 37.1666 11.4734 37.051 11.7716 36.9261C12.9105 36.4492 14.9714 35.7275 17.057 34.9972C17.3042 34.9106 17.5516 34.8239 17.798 34.7375C19.2755 34.2194 20.7171 33.7092 21.821 33.2859C22.7496 32.9299 23.3783 32.6573 23.6122 32.504C23.9256 32.2986 24.3222 32.1282 24.7311 31.9742C25.0117 31.8685 25.3198 31.7629 25.6295 31.6567C25.7713 31.608 25.9135 31.5593 26.0535 31.5104C26.9688 31.1906 27.8296 30.849 28.4149 30.3768C28.8499 29.9411 28.975 29.4759 28.9965 29.1167C29.0075 28.9318 28.9908 28.7743 28.9719 28.6651C28.9624 28.6109 28.9526 28.5696 28.946 28.5441C28.9426 28.5314 28.9401 28.5228 28.9388 28.5185C28.9385 28.5177 28.9383 28.517 28.9382 28.5165C28.938 28.516 28.9382 28.5166 28.9382 28.5165C28.9381 28.5164 28.9378 28.5155 28.9379 28.5155L28.9362 28.5105L28.9031 28.4066L28.8067 28.1063C28.7227 27.8448 28.6002 27.4651 28.4464 26.9925C28.4427 26.9812 28.4394 26.9697 28.4365 26.9581C28.3076 26.4383 28.1683 25.9241 28.02 25.4163C27.3392 23.0839 26.4723 20.8883 25.5806 18.8965Z" fill="black"/>
</g>
<defs>
<clipPath id="clip0_3026_186663">
<rect width="30" height="60" fill="white"/>
</clipPath>
</defs>
</svg>
