<svg width="24" height="22" viewBox="0 0 24 22" fill="none" xmlns="http://www.w3.org/2000/svg">
<path fill-rule="evenodd" clip-rule="evenodd" d="M3.33333 0.333344C3.70152 0.333344 4 0.63182 4 1.00001V11.3035C4.07772 11.2987 4.15566 11.2962 4.23372 11.296C4.75059 11.2948 5.2628 11.3946 5.74087 11.5897C6.21889 11.7849 6.65361 12.0717 7.01973 12.434C7.01978 12.4341 7.01984 12.4341 7.01989 12.4342L10.0255 15.407H13.9745L16.9801 12.4342C16.9802 12.4341 16.9802 12.4341 16.9803 12.434C17.3464 12.0717 17.7811 11.7849 18.2591 11.5897C18.7372 11.3946 19.2494 11.2948 19.7663 11.296C19.8443 11.2962 19.9223 11.2987 20 11.3035V1.00001C20 0.63182 20.2985 0.333344 20.6667 0.333344C21.0349 0.333344 21.3333 0.63182 21.3333 1.00001V11.6227C21.7863 11.8191 22.1983 12.0986 22.5471 12.4471L22.5583 12.4584L22.5691 12.4702C23.1921 13.1553 23.6322 13.9841 23.8483 14.8814C24.0641 15.7775 24.0494 16.7126 23.8058 17.6016C23.5586 18.5414 23.0608 19.3975 22.3653 20.0814C21.6691 20.7659 20.8005 21.2527 19.8503 21.4922C19.0814 21.6883 18.2789 21.7195 17.4969 21.5838C16.7145 21.448 15.9701 21.1483 15.3142 20.7042C14.6582 20.2602 14.1057 19.6821 13.6944 19.0084C13.283 18.3347 13.0227 17.5813 12.9313 16.799L12.9244 16.7404H11.0756L11.0687 16.799C10.9773 17.5813 10.717 18.3347 10.3056 19.0084C9.89434 19.6821 9.3418 20.2602 8.68581 20.7042C8.02985 21.1483 7.28553 21.448 6.50312 21.5838C5.72111 21.7195 4.91871 21.6883 4.14984 21.4923C3.1996 21.2528 2.33088 20.7659 1.63472 20.0814C0.939199 19.3975 0.44139 18.5413 0.194191 17.6016C-0.049451 16.7126 -0.0640764 15.7775 0.151713 14.8814C0.3678 13.9841 0.807863 13.1553 1.43093 12.4702L1.44166 12.4584L1.45295 12.4471C1.80171 12.0986 2.21366 11.8191 2.66667 11.6227V1.00001C2.66667 0.63182 2.96514 0.333344 3.33333 0.333344ZM9.69571 16.9563L6.08209 13.382L6.08192 13.3818C5.84084 13.1432 5.55375 12.9535 5.23696 12.8242C4.92015 12.6949 4.5802 12.6286 4.23681 12.6294C3.89342 12.6302 3.5538 12.698 3.23762 12.8288C2.92631 12.9576 2.64407 13.1447 2.40643 13.3793C1.93911 13.8972 1.61004 14.5207 1.44799 15.1936C1.28469 15.8717 1.29598 16.5792 1.48089 17.252L1.48296 17.2596L1.48291 17.2596C1.66843 17.9669 2.0433 18.6132 2.56953 19.1306C3.09583 19.6481 3.75421 20.0176 4.47638 20.1995L4.4784 20.2C5.06526 20.3498 5.67802 20.3737 6.27517 20.2701C6.8723 20.1665 7.43944 19.9378 7.93841 19.6001C8.43734 19.2624 8.85633 18.8235 9.16763 18.3136C9.42369 17.8942 9.60209 17.4346 9.69571 16.9563ZM14.3043 16.9563C14.3979 17.4346 14.5763 17.8942 14.8324 18.3136C15.1437 18.8235 15.5627 19.2624 16.0616 19.6001C16.5606 19.9378 17.1277 20.1665 17.7248 20.2701C18.322 20.3737 18.9347 20.3498 19.5216 20.2L19.5236 20.1995C20.2458 20.0176 20.9042 19.6481 21.4305 19.1306C21.9567 18.6132 22.3316 17.9669 22.5171 17.2596L22.5191 17.252L22.5191 17.252C22.704 16.5792 22.7153 15.8717 22.552 15.1936C22.39 14.5207 22.0609 13.8972 21.5936 13.3793C21.3559 13.1447 21.0737 12.9576 20.7624 12.8288C20.4462 12.698 20.1066 12.6302 19.7632 12.6294C19.4198 12.6286 19.0798 12.6949 18.763 12.8242C18.4463 12.9535 18.1592 13.1432 17.9181 13.3818L17.9179 13.382L14.3043 16.9563Z" fill="black"/>
</svg>
