<svg width="24" height="10" viewBox="0 0 24 10" fill="none" xmlns="http://www.w3.org/2000/svg">
<path fill-rule="evenodd" clip-rule="evenodd" d="M4.31713 1.33607C3.63345 1.36551 3.00426 1.63119 2.49913 2.06558C1.79309 2.67274 1.33333 3.60758 1.33333 4.66667C1.33333 6.54403 2.76161 8 4.44444 8H19.5556C21.2384 8 22.6667 6.54403 22.6667 4.66667C22.6667 2.83657 21.3094 1.40692 19.6822 1.33609C16.9418 1.3962 14.4261 2.43775 12.4347 4.15029C12.1848 4.36523 11.8153 4.36523 11.5653 4.15029C9.57372 2.43759 7.05778 1.39601 4.31713 1.33607ZM4.06668 0.0166367C3.14316 0.0983279 2.30205 0.476512 1.62977 1.05465C0.630149 1.91428 0 3.21783 0 4.66667C0 7.07759 1.75959 9.11474 4.06668 9.31687V9.33333H19.9333V9.31687C22.2404 9.11473 24 7.07758 24 4.66667C24 2.25575 22.2404 0.218599 19.9333 0.0164632V0C19.8536 0 19.7741 0.000742634 19.6948 0.00222158C19.6486 0.000744263 19.6021 0 19.5556 0V0.00557514C16.7234 0.0892649 14.1155 1.11089 12 2.78111C9.88451 1.11089 7.27656 0.0892613 4.44444 0.0055747V0C4.39804 0 4.35181 0.000747522 4.30576 0.00223108C4.22624 0.000745813 4.14654 0 4.06668 0V0.0166367Z" fill="black"/>
</svg>
