<svg width="30" height="30" viewBox="0 0 30 30" fill="none" xmlns="http://www.w3.org/2000/svg">
<path fill-rule="evenodd" clip-rule="evenodd" d="M12.2223 7.24818C13.0373 7.7261 13.9862 8 15 8C16.0138 8 16.9627 7.7261 17.7777 7.24818C16.9395 6.43637 15.9865 6 15 6C14.0135 6 13.0605 6.43637 12.2223 7.24818ZM18.4482 8.01094C17.4486 8.63759 16.266 9 15 9C13.734 9 12.5514 8.63759 11.5518 8.01094C10.9772 8.77204 10.4917 9.72268 10.1372 10.8133C11.3286 12.1554 13.0655 13 15 13C16.9345 13 18.6714 12.1554 19.8628 10.8133C19.5083 9.72267 19.0228 8.77204 18.4482 8.01094ZM20.1688 11.9344C18.824 13.2139 17.0036 14 15 14C12.9964 14 11.176 13.2139 9.83116 11.9344C9.64346 12.7728 9.53026 13.6697 9.50527 14.6047C10.8754 16.0789 12.8298 17 15 17C17.1702 17 19.1246 16.0789 20.4947 14.6047C20.4697 13.6697 20.3565 12.7728 20.1688 11.9344ZM20.4653 16.0102C18.988 17.2516 17.0812 18 15 18C12.9188 18 11.012 17.2516 9.53468 16.0102C9.62356 17.2968 9.88002 18.4991 10.2659 19.5607C11.6187 20.4697 13.2467 21 15 21C16.7533 21 18.3813 20.4697 19.7341 19.5607C20.12 18.4991 20.3764 17.2968 20.4653 16.0102ZM19.0271 21.1066C17.8041 21.6797 16.4391 22 15 22C13.5609 22 12.1959 21.6797 10.9729 21.1066C12.0141 22.941 13.4758 24 15 24C16.5242 24 17.9859 22.941 19.0271 21.1066ZM11.0724 7.01274C12.1331 5.77905 13.4884 5 15 5C16.5116 5 17.8669 5.77905 18.9276 7.01274C19.7789 8.00287 20.4561 9.3009 20.9012 10.7837C21.2679 12.0056 21.4793 13.3606 21.4986 14.7865C21.4995 14.8575 21.5 14.9287 21.5 15C21.5 16.8425 21.1791 18.5736 20.6151 20.0608C19.5358 22.9067 17.4935 25 15 25C12.5065 25 10.4642 22.9067 9.38489 20.0608C8.82089 18.5736 8.5 16.8425 8.5 15C8.5 14.9287 8.50048 14.8575 8.50144 14.7865C8.52067 13.3606 8.7321 12.0056 9.09885 10.7837C9.54388 9.3009 10.2211 8.00287 11.0724 7.01274Z" fill="black"/>
</svg>
