<svg width="24" height="24" viewBox="0 0 24 24" fill="none" xmlns="http://www.w3.org/2000/svg">
<path d="M8.8501 10.5C9.40238 10.5 9.8501 10.0523 9.8501 9.5C9.8501 8.94771 9.40238 8.5 8.8501 8.5C8.29781 8.5 7.8501 8.94771 7.8501 9.5C7.8501 10.0523 8.29781 10.5 8.8501 10.5Z" fill="black"/>
<path fill-rule="evenodd" clip-rule="evenodd" d="M13.6842 9.6V12.6999H17.9211C19.0692 12.6999 20 13.6306 20 14.7788V16.421C20 17.5691 19.0693 18.4999 17.9212 18.5L9.23679 18.4999C6.34458 18.4999 4 16.1553 4 13.2631V9.6C4 7.25201 6.25969 5.5 8.84211 5.5C11.4245 5.5 13.6842 7.25201 13.6842 9.6ZM5 9.6C5 7.97154 6.62837 6.5 8.84211 6.5C11.0558 6.5 12.6842 7.97154 12.6842 9.6C12.6842 11.2284 11.0559 12.6999 8.84211 12.6999C6.62834 12.6999 5 11.2284 5 9.6ZM12.013 12.6999C12.2591 12.5204 12.4843 12.32 12.6842 12.1011V12.6999H12.013ZM5 13.2631V12.1011C5.90086 13.0873 7.31507 13.6999 8.84211 13.6999H17.9211C18.5169 13.6999 19 14.1829 19 14.7788V16.421C19 17.0169 18.517 17.4999 17.9211 17.5L17.6316 17.5V15.6C17.6316 15.3239 17.4077 15.1 17.1316 15.1C16.8554 15.1 16.6316 15.3239 16.6316 15.6V17.5L15.2632 17.5V16.8C15.2632 16.5239 15.0393 16.3 14.7632 16.3C14.487 16.3 14.2632 16.5239 14.2632 16.8V17.5L12.8947 17.5V15.6C12.8947 15.3239 12.6709 15.1 12.3947 15.1C12.1186 15.1 11.8947 15.3239 11.8947 15.6V17.4999L10.5263 17.4999V16.8C10.5263 16.5239 10.3025 16.3 10.0263 16.3C9.75017 16.3 9.52632 16.5239 9.52632 16.8V17.4999L9.2368 17.4999C6.89687 17.4999 5 15.603 5 13.2631Z" fill="black"/>
</svg>
