<svg width="160" height="358" viewBox="0 0 160 358" fill="none" xmlns="http://www.w3.org/2000/svg">
<g clip-path="url(#clip0_492_91328)">
<path d="M86.0001 173.05C86.3101 170.77 94.0001 140.59 93.9101 123.72C93.8201 111 88.9001 75.09 84.7001 64C80.5001 52.91 69.0001 53.4 59.6801 51.4C50.3601 49.4 52.8601 38.54 52.8601 38.54H41.0001C41.0001 38.54 43.5201 49.39 34.2001 51.4C24.8801 53.41 13.3601 52.93 9.17011 64C4.98011 75.07 0.0501065 111 0.00010649 123.72C-0.0598935 140.59 7.60011 170.77 7.91011 173.05C8.64011 178.46 6.72011 187.38 8.03011 192.43C9.13011 196.7 11.5101 201.1 17.0301 203.57C13.9882 189.473 12.8946 175.025 13.7801 160.63C12.8901 146.37 11.9501 129.75 12.0401 124.23C12.2301 113.89 20.3401 84.55 20.3401 84.55L21.7301 79.92C21.7301 79.92 26.1401 105.64 27.3501 116.74C27.7101 120.11 29.2701 126.55 23.3501 134.67C19.0305 140.479 16.2509 147.287 15.2701 154.46C14.4001 163.31 13.2701 183.32 18.1601 204.03C21.6001 224.58 26.2301 244.45 26.2301 246.71C26.2301 251.24 18.7601 261.56 21.2301 279.05C23.7001 296.54 34.0601 328 32.2801 342.61C32.2801 342.61 32.7301 347.7 26.9601 351.8C26.6568 352.02 26.3664 352.257 26.0901 352.51C25.6818 352.894 25.398 353.392 25.2756 353.938C25.1532 354.485 25.1977 355.057 25.4035 355.578C25.6092 356.099 25.9667 356.547 26.4296 356.863C26.8925 357.179 27.4396 357.348 28.0001 357.35H38.3001C39.2915 357.362 40.2684 357.11 41.1301 356.62C41.9381 356.196 42.5769 355.509 42.9407 354.672C43.3045 353.836 43.3713 352.9 43.1301 352.02C42.2501 347.48 41.7301 345.29 42.0501 342.3C42.3897 338.127 42.1779 333.928 41.4201 329.81C40.5401 324.33 40.9501 308.81 42.9201 295.75C44.8901 282.69 41.7101 259.19 41.6201 253.89C41.2921 248.171 41.8555 242.436 43.2901 236.89C45.2301 228.65 46.6001 169.52 46.6001 169.52L47.4901 169.16C47.4901 169.16 48.7001 228.65 50.6301 236.89C52.0647 242.436 52.6281 248.171 52.3001 253.89C52.2201 259.19 49.0301 282.67 51.0001 295.75C52.9701 308.83 53.3801 324.33 52.5001 329.81C51.7423 333.928 51.5305 338.127 51.8701 342.3C52.1901 345.3 51.6701 347.48 50.8001 352.02C50.5589 352.9 50.6257 353.836 50.9895 354.672C51.3533 355.509 51.9921 356.196 52.8001 356.62C53.6655 357.11 54.6455 357.362 55.6401 357.35H65.9001C66.4606 357.348 67.0077 357.179 67.4706 356.863C67.9335 356.547 68.291 356.099 68.4967 355.578C68.7025 355.057 68.747 354.485 68.6246 353.938C68.5022 353.392 68.2185 352.894 67.8101 352.51C67.5339 352.257 67.2434 352.02 66.9401 351.8C61.1801 347.7 61.6201 342.61 61.6201 342.61C59.8401 327.98 70.2201 296.56 72.7001 279.06C75.1801 261.56 67.7001 251.25 67.7001 246.72C67.7001 244.46 72.3301 224.58 75.7801 204.02C79.7001 187.34 79.7801 170.58 79.2901 159.83C78.3901 148.19 75.2901 141.03 70.6001 134.67C64.6701 126.55 66.2201 120.11 66.6001 116.74C67.8001 105.64 72.0901 79.82 72.0901 79.82L73.7301 85.23C73.7301 85.23 81.7301 113.89 81.9001 124.23C81.9901 129.55 81.1201 145.13 80.2601 159.02C80.8301 169.65 80.7901 186.59 76.9201 203.56C82.3701 201.08 84.7401 196.69 85.8501 192.43C87.1501 187.38 85.2301 178.46 86.0001 173.05Z" fill="#BEBEBE"/>
<path d="M20.39 53.8598L21.69 79.9198L26.24 78.6898L24.72 52.8398L20.39 53.8598Z" fill="#646464"/>
<path d="M72.98 53.79L72.09 79.82L67.12 78.17L68.66 52.79L72.98 53.79Z" fill="#646464"/>
<path d="M69.05 98.9301L72.05 79.8201C64.85 72.8201 53.28 74.7401 47.61 80.1501C40.41 74.2801 28.32 72.9001 21.61 79.9201L24.74 99.0501L69.05 98.9301Z" fill="#646464"/>
<path d="M74.64 141.23C65.96 144.6 56.13 145.85 46.94 145.92C37.75 145.99 27.94 144.6 19.24 141.23C17.684 144.069 16.5903 147.138 16 150.32C24.54 150.82 41.32 156.86 46.56 169.77H47.49C52.73 156.87 69.34 150.83 77.87 150.34C77.2805 147.152 76.1903 144.078 74.64 141.23Z" fill="#646464"/>
<path d="M69.34 96.9997L68.87 99.9997C70.082 100.221 71.2706 100.556 72.42 101C69.83 102.1 61.42 103.62 46.99 103.62C32.56 103.62 24.15 102 21.56 100.93C22.6592 100.49 23.7976 100.155 24.96 99.9297L24.49 96.9297C18.78 98.1697 18 99.5597 18 100.93C18 102.49 19.13 104.1 27.32 105.33C33.8436 106.194 40.4196 106.601 47 106.55C53.5804 106.601 60.1564 106.194 66.68 105.33C74.88 104.1 76.01 102.49 76.01 100.93C76 99.5597 75.12 98.1397 69.34 96.9997Z" fill="#FF5923"/>
<path d="M63.43 18C63.43 24.21 64.94 24.21 64.94 30.42C64.94 36.63 63.43 36.63 63.43 42.84C63.43 49.05 64.94 49 64.94 55.22H52.13V18H63.43Z" fill="#646464"/>
<path d="M30.3 18C30.3 24.21 28.84 24.21 28.84 30.42C28.84 36.63 30.3 36.63 30.3 42.84C30.3 49.05 28.84 49 28.84 55.22H41.13V18H30.3Z" fill="#646464"/>
<path d="M46.89 33.3C56.0855 33.3 63.54 25.8455 63.54 16.65C63.54 7.45446 56.0855 0 46.89 0C37.6944 0 30.24 7.45446 30.24 16.65C30.24 25.8455 37.6944 33.3 46.89 33.3Z" fill="#646464"/>
<path d="M59.86 23.9996C56.5264 23.999 53.2774 22.95 50.5729 21.001C47.8683 19.0521 45.8453 16.3018 44.79 13.1396L33.9 23.9996C33.9 34.5796 39.72 43.1596 46.9 43.1596C54.08 43.1596 59.9 34.5796 59.9 23.9996H59.86Z" fill="#BEBEBE"/>
<path d="M71.91 81L71.45 83.89C72.3583 84.0601 73.2489 84.3146 74.11 84.65C71.11 85.87 61.35 87.27 47.04 87.27C32.73 87.27 23 85.87 20 84.65C20.767 84.3782 21.5523 84.161 22.35 84L21.86 81C17.52 82 16.35 83.24 16.35 84.66C16.35 86.47 18.02 87.91 26.17 89.06C33.0789 89.9241 40.0375 90.3284 47 90.27C53.976 90.3268 60.9481 89.9192 67.87 89.05C76.02 87.9 77.69 86.46 77.69 84.65C77.73 83.16 76.86 82 71.91 81Z" fill="#FF5923"/>
</g>
<circle cx="148" cy="84" r="9" fill="#FF5923"/>
<path d="M144.045 87H145.407L146.164 85.3008H149.841L150.598 87H151.955L148.791 79.998H147.214L144.045 87ZM146.672 84.1289L148 81.1504L149.328 84.1289H146.672Z" fill="white"/>
<circle cx="148" cy="102" r="9" fill="#FF5923"/>
<path d="M145.139 105H148.713C150.192 105 151.198 104.121 151.198 102.905C151.198 102.09 150.744 101.523 149.899 101.294C150.632 101.04 150.993 100.449 150.993 99.7217C150.993 98.6377 150.202 97.998 148.635 97.998H145.139V105ZM146.379 103.843V101.865H148.698C149.431 101.865 149.938 102.188 149.938 102.827C149.938 103.447 149.465 103.843 148.708 103.843H146.379ZM146.379 100.854V99.1553H148.674C149.201 99.1553 149.753 99.3408 149.753 99.9805C149.753 100.542 149.323 100.854 148.591 100.854H146.379Z" fill="white"/>
<line x1="83" y1="101.75" x2="136" y2="101.75" stroke="black" stroke-width="0.5"/>
<line x1="83" y1="83.75" x2="136" y2="83.75" stroke="black" stroke-width="0.5"/>
<defs>
<clipPath id="clip0_492_91328">
<rect width="93.87" height="357.35" fill="white"/>
</clipPath>
</defs>
</svg>
