<svg width="155" height="358" viewBox="0 0 155 358" fill="none" xmlns="http://www.w3.org/2000/svg">
<circle cx="143" cy="124" r="9" fill="#FF5923"/>
<path d="M139.045 127H140.407L141.164 125.301H144.841L145.598 127H146.955L143.791 119.998H142.214L139.045 127ZM141.672 124.129L143 121.15L144.328 124.129H141.672Z" fill="white"/>
<circle cx="143" cy="157" r="9" fill="#FF5923"/>
<path d="M140.139 160H143.713C145.192 160 146.198 159.121 146.198 157.905C146.198 157.09 145.744 156.523 144.899 156.294C145.632 156.04 145.993 155.449 145.993 154.722C145.993 153.638 145.202 152.998 143.635 152.998H140.139V160ZM141.379 158.843V156.865H143.698C144.431 156.865 144.938 157.188 144.938 157.827C144.938 158.447 144.465 158.843 143.708 158.843H141.379ZM141.379 155.854V154.155H143.674C144.201 154.155 144.753 154.341 144.753 154.98C144.753 155.542 144.323 155.854 143.591 155.854H141.379Z" fill="white"/>
<g clip-path="url(#clip0_492_91327)">
<path d="M85.97 173.52C86.27 171.23 93.97 141.05 93.8801 124.19C93.83 111.47 88.88 75.55 84.71 64.47C80.54 53.39 69.01 53.87 59.71 51.86C50.41 49.85 52.89 39 52.89 39H41.02C41.02 39 43.5301 49.86 34.2001 51.86C24.8701 53.86 13.3701 53.4 9.20006 64.47C5.03006 75.54 0.0700172 111.47 0.0300172 124.19C-0.0399828 141.05 7.63005 171.19 7.94005 173.52C8.66005 178.93 6.74004 187.84 8.05004 192.9C9.16004 197.16 11.53 201.56 17.05 204.03C14.0106 189.936 12.9204 175.491 13.81 161.1C12.91 146.83 11.9701 130.22 12.0701 124.69C12.2501 114.36 20.37 85.01 20.37 85.01L21.75 80.39C21.75 80.39 26.17 106.1 27.37 117.2C27.74 120.57 29.29 127.02 23.37 135.13C19.0559 140.945 16.2801 147.756 15.3 154.93C14.42 163.77 13.3001 183.78 18.1901 204.5C21.6401 225.05 26.27 244.92 26.27 247.19C26.27 251.71 18.79 262.03 21.27 279.53C23.75 297.03 34.13 328.45 32.35 343.08C32.35 343.08 32.79 348.16 27.03 352.27C26.7228 352.489 26.4289 352.726 26.15 352.98C25.7411 353.364 25.4571 353.863 25.335 354.411C25.2129 354.959 25.2583 355.531 25.4653 356.052C25.6722 356.574 26.0312 357.022 26.4957 357.337C26.9602 357.652 27.5087 357.82 28.0701 357.82H38.36C39.356 357.833 40.3369 357.577 41.2001 357.08C42.008 356.656 42.6469 355.969 43.0107 355.132C43.3744 354.296 43.4413 353.36 43.2001 352.48C42.3301 347.95 41.8101 345.76 42.1301 342.76C42.4696 338.587 42.2577 334.388 41.5 330.27C40.62 324.79 41.02 309.27 42.99 296.21C44.96 283.15 41.7801 259.65 41.6901 254.36C41.3679 248.641 41.9312 242.907 43.36 237.36C45.3 229.12 46.67 170 46.67 170L47.56 169.64C47.56 169.64 48.77 229.12 50.71 237.36C52.1389 242.907 52.7022 248.641 52.3801 254.36C52.2901 259.65 49.1 283.14 51.08 296.21C53.06 309.28 53.46 324.79 52.58 330.27C51.8122 334.386 51.6003 338.587 51.9501 342.76C52.2701 345.76 51.75 347.95 50.87 352.48C50.6288 353.36 50.6957 354.296 51.0594 355.132C51.4232 355.969 52.0621 356.656 52.87 357.08C53.7291 357.578 54.7072 357.834 55.7001 357.82H65.99C66.5514 357.82 67.0998 357.652 67.5643 357.337C68.0288 357.022 68.3879 356.574 68.5948 356.052C68.8018 355.531 68.8472 354.959 68.7251 354.411C68.603 353.863 68.319 353.364 67.91 352.98C67.6332 352.724 67.3391 352.486 67.03 352.27C61.27 348.16 61.72 343.08 61.72 343.08C59.94 328.45 70.31 297.02 72.8 279.53C75.29 262.04 67.8 251.71 67.8 247.19C67.8 244.92 72.44 225.04 75.8801 204.49C79.8 187.8 79.88 171.04 79.4 160.3C78.49 148.66 75.4001 141.49 70.7001 135.13C64.7701 127.02 66.3301 120.57 66.7001 117.2C67.9101 106.1 72.2001 80.28 72.2001 80.28L73.83 85.69C73.83 85.69 81.83 114.36 82 124.69C82.1 130.01 81.23 145.6 80.36 159.48C80.93 170.11 80.9 187.06 77.02 204.02C82.48 201.54 84.8501 197.15 85.9501 192.9C87.1601 187.81 85.24 178.93 85.97 173.52Z" fill="#BEBEBE"/>
<path d="M46.9599 65.3204C38.9599 65.3204 31.1699 58.7304 28.0099 52.9004L24.2799 53.6104C27.2799 65.1104 25.1899 74.3904 21.6899 80.3904L24.6899 98.9004H69.0999L72.0999 80.2804C67.0999 71.2804 68.2099 60.1604 69.2099 53.4904L65.7199 52.9004C62.8899 58.0604 56.4199 65.3204 46.9599 65.3204Z" fill="#646464"/>
<path d="M74.64 141.7C65.96 145.07 56.14 146.32 46.94 146.39C37.74 146.46 27.94 145.07 19.24 141.7C17.6873 144.539 16.597 147.608 16.01 150.79C24.54 151.28 41.33 157.32 46.56 170.23H47.49C52.73 157.34 69.34 151.3 77.88 150.81C77.2918 147.62 76.198 144.545 74.64 141.7Z" fill="#646464"/>
<path d="M78.2401 152.66H78.3L78.8101 155.75C79.6901 155.904 80.5613 156.104 81.42 156.35C77.28 157.59 64.8601 158.97 46.7001 158.97C28.5401 158.97 16.12 157.59 11.98 156.35C13.031 156.048 14.0997 155.811 15.1801 155.64C15.2801 154.95 15.5 153.53 15.67 152.53C8.51004 153.68 7.82007 155.04 7.82007 156.35C7.82007 157.89 8.82004 159.5 20.1 160.75C37.7961 162.377 55.604 162.377 73.3 160.75C84.6301 159.5 85.58 157.89 85.58 156.35C85.58 155.12 84.9201 153.81 78.2401 152.66Z" fill="#FF5923"/>
<path d="M66.33 119.28C66.21 120.38 66.17 121.69 66.15 122.28C67.8298 122.51 69.4774 122.933 71.0601 123.54C68.4901 124.73 59.5501 126.16 46.8101 126.16C34.0701 126.16 25.13 124.73 22.55 123.54C24.2302 122.904 25.9786 122.464 27.7601 122.23C27.7601 121.35 27.62 120.03 27.55 119.23C21.55 120.23 19.03 121.51 19.03 123.55C19.03 125.59 21.71 126.961 28.03 127.951C40.5206 129.577 53.1694 129.577 65.66 127.951C71.95 126.951 74.66 125.65 74.66 123.55C74.66 121.45 72.1 120.25 66.33 119.28Z" fill="#FF5923"/>
</g>
<g clip-path="url(#clip1_492_91327)">
<path d="M65.54 26.5898C65.54 23.2598 63.81 23.0098 63.54 20.1298C64.0605 17.7022 64.0315 15.1889 63.4551 12.7739C62.8787 10.3589 61.7695 8.1034 60.2087 6.17252C58.648 4.24163 56.6751 2.68425 54.4347 1.61438C52.1942 0.544511 49.7428 -0.0107422 47.26 -0.0107422C44.7772 -0.0107422 42.3258 0.544511 40.0853 1.61438C37.8449 2.68425 35.872 4.24163 34.3112 6.17252C32.7504 8.1034 31.6413 10.3589 31.0649 12.7739C30.4885 15.1889 30.4595 17.7022 30.98 20.1298C30.72 23.0198 28.98 23.2598 28.98 26.5998C28.98 30.1998 30.98 30.1998 30.98 33.7998C30.98 37.3998 28.98 37.3998 28.98 40.9998H46.06V33.2498C46.46 33.2498 46.85 33.3098 47.25 33.3098C47.65 33.3098 48.04 33.3098 48.44 33.2498V40.9898H65.52C65.52 37.3898 63.52 37.3898 63.52 33.7898C63.52 30.1898 65.54 30.1898 65.54 26.5898Z" fill="#646464"/>
<path d="M35.5401 15.8096C34.6977 18.4611 34.2726 21.2275 34.2801 24.0096C34.2801 34.5996 40.0901 43.1796 47.2801 43.1796C54.4701 43.1796 60.2801 34.5996 60.2801 24.0096C60.2877 21.2275 59.8626 18.4611 59.0201 15.8096H35.5401Z" fill="#BEBEBE"/>
</g>
<line x1="78" y1="123.75" x2="131" y2="123.75" stroke="black" stroke-width="0.5"/>
<line x1="88" y1="156.75" x2="131" y2="156.75" stroke="black" stroke-width="0.5"/>
<defs>
<clipPath id="clip0_492_91327">
<rect width="93.87" height="318.81" fill="white" transform="translate(0 39)"/>
</clipPath>
<clipPath id="clip1_492_91327">
<rect width="36.54" height="43.18" fill="white" transform="translate(29)"/>
</clipPath>
</defs>
</svg>
