<svg width="24" height="17" viewBox="0 0 24 17" fill="none" xmlns="http://www.w3.org/2000/svg">
<path fill-rule="evenodd" clip-rule="evenodd" d="M0 2C0 1.26362 0.596954 0.666668 1.33333 0.666668H22.6667C23.403 0.666668 24 1.26362 24 2V4.98039C24 5.72877 23.3991 6.28655 22.7147 6.33599C18.2326 6.65976 14.5949 10.5017 14.3044 15.3728C14.263 16.0663 13.699 16.6667 12.9524 16.6667H11.0476C10.301 16.6667 9.73701 16.0663 9.69564 15.3728C9.40507 10.5017 5.76736 6.65976 1.28534 6.33599C0.600869 6.28655 0 5.72877 0 4.98039V2ZM22.6667 2H1.33333V4.98039C1.33333 4.98043 1.33333 4.98036 1.33333 4.98039C1.33377 4.98127 1.33519 4.98391 1.33862 4.98741C1.34757 4.99654 1.36273 5.00478 1.3814 5.00613C6.59424 5.38269 10.7002 9.8207 11.0266 15.2934C11.0275 15.3089 11.0342 15.3214 11.0419 15.329C11.0445 15.3316 11.0465 15.3328 11.0474 15.3333L12.9524 15.3333C12.9527 15.3333 12.9523 15.3333 12.9524 15.3333C12.9531 15.333 12.9552 15.3319 12.9581 15.329C12.9658 15.3214 12.9725 15.3089 12.9734 15.2934C13.2999 9.8207 17.4058 5.38269 22.6186 5.00613C22.6373 5.00478 22.6524 4.99654 22.6614 4.98741C22.6648 4.98392 22.6662 4.98139 22.6667 4.9805C22.6667 4.98047 22.6667 4.98054 22.6667 4.9805V2Z" fill="black"/>
</svg>
