<svg width="24" height="24" viewBox="0 0 24 24" fill="none" xmlns="http://www.w3.org/2000/svg">
<path fill-rule="evenodd" clip-rule="evenodd" d="M6.16481 5.09706C6.10232 4.50475 6.5697 4 7.1557 4H11.1613C11.7136 4 12.1616 4.4479 12.1607 5.00083C12.1599 5.45019 12.1595 5.91208 12.1665 6.38123C12.1962 8.35793 12.3602 10.3723 13.1196 11.8997C13.3405 12.3441 13.8077 12.9622 14.3601 13.5417C14.9152 14.124 15.4996 14.6078 15.9281 14.8233C16.3127 15.0167 16.8303 15.3312 17.2977 15.7343C17.7219 16.1002 18.143 16.5717 18.3565 17.1266C18.5812 17.7102 18.5653 18.3652 18.1414 19.0046C17.8546 19.4373 17.3734 19.6975 16.8688 19.8408C16.3559 19.9864 15.7605 20.0291 15.1586 19.9812C14.7956 19.9524 14.4246 19.8902 14.0605 19.7944C13.2347 19.5772 12.4148 19.179 11.812 18.5727C11.5809 18.3404 11.3642 18.05 11.1574 17.7722L11.1359 17.7433C10.9289 17.4651 10.7205 17.1851 10.4804 16.9148C9.99079 16.3639 9.38951 15.8779 8.50767 15.6562C8.48542 15.6506 8.46297 15.6449 8.44032 15.6393C7.51055 15.4062 6.26412 15.0936 5.65547 13.8694C5.39335 13.3422 5.50738 12.7792 5.6708 12.3277C5.79527 11.9837 5.98235 11.6199 6.14792 11.2979C6.19903 11.1984 6.2481 11.103 6.29264 11.0134C6.50379 10.5885 6.61376 10.2942 6.61376 10.0897C6.61376 8.90694 6.47312 7.71169 6.32564 6.4869C6.32277 6.46306 6.3199 6.4392 6.31702 6.41533C6.26437 5.9782 6.21126 5.53732 6.16481 5.09706ZM7.16012 5C7.19254 5.30673 7.22827 5.61419 7.26517 5.9236L11.1616 5.89272C11.1598 5.58863 11.1602 5.29 11.1607 5H7.16012ZM11.177 6.89263L7.38468 6.92269C7.50662 7.96364 7.61376 9.02723 7.61376 10.0897C7.61376 10.3782 7.52938 10.6752 7.41817 10.9543C7.59569 11.0343 7.78605 11.1339 7.97447 11.2535C8.37995 11.511 8.81926 11.8888 9.07732 12.4079C9.33596 12.9281 9.37522 13.5385 9.34336 14.0465C9.32558 14.33 9.28434 14.6009 9.23476 14.8358C10.1136 15.1612 10.7405 15.7021 11.2279 16.2506C11.4976 16.5541 11.7291 16.8653 11.9312 17.137C11.9408 17.1498 11.9502 17.1626 11.9596 17.1752C12.1757 17.4656 12.3497 17.6952 12.5211 17.8676C12.8827 18.2313 13.3771 18.5161 13.9299 18.7096C13.9708 18.6321 14.0172 18.5465 14.0679 18.4565C14.2601 18.1155 14.5402 17.6647 14.8437 17.3595L14.8459 17.3572C15.0976 17.1041 15.4813 16.7183 15.8354 16.3855C15.9389 16.2883 16.0419 16.1937 16.1399 16.107C15.902 15.9456 15.6703 15.813 15.4789 15.7167C14.8969 15.424 14.2181 14.8421 13.6363 14.2317C13.0518 13.6185 12.5085 12.9169 12.2241 12.3449C11.4262 10.74 11.2274 8.7387 11.177 6.89263ZM16.9218 16.7527C16.8058 16.8506 16.6683 16.9751 16.5202 17.1143C16.1795 17.4344 15.8065 17.8095 15.5528 18.0646C15.3511 18.2675 15.1258 18.6162 14.9391 18.9475L14.9368 18.9516C15.0377 18.9655 15.1382 18.9765 15.2379 18.9844C15.7488 19.025 16.2212 18.9852 16.5956 18.8788C16.9783 18.7701 17.2039 18.6089 17.3079 18.4521C17.5385 18.1042 17.5413 17.7924 17.4233 17.4858C17.329 17.2408 17.1527 16.9922 16.9218 16.7527ZM8.2703 14.5605C8.30417 14.3869 8.33243 14.1894 8.34532 13.9839C8.37242 13.5518 8.32747 13.1459 8.18188 12.8531C8.03572 12.5591 7.76108 12.3026 7.43834 12.0977C7.28317 11.9991 7.12678 11.9188 6.98574 11.8564C6.83893 12.1425 6.70589 12.4061 6.61111 12.668C6.47461 13.0452 6.47593 13.2734 6.55091 13.4242C6.87494 14.076 7.48048 14.3405 8.2703 14.5605Z" fill="black"/>
</svg>
