<svg width="30" height="30" viewBox="0 0 30 30" fill="none" xmlns="http://www.w3.org/2000/svg">
<path fill-rule="evenodd" clip-rule="evenodd" d="M19.5 7.5C19.5 6.39543 20.3954 5.5 21.5 5.5C22.6046 5.5 23.5 6.39543 23.5 7.5V14.5C23.5 15.6046 22.6046 16.5 21.5 16.5C20.3954 16.5 19.5 15.6046 19.5 14.5V7.5ZM21.5 6.5C20.9477 6.5 20.5 6.94772 20.5 7.5V14.5C20.5 15.0523 20.9477 15.5 21.5 15.5C22.0523 15.5 22.5 15.0523 22.5 14.5V7.5C22.5 6.94772 22.0523 6.5 21.5 6.5ZM15.5 9.5L8.5 9.5C7.94772 9.5 7.5 9.94772 7.5 10.5C7.5 11.0523 7.94772 11.5 8.5 11.5L15.5 11.5C16.0523 11.5 16.5 11.0523 16.5 10.5C16.5 9.94771 16.0523 9.5 15.5 9.5ZM8.5 8.5L15.5 8.5C16.6046 8.5 17.5 9.39543 17.5 10.5C17.5 11.6046 16.6046 12.5 15.5 12.5L8.5 12.5C7.39543 12.5 6.5 11.6046 6.5 10.5C6.5 9.39543 7.39543 8.5 8.5 8.5ZM8.5 14.5C7.94772 14.5 7.5 14.9477 7.5 15.5L7.5 22.5C7.5 23.0523 7.94772 23.5 8.5 23.5C9.05228 23.5 9.5 23.0523 9.5 22.5L9.5 15.5C9.5 14.9477 9.05229 14.5 8.5 14.5ZM6.5 15.5C6.5 14.3954 7.39543 13.5 8.5 13.5C9.60457 13.5 10.5 14.3954 10.5 15.5L10.5 22.5C10.5 23.6046 9.60457 24.5 8.5 24.5C7.39543 24.5 6.5 23.6046 6.5 22.5L6.5 15.5ZM14.5 18.5C13.9477 18.5 13.5 18.9477 13.5 19.5C13.5 20.0523 13.9477 20.5 14.5 20.5H21.5C22.0523 20.5 22.5 20.0523 22.5 19.5C22.5 18.9477 22.0523 18.5 21.5 18.5H14.5ZM12.5 19.5C12.5 18.3954 13.3954 17.5 14.5 17.5H21.5C22.6046 17.5 23.5 18.3954 23.5 19.5C23.5 20.6046 22.6046 21.5 21.5 21.5H14.5C13.3954 21.5 12.5 20.6046 12.5 19.5Z" fill="black"/>
</svg>
