<svg width="153" height="372" viewBox="0 0 153 372" fill="none" xmlns="http://www.w3.org/2000/svg">
<g clip-path="url(#clip0_492_91323)">
<path d="M85.9599 187.52C86.2699 185.23 93.9599 155.05 93.8699 138.19C93.8199 125.47 88.8699 89.55 84.6999 78.47C80.5299 67.39 68.9999 67.87 59.6999 65.86C50.3999 63.85 52.8799 53 52.8799 53H41.0099C41.0099 53 43.5199 63.86 34.1999 65.86C24.8799 67.86 13.3599 67.4 9.19989 78.47C5.03989 89.54 0.0798916 125.47 0.0298916 138.19C-0.0301084 155.05 7.62989 185.19 7.93989 187.52C8.66989 192.93 6.74989 201.84 8.05989 206.9C9.15989 211.16 11.5399 215.56 17.0599 218.03C14.0113 203.937 12.911 189.492 13.7899 175.1C12.8999 160.83 11.9599 144.22 12.0499 138.69C12.2399 128.36 20.3499 99.01 20.3499 99.01L21.7399 94.39C21.7399 94.39 26.1499 120.1 27.3599 131.2C27.7199 134.57 29.2799 141.02 23.3599 149.13C19.0422 154.944 16.2629 161.755 15.2799 168.93C14.4099 177.77 13.2799 197.78 18.1699 218.5C21.6099 239.05 26.2399 258.92 26.2399 261.19C26.2399 265.71 18.7699 276.03 21.2399 293.53C23.7099 311.03 34.0999 342.45 32.3199 357.08C32.3199 357.08 32.7699 362.16 26.9999 366.27C26.6942 366.487 26.4036 366.724 26.1299 366.98C25.7268 367.363 25.4468 367.857 25.3255 368.399C25.2041 368.942 25.247 369.508 25.4486 370.026C25.6503 370.544 26.0015 370.99 26.4576 371.308C26.9138 371.626 27.4541 371.8 28.0099 371.81H38.2999C39.2928 371.824 40.2708 371.568 41.1299 371.07C41.9379 370.646 42.5767 369.959 42.9405 369.122C43.3043 368.286 43.3711 367.35 43.1299 366.47C42.2499 361.94 41.7299 359.75 42.0499 356.75C42.3894 352.577 42.1776 348.378 41.4199 344.26C40.5399 338.78 40.9499 323.26 42.9199 310.2C44.8899 297.14 41.7099 273.64 41.6199 268.35C41.2926 262.631 41.8559 256.896 43.2899 251.35C45.2299 243.11 46.5999 183.99 46.5999 183.99L47.4899 183.63C47.4899 183.63 48.6999 243.11 50.6299 251.35C52.0638 256.896 52.6272 262.631 52.2999 268.35C52.2199 273.64 49.0299 297.13 50.9999 310.2C52.9699 323.27 53.3799 338.78 52.4999 344.26C51.7422 348.378 51.5304 352.577 51.8699 356.75C52.1899 359.75 51.6699 361.94 50.7999 366.47C50.5587 367.35 50.6255 368.286 50.9893 369.122C51.353 369.959 51.9919 370.646 52.7999 371.07C53.6626 371.568 54.6439 371.824 55.6399 371.81H65.9299C66.4904 371.808 67.0374 371.639 67.5004 371.323C67.9633 371.007 68.3208 370.559 68.5265 370.038C68.7323 369.516 68.7768 368.945 68.6544 368.398C68.532 367.851 68.2482 367.354 67.8399 366.97C67.5662 366.714 67.2755 366.477 66.9699 366.26C61.2099 362.15 61.6499 357.07 61.6499 357.07C59.8699 342.44 70.2499 311.01 72.7299 293.52C75.2099 276.03 67.7299 265.7 67.7299 261.18C67.7299 258.91 72.3599 239.03 75.8099 218.48C79.7299 201.79 79.8099 185.03 79.3199 174.29C78.4199 162.65 75.3199 155.48 70.6299 149.12C64.6999 141.01 66.2499 134.56 66.6299 131.19C67.8299 120.09 72.1199 94.27 72.1199 94.27L73.7599 99.68C73.7599 99.68 81.7599 128.35 81.9299 138.68C82.0199 144 81.1499 159.59 80.2899 173.47C80.8599 184.1 80.8199 201.05 76.9499 218.01C82.3999 215.53 84.7699 211.14 85.8799 206.89C87.1599 201.81 85.2299 192.93 85.9599 187.52Z" fill="#BEBEBE"/>
<path d="M26.04 144.43C46.62 149.04 67.86 144.43 67.86 144.43C67.86 144.43 79.92 155.99 79.92 182.97C79.92 206.97 69.22 252.54 69.22 252.54L67.68 261.1C67.68 261.1 72.42 277.34 72.68 279.64C72.94 281.94 74.3 293.59 68.08 315.32L62.54 341.24L52.78 340.7L52.46 324.18C52.46 324.18 50.6 309.07 50.4 304.01C50.2359 295.942 50.5464 287.871 51.33 279.84L52.25 268.27L52.05 259.47L50.05 249.36L48.92 231.07L47.41 189.61L46.06 200.49L44.42 239.81L43.25 251.28L41.67 260.64L42.19 276.17C42.19 276.17 43.84 291.36 43.76 299.55C43.76 303.85 42.84 313.55 42.84 313.55L40.96 333.98L41.08 341.17L31.37 341.63L27.64 323.28L21.43 295.07C19.7621 288.24 20.0217 281.081 22.18 274.39L26.18 261.03L20.28 230.54C20.28 230.54 16.63 213.23 15.72 207.4C13.72 194.8 14.33 179.21 14.44 176.14C14.8351 164.605 18.8986 153.497 26.04 144.43V144.43Z" fill="#646464"/>
<path d="M67.1201 127.01L66.7501 130.01C68.324 130.239 69.867 130.645 71.3501 131.22C68.7901 132.4 59.8401 133.81 47.1001 133.81C34.3601 133.81 25.4201 132.38 22.8501 131.19C24.2388 130.643 25.6845 130.254 27.1601 130.03L26.7901 127.03C21.5801 128.03 19.3201 129.25 19.3201 131.18C19.3201 133.27 22.0001 134.59 28.3201 135.57C34.5411 136.444 40.8181 136.858 47.1001 136.81C53.3918 136.863 59.6789 136.452 65.9101 135.58C72.2001 134.58 74.9101 133.28 74.9101 131.19C74.9101 129.1 72.5401 127.97 67.1201 127.01Z" fill="#FF5923"/>
<path d="M78.3301 166.95L78.9001 170.04C79.7638 170.189 80.6185 170.386 81.4601 170.63C77.3101 171.87 64.8901 173.25 46.7301 173.25C28.5701 173.25 16.1501 171.87 12.0101 170.63C12.9958 170.347 13.9976 170.123 15.0101 169.96L15.5801 166.83C8.5801 167.97 7.8501 169.32 7.8501 170.63C7.8501 172.17 8.8501 173.78 20.1401 175.03C28.9951 175.92 37.8907 176.343 46.7901 176.3C55.672 176.358 64.5508 175.951 73.3901 175.08C84.7201 173.83 85.6701 172.22 85.6701 170.68C85.6201 169.4 84.9701 168.08 78.3301 166.95Z" fill="#FF5923"/>
<path d="M46.71 74.1204C33.54 74.1204 27.61 67.0304 27.61 67.0304L23.8 67.7204C26.8 79.2204 24.73 88.9104 21.23 94.9104L24.94 113.56H69.12L72.19 94.2804C67.19 85.2804 68.19 74.1704 69.19 67.5004L65.68 66.9004C60.5163 71.6503 53.7251 74.235 46.71 74.1204V74.1204Z" fill="#646464"/>
</g>
<g clip-path="url(#clip1_492_91323)">
<path d="M46.65 12C42.2402 12.0106 38.0144 13.7691 34.899 16.8902C31.7836 20.0112 30.0327 24.2402 30.03 28.65V53.38H63.33V28.65C63.33 26.461 62.8984 24.2934 62.0598 22.2714C61.2211 20.2494 59.992 18.4125 58.4427 16.8661C56.8935 15.3196 55.0544 14.0938 53.0309 13.2588C51.0074 12.4238 48.8391 11.9961 46.65 12V12Z" fill="#646464"/>
<path d="M51.97 27.04C50.1563 30.0563 47.389 32.382 44.1057 33.6497C40.8223 34.9174 37.2102 35.0548 33.84 34.04C33.84 34.69 33.77 35.34 33.77 36.04C33.77 46.63 39.59 55.21 46.77 55.21C53.95 55.21 59.77 46.63 59.77 36.04C59.7651 34.7016 59.6682 33.3652 59.48 32.04C56.5464 31.1335 53.9381 29.3969 51.97 27.04V27.04Z" fill="#BEBEBE"/>
</g>
<circle cx="141" cy="12" r="9" fill="#FF5923"/>
<path d="M137.045 15H138.407L139.164 13.3008H142.841L143.598 15H144.955L141.791 7.99805H140.214L137.045 15ZM139.672 12.1289L141 9.15039L142.328 12.1289H139.672Z" fill="white"/>
<circle cx="141" cy="132" r="9" fill="#FF5923"/>
<path d="M138.139 135H141.713C143.192 135 144.198 134.121 144.198 132.905C144.198 132.09 143.744 131.523 142.899 131.294C143.632 131.04 143.993 130.449 143.993 129.722C143.993 128.638 143.202 127.998 141.635 127.998H138.139V135ZM139.379 133.843V131.865H141.698C142.431 131.865 142.938 132.188 142.938 132.827C142.938 133.447 142.465 133.843 141.708 133.843H139.379ZM139.379 130.854V129.155H141.674C142.201 129.155 142.753 129.341 142.753 129.98C142.753 130.542 142.323 130.854 141.591 130.854H139.379Z" fill="white"/>
<circle cx="141" cy="171" r="9" fill="#FF5923"/>
<path d="M141.161 174.161C143.046 174.161 144.35 173.248 144.667 171.783L143.441 171.5C143.236 172.447 142.426 173.004 141.21 173.004C139.657 173.004 138.637 172.086 138.637 170.514C138.637 168.976 139.618 167.994 141.234 167.994C142.348 167.994 143.188 168.453 143.432 169.322L144.628 169.063C144.301 167.672 142.987 166.837 141.22 166.837C138.92 166.837 137.377 168.258 137.377 170.553C137.377 172.818 138.876 174.161 141.161 174.161Z" fill="white"/>
<line x1="76" y1="131.75" x2="129" y2="131.75" stroke="black" stroke-width="0.5"/>
<line x1="107.25" y1="12" x2="107.25" y2="370" stroke="black" stroke-width="0.5"/>
<line x1="107" y1="11.75" x2="129" y2="11.75" stroke="black" stroke-width="0.5"/>
<line x1="87" y1="170.75" x2="129" y2="170.75" stroke="black" stroke-width="0.5"/>
<defs>
<clipPath id="clip0_492_91323">
<rect width="93.87" height="318.81" fill="white" transform="translate(0 53)"/>
</clipPath>
<clipPath id="clip1_492_91323">
<rect width="33.3" height="43.18" fill="white" transform="translate(30 12)"/>
</clipPath>
</defs>
</svg>
