<svg width="163" height="360" viewBox="0 0 163 360" fill="none" xmlns="http://www.w3.org/2000/svg">
<g clip-path="url(#clip0_492_91324)">
<path d="M85.9599 175.52C86.2699 173.23 93.9599 143.05 93.8699 126.19C93.8199 113.47 88.8699 77.55 84.6999 66.47C80.5299 55.39 68.9999 55.87 59.6999 53.86C50.3999 51.85 52.8799 41 52.8799 41H41.0099C41.0099 41 43.5199 51.86 34.1999 53.86C24.8799 55.86 13.3599 55.4 9.19989 66.47C5.03989 77.54 0.0798916 113.47 0.0298916 126.19C-0.0301084 143.05 7.6299 173.19 7.9399 175.52C8.6699 180.93 6.74989 189.84 8.05989 194.9C9.15989 199.16 11.5399 203.56 17.0599 206.03C14.018 191.936 12.9245 177.491 13.8099 163.1C12.9199 148.83 11.9799 132.22 12.0699 126.69C12.2599 116.36 20.3699 87.01 20.3699 87.01L21.7599 82.39C21.7599 82.39 26.1699 108.1 27.3799 119.2C27.7399 122.57 29.2999 129.02 23.3799 137.13C19.0622 142.944 16.2829 149.755 15.2999 156.93C14.4299 165.77 13.2999 185.78 18.1899 206.5C21.6299 227.05 26.2599 246.92 26.2599 249.19C26.2599 253.71 18.7899 264.03 21.2599 281.53C23.7299 299.03 34.1199 330.45 32.3399 345.08C32.3399 345.08 32.7899 350.16 27.0199 354.27C26.7142 354.487 26.4236 354.724 26.1499 354.98C25.7409 355.364 25.457 355.863 25.3349 356.411C25.2128 356.959 25.2581 357.531 25.4651 358.052C25.6721 358.574 26.0311 359.022 26.4956 359.337C26.9601 359.652 27.5086 359.82 28.0699 359.82H38.2699C39.2628 359.834 40.2408 359.578 41.0999 359.08C41.9079 358.656 42.5467 357.969 42.9105 357.132C43.2743 356.296 43.3411 355.36 43.0999 354.48C42.2199 349.95 41.6999 347.76 42.0199 344.76C42.3594 340.587 42.1476 336.388 41.3899 332.27C40.5099 326.79 40.9199 311.27 42.8899 298.21C44.8599 285.15 41.6799 261.65 41.5899 256.36C41.2626 250.641 41.826 244.906 43.2599 239.36C45.1999 231.12 46.5699 172 46.5699 172L47.4599 171.64C47.4599 171.64 48.6699 231.12 50.5999 239.36C52.0338 244.906 52.5972 250.641 52.2699 256.36C52.1899 261.65 48.9999 285.14 50.9699 298.21C52.9399 311.28 53.3499 326.79 52.4699 332.27C51.7122 336.388 51.5004 340.587 51.8399 344.76C52.1599 347.76 51.6399 349.95 50.7699 354.48C50.5287 355.36 50.5955 356.296 50.9593 357.132C51.3231 357.969 51.9619 358.656 52.7699 359.08C53.6326 359.578 54.6139 359.834 55.6099 359.82H65.8999C66.4604 359.818 67.0075 359.649 67.4704 359.333C67.9333 359.017 68.2908 358.569 68.4965 358.048C68.7023 357.527 68.7468 356.955 68.6244 356.408C68.502 355.862 68.2183 355.364 67.8099 354.98C67.5362 354.724 67.2456 354.487 66.9399 354.27C61.1799 350.16 61.6199 345.08 61.6199 345.08C59.8399 330.45 70.2199 299.02 72.6999 281.53C75.1799 264.04 67.6999 253.71 67.6999 249.19C67.6999 246.92 72.3299 227.04 75.7799 206.49C79.6999 189.8 79.7799 173.04 79.2899 162.3C78.3899 150.66 75.2899 143.49 70.5999 137.13C64.6699 129.02 66.2199 122.57 66.5999 119.2C67.7999 108.1 72.0899 82.28 72.0899 82.28L73.7299 87.69C73.7299 87.69 81.7299 116.36 81.8999 126.69C81.9899 132.01 81.1199 147.6 80.2599 161.48C80.8299 172.11 80.7899 189.06 76.9199 206.02C82.3699 203.54 84.7399 199.15 85.8499 194.9C87.1499 189.81 85.2699 180.93 85.9599 175.52Z" fill="#BEBEBE"/>
<path d="M73.11 56.4102L68.79 55.4102L67.35 79.1501C60.52 76.2701 52.21 78.4402 47.67 82.7702C41.9 78.0702 32.99 76.1602 26.24 79.1902L24.84 55.4601L20.52 56.4601L21.69 82.3601L24.84 101.64L69.04 101.45L72.04 82.3501L73.11 56.4102Z" fill="#646464"/>
<path d="M67.1199 115L66.7499 118C68.3488 118.223 69.916 118.633 71.4199 119.22C68.8499 120.41 59.9099 121.84 47.1699 121.84C34.4299 121.84 25.4899 120.41 22.9199 119.22C24.2854 118.678 25.7078 118.292 27.1599 118.07L26.7899 115.07C21.6299 116.07 19.3899 117.28 19.3899 119.2C19.3899 121.29 22.0699 122.61 28.3899 123.59C40.8796 125.23 53.5302 125.23 66.0199 123.59C72.3099 122.59 75.0199 121.29 75.0199 119.2C75.0199 117.11 72.5899 115.96 67.1199 115Z" fill="#FF5923"/>
<path d="M68.11 247.12L69.2899 240.54C69.2899 240.54 79.99 194.92 79.99 170.97C79.99 143.97 67.93 132.43 67.93 132.43C67.93 132.43 46.6899 137.04 26.11 132.43C18.951 141.514 14.8831 152.65 14.4999 164.21C14.3999 167.28 13.8299 182.87 15.7799 195.47C16.6899 201.3 20.34 218.61 20.34 218.61L25.85 247.12" fill="#646464"/>
<path d="M78.38 154.72L78.95 157.86C79.87 158.04 80.6501 158.22 81.2401 158.4C77.1001 159.64 64.7101 161.02 46.5901 161.02C28.4701 161.02 16.08 159.64 11.95 158.4C12.9976 158.097 14.063 157.86 15.14 157.69C15.25 157 15.4601 155.58 15.6301 154.58C8.49005 155.73 7.80005 157.09 7.80005 158.4C7.80005 159.94 8.75004 161.55 20.06 162.8C28.8759 163.671 37.7315 164.078 46.5901 164.02C55.4518 164.081 64.3106 163.677 73.13 162.81C84.44 161.56 85.38 159.95 85.38 158.41C85.38 157.14 84.74 155.81 78.38 154.72Z" fill="#FF5923"/>
</g>
<g clip-path="url(#clip1_492_91324)">
<path d="M65.54 26.5898C65.54 23.2598 63.81 23.0098 63.54 20.1298C64.0605 17.7022 64.0315 15.1889 63.4551 12.7739C62.8787 10.3589 61.7695 8.1034 60.2087 6.17252C58.648 4.24163 56.6751 2.68425 54.4347 1.61438C52.1942 0.544511 49.7428 -0.0107422 47.26 -0.0107422C44.7772 -0.0107422 42.3258 0.544511 40.0853 1.61438C37.8449 2.68425 35.872 4.24163 34.3112 6.17252C32.7504 8.1034 31.6413 10.3589 31.0649 12.7739C30.4885 15.1889 30.4595 17.7022 30.98 20.1298C30.72 23.0198 28.98 23.2598 28.98 26.5998C28.98 30.1998 30.98 30.1998 30.98 33.7998C30.98 37.3998 28.98 37.3998 28.98 40.9998H46.06V33.2498C46.46 33.2498 46.85 33.3098 47.25 33.3098C47.65 33.3098 48.04 33.3098 48.44 33.2498V40.9898H65.52C65.52 37.3898 63.52 37.3898 63.52 33.7898C63.52 30.1898 65.54 30.1898 65.54 26.5898Z" fill="#646464"/>
<path d="M35.5401 15.8096C34.6977 18.4611 34.2726 21.2275 34.2801 24.0096C34.2801 34.5996 40.0901 43.1796 47.2801 43.1796C54.4701 43.1796 60.2801 34.5996 60.2801 24.0096C60.2877 21.2275 59.8626 18.4611 59.0201 15.8096H35.5401Z" fill="#BEBEBE"/>
</g>
<circle cx="151" cy="120" r="9" fill="#FF5923"/>
<path d="M147.045 123H148.407L149.164 121.301H152.841L153.598 123H154.955L151.791 115.998H150.214L147.045 123ZM149.672 120.129L151 117.15L152.328 120.129H149.672Z" fill="white"/>
<circle cx="151" cy="159" r="9" fill="#FF5923"/>
<path d="M148.139 162H151.713C153.192 162 154.198 161.121 154.198 159.905C154.198 159.09 153.744 158.523 152.899 158.294C153.632 158.04 153.993 157.449 153.993 156.722C153.993 155.638 153.202 154.998 151.635 154.998H148.139V162ZM149.379 160.843V158.865H151.698C152.431 158.865 152.938 159.188 152.938 159.827C152.938 160.447 152.465 160.843 151.708 160.843H149.379ZM149.379 157.854V156.155H151.674C152.201 156.155 152.753 156.341 152.753 156.98C152.753 157.542 152.323 157.854 151.591 157.854H149.379Z" fill="white"/>
<line x1="77" y1="119.75" x2="139" y2="119.75" stroke="black" stroke-width="0.5"/>
<line x1="88" y1="158.75" x2="139" y2="158.75" stroke="black" stroke-width="0.5"/>
<defs>
<clipPath id="clip0_492_91324">
<rect width="93.87" height="318.81" fill="white" transform="translate(0 41)"/>
</clipPath>
<clipPath id="clip1_492_91324">
<rect width="36.54" height="43.18" fill="white" transform="translate(29)"/>
</clipPath>
</defs>
</svg>
