<svg width="154" height="361" viewBox="0 0 154 361" fill="none" xmlns="http://www.w3.org/2000/svg">
<g clip-path="url(#clip0_492_91325)">
<path d="M85.9701 176.52C86.2701 174.23 93.9701 144.05 93.8801 127.19C93.8301 114.47 88.8801 78.55 84.7101 67.47C80.5401 56.39 69.0001 56.87 59.7101 54.86C50.4201 52.85 52.8901 42 52.8901 42H41.0201C41.0201 42 43.5201 52.86 34.2001 54.86C24.8801 56.86 13.3701 56.4 9.20012 67.47C5.03012 78.54 0.0801353 114.47 0.0301353 127.19C-0.0298647 144.05 7.64011 174.19 7.94011 176.52C8.67011 181.93 6.75013 190.84 8.06013 195.9C8.99013 199.48 10.2801 202.58 14.0601 205.13C13.3701 195.5 13.0601 186.68 13.0601 179.43C12.8401 173.34 12.9701 167.89 13.2201 163.52C12.3201 149.26 11.9201 133.22 12.0201 127.69C12.2001 117.36 20.3201 88.01 20.3201 88.01L21.7001 83.39C21.7001 83.39 26.1101 109.1 27.3201 120.2C27.6901 123.57 29.2401 130.02 23.3201 138.13C19.0047 143.946 16.2256 150.756 15.2401 157.93C15.0901 159.52 14.9201 161.47 14.7901 163.72C14.6701 167 14.5401 172.77 14.6101 180.17C14.8888 189.37 16.0508 198.522 18.0801 207.5C21.5201 228.05 26.1601 247.92 26.1601 250.19C26.1601 254.71 18.6801 265.03 21.1601 282.53C23.6401 300.03 34.0801 331.45 32.2801 346.08C32.2801 346.08 32.7301 351.16 26.9701 355.27C26.6629 355.489 26.369 355.726 26.0901 355.98C25.6812 356.364 25.3972 356.863 25.2751 357.411C25.153 357.959 25.1984 358.531 25.4053 359.052C25.6123 359.574 25.9714 360.022 26.4358 360.337C26.9003 360.652 27.4488 360.82 28.0101 360.82H38.3001C39.296 360.833 40.277 360.577 41.1401 360.08C41.9481 359.656 42.587 358.969 42.9507 358.132C43.3145 357.296 43.3813 356.36 43.1401 355.48C42.2701 350.95 41.7401 348.76 42.0701 345.76C42.4096 341.587 42.1978 337.388 41.4401 333.27C40.5601 327.79 40.9601 312.27 42.9301 299.21C44.9001 286.15 41.7201 262.65 41.6301 257.36C41.3079 251.641 41.8713 245.907 43.3001 240.36C45.2401 232.12 46.6101 173 46.6101 173L47.5001 172.64C47.5001 172.64 48.7101 232.12 50.6501 240.36C52.079 245.907 52.6423 251.641 52.3201 257.36C52.2301 262.65 49.0401 286.14 51.0201 299.21C53.0001 312.28 53.3901 327.79 52.5101 333.27C51.7524 337.388 51.5406 341.587 51.8801 345.76C52.2101 348.76 51.6801 350.95 50.8101 355.48C50.5689 356.36 50.6358 357.296 50.9995 358.132C51.3633 358.969 52.0022 359.656 52.8101 360.08C53.6733 360.577 54.6542 360.833 55.6501 360.82H65.9401C66.5014 360.82 67.0499 360.652 67.5144 360.337C67.9789 360.022 68.3379 359.574 68.5449 359.052C68.7519 358.531 68.7973 357.959 68.6752 357.411C68.553 356.863 68.2691 356.364 67.8601 355.98C67.5812 355.726 67.2874 355.489 66.9801 355.27C61.2201 351.16 61.6601 346.08 61.6601 346.08C59.8801 331.45 70.2601 300.02 72.7401 282.53C75.2201 265.04 67.7401 254.71 67.7401 250.19C67.7401 247.92 72.3801 228.04 75.8201 207.49C77.9937 197.887 79.213 188.093 79.4601 178.25C79.4601 167.98 79.1401 161.45 79.1301 161.33C78.0401 150.83 75.0001 144.12 70.6201 138.13C64.6901 130.02 66.2401 123.57 66.6201 120.2C67.8201 109.1 72.1201 83.28 72.1201 83.28L73.7501 88.69C73.7501 88.69 81.7501 117.36 81.9201 127.69C82.0101 133.01 81.1501 148.6 80.2801 162.48C80.5101 166.79 80.6401 172.15 80.4501 178.11C80.4501 185.6 80.2001 195.11 79.4501 205.58C82.6997 203.251 84.9752 199.804 85.8401 195.9C87.1601 190.81 85.2401 181.93 85.9701 176.52Z" fill="#BEBEBE"/>
<path d="M75.7501 146.16C74.5901 142.67 71.91 136.35 65.98 128.31L72.0801 83.0904C64.6101 72.3304 49.6501 78.0903 46.8001 87.1803C43.9601 78.0603 29.1501 72.4403 21.6801 83.1803L27.6801 128.3C23.6475 133.545 20.4684 139.394 18.26 145.63C10.34 160.81 16.0801 213.96 16.0801 213.96L20.5901 276.31H73.1401L77.6501 213.96C77.6501 213.96 83.2301 161.96 75.7501 146.16Z" fill="#646464"/>
<path d="M67.62 116.15L67.22 119.15C68.5418 119.36 69.8364 119.715 71.08 120.21C68.51 121.4 59.57 122.83 46.83 122.83C34.09 122.83 25.15 121.4 22.57 120.21C23.8088 119.719 25.0959 119.36 26.41 119.14L26.02 116.14C21.16 117.08 19.02 118.33 19.02 120.14C19.02 122.23 21.7 123.55 28.02 124.53C40.5097 126.17 53.1603 126.17 65.65 124.53C71.93 123.53 74.65 122.23 74.65 120.14C74.63 118.34 72.5 117.1 67.62 116.15Z" fill="#FF5923"/>
<path d="M71.6 86.7197L71.2 89.7197C72.4013 89.923 73.5824 90.2309 74.73 90.6398C71.66 91.8698 61.6601 93.2598 47.0001 93.2598C32.3401 93.2598 22.35 91.8698 19.2701 90.6398C20.3383 90.2623 21.4352 89.9714 22.55 89.7698L22.16 86.7698C16.79 87.7698 15.5601 89.0797 15.5601 90.5997C15.5601 92.4097 17.2701 93.8498 25.6201 94.9998C39.827 96.6264 54.1731 96.6264 68.38 94.9998C76.73 93.8498 78.44 92.4097 78.44 90.5997C78.44 89.0597 77.18 87.8097 71.6 86.7197Z" fill="#FF5923"/>
<path d="M78.2501 155.66H78.3001L78.8201 158.75C79.6997 158.906 80.5708 159.106 81.4301 159.35C77.2901 160.59 64.8601 161.97 46.7101 161.97C28.5601 161.97 16.1301 160.59 11.9801 159.35C12.9671 159.072 13.9686 158.849 14.9801 158.68L15.4301 155.57C8.53011 156.71 7.8501 158.05 7.8501 159.35C7.8501 160.89 8.8001 162.5 20.1301 163.75C37.8228 165.377 55.6274 165.377 73.3201 163.75C84.6601 162.5 85.6101 160.89 85.6101 159.35C85.5901 158.12 84.9301 156.81 78.2501 155.66Z" fill="#FF5923"/>
</g>
<path d="M65.1 31.3504C65.1 25.3504 63.69 25.1304 63.6 19.4904C63.66 18.8804 63.71 18.2604 63.71 17.6404C63.7645 15.4189 63.3739 13.209 62.5614 11.1407C61.7489 9.07236 60.5308 7.18749 58.9788 5.59705C57.4269 4.0066 55.5724 2.74271 53.5247 1.87976C51.4769 1.01681 49.2772 0.572266 47.055 0.572266C44.8328 0.572266 42.6331 1.01681 40.5853 1.87976C38.5376 2.74271 36.6831 4.0066 35.1312 5.59705C33.5792 7.18749 32.3612 9.07236 31.5486 11.1407C30.7361 13.209 30.3456 15.4189 30.4 17.6404C30.4 18.0704 30.4 18.5004 30.47 18.9304C30.47 25.1404 29.01 25.1404 29.01 31.3504C29.01 37.5604 30.47 37.5604 30.47 43.7804C30.47 50.0004 29.01 49.9904 29.01 56.2004H41.3V33.2004C44.8348 34.5317 48.7213 34.5988 52.3 33.3904V56.1604H65.11C65.11 49.9504 63.6 49.9504 63.6 43.7404C63.6 37.5304 65.1 37.5804 65.1 31.3504Z" fill="#646464"/>
<path d="M60.0201 25.0197C56.684 25.0177 53.4332 23.9657 50.7283 22.0129C48.0235 20.0601 46.0019 17.3056 44.9501 14.1396L34.0601 25.0096C34.0601 35.5996 39.8801 44.1696 47.0601 44.1696C54.2401 44.1696 60.0601 35.5996 60.0601 25.0096L60.0201 25.0197Z" fill="#BEBEBE"/>
<circle cx="142" cy="121" r="9" fill="#FF5923"/>
<path d="M139.139 124H142.713C144.192 124 145.198 123.121 145.198 121.905C145.198 121.09 144.744 120.523 143.899 120.294C144.632 120.04 144.993 119.449 144.993 118.722C144.993 117.638 144.202 116.998 142.635 116.998H139.139V124ZM140.379 122.843V120.865H142.698C143.431 120.865 143.938 121.188 143.938 121.827C143.938 122.447 143.465 122.843 142.708 122.843H140.379ZM140.379 119.854V118.155H142.674C143.201 118.155 143.753 118.341 143.753 118.98C143.753 119.542 143.323 119.854 142.591 119.854H140.379Z" fill="white"/>
<circle cx="142" cy="160" r="9" fill="#FF5923"/>
<path d="M142.161 163.161C144.046 163.161 145.35 162.248 145.667 160.783L144.441 160.5C144.236 161.447 143.426 162.004 142.21 162.004C140.657 162.004 139.637 161.086 139.637 159.514C139.637 157.976 140.618 156.994 142.234 156.994C143.348 156.994 144.188 157.453 144.432 158.322L145.628 158.063C145.301 156.672 143.987 155.837 142.22 155.837C139.92 155.837 138.377 157.258 138.377 159.553C138.377 161.818 139.876 163.161 142.161 163.161Z" fill="white"/>
<circle cx="142" cy="91" r="9" fill="#FF5923"/>
<path d="M138.045 94H139.407L140.164 92.3008H143.841L144.598 94H145.955L142.791 86.998H141.214L138.045 94ZM140.672 91.1289L142 88.1504L143.328 91.1289H140.672Z" fill="white"/>
<line x1="77" y1="120.75" x2="130" y2="120.75" stroke="black" stroke-width="0.5"/>
<line x1="88" y1="159.75" x2="130" y2="159.75" stroke="black" stroke-width="0.5"/>
<line x1="80" y1="90.75" x2="130" y2="90.75" stroke="black" stroke-width="0.5"/>
<defs>
<clipPath id="clip0_492_91325">
<rect width="93.87" height="318.81" fill="white" transform="translate(0 42)"/>
</clipPath>
</defs>
</svg>
