<svg width="154" height="358" viewBox="0 0 154 358" fill="none" xmlns="http://www.w3.org/2000/svg">
<g clip-path="url(#clip0_492_91326)">
<path d="M86.0001 173.05C86.3101 170.77 94.0001 140.59 93.9101 123.72C93.8201 111 88.9001 75.09 84.7001 64C80.5001 52.91 69.0001 53.4 59.6801 51.4C50.3601 49.4 52.8601 38.54 52.8601 38.54H41.0001C41.0001 38.54 43.5201 49.39 34.2001 51.4C24.8801 53.41 13.3601 52.93 9.17011 64C4.98011 75.07 0.0501065 111 0.00010649 123.72C-0.0598935 140.59 7.60011 170.77 7.91011 173.05C8.64011 178.46 6.72011 187.38 8.03011 192.43C9.13011 196.7 11.5101 201.1 17.0301 203.57C13.9882 189.473 12.8946 175.025 13.7801 160.63C12.8901 146.37 11.9501 129.75 12.0401 124.23C12.2301 113.89 20.3401 84.55 20.3401 84.55L21.7301 79.92C21.7301 79.92 26.1401 105.64 27.3501 116.74C27.7101 120.11 29.2701 126.55 23.3501 134.67C19.0305 140.479 16.2509 147.287 15.2701 154.46C14.4001 163.31 13.2701 183.32 18.1601 204.03C21.6001 224.58 26.2301 244.45 26.2301 246.71C26.2301 251.24 18.7601 261.56 21.2301 279.05C23.7001 296.54 34.0601 328 32.2801 342.61C32.2801 342.61 32.7301 347.7 26.9601 351.8C26.6568 352.02 26.3664 352.257 26.0901 352.51C25.6818 352.894 25.398 353.392 25.2756 353.938C25.1532 354.485 25.1977 355.057 25.4035 355.578C25.6092 356.099 25.9667 356.547 26.4296 356.863C26.8925 357.179 27.4396 357.348 28.0001 357.35H38.3001C39.2915 357.362 40.2684 357.11 41.1301 356.62C41.9381 356.196 42.5769 355.509 42.9407 354.672C43.3045 353.836 43.3713 352.9 43.1301 352.02C42.2501 347.48 41.7301 345.29 42.0501 342.3C42.3897 338.127 42.1779 333.928 41.4201 329.81C40.5401 324.33 40.9501 308.81 42.9201 295.75C44.8901 282.69 41.7101 259.19 41.6201 253.89C41.2921 248.171 41.8555 242.436 43.2901 236.89C45.2301 228.65 46.6001 169.52 46.6001 169.52L47.4901 169.16C47.4901 169.16 48.7001 228.65 50.6301 236.89C52.0647 242.436 52.6281 248.171 52.3001 253.89C52.2201 259.19 49.0301 282.67 51.0001 295.75C52.9701 308.83 53.3801 324.33 52.5001 329.81C51.7423 333.928 51.5305 338.127 51.8701 342.3C52.1901 345.3 51.6701 347.48 50.8001 352.02C50.5589 352.9 50.6257 353.836 50.9895 354.672C51.3533 355.509 51.9921 356.196 52.8001 356.62C53.6655 357.11 54.6455 357.362 55.6401 357.35H65.9001C66.4606 357.348 67.0077 357.179 67.4706 356.863C67.9335 356.547 68.291 356.099 68.4967 355.578C68.7025 355.057 68.747 354.485 68.6246 353.938C68.5022 353.392 68.2185 352.894 67.8101 352.51C67.5339 352.257 67.2434 352.02 66.9401 351.8C61.1801 347.7 61.6201 342.61 61.6201 342.61C59.8401 327.98 70.2201 296.56 72.7001 279.06C75.1801 261.56 67.7001 251.25 67.7001 246.72C67.7001 244.46 72.3301 224.58 75.7801 204.02C79.7001 187.34 79.7801 170.58 79.2901 159.83C78.3901 148.19 75.2901 141.03 70.6001 134.67C64.6701 126.55 66.2201 120.11 66.6001 116.74C67.8001 105.64 72.0901 79.82 72.0901 79.82L73.7301 85.23C73.7301 85.23 81.7301 113.89 81.9001 124.23C81.9901 129.55 81.1201 145.13 80.2601 159.02C80.8301 169.65 80.7901 186.59 76.9201 203.56C82.3701 201.08 84.7401 196.69 85.8501 192.43C87.1501 187.38 85.2301 178.46 86.0001 173.05Z" fill="#BEBEBE"/>
<path d="M66.1 125L72.59 81.0001L68.45 52.9201L63.3601 52.0801L46.46 78.0801L29.92 52.1801L25.47 52.9101L21.2901 81.0001L27.7701 125C18.55 137.54 17.3 146 17.3 146C17.3 146 40.6801 154.9 46.4901 173.45H47.57C53.3801 154.9 76.57 146 76.57 146C76.57 146 75.32 137.54 66.1 125Z" fill="#646464"/>
<path d="M78.2601 152.2L78.3201 152.25L78.8301 155.34C79.9001 155.54 80.8301 155.74 81.4501 155.93C77.3001 157.18 64.8801 158.56 46.7201 158.56C28.5601 158.56 16.1401 157.18 12.0001 155.93C13.0527 155.637 14.121 155.403 15.2001 155.23C15.3101 154.54 15.5201 153.12 15.6901 152.11C8.53009 153.26 7.84009 154.62 7.84009 155.93C7.84009 157.48 8.79009 159.09 20.1301 160.34C28.9664 161.206 37.8416 161.613 46.7201 161.56C55.6019 161.613 64.4804 161.206 73.3201 160.34C84.6501 159.09 85.6001 157.48 85.6001 155.93C85.6001 154.65 84.9401 153.33 78.2601 152.2Z" fill="#FF5923"/>
<path d="M66.9999 119L66.5599 122C68.0769 122.196 69.5665 122.565 70.9999 123.1C68.4299 124.29 59.4999 125.72 46.7499 125.72C33.9999 125.72 24.9999 124.29 22.4699 123.1C24.0262 122.498 25.647 122.078 27.2999 121.85L26.8699 118.85C21.3299 119.85 18.9399 121.1 18.9399 123.08C18.9399 125.06 21.6199 126.49 27.9399 127.47C34.1711 128.342 40.4582 128.753 46.7499 128.7C53.045 128.753 59.3354 128.342 65.5699 127.47C71.8499 126.47 74.5699 125.17 74.5699 123.08C74.4999 121.17 72.2299 119.91 66.9999 119Z" fill="#FF5923"/>
<path d="M70.17 97.4396L69.73 100.44C70.5707 100.624 71.3964 100.871 72.2 101.18C69.6 102.28 61.11 103.8 46.66 103.8C32.21 103.8 23.72 102.28 21.11 101.18C22.0876 100.827 23.0905 100.55 24.11 100.35L23.68 97.3496C18.46 98.4796 17.5 99.8296 17.5 101.15C17.5 102.71 18.63 104.32 26.86 105.55C33.4167 106.419 40.0262 106.826 46.64 106.77C53.2504 106.827 59.8567 106.419 66.41 105.55C74.65 104.32 75.78 102.71 75.78 101.15C75.8 99.8696 75 98.5496 70.17 97.4396Z" fill="#FF5923"/>
<path d="M46.7201 33.3C55.9156 33.3 63.3701 25.8455 63.3701 16.65C63.3701 7.45446 55.9156 0 46.7201 0C37.5245 0 30.0701 7.45446 30.0701 16.65C30.0701 25.8455 37.5245 33.3 46.7201 33.3Z" fill="#646464"/>
<path d="M63.3701 16.6504H30.0701V41.3804H63.3701V16.6504Z" fill="#646464"/>
<path d="M52 15C50.1863 18.0162 47.419 20.342 44.1357 21.6097C40.8524 22.8774 37.2402 23.0147 33.87 22C33.87 22.65 33.8 23.3 33.8 24C33.8 34.59 39.62 43.17 46.8 43.17C53.98 43.17 59.8 34.59 59.8 24C59.8023 22.6613 59.7053 21.3243 59.51 20C56.5789 19.0883 53.9719 17.3526 52 15Z" fill="#BEBEBE"/>
<path d="M72.5899 81L72.1599 83.91C73.0718 84.0694 73.966 84.3173 74.8299 84.65C71.7599 85.87 61.7599 87.27 47.0999 87.27C32.4399 87.27 22.4399 85.87 19.3699 84.65C20.1375 84.3801 20.9227 84.1629 21.7199 84L21.2899 81C16.8299 82 15.6599 83.23 15.6599 84.65C15.6599 86.46 17.3699 87.9 25.7199 89.05C32.8126 89.9195 39.9543 90.327 47.0999 90.27C54.2455 90.327 61.3872 89.9195 68.4799 89.05C76.8299 87.9 78.5399 86.46 78.5399 84.65C78.5399 83.16 77.6699 82 72.5899 81Z" fill="#FF5923"/>
</g>
<circle cx="142" cy="124" r="9" fill="#FF5923"/>
<path d="M142.161 127.161C144.046 127.161 145.35 126.248 145.667 124.783L144.441 124.5C144.236 125.447 143.426 126.004 142.21 126.004C140.657 126.004 139.637 125.086 139.637 123.514C139.637 121.976 140.618 120.994 142.234 120.994C143.348 120.994 144.188 121.453 144.432 122.322L145.628 122.063C145.301 120.672 143.987 119.837 142.22 119.837C139.92 119.837 138.377 121.258 138.377 123.553C138.377 125.818 139.876 127.161 142.161 127.161Z" fill="white"/>
<circle cx="142" cy="102" r="9" fill="#FF5923"/>
<path d="M139.139 105H142.713C144.192 105 145.198 104.121 145.198 102.905C145.198 102.09 144.744 101.523 143.899 101.294C144.632 101.04 144.993 100.449 144.993 99.7217C144.993 98.6377 144.202 97.998 142.635 97.998H139.139V105ZM140.379 103.843V101.865H142.698C143.431 101.865 143.938 102.188 143.938 102.827C143.938 103.447 143.465 103.843 142.708 103.843H140.379ZM140.379 100.854V99.1553H142.674C143.201 99.1553 143.753 99.3408 143.753 99.9805C143.753 100.542 143.323 100.854 142.591 100.854H140.379Z" fill="white"/>
<circle cx="142" cy="84" r="9" fill="#FF5923"/>
<path d="M138.045 87H139.407L140.164 85.3008H143.841L144.598 87H145.955L142.791 79.998H141.214L138.045 87ZM140.672 84.1289L142 81.1504L143.328 84.1289H140.672Z" fill="white"/>
<circle cx="142" cy="157" r="9" fill="#FF5923"/>
<path d="M138.738 160H141.858C144.114 160 145.604 158.643 145.604 156.47C145.604 154.316 144.144 152.998 141.917 152.998H138.738V160ZM139.979 158.828V154.17H141.731C143.67 154.17 144.344 155.244 144.344 156.489C144.344 157.734 143.67 158.828 141.731 158.828H139.979Z" fill="white"/>
<line x1="77" y1="123.75" x2="130" y2="123.75" stroke="black" stroke-width="0.5"/>
<line x1="77" y1="101.75" x2="130" y2="101.75" stroke="black" stroke-width="0.5"/>
<line x1="81" y1="83.75" x2="130" y2="83.75" stroke="black" stroke-width="0.5"/>
<line x1="87" y1="156.75" x2="130" y2="156.75" stroke="black" stroke-width="0.5"/>
<defs>
<clipPath id="clip0_492_91326">
<rect width="93.87" height="357.35" fill="white"/>
</clipPath>
</defs>
</svg>
