<svg width="30" height="30" viewBox="0 0 30 30" fill="none" xmlns="http://www.w3.org/2000/svg">
<path fill-rule="evenodd" clip-rule="evenodd" d="M12.4396 7.152C12.3425 7.36512 12.2523 7.58204 12.1694 7.80249C12.7586 7.93178 13.3711 8 14 8C14.9942 8 15.9479 7.82949 16.8339 7.51629C15.9534 7.18268 14.9984 7 14 7C13.4656 7 12.9439 7.05233 12.4396 7.152ZM18.0467 8.09738C16.8184 8.67644 15.4464 9 14 9C13.2651 9 12.5492 8.91647 11.8615 8.75821C11.7392 9.21143 11.6465 9.67686 11.5856 10.1523C12.3504 10.3785 13.1606 10.5 14 10.5C15.9039 10.5 17.6607 9.87458 19.0775 8.81752C18.7541 8.55158 18.4095 8.31057 18.0467 8.09738ZM19.8189 9.50991C18.2114 10.7571 16.1919 11.5 14 11.5C13.1372 11.5 12.3006 11.3849 11.5051 11.1689C11.5017 11.2788 11.5 11.3892 11.5 11.5C11.5 11.8872 11.5209 12.2692 11.5617 12.6452C12.3335 12.8759 13.1519 13 14 13C16.5288 13 18.7994 11.8963 20.3571 10.1426C20.1886 9.92243 20.0089 9.71125 19.8189 9.50991ZM20.9292 10.9989C19.1966 12.8454 16.733 14 14 14C13.2206 14 12.4626 13.906 11.7369 13.7287C11.8546 14.2734 12.0146 14.8024 12.2132 15.312C12.7889 15.4351 13.3866 15.5 14 15.5C17.0348 15.5 19.6988 13.9098 21.2032 11.5149C21.118 11.3393 21.0266 11.1672 20.9292 10.9989ZM21.646 12.639C19.9164 14.9804 17.1359 16.5 14 16.5C13.5656 16.5 13.1378 16.4708 12.7185 16.4142C13.0152 16.9735 13.3611 17.5028 13.7504 17.9964C13.8333 17.9988 13.9165 18 14 18C17.4457 18 20.4137 15.9496 21.7482 13.0004C21.7169 12.8788 21.6828 12.7583 21.646 12.639ZM21.992 14.6379C20.4085 17.0959 17.7217 18.7768 14.6306 18.9794C15.0981 19.4401 15.6086 19.8573 16.1555 20.2244C18.8703 19.515 21.0574 17.4955 21.9991 14.8819C21.998 14.8003 21.9956 14.7189 21.992 14.6379ZM21.4698 17.8702C20.4011 19.2283 18.97 20.2878 17.3218 20.9029C17.7654 21.1241 18.2268 21.3147 18.7033 21.4722C19.9421 20.5703 20.9116 19.3222 21.4698 17.8702ZM17.6198 22.1363C16.9799 21.8725 16.3691 21.5527 15.7935 21.183C14.7817 20.5332 13.8786 19.7292 13.1172 18.8043C12.4087 17.9436 11.8226 16.9779 11.386 15.9338C11.0116 15.0385 10.7471 14.0858 10.6095 13.0928C10.5373 12.572 10.5 12.0402 10.5 11.5C10.5 11.1492 10.5157 10.8018 10.5465 10.4588C10.6227 9.61 10.7912 8.7875 11.042 8.00154C11.0961 7.83184 11.1541 7.66385 11.2157 7.49767C10.8562 7.63117 10.5088 7.78981 10.1757 7.97147C10.1067 8.00906 10.0387 8.04723 9.97175 8.08612C9.8276 8.59503 9.71488 9.1172 9.63582 9.65041C9.54638 10.2537 9.5 10.8713 9.5 11.5C9.5 11.6581 9.50293 11.8154 9.50874 11.972C9.54251 12.8824 9.67358 13.7675 9.89172 14.6174C10.1637 15.6772 10.5713 16.6827 11.0949 17.6145C11.7169 18.7213 12.5026 19.7239 13.4192 20.5896C14.2868 21.4089 15.2714 22.1053 16.3452 22.6509C16.7875 22.5155 17.2136 22.3427 17.6198 22.1363ZM14.8531 22.9551C14.14 22.5093 13.4716 21.9987 12.8561 21.4318C10.2945 21.1242 8.04729 19.798 6.53034 17.8703C7.684 20.8707 10.5933 23 14 23C14.2883 23 14.5729 22.9848 14.8531 22.9551ZM6.00085 14.8819C6.92051 17.4341 9.02715 19.4192 11.6533 20.172C11.1527 19.5753 10.7027 18.9347 10.31 18.2566C8.53693 17.5086 7.03881 16.2382 6.00804 14.638C6.00443 14.719 6.00203 14.8003 6.00085 14.8819ZM6.2518 13.0004C6.95573 14.556 8.11468 15.8621 9.55848 16.7488C9.3286 16.2045 9.13337 15.642 8.97556 15.064C7.95601 14.4275 7.06602 13.603 6.35395 12.6391C6.31716 12.7583 6.28308 12.8788 6.2518 13.0004ZM6.79684 11.5149C7.2997 12.3154 7.93236 13.0262 8.66523 13.6178C8.59506 13.1726 8.54666 12.7202 8.52115 12.2618C7.99577 11.8904 7.50983 11.4669 7.07077 10.9989C6.9734 11.1672 6.882 11.3393 6.79684 11.5149ZM7.6429 10.1426C7.91134 10.4448 8.20099 10.7277 8.5095 10.989C8.52418 10.5947 8.55579 10.2046 8.60363 9.81951C8.45986 9.72012 8.31898 9.61687 8.18113 9.50991C7.99109 9.71125 7.8114 9.92243 7.6429 10.1426ZM22.9223 16.1875C22.5803 18.782 21.133 21.0279 19.0706 22.4367C18.274 22.9808 17.3853 23.4004 16.4324 23.6673C15.6582 23.8842 14.8422 24 14 24C9.02944 24 5 19.9706 5 15L5.00007 14.9647C5.00283 14.2663 5.08524 13.585 5.23889 12.9318C5.36847 12.3809 5.54864 11.8495 5.77421 11.3429C6.00325 10.8284 6.27907 10.3396 6.59621 9.88162C6.94939 9.37166 7.35385 8.90003 7.80213 8.47414C8.25393 8.04492 8.75027 7.66123 9.28439 7.33209C9.42068 7.24811 9.5586 7.16894 9.69689 7.09353C10.4057 6.70696 11.1725 6.41284 11.9808 6.22751C12.6304 6.07857 13.3063 6 14 6C15.5576 6 17.0243 6.39613 18.3031 7.09353C18.9948 7.47076 19.6314 7.93601 20.1979 8.47415C20.6461 8.90003 21.0506 9.37166 21.4038 9.88162C21.7209 10.3396 21.9967 10.8284 22.2258 11.3429C22.4514 11.8495 22.6315 12.3809 22.7611 12.9318C22.8986 13.5161 22.979 14.1221 22.9964 14.7434C23.0739 14.8103 23.1493 14.8847 23.219 14.9584C23.3838 15.1325 23.5645 15.3546 23.7366 15.6066C24.0742 16.1007 24.4144 16.7617 24.4964 17.44C24.6282 18.5306 24.0281 19.1957 23.5708 19.7024L23.5696 19.7038C23.0898 20.2355 22.7591 20.6085 22.7742 21.2345C22.8016 22.3627 23.7322 23 24.5 23C24.7761 23 25 23.2239 25 23.5C25 23.7761 24.7761 24 24.5 24C23.2678 24 21.8169 23.0049 21.7745 21.2587C21.7494 20.2237 22.3331 19.5793 22.7732 19.0936C22.7914 19.0734 22.8094 19.0535 22.8272 19.0339C23.294 18.5165 23.5762 18.1604 23.5036 17.56C23.4497 17.1138 23.2121 16.6154 22.9223 16.1875Z" fill="black"/>
</svg>
